<?xml version="1.0" encoding="utf-8"?><svg xmlns="http://www.w3.org/2000/svg" xmlns:xlink="http://www.w3.org/1999/xlink"><symbol viewBox="0 0 6.84 11.61" id="arrow" xmlns="http://www.w3.org/2000/svg"><path d="M5.84 11.61a1 1 0 01-.7-.3L.29 6.47a1 1 0 010-1.41L5.06.29a1 1 0 011.41 0 1 1 0 010 1.42L2.41 5.76 6.55 9.9a1 1 0 01-.71 1.71z" data-name="圖層 2"/></symbol><symbol viewBox="0 0 13.51 11.61" id="arrow-duble" xmlns="http://www.w3.org/2000/svg"><g data-name="圖層 2"><path d="M5.76 11.61a1 1 0 01-.7-.3L.29 6.55a1 1 0 010-1.41L5.14.29a1 1 0 011.41 0 1 1 0 010 1.42L2.41 5.84 6.47 9.9a1 1 0 010 1.41 1 1 0 01-.71.3z"/><path d="M12.43 11.61a1 1 0 01-.71-.3L7 6.55a1 1 0 010-1.41L11.8.29a1 1 0 111.42 1.42L9.08 5.84l4.06 4.06a1 1 0 01-.71 1.71z"/></g></symbol><symbol viewBox="0 0 16.67 18.88" id="icon-bag" xmlns="http://www.w3.org/2000/svg"><g data-name="圖層 2"><g data-name="圖層 1"><path d="M16.67 18.88H0V5.1h16.67zm-15.46-1h14.25V6.1H1.21z"/><path d="M11.92 8.46h-1V1H5.75v7.46h-1V0h7.17v8.46z"/><circle cx="5.31" cy="9.05" r="1.49"/><circle cx="11.31" cy="9.05" r="1.49"/></g></g></symbol><symbol viewBox="0 0 12.55 17.12" id="icon-changePw" xmlns="http://www.w3.org/2000/svg"><g data-name="圖層 2"><g data-name="圖層 1"><path d="M10.49 5.91a6.9 6.9 0 011.19.55 2 2 0 01.87 1.76v6.67a2.1 2.1 0 01-2.15 2.21H2.17A2.1 2.1 0 010 14.88V8.42A2.25 2.25 0 011.9 6h.18V4.06A4.1 4.1 0 016.16 0a4.08 4.08 0 014.27 3.48 13.72 13.72 0 01.05 2.13c.01.12.01.25.01.3zm-4.2 9.74h4c.59 0 .85-.27.85-.85V8.29a.74.74 0 00-.83-.84h-8c-.58 0-.85.29-.85.87v6.46c0 .61.26.87.87.87zM9.07 6V4a2.74 2.74 0 00-2.54-2.58 2.68 2.68 0 00-2.92 2A18 18 0 003.44 6z"/><path d="M7 13.1v.66a.7.7 0 01-.71.7.73.73 0 01-.7-.73v-1.15a.74.74 0 00-.24-.44A1.84 1.84 0 118 10.06a1.76 1.76 0 01-.8 2 .48.48 0 00-.25.5v.49zm0-2.55a.78.78 0 00-.77-.75.77.77 0 10.77.75z"/></g></g></symbol><symbol viewBox="0 0 55.3 55.3" id="icon-check1" xmlns="http://www.w3.org/2000/svg"><defs><style>.ecls-1{fill:#79bc28}.ecls-2{fill:#fff}</style></defs><g id="e圖層_2" data-name="圖層 2"><g id="e加入購物車"><circle class="ecls-1" cx="27.65" cy="27.65" r="27.65"/><path class="ecls-2" d="M24.11 33.59l4.78-4.87c1.07-1.09 9.19-9.21 10.27-10.28.46-.47.75-.46 1.22 0 .27.26.53.53.79.8.41.43.41.74 0 1.17l-12.3 12.3-4.06 4.07c-.56.57-.81.57-1.37 0l-9.24-9.26c-.51-.52-.51-.79 0-1.32.2-.2.4-.41.61-.61.59-.59.82-.6 1.4 0L19 28.33l4.81 4.84a4.36 4.36 0 01.3.42z"/></g></g></symbol><symbol viewBox="0 0 28.75 28.75" id="icon-check2" xmlns="http://www.w3.org/2000/svg"><defs><style>.fcls-1{fill:#b22a2a}.fcls-2{fill:#fff}</style></defs><g id="f圖層_2" data-name="圖層 2"><g id="f到店"><circle class="fcls-1" cx="14.37" cy="14.38" r="14.37"/><path class="fcls-2" d="M14.38 15.3l-2.48 2.53-1.68 1.68c-.24.24-.39.24-.63 0l-.41-.42c-.22-.22-.22-.38 0-.6.9-.92 1.81-1.82 2.72-2.73.7-.71 1.4-1.42 2.11-2.12.29-.3.42-.29.71 0l4.8 4.82c.27.27.27.4 0 .68-.11.11-.22.21-.32.32-.31.31-.43.31-.73 0L17.05 18l-2.5-2.51c-.05-.02-.09-.09-.17-.19z"/><path class="fcls-2" d="M14.37 13.45l2.48-2.53 1.68-1.68c.24-.24.39-.24.63 0l.41.42c.22.22.22.38 0 .6-.9.92-1.81 1.82-2.72 2.73-.7.71-1.4 1.42-2.11 2.12-.29.3-.42.29-.71 0l-4.8-4.82C9 10 9 9.89 9.22 9.61c.11-.11.22-.21.32-.32.31-.31.43-.31.73 0l1.43 1.44 2.5 2.51c.05.04.09.11.17.21z"/></g></g></symbol><symbol viewBox="0 0 15.21 16.22" id="icon-checkingInfo" xmlns="http://www.w3.org/2000/svg"><g data-name="圖層 2"><g data-name="圖層 1"><path d="M0 2.3c0-.16.05-.32.09-.48A1.67 1.67 0 011.6.54a16.6 16.6 0 011.73 0c.22 0 .33.1.34.31a1.18 1.18 0 010 .42.34.34 0 01-.37.27H2.01a.94.94 0 00-1 1Q1 8.31 1 14.07a1 1 0 00.65 1 1.4 1.4 0 00.64.15h10.87a1 1 0 001.06-1.05V2.6a1.13 1.13 0 00-.22-.77 1 1 0 00-.83-.32h-1a.67.67 0 01-.58-.45.38.38 0 01.14-.41.71.71 0 01.45-.15 13.2 13.2 0 011.41 0A1.78 1.78 0 0115.17 2V14.71a1.68 1.68 0 01-1.27 1.4 5.17 5.17 0 01-.54.11H1.77a1.88 1.88 0 01-1.67-1.4 4 4 0 01-.1-.5z"/><path d="M5.46 4.55h1.88c.15 0 .26.19.28.46s-.08.53-.22.57H3.6a.22.22 0 01-.19-.1.86.86 0 01-.1-.56c0-.23.13-.37.25-.37h1.9zM5.46 7.36h1.87c.12 0 .21.09.26.32s0 .64-.18.7H3.6c-.12 0-.21-.07-.27-.29s0-.7.2-.74h1.93zM5.46 11.43H3.58c-.1 0-.19-.07-.24-.26s0-.7.18-.76H7.3c.13 0 .23.08.29.31s0 .7-.21.73H5.46zM7.63 0h1.68a.84.84 0 01.84.73.94.94 0 01-.32.88.62.62 0 01-.43.16H5.88a.8.8 0 01-.76-.64.91.91 0 01.4-1A.81.81 0 015.89 0zM12.63 7c-.61.61-1.24 1.25-1.88 1.88a.45.45 0 01-.71 0L9 7.82l.67-.69.69.83L12 6.25zM12 8.87l.62.67c-.64.65-1.29 1.31-2 2a.42.42 0 01-.65 0L9 10.41l.68-.65.68.79zM12 3.63l.68.65-1.93 1.91a.43.43 0 01-.68 0L9 5.17l.67-.67.67.81z"/></g></g></symbol><symbol viewBox="0 0 16.22 16.1" id="icon-checkout" xmlns="http://www.w3.org/2000/svg"><defs><style>.hcls-1{stroke:#fff;stroke-linecap:round;stroke-linejoin:round;stroke-width:.15px}</style></defs><g id="h圖層_2" data-name="圖層 2"><g id="h圖層_1-2" data-name="圖層 1"><path class="hcls-1" d="M2.24 5.72h1V2.21l.39.18c.07 0 .14.1.2.09a11.82 11.82 0 011.46 0c.11 0 .26-.12.31-.08.43.34.8 0 1.23-.17v3.5a11.68 11.68 0 001.33 0c.14 0 .24-.26.45-.5h1.31V4.14H7.4V.08H14v4h-2.5v1.1H13l.14.48h.09c.84.06.84.06 1.08.86.56 1.82 1.13 3.64 1.68 5.47a9.3 9.3 0 01.14 3.2.89.89 0 01-.83.76H1.33C.44 16 .18 15.69.1 14.8a12.74 12.74 0 01.89-5c.43-1.36.82-2.69 1.25-4.08zm1 .52c-.43-.14-.62 0-.74.4-.55 1.87-1.15 3.72-1.7 5.59a3.78 3.78 0 00-.2 1.06A16.46 16.46 0 00.64 15a.85.85 0 00.36.5 1.09 1.09 0 00.55.06h12.89c1.17 0 1.19 0 1.16-1.17a9.33 9.33 0 00-.16-2.25c-.51-1.88-1.13-3.73-1.7-5.6-.1-.33-.26-.45-.62-.3l.17 2H8.12l.18-2H6.84v1.3l.46.05V8H2.7v-.4l.47-.06zm10.34-2.6V.51h-5.7v3.13zM3.73 3v4.51h2.58V3zm4.92 4.78h4.1l-.2-2.08H8.86zm1.8-2.59H11V4.14h-.51z"/><path class="hcls-1" d="M13.84 11.87H9.2v-3h3.73c.12 0 .33.14.35.24.2.89.37 1.8.56 2.76zm-1.56-1.26v.82H13a1.9 1.9 0 00.25 0c-.07-.87-.07-.87-.97-.82zm-1.83-1.29h-.77v.79h.77zm1.29.79v-.79H11v.79zm-2.06.5v.79h.75v-.79zm1.3.79h.75v-.79H11zm2-1.29c-.11-.89-.11-.89-.69-.75v.75zM2.39 11.85l.6-3H7v3zm.6-.46H4v-.78h-.85zm2.28-1.28v-.79h-.75v.79zm1.3-.79H5.8v.79h.77zm-1.29 1.31H4.5v.76h.78zm1.29 0h-.76v.78h.76zM4 10.11v-.56a1.2 1.2 0 000-.2c-.62-.12-.68 0-.66.76zM14.8 12.49v.4H1.44v-.4zM8.14 14.53h-1.5a.46.46 0 01-.33-.26c-.07-.25.12-.3.33-.3h3a.44.44 0 01.33.26c.07.25-.13.3-.34.3zM7.88 8.86h.45v.41h-.46zM7.9 10.59v-.43h.43v.41zM7.9 11.45h.44v.41H7.9zM5.74 3.69v.4H4.28v-.4zM4.28 5.13v-.41h1.47v.41zM5.74 5.77v.4H4.29v-.4zM9.46 7v-.46h.43v.4zM12 7h-.46v-.47h.41z"/></g></g></symbol><symbol viewBox="0 0 26.4 32.09" id="icon-copy" xmlns="http://www.w3.org/2000/svg"><g data-name="圖層 2"><g data-name="圖層 1"><path d="M19 32.09H3.57s-.06-.09-.1-.09A4.23 4.23 0 010 27.38V9.05a4.27 4.27 0 014.49-4.47h9.84a3.65 3.65 0 012.75 1.13c1.42 1.44 2.84 2.87 4.29 4.29a3.85 3.85 0 011.21 2.93v12.31a1.94 1.94 0 001.65-2v-19a2.11 2.11 0 00-2.19-2.14H7.27a1.9 1.9 0 00-1.25.38c-.88.86-1.88.4-2.95.5.21-.43.34-.73.5-1a4.69 4.69 0 013-2h16.26c.12.05.24.11.37.15a4.23 4.23 0 013.19 4.13V23.2a4.19 4.19 0 01-3.25 4.14c-.45.11-.58.27-.58.7a3.4 3.4 0 01-1.16 2.66 15.54 15.54 0 01-2.4 1.39zm1.45-19.84h-2.2a3.17 3.17 0 01-3.51-3.54v-2H4.5A2.16 2.16 0 002.13 9v18.54A2.16 2.16 0 004.53 30c4.4 0 8.79-.05 13.19 0a2.46 2.46 0 002.78-2.77c-.05-4.66 0-9.32 0-14-.02-.3-.05-.61-.08-.98z"/><path d="M11.32 18h5.41c.93 0 1.51.47 1.52 1.23s-.57 1.27-1.49 1.27H5.86c-.93 0-1.51-.49-1.51-1.24S4.93 18 5.91 18zM16.72 26H5.84c-.93 0-1.5-.49-1.49-1.25s.55-1.22 1.45-1.22h11c.93 0 1.5.5 1.49 1.25S17.64 26 16.72 26M8.92 12.53h3.13c.85 0 1.35.46 1.36 1.2A1.21 1.21 0 0112 15H5.7a1.24 1.24 0 110-2.46z"/></g></g></symbol><symbol viewBox="0 0 15.21 16.22" id="icon-history" xmlns="http://www.w3.org/2000/svg"><g data-name="圖層 2"><g data-name="圖層 1"><path d="M0 2.3c0-.16.05-.32.09-.48A1.67 1.67 0 011.6.54a16.6 16.6 0 011.73 0c.22 0 .33.1.34.31a1.18 1.18 0 010 .42.34.34 0 01-.37.27H2.01a.94.94 0 00-1 1Q1 8.31 1 14.07a1 1 0 00.65 1 1.4 1.4 0 00.64.15h10.87a1 1 0 001.06-1.05V2.6a1.13 1.13 0 00-.22-.77 1 1 0 00-.83-.32h-1a.67.67 0 01-.58-.45.38.38 0 01.14-.41.71.71 0 01.45-.15 13.2 13.2 0 011.41 0A1.78 1.78 0 0115.17 2V14.71a1.68 1.68 0 01-1.27 1.4 5.17 5.17 0 01-.54.11H1.77a1.88 1.88 0 01-1.67-1.4 4 4 0 01-.1-.5z"/><path d="M7.62 4.55h3.76a.53.53 0 01.56.46.51.51 0 01-.43.57H3.9a.62.62 0 01-.38-.1.52.52 0 01-.2-.56.51.51 0 01.5-.37h3.8zM7.62 7.36h3.74a.55.55 0 01.54.32.51.51 0 01-.37.7H3.89a.53.53 0 01-.53-.29.52.52 0 01.4-.74h3.86zM7.62 11.43H3.87a.52.52 0 01-.5-.26.51.51 0 01.36-.76h7.59a.58.58 0 01.57.31.51.51 0 01-.42.73H7.62zM7.63 0h1.68a.84.84 0 01.84.73.94.94 0 01-.32.88.62.62 0 01-.43.16H5.88a.8.8 0 01-.76-.64.91.91 0 01.4-1A.81.81 0 015.89 0z"/></g></g></symbol><symbol viewBox="0 0 26.14 26.37" id="icon-invite" xmlns="http://www.w3.org/2000/svg"><defs><style>.kcls-1{fill:#231815}</style></defs><g id="k圖層_2" data-name="圖層 2"><g id="k圖層_1-2" data-name="圖層 1"><path class="kcls-1" d="M13.54.55c.37.07.75.11 1.12.2a6.87 6.87 0 11-2.73-.09l.73-.11zm5 6.91a5.42 5.42 0 10-5.42 5.42 5.43 5.43 0 005.39-5.42z"/><path class="kcls-1" d="M13.1 14.7A7.24 7.24 0 017.17 3.31a7.18 7.18 0 014.7-3l.52-.08h1.22l.37.06c.27 0 .54.08.8.14a7.24 7.24 0 01-.47 14.19 6.68 6.68 0 01-1.21.08zM12.66.9h-.18L12 1a6.57 6.57 0 00-4.27 2.7 6.55 6.55 0 006.42 10.22 6.55 6.55 0 00.44-12.84L13.83 1h-.32zm.43 12.33a5.82 5.82 0 01-5.77-5.78 5.8 5.8 0 015.77-5.77 5.7 5.7 0 014.06 1.69 5.77 5.77 0 011.69 4.09 5.68 5.68 0 01-1.68 4.07 5.74 5.74 0 01-4.08 1.7zm0-10.86A5.08 5.08 0 009.5 11a5 5 0 003.59 1.5 5.05 5.05 0 003.59-1.49 5 5 0 001.48-3.59 5.06 5.06 0 00-1.49-3.6 5 5 0 00-3.56-1.45z"/><path class="kcls-1" d="M13.1 14.56a7.16 7.16 0 01-7-5.77 7.21 7.21 0 011.18-5.41A7.1 7.1 0 0111.9.45l.5-.07h1.17l.36.05.78.15a7.06 7.06 0 015.41 5.91 7.14 7.14 0 01-5.87 8 7.52 7.52 0 01-1.15.07zM12.66.76h-.2L12 .87a6.66 6.66 0 00-4.38 2.75 6.68 6.68 0 1012.08 2.9A6.65 6.65 0 0014.62 1l-.76-.18-.34-.06zm.43 12.33a5.65 5.65 0 01-5.63-5.64 5.65 5.65 0 015.63-5.63 5.54 5.54 0 014 1.64 5.63 5.63 0 011.67 4 5.63 5.63 0 01-5.63 5.63zm0-10.85a5.23 5.23 0 00-5.21 5.21 5.24 5.24 0 005.21 5.22 5.22 5.22 0 005.21-5.21 5.21 5.21 0 00-5.19-5.22z"/><path class="kcls-1" d="M13.1 14.91A7.44 7.44 0 017 3.19 7.39 7.39 0 0111.84.12l.51-.12h1.23l.42.06c.27.05.54.09.81.15a7.45 7.45 0 01-.48 14.6 8.23 8.23 0 01-1.23.1zm-.42-13.8h-.17l-.51.1a6.3 6.3 0 00-4.1 2.61 6.34 6.34 0 1011.46 2.75 6.31 6.31 0 00-4.82-5.28l-.7-.13-.38-.06zm.41 12.33a6 6 0 01-6-6 6 6 0 016-6 5.89 5.89 0 014.2 1.73 6 6 0 01-4.2 10.23zm0-10.86a4.89 4.89 0 00-4.87 4.87A4.87 4.87 0 1016.51 4a4.75 4.75 0 00-3.4-1.42zM24.71 25.64a.91.91 0 01-.58-1A9.67 9.67 0 0021.42 18a8.15 8.15 0 00-3.5-2.17.74.74 0 11.41-1.41 8.92 8.92 0 012.22 1 10.79 10.79 0 014.89 7.49c.06.31.1.63.15.94v1.27l-.54.49z"/><path class="kcls-1" d="M25.19 26h-.6a1.24 1.24 0 01-.8-1.28 9.43 9.43 0 00-2.62-6.42 8 8 0 00-3.35-2.09 1.13 1.13 0 01-.73-.59 1 1 0 010-.83 1.07 1.07 0 011.38-.64 9.17 9.17 0 012.31 1.05 11.21 11.21 0 015 7.72c0 .2.07.41.1.62l.05.32v1.44zm-.41-.69h.14l.33-.3v-1.13l-.05-.28-.09-.6a10.46 10.46 0 00-4.74-7.27 8.34 8.34 0 00-2.14-1 .4.4 0 00-.54.21.41.41 0 000 .29.52.52 0 00.33.25 8.69 8.69 0 013.64 2.26 10.11 10.11 0 012.81 6.89c.02.44.12.58.31.67z"/><path class="kcls-1" d="M25.13 25.85h-.49a1.11 1.11 0 01-.72-1.16 9.51 9.51 0 00-2.66-6.52 7.92 7.92 0 00-3.4-2.11 1.09 1.09 0 01-.65-.53.9.9 0 010-.72 1 1 0 011.23-.56 9.56 9.56 0 012.27 1 11.12 11.12 0 015 7.63c0 .22.07.44.11.66v1.68zm-.38-.42H25l.41-.37v-1.44c0-.21-.06-.43-.1-.64a10.69 10.69 0 00-4.8-7.35 8.59 8.59 0 00-2.17-1 .52.52 0 00-.7.3.48.48 0 000 .39.62.62 0 00.41.32 8.42 8.42 0 013.58 2.23 9.88 9.88 0 012.77 6.79c-.05.44.06.65.35.77z"/><path class="kcls-1" d="M25.26 26.2h-.75a1.46 1.46 0 01-.93-1.47A9.21 9.21 0 0021 18.4a7.8 7.8 0 00-3.26-2 1.36 1.36 0 01-.86-.7 1.26 1.26 0 010-1 1.3 1.3 0 011.64-.77A9.57 9.57 0 0120.85 15 11.4 11.4 0 0126 22.84c0 .22.07.45.11.67V25.4zm-.43-1.11l.2-.18v-1.23c0-.22-.06-.43-.1-.64a10.35 10.35 0 00-4.65-7.12 7.89 7.89 0 00-2.11-.92c-.07 0-.23-.05-.28.08s0 .12 0 .13a.31.31 0 00.2.14 8.8 8.8 0 013.73 2.32 10.29 10.29 0 012.87 7c0 .33.06.33.14.42zM.55 24.22c.07-.47.11-.95.2-1.42a10.7 10.7 0 015.42-7.66 11 11 0 011.58-.67.72.72 0 011 .44.73.73 0 01-.53.95 9 9 0 00-6 7.05A8.53 8.53 0 002 24.66a1 1 0 01-.56 1h-.3a.89.89 0 01-.59-.59z"/><path class="kcls-1" d="M1.56 26H1a1.26 1.26 0 01-.81-.81v-1l.06-.43c0-.34.08-.68.14-1A11.06 11.06 0 016 14.84a10.85 10.85 0 011.49-.65h.13a1.1 1.1 0 01.89 0 1 1 0 01.53.63 1.08 1.08 0 01-.74 1.38A8.62 8.62 0 002.56 23a9.48 9.48 0 00-.18 1.67A1.32 1.32 0 011.63 26zm-.36-.7h.2c.18-.1.28-.26.29-.65a10.21 10.21 0 01.2-1.82 9.41 9.41 0 016.19-7.29c.2-.07.41-.22.31-.53a.36.36 0 00-.17-.21.47.47 0 00-.35 0l-.13.05a11.56 11.56 0 00-1.4.6 10.29 10.29 0 00-5.25 7.43c-.06.31-.1.63-.14.95V25a.51.51 0 00.25.3z"/><path class="kcls-1" d="M1.53 25.85h-.46a1.12 1.12 0 01-.72-.72v-.93c0-.15 0-.3.06-.45 0-.32.08-.66.15-1A11 11 0 016.07 15a9.19 9.19 0 011.48-.64h.12a1 1 0 01.79 0 .9.9 0 01.46.55 1 1 0 01-.65 1.21A8.77 8.77 0 002.43 23a8.21 8.21 0 00-.18 1.7 1.18 1.18 0 01-.68 1.17zm-.35-.42h.26c.27-.14.38-.36.39-.78A10 10 0 012 22.86a9.27 9.27 0 016.1-7.19.54.54 0 00.4-.7.5.5 0 00-.24-.29.57.57 0 00-.46 0h-.13a11.9 11.9 0 00-1.42.61A10.54 10.54 0 001 22.84c-.07.31-.1.64-.14.95l-.06.45V25a.66.66 0 00.38.43z"/><path class="kcls-1" d="M1.52 26.2H.96a1.41 1.41 0 01-.96-.98v-1.03l.06-.49c0-.33.08-.68.15-1a11.3 11.3 0 015.7-8 11.2 11.2 0 011.52-.7h.12a1.34 1.34 0 011.06 0 1.29 1.29 0 01-.23 2.39A8.46 8.46 0 002.77 23a9.22 9.22 0 00-.18 1.64 1.51 1.51 0 01-.87 1.47zm-.27-1.11h.09c.08-.05.14-.15.14-.45a9.73 9.73 0 01.21-1.85A9.59 9.59 0 018 15.34c.24-.08.2-.21.18-.27a.11.11 0 00-.06-.07.23.23 0 00-.18 0h-.13a9.88 9.88 0 00-1.37.58 10.25 10.25 0 00-5.15 7.29c-.05.28-.09.58-.12.87l-.07.5V25a.32.32 0 00.15.09zM13.41 22.31V25.16c0 .16 0 .21-.22.21h-.28c-.15 0-.2-.05-.2-.21v-1.85-1.44c0-.2 0-.24.25-.24h3.27c.18 0 .23.05.23.24v.22c0 .2 0 .25-.25.25h-2.67z"/><path class="kcls-1" d="M13.22 26.37h-.31a1.16 1.16 0 01-1.18-1.2v-3.3a1.23 1.23 0 01.34-.9 1.27 1.27 0 01.91-.34h3.27a1.18 1.18 0 011.23 1.24v.22a1.17 1.17 0 01-1.25 1.25h-1.8v1.83a1.16 1.16 0 01-1.21 1.2z"/><path class="kcls-1" d="M12.78 21.69V18.84c0-.16.05-.21.22-.21h.28c.15 0 .2.06.2.21v3.29c0 .2-.05.24-.25.24H10c-.18 0-.23-.05-.23-.24v-.22c0-.2 0-.25.25-.25h2.68z"/><path class="kcls-1" d="M13.22 23.37H10a1.18 1.18 0 01-1.23-1.23v-.22a1.28 1.28 0 01.29-.92 1.25 1.25 0 01.91-.34h1.8v-1.82A1.16 1.16 0 0113 17.63h.31a1.15 1.15 0 011.18 1.2v3.3a1.17 1.17 0 01-1.27 1.24z"/></g></g></symbol><symbol viewBox="0 0 16.8 16.41" id="icon-news" xmlns="http://www.w3.org/2000/svg"><g data-name="圖層 2"><path d="M7.86 10.2l.64 2.25.42 1.43a2 2 0 01-1.28 2.44A1.92 1.92 0 015.2 15c-.46-1.5-.88-3-1.31-4.51v-.11c-.16-.58-.16-.58-.75-.59A3.14 3.14 0 010 6.62a3.17 3.17 0 012.36-3.33 2.92 2.92 0 011-.08A18.8 18.8 0 0010.8 2 11.31 11.31 0 0014.09.15a.72.72 0 01.57-.15.69.69 0 01.25.53v3.33c0 .2 0 .32.25.39a2.3 2.3 0 010 4.42l-.21.08v3.29a1.69 1.69 0 010 .45c0 .16-.12.38-.24.43a.67.67 0 01-.52-.08A10.46 10.46 0 0010.86 11c-.86-.29-1.86-.53-2.78-.8a.79.79 0 00-.22 0zM14 1.33a13.09 13.09 0 01-3.87 1.8c-1.37.38-2.76.68-4.18 1a.2.2 0 000 .08v4.44C6 8.89 6 9 6.24 9s.68.09 1 .15a17.49 17.49 0 016.56 2.37l.2.08zM4.68 9.75a1.54 1.54 0 000 .16c.47 1.62.93 3.25 1.41 4.87a1 1 0 001.35.69 1.07 1.07 0 00.66-1.33q-.55-2-1.14-3.93a.44.44 0 00-.26-.27c-.7-.08-1.36-.13-2.02-.19zm.66-.88v-3.5c0-.65 0-.66-.9-.66H3.37v4.16zm-2.92-.12V4.23A2.23 2.23 0 00.88 6.42a2.29 2.29 0 001.54 2.33zm12.52-1a1.34 1.34 0 001-1.4 1.25 1.25 0 00-1-1.22z" data-name="圖層 1"/></g></symbol><symbol viewBox="0 0 20.9 20.17" id="icon-order" xmlns="http://www.w3.org/2000/svg"><g data-name="圖層 2"><g data-name="圖層 1"><path d="M7.62 8.5h3.76a.52.52 0 01.56.46.51.51 0 01-.43.56H3.9a.56.56 0 01-.38-.1.52.52 0 01-.2-.56.51.51 0 01.5-.37h3.8zM7.62 11.3h3.74a.55.55 0 01.54.32.51.51 0 01-.37.7H3.89a.55.55 0 01-.53-.29.51.51 0 01.4-.74h3.86zM7.62 15.37H3.87a.54.54 0 01-.5-.26.52.52 0 01.36-.77h7.59a.57.57 0 01.57.3.51.51 0 01-.42.73H7.62zM7.63 4h1.68a.84.84 0 01.84.74.93.93 0 01-.32.87.62.62 0 01-.43.16H5.88a.8.8 0 01-.76-.64.91.91 0 01.4-1A1 1 0 015.89 4c.58-.06 1.16 0 1.74 0z"/><path d="M14.22 9.77v8.33a1 1 0 01-1.06 1H2.3a1.39 1.39 0 01-.64-.1A1 1 0 011 18V6.48a.94.94 0 011-1h1.29a.33.33 0 00.37-.26 1.25 1.25 0 000-.43c0-.21-.12-.31-.34-.31H1.59a1.67 1.67 0 00-1.5 1.29c0 .15-.06.31-.09.47v12a4.26 4.26 0 00.1.49 1.87 1.87 0 001.67 1.38h11.59l.54-.11a1.7 1.7 0 001.27-1.4v-8.03a1.72 1.72 0 01-.95-.8zM16.08 9.66h-.37A.76.76 0 0115 8.9a1.5 1.5 0 010-.3v-.18a.15.15 0 00-.09-.14l-.2-.08a1.37 1.37 0 00-.28-.1l-.21.2-.22.17a.75.75 0 01-1.11 0L12.44 8a.77.77 0 010-1.12l.09-.09a1.17 1.17 0 00.27-.31 1.66 1.66 0 00-.11-.28L12.6 6h-.51a.75.75 0 01-.83-.8v-.3l.4-.09h-.4c0-.88.22-1.1 1.11-1.1a.55.55 0 00.2 0 .47.47 0 00.1-.19l.11-.26a.14.14 0 000-.16l-.16-.16-.18-.17a.79.79 0 010-1.07q.25-.27.51-.51a.77.77 0 011.07 0c.07.07.14.13.2.2l.12.12c.09.08.12.07.17 0h.11a1.91 1.91 0 00.35-.17A1.78 1.78 0 0015 1c0-.69.28-1 1-1h.49a.77.77 0 01.77.78 4.65 4.65 0 000 .55 3.94 3.94 0 00.42.19h.22c.09 0 .23-.23.32-.32a.76.76 0 011.06 0q.27.26.51.51a.74.74 0 010 1c-.11.12-.23.24-.35.35s-.07.07 0 .21.08.22.13.33.08.1.13.1h.47a.77.77 0 01.77.78v.68a.75.75 0 01-.78.77h-.46c-.13 0-.23.12-.28.3a.49.49 0 000 .36l.12.12a1.7 1.7 0 01.19.19.74.74 0 010 1.07l-.47.48a.75.75 0 01-1.09 0L18 8.38a1.17 1.17 0 00-.3-.28 1.67 1.67 0 00-.31.12l-.21.1v.31a2.35 2.35 0 010 .26.76.76 0 01-.74.76zm-1.69-2.35a1.55 1.55 0 01.59.15l.21.09a.94.94 0 01.57.85v.21a1.92 1.92 0 000 .24h.65v-.43a.87.87 0 01.51-.84l.2-.09c.61-.27.93-.32 1.54.35l.09.08a4.72 4.72 0 01.41-.48L19 7.3l-.14-.15A1.13 1.13 0 0118.65 6a1.14 1.14 0 01.77-.85 1.6 1.6 0 01.27 0h.39a4.28 4.28 0 000-.62h-.44A.91.91 0 0118.8 4c-.06-.13-.11-.27-.17-.4a1 1 0 01.24-1.07 2.57 2.57 0 00.28-.29c-.15-.12-.3-.28-.47-.43a2.4 2.4 0 01-.22.24 1 1 0 01-1.13.26c-.84-.34-.94-.5-.95-1.4a.61.61 0 00-.32-.11h-.3V1c0 .76-.14 1-.83 1.25l-.28-.32.17.36a.91.91 0 01-1.06-.19l-.13-.13-.18-.18-.45.43a.87.87 0 01.15.13 1.62 1.62 0 01.18.19.89.89 0 01.19 1l-.11.28a1 1 0 01-1 .7h-.3v.6h.44a.88.88 0 01.84.56l.09.19c.25.58.29.89-.36 1.5l-.12.11a6.1 6.1 0 01.46.41l.12-.11c.32-.33.54-.47.81-.47zm1.67-.07a2.42 2.42 0 01-2.39-2.39 2.41 2.41 0 012.41-2.43 2.41 2.41 0 012.4 2.39 2.42 2.42 0 01-2.38 2.43zm0-4a1.58 1.58 0 00-1.14.48A1.59 1.59 0 0015 6a1.59 1.59 0 001.1.46 1.62 1.62 0 001.6-1.63 1.62 1.62 0 00-1.6-1.59z"/></g></g></symbol><symbol viewBox="0 0 43.31 43.31" id="icon-pdt-type1" xmlns="http://www.w3.org/2000/svg"><g data-name="圖層 2"><path d="M21.65 43.31a21.66 21.66 0 1121.66-21.66 21.68 21.68 0 01-21.66 21.66zm0-39.31a17.66 17.66 0 1017.66 17.65A17.67 17.67 0 0021.65 4z"/><path d="M18.39 36.08A11.67 11.67 0 016.74 24.42a2 2 0 114 0 7.66 7.66 0 007.65 7.66 2 2 0 010 4z"/></g></symbol><symbol viewBox="0 0 42.05 42.01" id="icon-pdt-type2" xmlns="http://www.w3.org/2000/svg"><g data-name="圖層 2"><path d="M41 12c0-.53-.05-1.06-.1-1.59a19.82 19.82 0 00-1.44-6.26c-1.1-2.4-2.57-3.29-5.2-3.15a17.21 17.21 0 00-7.13 2.37 59.6 59.6 0 00-14.42 11.3l-.46.48a2.49 2.49 0 00-.3.38l-1.5 1.68C9.63 18.17 8.84 19 8.11 20a46.13 46.13 0 00-4.95 7.58A16.86 16.86 0 001 34.6a4.54 4.54 0 002.88 4.69 16.49 16.49 0 002.44.87 31.08 31.08 0 0014.13.06 25.75 25.75 0 0012.05-5.84 25.13 25.13 0 007.66-13.59c0-.15.06-.3.08-.46s1.12-5.21.76-8.33zM5.2 37.49a2.17 2.17 0 01-2.21-2 8.12 8.12 0 01.67-4.32 35.62 35.62 0 015.9-9.95l5.12-5.86.22-.18c2-1.85 4-3.74 6.13-5.47a36.49 36.49 0 019.79-6 10.26 10.26 0 014.18-.8 2.28 2.28 0 012.5 2.14 5.53 5.53 0 010 .91 16.5 16.5 0 01-2 6.22c0 .09-.09.18-.14.27-.19.36-.43.7-.61 1.08A75.71 75.71 0 0130 20.22a66.79 66.79 0 01-8 8.33 46.41 46.41 0 01-11.2 7.58 11.71 11.71 0 01-5.6 1.36zm32.57-15.17c-1.75 5.74-5 10.35-10.32 13.29A29.72 29.72 0 0111 39c-.46 0-.91-.11-1.42-.17 9.14-3.94 16.13-10.29 22.24-17.72.83-1 1.52-1.87 2.1-2.64l.24-.31c2.71-3.71 2.84-4.83 2.84-4.83l1.86-3.73c.06.81.16 1.6.16 2.39v.53a49.15 49.15 0 01-.77 8c0 .14-.07.29-.11.44-.14.46-.24.91-.37 1.36z"/><path d="M13.27 42a29.62 29.62 0 01-7.19-.88 17.13 17.13 0 01-2.59-.92A5.54 5.54 0 010 34.57a18 18 0 012.27-7.47 46 46 0 015.05-7.74c.51-.65 1-1.28 1.6-1.91.24-.28.49-.56.73-.85l.65-.76.79-.89a3.92 3.92 0 01.37-.46l1-1a58.9 58.9 0 0114.18-11A18.27 18.27 0 0134.2 0a5.62 5.62 0 016.14 3.71 20.6 20.6 0 011.51 6.58c0 .53.08 1.06.11 1.59.41 3.26-.69 8.42-.74 8.64s0 .31-.09.47c-1.39 6-4 10.6-8 14.12a26.61 26.61 0 01-12.47 6.09 35.77 35.77 0 01-7.39.8zm-9.15-3.7l.16.07a16 16 0 002 .75l2.85-1.23.16-.07a10.5 10.5 0 01-4.18.67 4 4 0 01-.99-.19zm31.26-20.18l-.71.93c-.64.84-1.35 1.74-2.13 2.67-6.14 7.46-12.29 12.73-19.11 16.32A27.52 27.52 0 0027 34.73c4.8-2.65 8-6.81 9.81-12.73.13-.44.25-.88.36-1.31l.09-.37a50.59 50.59 0 00.74-6.84l-.1.19c-.13.55-.64 1.84-2.52 4.45zM5.27 36.49a10.69 10.69 0 005.12-1.27 44.69 44.69 0 0010.93-7.42 65.46 65.46 0 007.94-8.21A73.35 73.35 0 0033.88 13a6.16 6.16 0 01.37-.67l.22-.38.12-.23A15.57 15.57 0 0036.5 5.9a4.66 4.66 0 000-.75c-.07-.62-.3-1.2-1.55-1.25a9.24 9.24 0 00-3.75.83 35.79 35.79 0 00-9.53 5.8c-1.65 1.34-3.25 2.82-4.8 4.25L15.57 16l-.19.17-5.06 5.8a34.28 34.28 0 00-5.73 9.64A7.21 7.21 0 004 35.36a1.19 1.19 0 001.3 1.13zm30.52-22.82a1.91 1.91 0 00-.15.28c-1 1.63-2.2 3.39-3.19 4.73l.65-.83.23-.31a22.22 22.22 0 002.46-3.87zm4.23-1a47.74 47.74 0 01-.4 5.53 27.09 27.09 0 00.38-5.56zm-21.61-2c-.83.72-1.68 1.48-2.53 2.29.83-.76 1.67-1.53 2.53-2.29zM38.3 4.1a4.31 4.31 0 01.17.84A6.29 6.29 0 0138.5 6a12.39 12.39 0 01-.88 3.82l1.62-3.16a14 14 0 00-.73-2.13z"/></g></symbol><symbol viewBox="0 0 16.68 16.42" id="icon-product" xmlns="http://www.w3.org/2000/svg"><g data-name="圖層 2"><path d="M0 8.27C0 6.88 0 5.5.05 4.12A1.5 1.5 0 01.73 3C3 2 5.37 1 7.72.11A1.88 1.88 0 019 .12C11.31 1 13.59 2 15.9 3a1.08 1.08 0 01.78 1.2c0 2.73 0 5.46-.05 8.18a1.47 1.47 0 01-.72 1.06c-2.3 1-4.64 2-7 2.92a1.77 1.77 0 01-1.2 0c-2.31-.92-4.59-1.92-6.9-2.84A1.15 1.15 0 010 12.18c.05-1.3 0-2.61 0-3.91zm8 7.37V7.55A.81.81 0 007.54 7C5.33 6 3.12 5.09.72 4.09v8.1a.78.78 0 00.4.58c2.23.95 4.45 1.87 6.88 2.87zm.74 0c2.4-1 4.55-1.87 6.69-2.8a1.06 1.06 0 00.54-.72v-8C13.57 5.1 11.32 6 9.09 7a.82.82 0 00-.36.63c-.03 2.59-.02 5.2-.02 8.01zM1.41 3.58a52.71 52.71 0 015.2 2.23c1.76 1 3.08.16 4.77-.69a47.25 47.25 0 01-5.11-2.19c-1.79-1.02-3.15-.26-4.86.65zm4.17-1.67a42.22 42.22 0 015.07 2.16c1.7 1 3 .31 4.63-.58a43.07 43.07 0 01-4.92-2.09c-1.7-.96-3.11-.61-4.78.51z" data-name="圖層 1"/></g></symbol><symbol viewBox="0 0 15.21 16.22" id="icon-recMbr" xmlns="http://www.w3.org/2000/svg"><g data-name="圖層 2"><g data-name="圖層 1"><path d="M5.54 4.39a1.08 1.08 0 01.19 0 1.14 1.14 0 11-1.38 1.35 1.16 1.16 0 01.93-1.34h.26zm.83 1.14a.9.9 0 10-.9.9.9.9 0 00.9-.9z"/><path d="M5.47 6.73a1.2 1.2 0 01-1-1.89 1.17 1.17 0 01.78-.49H5.72a1.2 1.2 0 01-.08 2.35zM5.4 4.44h-.11a1.09 1.09 0 00-.71.45 1.08 1.08 0 101.14-.44H5.4zm.07 2a1 1 0 01-.68-.28 1 1 0 01-.28-.67 1 1 0 011-1 1 1 0 010 1.91zm0-1.79a.85.85 0 00-.84.84.85.85 0 00.84.84.84.84 0 00.59-1.44.82.82 0 00-.59-.2z"/><path d="M5.47 6.71a1.18 1.18 0 01-1-1.86 1.17 1.17 0 01.76-.48H5.7a1.16 1.16 0 01.89 1 1.18 1.18 0 01-1 1.33zM5.4 4.42h-.12a1.11 1.11 0 00-.72.45 1.16 1.16 0 00-.18.85 1.11 1.11 0 002.18-.37 1.1 1.1 0 00-.84-.92H5.4zm.07 2a1 1 0 01-.66-.27.93.93 0 01.66-1.55.88.88 0 01.65.27.91.91 0 01.28.66.92.92 0 01-.93.93zm0-1.8a.87.87 0 00-.86.87.88.88 0 00.25.61.86.86 0 00.61.25.86.86 0 00.61-.25.88.88 0 00.25-.61.86.86 0 00-.25-.61.85.85 0 00-.61-.22z"/><path d="M5.47 6.76a1.23 1.23 0 01-.21-2.45h.49a1.23 1.23 0 01-.08 2.41.68.68 0 01-.2.04zM5.4 4.48h-.11a1.05 1.05 0 00-.68.44 1.06 1.06 0 00-.17.8 1.05 1.05 0 002.07-.35 1 1 0 00-.8-.87H5.4zm.07 2a1 1 0 01-.7-.29 1 1 0 01.7-1.69.94.94 0 01.69.29 1 1 0 01.3.7 1 1 0 01-.29.7 1 1 0 01-.7.33zm0-1.8a.81.81 0 00-.81.81.84.84 0 00.24.57.8.8 0 001.37-.57.8.8 0 00-.8-.81zM7.39 8.54a.15.15 0 01-.09-.16 1.58 1.58 0 00-.45-1.1 1.35 1.35 0 00-.58-.36c-.08 0-.12-.09-.09-.16a.12.12 0 01.16-.08 1.49 1.49 0 01.36.17 1.76 1.76 0 01.81 1.24v.37l-.09.08z"/><path d="M7.47 8.6h-.1a.21.21 0 01-.13-.21 1.58 1.58 0 00-.43-1.06A1.36 1.36 0 006.25 7a.2.2 0 01-.12-.1.2.2 0 010-.13.18.18 0 01.23-.11 1.71 1.71 0 01.39.17 1.84 1.84 0 01.83 1.28v.4zm-.07-.12l.05-.05V8.2v-.1a1.74 1.74 0 00-.79-1.2 1.25 1.25 0 00-.35-.16h-.09c-.01 0 0 0 0 .05a.09.09 0 00.06 0 1.46 1.46 0 01.6.38 1.63 1.63 0 01.46 1.14c.02.13.03.16.06.17z"/><path d="M7.46 8.57h-.08a.19.19 0 01-.12-.19 1.59 1.59 0 00-.44-1.08 1.3 1.3 0 00-.56-.3.2.2 0 01-.11-.09.15.15 0 01.2-.21 1.56 1.56 0 01.37.17 1.82 1.82 0 01.83 1.27.36.36 0 000 .1v.28zM7.4 8.5l.06-.06V8.2v-.1a1.82 1.82 0 00-.79-1.22 1.46 1.46 0 00-.36-.16.09.09 0 00-.12 0 .06.06 0 000 .06h.07a1.45 1.45 0 01.59.37 1.62 1.62 0 01.46 1.13c.02.17.04.2.09.22z"/><path d="M7.48 8.63h-.12a.23.23 0 01-.15-.24 1.55 1.55 0 00-.43-1A1.28 1.28 0 006.24 7a.26.26 0 01-.14-.11.2.2 0 010-.17.22.22 0 01.27-.12 1.39 1.39 0 01.39.17 1.89 1.89 0 01.84 1.31.36.36 0 010 .11v.31zm-.07-.18v-.24a.36.36 0 000-.1 1.68 1.68 0 00-.77-1.18 1.19 1.19 0 00-.34-.16 1.44 1.44 0 01.61.38 1.67 1.67 0 01.48 1.17s.01.12.02.13zM3.39 8.3a1.85 1.85 0 010-.23 1.76 1.76 0 01.93-1.27 1.83 1.83 0 01.26-.11.13.13 0 01.17.07.13.13 0 01-.09.16 1.5 1.5 0 00-1 1.17 1.36 1.36 0 000 .29.15.15 0 01-.09.16h-.08a.17.17 0 01-.1-.1z"/><path d="M3.56 8.6h-.09a.21.21 0 01-.13-.13v-.25a.88.88 0 010-.16 1.81 1.81 0 01.96-1.31l.24-.11a.19.19 0 01.15 0 .18.18 0 01.09.1.18.18 0 01-.1.26 1.44 1.44 0 00-.95 1.1 1.14 1.14 0 000 .28.24.24 0 01-.13.21zm-.06-.12s.05 0 .05-.11a2.43 2.43 0 010-.3 1.54 1.54 0 011-1.2s.07 0 .05-.09h-.02l-.23.1a1.71 1.71 0 00-.87 1.23v.35a.08.08 0 00.02.02z"/><path d="M3.56 8.57h-.08a.18.18 0 01-.12-.12V8.3v-.08-.16a1.83 1.83 0 01.92-1.29l.24-.11a.15.15 0 01.13 0 .14.14 0 01.08.09.15.15 0 01-.11.2 1.45 1.45 0 00-1 1.14 2 2 0 000 .29.18.18 0 01-.11.19zM3.5 8.5s.06-.06.06-.13a2 2 0 010-.29 1.51 1.51 0 011-1.19.09.09 0 00.06-.12h-.04a1.73 1.73 0 00-.24.1 1.74 1.74 0 00-.88 1.24 1 1 0 000 .16.22.22 0 000 .08v.13a.09.09 0 00.04.02z"/><path d="M3.55 8.63h-.09a.24.24 0 01-.15-.16V8.05a1.88 1.88 0 01.94-1.33 1.36 1.36 0 01.25-.11.23.23 0 01.18 0 .19.19 0 01.1.12.22.22 0 01-.09.27 1.38 1.38 0 00-.93 1.1 1 1 0 000 .27.24.24 0 01-.14.24zm0-.18v-.08a1.39 1.39 0 010-.3 1.6 1.6 0 011-1.24h.05l-.23.1a1.67 1.67 0 00-.85 1.21.59.59 0 000 .14v.19z"/><path d="M0 2.3c0-.16.05-.32.09-.48A1.67 1.67 0 011.6.54a16.6 16.6 0 011.73 0c.22 0 .33.1.34.31a1.18 1.18 0 010 .42.34.34 0 01-.37.27H2.01a.94.94 0 00-1 1Q1 8.31 1 14.07a1 1 0 00.65 1 1.4 1.4 0 00.64.15h10.87a1 1 0 001.06-1.05V2.6a1.13 1.13 0 00-.22-.77 1 1 0 00-.83-.32h-1a.67.67 0 01-.58-.45.38.38 0 01.14-.41.71.71 0 01.45-.15 13.2 13.2 0 011.41 0A1.78 1.78 0 0115.17 2V14.71a1.68 1.68 0 01-1.27 1.4 5.17 5.17 0 01-.54.11H1.77a1.88 1.88 0 01-1.67-1.4 4 4 0 01-.1-.5z"/><path d="M7.62 11.43H3.87a.52.52 0 01-.5-.26.51.51 0 01.36-.76h7.59a.58.58 0 01.57.31.51.51 0 01-.42.73H7.62zM7.63 0h1.68a.84.84 0 01.84.73.94.94 0 01-.32.88.62.62 0 01-.43.16H5.88a.8.8 0 01-.76-.64.91.91 0 01.4-1A.81.81 0 015.89 0z"/><rect x="8.57" y="7.36" width="3.37" height="1.04" rx=".52"/><rect x="8.57" y="4.55" width="3.37" height="1.04" rx=".52"/></g></g></symbol><symbol viewBox="0 0 29.03 27.44" id="icon-reset" xmlns="http://www.w3.org/2000/svg"><g data-name="圖層 2"><path d="M29 10.28l-4 4-4-4h2.1c-.84-3.72-5.41-6.72-9.86-6.52A10 10 0 1022.91 18l2.63 2.68a13.42 13.42 0 01-9.69 6.58A13.72 13.72 0 1126.75 9.5c.21.65.47.87 1.11.79a9 9 0 011.14-.01z" data-name="圖層 1"/></g></symbol><symbol viewBox="0 0 23.05 18.81" id="icon-salesMgmt" xmlns="http://www.w3.org/2000/svg"><g data-name="圖層 2"><g data-name="圖層 1"><path d="M18.23 9.66h-.37a.76.76 0 01-.75-.75v-.49a.13.13 0 00-.11-.14l-.2-.08a1.67 1.67 0 00-.27-.1 1.8 1.8 0 00-.22.2l-.16.17a.76.76 0 01-1.12 0L14.59 8a.77.77 0 010-1.12l.09-.09c.23-.22.27-.29.27-.31a2.6 2.6 0 00-.1-.28l-.09-.2h-.52a.76.76 0 01-.83-.8v-.3l.4-.09h-.4c0-.88.22-1.1 1.11-1.1a.75.75 0 00.21 0 .66.66 0 00.09-.19l.11-.26a.12.12 0 000-.16 1.21 1.21 0 00-.16-.16 1.37 1.37 0 01-.17-.17.78.78 0 010-1.07q.26-.27.51-.51a.77.77 0 011.07 0l.21.2.12.12c.08.08.11.07.16 0h.11a1.63 1.63 0 00.35-.17 1.78 1.78 0 000-.35c0-.69.28-1 1-1h.49a.78.78 0 01.78.78 3.51 3.51 0 000 .55 3.49 3.49 0 00.43.19.15.15 0 00.21 0l.33-.32a.75.75 0 011.05 0q.27.26.51.51a.74.74 0 010 1l-.34.35c-.05 0-.08.07 0 .21a2.33 2.33 0 00.14.33c0 .09.07.1.13.1h.46a.77.77 0 01.77.78v.68a.75.75 0 01-.78.77h-.4c-.14 0-.24.12-.29.3a.49.49 0 000 .36l.12.12.19.19a.74.74 0 010 1.07c-.16.16-.31.32-.48.48a.75.75 0 01-1.09 0l-.11-.11a1.07 1.07 0 00-.31-.28 2 2 0 00-.31.12l-.21.1V8.84a.77.77 0 01-.75.76zm-1.69-2.35a1.55 1.55 0 01.59.15l.22.09a.92.92 0 01.56.85v.45h.65v-.43a.88.88 0 01.52-.84l.19-.09c.61-.27.94-.32 1.54.35l.09.08a4.72 4.72 0 01.41-.48.93.93 0 01-.14-.14L21 7.15A1.16 1.16 0 0120.8 6a1.15 1.15 0 01.77-.85 1.6 1.6 0 01.27 0h.4v-.62h-.44A.91.91 0 0121 4c-.06-.13-.11-.27-.16-.4A.94.94 0 0121 2.48a2.57 2.57 0 00.28-.29c-.14-.12-.3-.28-.46-.43l-.21.24a1 1 0 01-1.13.26c-.84-.34-.94-.5-.94-1.4a.66.66 0 00-.33-.06h-.3V1c0 .76-.14 1-.83 1.25l-.28-.35.17.36a.91.91 0 01-1.06-.19l-.13-.13-.18-.18-.45.46a.87.87 0 01.15.13l.19.19a.91.91 0 01.19 1l-.12.28a1 1 0 01-1 .7h-.3v.6h.45a.89.89 0 01.84.56l.08.19c.25.58.29.89-.36 1.5l-.07.09c.16.13.3.27.45.41l.12-.11c.28-.31.5-.45.77-.45zm1.67-.07a2.37 2.37 0 01-1.66-.69 2.4 2.4 0 010-3.42 2.45 2.45 0 011.71-.71 2.4 2.4 0 012.4 2.39 2.42 2.42 0 01-2.38 2.43zm0-4a1.62 1.62 0 00-1.61 1.62A1.65 1.65 0 0017.11 6a1.61 1.61 0 001.1.46 1.62 1.62 0 001.59-1.63 1.61 1.61 0 00-1.6-1.59z"/><path d="M16 9.26v5.24a1 1 0 01-.54.72c-2.2.93-4.35 1.78-6.75 2.78v-8a.82.82 0 01.36-.62c1.53-.67 3.09-1.32 4.68-2a1.38 1.38 0 01.33-.86h-.09a3.37 3.37 0 01-3.36-.07 45.71 45.71 0 00-5.05-2.16c1.67-1.11 3.08-1.46 4.78-.5a20.3 20.3 0 002.45 1.12 3 3 0 01.09-.79C11.6 3.56 10.31 3 9 2.5a1.88 1.88 0 00-1.28 0C5.37 3.42 3 4.39.73 5.42a1.48 1.48 0 00-.68 1.09C0 7.88 0 9.27 0 10.65v3.92a1.13 1.13 0 00.82 1.28c2.31.93 4.59 1.92 6.9 2.84a1.77 1.77 0 001.2 0c2.35-.94 4.69-1.9 7-2.93a1.46 1.46 0 00.72-1V9.53a1.35 1.35 0 01-.12-.53 1.63 1.63 0 01-.52.26zM8 18c-2.4-1-4.62-1.92-6.83-2.87a.78.78 0 01-.4-.59V6.45c2.4 1 4.61 1.91 6.82 2.86a.83.83 0 01.41.62V18zM6.61 8.19A52.76 52.76 0 001.41 6c1.71-.91 3.07-1.67 4.86-.65a47.28 47.28 0 005.11 2.15c-1.69.85-3.01 1.68-4.77.69z"/></g></g></symbol><symbol viewBox="0 0 15.21 16.22" id="icon-statistics" xmlns="http://www.w3.org/2000/svg"><g data-name="圖層 2"><g data-name="圖層 1"><path d="M5.54 4.39a1.08 1.08 0 01.19 0 1.14 1.14 0 11-1.38 1.35 1.16 1.16 0 01.93-1.34h.26zm.83 1.14a.9.9 0 10-.9.9.9.9 0 00.9-.9z"/><path d="M5.47 6.73a1.2 1.2 0 01-1-1.89 1.17 1.17 0 01.78-.49H5.72a1.2 1.2 0 01-.08 2.35zM5.4 4.44h-.11a1.09 1.09 0 00-.71.45 1.08 1.08 0 101.14-.44H5.4zm.07 2a1 1 0 01-.68-.28 1 1 0 01-.28-.67 1 1 0 011-1 1 1 0 010 1.91zm0-1.79a.85.85 0 00-.84.84.85.85 0 00.84.84.84.84 0 00.59-1.44.82.82 0 00-.59-.2z"/><path d="M5.47 6.71a1.18 1.18 0 01-1-1.86 1.17 1.17 0 01.76-.48H5.7a1.16 1.16 0 01.89 1 1.18 1.18 0 01-1 1.33zM5.4 4.42h-.12a1.11 1.11 0 00-.72.45 1.16 1.16 0 00-.18.85 1.11 1.11 0 002.18-.37 1.1 1.1 0 00-.84-.92H5.4zm.07 2a1 1 0 01-.66-.27.93.93 0 01.66-1.55.88.88 0 01.65.27.91.91 0 01.28.66.92.92 0 01-.93.93zm0-1.8a.87.87 0 00-.86.87.88.88 0 00.25.61.86.86 0 00.61.25.86.86 0 00.61-.25.88.88 0 00.25-.61.86.86 0 00-.25-.61.85.85 0 00-.61-.22z"/><path d="M5.47 6.76a1.23 1.23 0 01-.21-2.45h.49a1.23 1.23 0 01-.08 2.41.68.68 0 01-.2.04zM5.4 4.48h-.11a1.05 1.05 0 00-.68.44 1.06 1.06 0 00-.17.8 1.05 1.05 0 002.07-.35 1 1 0 00-.8-.87H5.4zm.07 2a1 1 0 01-.7-.29 1 1 0 01.7-1.69.94.94 0 01.69.29 1 1 0 01.3.7 1 1 0 01-.29.7 1 1 0 01-.7.33zm0-1.8a.81.81 0 00-.81.81.84.84 0 00.24.57.8.8 0 001.37-.57.8.8 0 00-.8-.81zM7.39 8.54a.15.15 0 01-.09-.16 1.58 1.58 0 00-.45-1.1 1.35 1.35 0 00-.58-.36c-.08 0-.12-.09-.09-.16a.12.12 0 01.16-.08 1.49 1.49 0 01.36.17 1.76 1.76 0 01.81 1.24v.37l-.09.08z"/><path d="M7.47 8.6h-.1a.21.21 0 01-.13-.21 1.58 1.58 0 00-.43-1.06A1.36 1.36 0 006.25 7a.2.2 0 01-.12-.1.2.2 0 010-.13.18.18 0 01.23-.11 1.71 1.71 0 01.39.17 1.84 1.84 0 01.83 1.28v.4zm-.07-.12l.05-.05V8.2v-.1a1.74 1.74 0 00-.79-1.2 1.25 1.25 0 00-.35-.16h-.09c-.01 0 0 0 0 .05a.09.09 0 00.06 0 1.46 1.46 0 01.6.38 1.63 1.63 0 01.46 1.14c.02.13.03.16.06.17z"/><path d="M7.46 8.57h-.08a.19.19 0 01-.12-.19 1.59 1.59 0 00-.44-1.08 1.3 1.3 0 00-.56-.3.2.2 0 01-.11-.09.15.15 0 01.2-.21 1.56 1.56 0 01.37.17 1.82 1.82 0 01.83 1.27.36.36 0 000 .1v.28zM7.4 8.5l.06-.06V8.2v-.1a1.82 1.82 0 00-.79-1.22 1.46 1.46 0 00-.36-.16.09.09 0 00-.12 0 .06.06 0 000 .06h.07a1.45 1.45 0 01.59.37 1.62 1.62 0 01.46 1.13c.02.17.04.2.09.22z"/><path d="M7.48 8.63h-.12a.23.23 0 01-.15-.24 1.55 1.55 0 00-.43-1A1.28 1.28 0 006.24 7a.26.26 0 01-.14-.11.2.2 0 010-.17.22.22 0 01.27-.12 1.39 1.39 0 01.39.17 1.89 1.89 0 01.84 1.31.36.36 0 010 .11v.31zm-.07-.18v-.24a.36.36 0 000-.1 1.68 1.68 0 00-.77-1.18 1.19 1.19 0 00-.34-.16 1.44 1.44 0 01.61.38 1.67 1.67 0 01.48 1.17s.01.12.02.13zM3.39 8.3a1.85 1.85 0 010-.23 1.76 1.76 0 01.93-1.27 1.83 1.83 0 01.26-.11.13.13 0 01.17.07.13.13 0 01-.09.16 1.5 1.5 0 00-1 1.17 1.36 1.36 0 000 .29.15.15 0 01-.09.16h-.08a.17.17 0 01-.1-.1z"/><path d="M3.56 8.6h-.09a.21.21 0 01-.13-.13v-.25a.88.88 0 010-.16 1.81 1.81 0 01.96-1.31l.24-.11a.19.19 0 01.15 0 .18.18 0 01.09.1.18.18 0 01-.1.26 1.44 1.44 0 00-.95 1.1 1.14 1.14 0 000 .28.24.24 0 01-.13.21zm-.06-.12s.05 0 .05-.11a2.43 2.43 0 010-.3 1.54 1.54 0 011-1.2s.07 0 .05-.09h-.02l-.23.1a1.71 1.71 0 00-.87 1.23v.35a.08.08 0 00.02.02z"/><path d="M3.56 8.57h-.08a.18.18 0 01-.12-.12V8.3v-.08-.16a1.83 1.83 0 01.92-1.29l.24-.11a.15.15 0 01.13 0 .14.14 0 01.08.09.15.15 0 01-.11.2 1.45 1.45 0 00-1 1.14 2 2 0 000 .29.18.18 0 01-.11.19zM3.5 8.5s.06-.06.06-.13a2 2 0 010-.29 1.51 1.51 0 011-1.19.09.09 0 00.06-.12h-.04a1.73 1.73 0 00-.24.1 1.74 1.74 0 00-.88 1.24 1 1 0 000 .16.22.22 0 000 .08v.13a.09.09 0 00.04.02z"/><path d="M3.55 8.63h-.09a.24.24 0 01-.15-.16V8.05a1.88 1.88 0 01.94-1.33 1.36 1.36 0 01.25-.11.23.23 0 01.18 0 .19.19 0 01.1.12.22.22 0 01-.09.27 1.38 1.38 0 00-.93 1.1 1 1 0 000 .27.24.24 0 01-.14.24zm0-.18v-.08a1.39 1.39 0 010-.3 1.6 1.6 0 011-1.24l-.23.1a1.67 1.67 0 00-.85 1.21.59.59 0 000 .14v.19z"/><path d="M0 2.3c0-.16.05-.32.09-.48A1.67 1.67 0 011.6.54a16.6 16.6 0 011.73 0c.22 0 .33.1.34.31a1.18 1.18 0 010 .42.34.34 0 01-.37.27H2.01a.94.94 0 00-1 1Q1 8.31 1 14.07a1 1 0 00.65 1 1.4 1.4 0 00.64.15h10.87a1 1 0 001.06-1.05V2.6a1.13 1.13 0 00-.22-.77 1 1 0 00-.83-.32h-1a.67.67 0 01-.58-.45.38.38 0 01.14-.41.71.71 0 01.45-.15 13.2 13.2 0 011.41 0A1.78 1.78 0 0115.17 2V14.71a1.68 1.68 0 01-1.27 1.4 5.17 5.17 0 01-.54.11H1.77a1.88 1.88 0 01-1.67-1.4 4 4 0 01-.1-.5z"/><path d="M7.44 11.2H3.69a.54.54 0 01-.49-.26.5.5 0 01.36-.76h7.58a.56.56 0 01.57.31.5.5 0 01-.41.73H7.44zM7.44 13.21H3.69A.52.52 0 013.2 13a.5.5 0 01.36-.76h7.58a.56.56 0 01.57.31.5.5 0 01-.41.73H7.44zM7.63 0h1.68a.84.84 0 01.84.73.94.94 0 01-.32.88.62.62 0 01-.43.16H5.88a.8.8 0 01-.76-.64.91.91 0 01.4-1A.81.81 0 015.89 0zM10.34 8.62h-.28v-.5a1.68 1.68 0 01-.84-.2v-.49a1.48 1.48 0 00.4.2 1.37 1.37 0 00.44.09V6.64a1.69 1.69 0 01-.68-.44.79.79 0 01-.19-.54.85.85 0 01.24-.6 1 1 0 01.63-.3v-.42h.28v.41a1.49 1.49 0 01.67.14v.48a1.3 1.3 0 00-.67-.21v1.11a2.35 2.35 0 01.66.43.76.76 0 01.2.53.82.82 0 01-.23.59 1.19 1.19 0 01-.65.29zm-.28-3.45a.43.43 0 00-.39.45.51.51 0 00.07.28 1.18 1.18 0 00.32.24zm.28 2.53c.27 0 .41-.2.41-.43s-.14-.36-.41-.5z"/></g></g></symbol><symbol viewBox="0 0 28.45 26.57" id="icon-store" xmlns="http://www.w3.org/2000/svg"><g data-name="圖層 2"><g data-name="圖層 1"><path d="M25.09 24.67a8 8 0 011.62 0c.33.07.61.41.92.63a5.68 5.68 0 01-.88.69c-.19.1-.48 0-.72 0H2.51c-.18 0-.38.06-.52 0-.37-.21-.72-.47-1.08-.71a4.38 4.38 0 011-.63 7.92 7.92 0 011.63 0v-4.23-7.5a1 1 0 00-.73-1.16A2.88 2.88 0 011 8.58q.42-2.94 1-5.85A2.73 2.73 0 014.76.52H23.7A2.81 2.81 0 0126.59 3q.48 2.66.86 5.33a3.25 3.25 0 01-1.86 3.51 1.14 1.14 0 00-.6.77v11.66a2.11 2.11 0 00.1.4zm-18.4-.06v-1.17-8.33c0-.93.28-1.31 1.25-1.3h12.7c.9 0 1.24.33 1.23 1.22v9.54h1.78v-12a1.13 1.13 0 00-.39-.73 14.74 14.74 0 00-1.49-.84c-1.89 1.5-2.78 1.5-5 0-1.94 1.49-2.84 1.5-5.06 0-1.66 1.56-3.37 1.47-5 0-1.74 1.31-1.74 1.31-1.74 3.35v10.32zm13.74 0v-9.42h-6.37c-.75 0-.94.26-.93 1v7.69a5.83 5.83 0 00.1.8zM8 15.24v9.35h3.77v-9.35zm4.39-13.32c0 2.43-.05 4.74 0 7.06a1.74 1.74 0 001.94 1.73 1.77 1.77 0 001.73-1.93V4.3c0-.78-.07-1.57-.11-2.38zM7.92 2c-.09 1-.17 2.06-.26 3.09s-.2 2.14-.32 3.2A2 2 0 009 10.71c1.24.1 2-.72 2.06-2.17.06-1.83.12-3.67.17-5.5V1.95zm9.52-.07v6.86a1.85 1.85 0 103.66-.23c-.14-2-.32-3.93-.46-5.9 0-.5-.18-.76-.74-.74-.81-.02-1.64-.04-2.46-.04zm4.44 0c.22 2.52.38 4.93.65 7.32a1.79 1.79 0 002.16 1.48 1.82 1.82 0 001.51-1.97c-.27-1.85-.53-3.7-1-5.51A2.17 2.17 0 0024 2a6.46 6.46 0 00-2.12-.1zm-15.29 0c-.41 0-.68-.05-1-.05-2 0-2.25.2-2.57 2.14-.24 1.43-.48 2.86-.73 4.29a1.91 1.91 0 001.42 2.38A1.87 1.87 0 006 8.86c.24-2.27.4-4.54.59-6.93z"/><path d="M26.49 26.57H2.39a1.07 1.07 0 01-.64-.08c-.28-.16-.55-.34-.82-.53L0 25.32l.65-.42.28-.2a2.42 2.42 0 01.91-.49 4.43 4.43 0 011.21-.06v-5.73-5.5c0-.44-.06-.54-.43-.69A3.39 3.39 0 01.55 8.52c.24-2 .56-3.94.93-5.88A3.23 3.23 0 014.76 0H23.7a3.32 3.32 0 013.38 2.9c.35 1.92.63 3.67.86 5.35a3.71 3.71 0 01-2.11 4 .81.81 0 00-.34.36V24.12h.08a4.88 4.88 0 011.26.05 1.92 1.92 0 01.87.52l.24.2.53.38-.51.41-.23.2a3.29 3.29 0 01-.73.54 1 1 0 01-.51.15zm-24.7-1.26a4.08 4.08 0 00.44.28h24.28c.1-.06.2-.14.32-.23a.7.7 0 00-.25-.15 4.25 4.25 0 00-1 0h-.87l-.16-.52a1.25 1.25 0 01-.09-.37v-1.45-10.26a1.63 1.63 0 01.86-1.2 2.75 2.75 0 001.6-3c-.2-1.67-.48-3.41-.82-5.31A2.32 2.32 0 0023.7 1H4.76a2.23 2.23 0 00-2.3 1.81c-.37 1.92-.68 3.87-.92 5.81a2.36 2.36 0 001.51 2.68 1.53 1.53 0 011 1.63v12.24H2.97a3.56 3.56 0 00-.94 0 1 1 0 00-.24.14zm19.14-.19h-8.12l-.1-.68a4.48 4.48 0 01-.06-.62v-2.74-4.94A1.47 1.47 0 0113 15a1.49 1.49 0 011.09-.34h6.86zm-7.26-1h6.26v-8.43h-5.88c-.3 0-.37.05-.37.05s-.06.06 0 .41v7.68c-.03.08-.02.17-.01.29zm-6.48 1h-2.7v-.87-9.96c0-2.21.07-2.35 1.94-3.75l.34-.25.3.28c1.49 1.36 2.91 1.36 4.33 0l.29-.27.34.22c2 1.39 2.7 1.39 4.47 0l.28-.21.3.19c2.08 1.38 2.74 1.39 4.44 0l.28-.22.3.18c.13.09.27.17.41.25a10 10 0 011.09.7 1.64 1.64 0 01.58 1.13V25h-2.84v-4-6.08a.93.93 0 00-.13-.6.86.86 0 00-.59-.12H7.91a.9.9 0 00-.62.13c-.06.06-.13.23-.13.66v6zm-1.75-1h.75v-3-6a1.89 1.89 0 01.42-1.38 1.78 1.78 0 011.33-.43h12.7a1.72 1.72 0 011.31.42 1.8 1.8 0 01.42 1.31v9.07h.78v-1.84-9.64a.64.64 0 00-.2-.35 10.32 10.32 0 00-1-.63l-.13-.08c-1.79 1.36-2.93 1.36-5.05 0-1.86 1.35-2.95 1.35-5 0a3.71 3.71 0 01-5.08 0c-1.22.93-1.22 1.05-1.22 2.71v9.16c-.05.23-.04.44-.03.67zm6.85 1H7.52V14.74h4.77zm-3.77-1h2.77v-8.38H8.52zM4.16 11.23a2.7 2.7 0 01-.49 0 2.42 2.42 0 01-1.82-3c.25-1.43.49-2.85.73-4.28.36-2.18.83-2.59 3.06-2.56h.6l.89.05-.21 2.64c-.13 1.64-.25 3.23-.4 4.83a2.58 2.58 0 01-1 1.87 2.24 2.24 0 01-1.36.45zm1.12-8.85c-1.39 0-1.45.15-1.71 1.72S3.08 7 2.84 8.39a1.42 1.42 0 001 1.81 1.31 1.31 0 001.1-.2 1.6 1.6 0 00.58-1.17c.15-1.59.28-3.17.4-4.8l.13-1.63h-.42zm19.07 8.85a2.39 2.39 0 01-1.48-.49A2.07 2.07 0 0122 9.28c-.2-1.71-.33-3.4-.48-5.18-.06-.71-.11-1.43-.18-2.15V1.4H22.56a4 4 0 011.62.12 2.71 2.71 0 011.55 1.64c.42 1.82.7 3.69 1 5.49a2.33 2.33 0 01-1.93 2.57 3 3 0 01-.45.01zm-1.93-8.85c0 .55.09 1.1.14 1.64.14 1.77.28 3.45.47 5.15a1.17 1.17 0 00.44.78 1.53 1.53 0 001.14.26 1.34 1.34 0 001.1-1.38c-.27-1.85-.54-3.7-1-5.47a1.72 1.72 0 00-.92-.94 3.27 3.27 0 00-1.2 0zM9.2 11.22H9a2.2 2.2 0 01-1.56-.79 2.85 2.85 0 01-.56-2.18c.11-1.06.21-2.13.31-3.19.07-.71.12-1.42.18-2.15l.12-1.46h4.28V3.06l-.17 5.51a2.81 2.81 0 01-.84 2.11 2.24 2.24 0 01-1.56.54zm-.81-8.78L8.34 3q-.09 1.1-.18 2.16c-.1 1.07-.2 2.14-.32 3.21a1.93 1.93 0 00.34 1.43 1.17 1.17 0 00.87.43 1.25 1.25 0 001-.29 1.83 1.83 0 00.51-1.39L10.74 3a5.61 5.61 0 000-.58zm10.88 8.78a2.21 2.21 0 01-1.55-.57 2.55 2.55 0 01-.72-1.9V1.38h2.96c.77 0 1.19.38 1.25 1.21.07 1 .16 2.07.24 3.11s.16 1.86.22 2.78a2.33 2.33 0 01-2.11 2.74zm-1.33-8.84v6.38a1.54 1.54 0 00.45 1.18 1.32 1.32 0 001 .3c.83-.06 1.27-.67 1.2-1.66s-.15-1.85-.22-2.78-.18-2.08-.25-3.12a.65.65 0 000-.27h-1.93zm-3.7 8.84a2.38 2.38 0 01-1.63-.61 2.23 2.23 0 01-.7-1.61c-.05-1.64 0-3.25 0-5V1.39h4.49l.06 1.24c0 .55.06 1.09.07 1.63 0 1.5.06 3 0 4.49a2.28 2.28 0 01-2.21 2.43zm-1.35-8.8v6.55a1.23 1.23 0 00.38.9 1.33 1.33 0 001 .34 1.29 1.29 0 001.26-1.44c0-1.48 0-3-.05-4.46 0-.53 0-1.06-.07-1.6v-.29z"/></g></g></symbol><symbol viewBox="0 0 17.03 17.07" id="icon-storeInfo" xmlns="http://www.w3.org/2000/svg"><g data-name="圖層 2"><g data-name="圖層 1"><path d="M8.82.36c.24 0 .49.07.73.13A4.48 4.48 0 117.77.43l.47-.07zm3.24 4.5a3.54 3.54 0 10-3.53 3.53 3.55 3.55 0 003.53-3.53z"/><path d="M8.53 9.58a4.72 4.72 0 01-3.86-7.43A4.7 4.7 0 017.74.21h1.34a4.71 4.71 0 01.22 9.3 5.12 5.12 0 01-.77.07zm-.29-9L8.13.6l-.32.05A4.25 4.25 0 005 2.41a4.33 4.33 0 00-.7 3.25 4.26 4.26 0 008.41-1.4A4.32 4.32 0 009 .62L8.8.58zm.29 8a3.76 3.76 0 110-7.52 3.75 3.75 0 012.65 6.41 3.73 3.73 0 01-2.65 1.15zm0-7.07a3.32 3.32 0 00-3.31 3.35 3.33 3.33 0 003.31 3.31 3.31 3.31 0 003.3-3.31 3.25 3.25 0 00-1-2.34 3.24 3.24 0 00-2.29-.97z"/><path d="M8.53 9.49A4.64 4.64 0 014.74 2.2a4.61 4.61 0 013-1.9h1.32l.51.1a4.62 4.62 0 01-.3 9.06 3.81 3.81 0 01-.74.03zM8.24.5h-.13L7.8.56a4.37 4.37 0 101.72.06C9.36.58 9.19.56 9 .53L8.81.5zm.29 8a3.67 3.67 0 010-7.34 3.65 3.65 0 013.65 3.67 3.67 3.67 0 01-3.65 3.7zm0-7.07a3.41 3.41 0 00-3.4 3.4 3.43 3.43 0 003.4 3.4 3.45 3.45 0 002.4-1 3.38 3.38 0 001-2.4 3.37 3.37 0 00-1-2.41 3.31 3.31 0 00-2.39-.96z"/><path d="M8.53 9.71a4.85 4.85 0 01-4-7.63 4.77 4.77 0 013.15-2L8.05 0h1.06l.52.1a4.85 4.85 0 01-.31 9.5 4.22 4.22 0 01-.79.11zm-.27-9h-.11l-.31.08a4.1 4.1 0 00-2.69 1.7 4.13 4.13 0 107.46 1.79A4.1 4.1 0 009.47.84L9 .76h-.24zm.27 8a3.93 3.93 0 01-3.9-3.9A3.92 3.92 0 018.53 1a3.9 3.9 0 012.75 6.65 3.85 3.85 0 01-2.75 1.1zm0-7.07a3.2 3.2 0 00-3.18 3.22A3.21 3.21 0 008.53 8a3.18 3.18 0 003.17-3.14 3.25 3.25 0 00-.94-2.26 3.16 3.16 0 00-2.22-.92zM16.1 16.7c-.3-.11-.37-.33-.38-.63A6.27 6.27 0 0014 11.74a5.3 5.3 0 00-2.27-1.42.49.49 0 01-.37-.63.48.48 0 01.63-.28 5.91 5.91 0 011.45.65 7.05 7.05 0 013.18 4.88c0 .21.07.41.1.61v.83l-.35.32z"/><path d="M16.41 16.93h-.39a.8.8 0 01-.52-.83 6.18 6.18 0 00-1.71-4.19 5.05 5.05 0 00-2.18-1.35.79.79 0 01-.48-.39.72.72 0 010-.54.71.71 0 01.87-.44 6.22 6.22 0 011.5.69 7.33 7.33 0 013.29 5l.06.41v1.21zm-.27-.45h.09l.22-.2V15.37c0-.13 0-.26-.07-.38a6.77 6.77 0 00-3.08-4.74 5.85 5.85 0 00-1.39-.63c-.17 0-.31 0-.35.14a.21.21 0 000 .19.35.35 0 00.21.16 5.56 5.56 0 012.37 1.47 6.54 6.54 0 011.83 4.49c.03.26.03.35.17.41z"/><path d="M16.37 16.84h-.32a.73.73 0 01-.47-.75 6.19 6.19 0 00-1.73-4.25 5.19 5.19 0 00-2.22-1.38.69.69 0 01-.42-.34.59.59 0 010-.47.62.62 0 01.79-.38 5.89 5.89 0 011.48.68 7.2 7.2 0 013.25 5c0 .14.05.28.07.43v1.09zm-.25-.27h.15l.26-.25v-.93c0-.14 0-.28-.07-.42a7 7 0 00-3.13-4.79 5.33 5.33 0 00-1.41-.64.34.34 0 00-.46.19.33.33 0 000 .26.44.44 0 00.27.2 5.61 5.61 0 012.33 1.45 6.5 6.5 0 011.81 4.43c-.01.28.07.42.25.5z"/><path d="M16.46 17.07L16 17a1 1 0 01-.61-1 6 6 0 00-1.7-4 5 5 0 00-2.12-1.32.9.9 0 01-.56-.46.81.81 0 010-.65.85.85 0 011.07-.5 5.93 5.93 0 011.53.7 7.43 7.43 0 013.35 5.12c0 .14.05.29.07.44v1.18zm-.29-.73l.13-.12v-.8c0-.14 0-.27-.07-.41a6.73 6.73 0 00-3-4.64 5.37 5.37 0 00-1.35-.62c-.05 0-.15 0-.19.06a.19.19 0 000 .08.27.27 0 00.13.09 5.75 5.75 0 012.43 1.51 6.62 6.62 0 011.87 4.57c-.03.2 0 .25.05.28zM.36 15.78c0-.31.07-.62.13-.93A7 7 0 014 9.86a7.21 7.21 0 011-.43.46.46 0 01.63.28.48.48 0 01-.34.62 5.9 5.9 0 00-3.89 4.59 6.21 6.21 0 00-.12 1.14.63.63 0 01-.28.64H.74a.56.56 0 01-.38-.38z"/><path d="M1 16.93H.66a.79.79 0 01-.52-.52V15.48c0-.22.06-.44.1-.65a7.21 7.21 0 013.67-5.16 6.42 6.42 0 011-.42h.08a.69.69 0 01.58 0 .66.66 0 01.35.4.7.7 0 01-.49.9A5.63 5.63 0 001.67 15a5.6 5.6 0 00-.12 1.1.85.85 0 01-.49.84zm-.23-.45h.14c.12-.07.19-.17.19-.42a7.59 7.59 0 01.13-1.19 6.14 6.14 0 014-4.75.26.26 0 00.21-.34.24.24 0 00-.12-.14.3.3 0 00-.23 0L5 9.67a5.67 5.67 0 00-.91.39 6.72 6.72 0 00-3.38 4.83q-.06.31-.09.63v.76a.36.36 0 00.16.2z"/><path d="M1 16.84H.7a.69.69 0 01-.47-.47v-.6-.3c0-.1 0-.42.1-.64A7.12 7.12 0 014 9.74a6.3 6.3 0 011-.41V9.3a.6.6 0 01.51 0 .55.55 0 01.3.35.61.61 0 01-.43.79A5.69 5.69 0 001.59 15a5 5 0 00-.13 1.11.77.77 0 01-.44.77zm-.23-.27h.16a.52.52 0 00.26-.51 5.64 5.64 0 01.13-1.17 6 6 0 014-4.68.36.36 0 00.26-.46.33.33 0 00-.16-.19.44.44 0 00-.3 0L5 9.58a7.52 7.52 0 00-.92.4 6.91 6.91 0 00-3.47 4.9c0 .2-.06.41-.09.62v.8a.43.43 0 00.25.27z"/><path d="M1 17.06L.62 17a.9.9 0 01-.6-.61v-.99c0-.22 0-.44.1-.66a7.31 7.31 0 013.73-5.19 6.59 6.59 0 011-.43h.08a.83.83 0 01.69 0 .82.82 0 01.38.49.84.84 0 01-.57 1.06A5.5 5.5 0 001.8 15a6.3 6.3 0 00-.11 1.07 1 1 0 01-.57 1zm-.18-.72h.06s.08-.09.09-.29a6.14 6.14 0 01.13-1.21A6.26 6.26 0 015.22 10c.15-.05.13-.13.12-.17a.13.13 0 000-.06.17.17 0 00-.12 0h-.08a6 6 0 00-.89.38 6.65 6.65 0 00-3.41 4.77c0 .19-.06.38-.08.57v.76a.2.2 0 00.05.09z"/></g></g></symbol><symbol viewBox="0 0 29.61 40.75" id="icon-trashbin" xmlns="http://www.w3.org/2000/svg"><g data-name="圖層 2"><path d="M.37 13.89H25.5c0 .61.08 1.16.08 1.71v18.21a6.59 6.59 0 01-6.88 6.93H6.78a6.37 6.37 0 01-6.4-6.31c-.04-6.8-.01-13.6-.01-20.54zM11.2 26.63v7.5c0 1.17.17 2.22 1.67 2.19s1.81-1 1.81-2.16v-15c0-1.25-.52-2.21-1.79-2.24s-1.73 1-1.72 2.21c.04 2.51.03 5.01.03 7.5zm-6.47 0v7.47c0 1.16.13 2.23 1.65 2.21s1.8-1 1.8-2.17V19.2c0-1.24-.5-2.22-1.77-2.26s-1.73 1-1.71 2.22c.05 2.49.03 4.98.03 7.47zm16.07 0v-7.31c0-1.3-.48-2.34-1.86-2.34s-1.63 1.02-1.63 2.24v15c0 1.2.24 2.2 1.73 2.12s1.74-1 1.74-2.23q.02-3.79.02-7.52zM21.63 6.9c2.1.4 4.1.72 6.07 1.18a2.24 2.24 0 011.91 2.45c-.16 2.05-1 3.11-2.54 2.91-2.73-.37-5.43-.95-8.13-1.48-5.53-1.08-11-2.19-16.58-3.26C.47 8.33-.18 7.52 0 5.65S1.05 3 3 3.26c1.62.2 3.19.69 4.81.87a2.2 2.2 0 001.76-.66c2-2.84 4.28-4 7.17-3.27 2.63.63 4.38 2.85 4.8 6.09-.01.17.03.33.09.61zm-2.83-.56c-.13-2.17-1.13-3.45-2.8-3.76a3.72 3.72 0 00-4.24 2.34z"/></g></symbol></svg>