<svg width="50" height="50" viewBox="0 0 50 50" fill="none" xmlns="http://www.w3.org/2000/svg">
<g clip-path="url(#clip0)">
<path d="M49.1667 25.8333H34.6083C34.3169 25.8334 34.0468 25.9857 33.8958 26.2349C33.7449 26.4842 33.7351 26.7941 33.87 27.0524C36.0604 31.2599 34.9935 36.4273 31.3158 39.4232C27.6382 42.4191 22.3618 42.4191 18.6842 39.4232C15.0065 36.4273 13.9396 31.2599 16.13 27.0524C16.2649 26.7941 16.2551 26.4842 16.1042 26.2349C15.9532 25.9857 15.6831 25.8334 15.3917 25.8333H0.833333C0.373096 25.8333 0 26.2063 0 26.6666C0 27.1268 0.373096 27.4999 0.833333 27.4999H14.1042C12.2447 32.3582 13.8263 37.8607 17.9818 40.99C22.1374 44.1193 27.8626 44.1193 32.0182 40.99C36.1737 37.8607 37.7553 32.3582 35.8958 27.4999H49.1667C49.6269 27.4999 50 27.1268 50 26.6666C50 26.2063 49.6269 25.8333 49.1667 25.8333Z" fill="#72705B"/>
<path d="M29.8068 4.12913C27.3351 6.99329 24.0693 12.2366 22.5468 20.955C22.1335 23.0486 21.1052 24.9713 19.5934 26.4775C16.8701 29.3134 16.7991 33.771 19.4308 36.6922C22.0624 39.6134 26.5033 40.0064 29.6071 37.5928C32.7108 35.1793 33.4239 30.7784 31.2409 27.5083C29.5228 25.0837 28.755 22.1126 29.0834 19.1591C29.5769 14.5973 30.754 10.1357 32.5751 5.92413C32.9224 5.17161 32.6639 4.27828 31.9685 3.82739C31.2732 3.3765 30.3521 3.50506 29.8068 4.12913ZM27.4351 18.9416C27.0673 22.2936 27.9258 25.6654 29.8518 28.4333C31.5495 30.9766 30.9951 34.3993 28.5814 36.2766C26.1676 38.1539 22.7137 37.8486 20.6667 35.577C18.6196 33.3054 18.6742 29.8385 20.7918 27.6325C22.5344 25.8877 23.7162 23.6624 24.1859 21.2416C25.6451 12.8983 28.7334 7.92246 31.0659 5.21746C29.173 9.58376 27.9489 14.2105 27.4351 18.9416Z" fill="#72705B"/>
<path d="M5.00014 32.4999C5.46038 32.4999 5.83348 32.1268 5.83348 31.6666C5.83348 31.2063 5.46038 30.8333 5.00014 30.8333C4.53991 30.8333 4.16681 31.2063 4.16681 31.6666C4.16681 32.1268 4.53991 32.4999 5.00014 32.4999Z" fill="#72705B"/>
<path d="M9.99996 32.4999C10.4602 32.4999 10.8333 32.1268 10.8333 31.6666C10.8333 31.2063 10.4602 30.8333 9.99996 30.8333C9.53972 30.8333 9.16663 31.2063 9.16663 31.6666C9.16663 32.1268 9.53972 32.4999 9.99996 32.4999Z" fill="#72705B"/>
<path d="M2.49981 35.8334C2.96005 35.8334 3.33314 35.4603 3.33314 35.0001C3.33314 34.5398 2.96005 34.1667 2.49981 34.1667C2.03957 34.1667 1.66647 34.5398 1.66647 35.0001C1.66647 35.4603 2.03957 35.8334 2.49981 35.8334Z" fill="#72705B"/>
<path d="M7.50005 35.8334C7.96029 35.8334 8.33339 35.4603 8.33339 35.0001C8.33339 34.5398 7.96029 34.1667 7.50005 34.1667C7.03981 34.1667 6.66672 34.5398 6.66672 35.0001C6.66672 35.4603 7.03981 35.8334 7.50005 35.8334Z" fill="#72705B"/>
<path d="M5.00014 39.1667C5.46038 39.1667 5.83348 38.7936 5.83348 38.3333C5.83348 37.8731 5.46038 37.5 5.00014 37.5C4.53991 37.5 4.16681 37.8731 4.16681 38.3333C4.16681 38.7936 4.53991 39.1667 5.00014 39.1667Z" fill="#72705B"/>
<path d="M9.99996 39.1667C10.4602 39.1667 10.8333 38.7936 10.8333 38.3333C10.8333 37.8731 10.4602 37.5 9.99996 37.5C9.53972 37.5 9.16663 37.8731 9.16663 38.3333C9.16663 38.7936 9.53972 39.1667 9.99996 39.1667Z" fill="#72705B"/>
<path d="M2.49981 42.5002C2.96005 42.5002 3.33314 42.1271 3.33314 41.6668C3.33314 41.2066 2.96005 40.8335 2.49981 40.8335C2.03957 40.8335 1.66647 41.2066 1.66647 41.6668C1.66647 42.1271 2.03957 42.5002 2.49981 42.5002Z" fill="#72705B"/>
<path d="M7.50005 42.5002C7.96029 42.5002 8.33339 42.1271 8.33339 41.6668C8.33339 41.2066 7.96029 40.8335 7.50005 40.8335C7.03981 40.8335 6.66672 41.2066 6.66672 41.6668C6.66672 42.1271 7.03981 42.5002 7.50005 42.5002Z" fill="#72705B"/>
<path d="M12.4999 42.5002C12.9601 42.5002 13.3332 42.1271 13.3332 41.6668C13.3332 41.2066 12.9601 40.8335 12.4999 40.8335C12.0397 40.8335 11.6666 41.2066 11.6666 41.6668C11.6666 42.1271 12.0397 42.5002 12.4999 42.5002Z" fill="#72705B"/>
<path d="M5.00014 45.8332C5.46038 45.8332 5.83348 45.4601 5.83348 44.9998C5.83348 44.5396 5.46038 44.1665 5.00014 44.1665C4.53991 44.1665 4.16681 44.5396 4.16681 44.9998C4.16681 45.4601 4.53991 45.8332 5.00014 45.8332Z" fill="#72705B"/>
<path d="M9.99996 45.8332C10.4602 45.8332 10.8333 45.4601 10.8333 44.9998C10.8333 44.5396 10.4602 44.1665 9.99996 44.1665C9.53972 44.1665 9.16663 44.5396 9.16663 44.9998C9.16663 45.4601 9.53972 45.8332 9.99996 45.8332Z" fill="#72705B"/>
<path d="M14.9998 45.8332C15.46 45.8332 15.8331 45.4601 15.8331 44.9998C15.8331 44.5396 15.46 44.1665 14.9998 44.1665C14.5396 44.1665 14.1665 44.5396 14.1665 44.9998C14.1665 45.4601 14.5396 45.8332 14.9998 45.8332Z" fill="#72705B"/>
<path d="M20.0001 45.8332C20.4603 45.8332 20.8334 45.4601 20.8334 44.9998C20.8334 44.5396 20.4603 44.1665 20.0001 44.1665C19.5398 44.1665 19.1667 44.5396 19.1667 44.9998C19.1667 45.4601 19.5398 45.8332 20.0001 45.8332Z" fill="#72705B"/>
<path d="M24.9999 45.8332C25.4601 45.8332 25.8332 45.4601 25.8332 44.9998C25.8332 44.5396 25.4601 44.1665 24.9999 44.1665C24.5397 44.1665 24.1666 44.5396 24.1666 44.9998C24.1666 45.4601 24.5397 45.8332 24.9999 45.8332Z" fill="#72705B"/>
<path d="M45.0001 32.4999C45.4603 32.4999 45.8334 32.1268 45.8334 31.6666C45.8334 31.2063 45.4603 30.8333 45.0001 30.8333C44.5398 30.8333 44.1667 31.2063 44.1667 31.6666C44.1667 32.1268 44.5398 32.4999 45.0001 32.4999Z" fill="#72705B"/>
<path d="M39.9998 32.4999C40.46 32.4999 40.8331 32.1268 40.8331 31.6666C40.8331 31.2063 40.46 30.8333 39.9998 30.8333C39.5396 30.8333 39.1665 31.2063 39.1665 31.6666C39.1665 32.1268 39.5396 32.4999 39.9998 32.4999Z" fill="#72705B"/>
<path d="M47.5 35.8334C47.9602 35.8334 48.3333 35.4603 48.3333 35.0001C48.3333 34.5398 47.9602 34.1667 47.5 34.1667C47.0398 34.1667 46.6667 34.5398 46.6667 35.0001C46.6667 35.4603 47.0398 35.8334 47.5 35.8334Z" fill="#72705B"/>
<path d="M42.5002 35.8334C42.9604 35.8334 43.3335 35.4603 43.3335 35.0001C43.3335 34.5398 42.9604 34.1667 42.5002 34.1667C42.0399 34.1667 41.6668 34.5398 41.6668 35.0001C41.6668 35.4603 42.0399 35.8334 42.5002 35.8334Z" fill="#72705B"/>
<path d="M45.0001 39.1667C45.4603 39.1667 45.8334 38.7936 45.8334 38.3333C45.8334 37.8731 45.4603 37.5 45.0001 37.5C44.5398 37.5 44.1667 37.8731 44.1667 38.3333C44.1667 38.7936 44.5398 39.1667 45.0001 39.1667Z" fill="#72705B"/>
<path d="M39.9998 39.1667C40.46 39.1667 40.8331 38.7936 40.8331 38.3333C40.8331 37.8731 40.46 37.5 39.9998 37.5C39.5396 37.5 39.1665 37.8731 39.1665 38.3333C39.1665 38.7936 39.5396 39.1667 39.9998 39.1667Z" fill="#72705B"/>
<path d="M47.5 42.5002C47.9602 42.5002 48.3333 42.1271 48.3333 41.6668C48.3333 41.2066 47.9602 40.8335 47.5 40.8335C47.0398 40.8335 46.6667 41.2066 46.6667 41.6668C46.6667 42.1271 47.0398 42.5002 47.5 42.5002Z" fill="#72705B"/>
<path d="M42.5002 42.5002C42.9604 42.5002 43.3335 42.1271 43.3335 41.6668C43.3335 41.2066 42.9604 40.8335 42.5002 40.8335C42.0399 40.8335 41.6668 41.2066 41.6668 41.6668C41.6668 42.1271 42.0399 42.5002 42.5002 42.5002Z" fill="#72705B"/>
<path d="M37.4999 42.5002C37.9601 42.5002 38.3332 42.1271 38.3332 41.6668C38.3332 41.2066 37.9601 40.8335 37.4999 40.8335C37.0397 40.8335 36.6666 41.2066 36.6666 41.6668C36.6666 42.1271 37.0397 42.5002 37.4999 42.5002Z" fill="#72705B"/>
<path d="M45.0001 45.8332C45.4603 45.8332 45.8334 45.4601 45.8334 44.9998C45.8334 44.5396 45.4603 44.1665 45.0001 44.1665C44.5398 44.1665 44.1667 44.5396 44.1667 44.9998C44.1667 45.4601 44.5398 45.8332 45.0001 45.8332Z" fill="#72705B"/>
<path d="M39.9998 45.8332C40.46 45.8332 40.8331 45.4601 40.8331 44.9998C40.8331 44.5396 40.46 44.1665 39.9998 44.1665C39.5396 44.1665 39.1665 44.5396 39.1665 44.9998C39.1665 45.4601 39.5396 45.8332 39.9998 45.8332Z" fill="#72705B"/>
<path d="M35 45.8332C35.4602 45.8332 35.8333 45.4601 35.8333 44.9998C35.8333 44.5396 35.4602 44.1665 35 44.1665C34.5398 44.1665 34.1667 44.5396 34.1667 44.9998C34.1667 45.4601 34.5398 45.8332 35 45.8332Z" fill="#72705B"/>
<path d="M30.0002 45.8332C30.4604 45.8332 30.8335 45.4601 30.8335 44.9998C30.8335 44.5396 30.4604 44.1665 30.0002 44.1665C29.5399 44.1665 29.1668 44.5396 29.1668 44.9998C29.1668 45.4601 29.5399 45.8332 30.0002 45.8332Z" fill="#72705B"/>
<path d="M2.49981 49.1667C2.96005 49.1667 3.33314 48.7936 3.33314 48.3333C3.33314 47.8731 2.96005 47.5 2.49981 47.5C2.03957 47.5 1.66647 47.8731 1.66647 48.3333C1.66647 48.7936 2.03957 49.1667 2.49981 49.1667Z" fill="#72705B"/>
<path d="M7.50005 49.1667C7.96029 49.1667 8.33339 48.7936 8.33339 48.3333C8.33339 47.8731 7.96029 47.5 7.50005 47.5C7.03981 47.5 6.66672 47.8731 6.66672 48.3333C6.66672 48.7936 7.03981 49.1667 7.50005 49.1667Z" fill="#72705B"/>
<path d="M12.4999 49.1667C12.9601 49.1667 13.3332 48.7936 13.3332 48.3333C13.3332 47.8731 12.9601 47.5 12.4999 47.5C12.0397 47.5 11.6666 47.8731 11.6666 48.3333C11.6666 48.7936 12.0397 49.1667 12.4999 49.1667Z" fill="#72705B"/>
<path d="M17.5001 49.1667C17.9604 49.1667 18.3335 48.7936 18.3335 48.3333C18.3335 47.8731 17.9604 47.5 17.5001 47.5C17.0399 47.5 16.6668 47.8731 16.6668 48.3333C16.6668 48.7936 17.0399 49.1667 17.5001 49.1667Z" fill="#72705B"/>
<path d="M22.5 49.1667C22.9602 49.1667 23.3333 48.7936 23.3333 48.3333C23.3333 47.8731 22.9602 47.5 22.5 47.5C22.0398 47.5 21.6667 47.8731 21.6667 48.3333C21.6667 48.7936 22.0398 49.1667 22.5 49.1667Z" fill="#72705B"/>
<path d="M42.5002 49.1667C42.9604 49.1667 43.3335 48.7936 43.3335 48.3333C43.3335 47.8731 42.9604 47.5 42.5002 47.5C42.0399 47.5 41.6668 47.8731 41.6668 48.3333C41.6668 48.7936 42.0399 49.1667 42.5002 49.1667Z" fill="#72705B"/>
<path d="M47.5 49.1667C47.9602 49.1667 48.3333 48.7936 48.3333 48.3333C48.3333 47.8731 47.9602 47.5 47.5 47.5C47.0398 47.5 46.6667 47.8731 46.6667 48.3333C46.6667 48.7936 47.0398 49.1667 47.5 49.1667Z" fill="#72705B"/>
<path d="M37.4999 49.1667C37.9601 49.1667 38.3332 48.7936 38.3332 48.3333C38.3332 47.8731 37.9601 47.5 37.4999 47.5C37.0397 47.5 36.6666 47.8731 36.6666 48.3333C36.6666 48.7936 37.0397 49.1667 37.4999 49.1667Z" fill="#72705B"/>
<path d="M32.5001 49.1667C32.9603 49.1667 33.3334 48.7936 33.3334 48.3333C33.3334 47.8731 32.9603 47.5 32.5001 47.5C32.0398 47.5 31.6667 47.8731 31.6667 48.3333C31.6667 48.7936 32.0398 49.1667 32.5001 49.1667Z" fill="#72705B"/>
<path d="M27.4998 49.1667C27.96 49.1667 28.3331 48.7936 28.3331 48.3333C28.3331 47.8731 27.96 47.5 27.4998 47.5C27.0396 47.5 26.6665 47.8731 26.6665 48.3333C26.6665 48.7936 27.0396 49.1667 27.4998 49.1667Z" fill="#72705B"/>
<path d="M9.85408 1.94744C7.88658 4.50578 4.21075 10.5758 4.21075 13.6866C4.18157 16.5264 5.67985 19.163 8.13444 20.5914C10.589 22.0198 13.6216 22.0198 16.0762 20.5914C18.5308 19.163 20.0291 16.5264 19.9999 13.6866C19.9999 10.5758 16.3241 4.50578 14.3566 1.94744C13.8205 1.24598 12.9882 0.834473 12.1053 0.834473C11.2225 0.834473 10.3901 1.24598 9.85408 1.94744ZM12.1049 19.9999C8.64347 19.9724 5.85754 17.1481 5.87741 13.6866C5.87741 11.3099 8.96075 5.83994 11.1757 2.96328C11.3963 2.67243 11.7403 2.50158 12.1053 2.50158C12.4704 2.50158 12.8143 2.67243 13.0349 2.96328C15.2499 5.83994 18.3332 11.3099 18.3332 13.6866C18.3527 17.1482 15.5665 19.9724 12.1049 19.9999Z" fill="#72705B"/>
<path d="M11.3007 16.0515C10.5801 15.9445 9.95024 15.5084 9.59649 14.8715C9.31705 13.9593 9.39971 12.9744 9.82732 12.1215C10.0104 11.7124 9.83694 11.2317 9.4348 11.0336C9.03267 10.8356 8.54592 10.9912 8.33316 11.3857C8.28649 11.4782 7.21649 13.6874 8.08316 15.564C8.63779 16.6665 9.67748 17.4448 10.8915 17.6665C11.1801 17.7396 11.4858 17.6532 11.6935 17.4397C11.9011 17.2263 11.9791 16.9183 11.898 16.6318C11.817 16.3453 11.5893 16.1238 11.3007 16.0507V16.0515Z" fill="#72705B"/>
<path d="M36.9106 15.5891C37.236 15.9144 37.7635 15.9144 38.0889 15.5891L38.9223 14.7558C39.2381 14.4288 39.2336 13.909 38.9121 13.5876C38.5907 13.2661 38.0709 13.2616 37.7439 13.5774L36.9106 14.4108C36.5853 14.7362 36.5853 15.2637 36.9106 15.5891Z" fill="#72705B"/>
<path d="M33.5776 17.7442L32.7442 18.5775C32.4284 18.9045 32.4329 19.4243 32.7544 19.7457C33.0758 20.0671 33.5956 20.0717 33.9226 19.7559L34.7559 18.9225C35.0717 18.5955 35.0672 18.0758 34.7458 17.7543C34.4243 17.4329 33.9046 17.4284 33.5776 17.7442Z" fill="#72705B"/>
<path d="M36.9111 18.9225C37.7944 19.8067 37.9002 20 38.3336 20C38.6705 19.9999 38.9743 19.7969 39.1033 19.4856C39.2322 19.1742 39.161 18.8158 38.9227 18.5775L38.0894 17.7442C37.7624 17.4284 37.2426 17.4329 36.9212 17.7543C36.5998 18.0758 36.5952 18.5955 36.9111 18.9225Z" fill="#72705B"/>
<path d="M34.7559 14.4108L33.9226 13.5774C33.5956 13.2616 33.0758 13.2661 32.7544 13.5876C32.4329 13.909 32.4284 14.4288 32.7442 14.7558L33.5776 15.5891C33.9046 15.9049 34.4243 15.9004 34.7458 15.5789C35.0672 15.2575 35.0717 14.7377 34.7559 14.4108Z" fill="#72705B"/>
<path d="M42.4998 6.66651C42.9415 6.66651 43.0623 6.44901 43.9223 5.58901C44.1389 5.37978 44.2258 5.06994 44.1496 4.77859C44.0733 4.48723 43.8458 4.25969 43.5544 4.18343C43.263 4.10717 42.9532 4.19405 42.744 4.41068L41.9106 5.24401C41.6724 5.48234 41.6011 5.84071 41.7301 6.15205C41.859 6.4634 42.1628 6.66644 42.4998 6.66651Z" fill="#72705B"/>
<path d="M37.744 10.5891C38.0695 10.9144 38.597 10.9144 38.9224 10.5891L39.7557 9.75577C40.0715 9.42878 40.067 8.90903 39.7456 8.58758C39.4241 8.26614 38.9044 8.26162 38.5774 8.57743L37.744 9.41077C37.4187 9.73618 37.4187 10.2637 37.744 10.5891Z" fill="#72705B"/>
<path d="M41.9109 9.75577C42.7942 10.6399 42.9001 10.8333 43.3334 10.8333C43.6704 10.8332 43.9742 10.6302 44.1031 10.3188C44.2321 10.0075 44.1608 9.6491 43.9226 9.41077L43.0892 8.57743C42.7623 8.26162 42.2425 8.26614 41.921 8.58758C41.5996 8.90903 41.5951 9.42878 41.9109 9.75577Z" fill="#72705B"/>
<path d="M38.5774 6.4226C38.9044 6.73841 39.4241 6.73389 39.7456 6.41245C40.067 6.091 40.0715 5.57125 39.7557 5.24426L38.9224 4.41093C38.5954 4.09512 38.0757 4.09963 37.7542 4.42108C37.4328 4.74253 37.4282 5.26228 37.7441 5.58926L38.5774 6.4226Z" fill="#72705B"/>
</g>
<defs>
<clipPath id="clip0">
<rect width="50" height="50" fill="white"/>
</clipPath>
</defs>
</svg>
