<svg width="50" height="50" viewBox="0 0 50 50" fill="none" xmlns="http://www.w3.org/2000/svg">
<path d="M17.7937 10.8372C17.7937 9.59852 17.0095 8.5446 15.9113 8.12513C16.1811 7.65627 16.3371 7.12937 16.3371 6.57491C16.3371 5.73646 16.0094 4.9491 15.4138 4.35598C14.3869 3.33523 12.8272 3.18037 11.6248 3.86652C11.199 2.77711 10.1382 1.99292 8.90714 1.99292C7.66287 1.99292 6.60456 2.77516 6.18387 3.86835C4.98143 3.1828 3.42243 3.33828 2.39729 4.35964C1.80162 4.95214 1.47384 5.73999 1.47384 6.57845C1.47384 7.13474 1.63053 7.66163 1.90087 8.1311C0.807688 8.55594 0.0209351 9.6123 0.0209351 10.8379C0.0209351 12.0766 0.805737 13.1305 1.90331 13.55C1.63358 14.0182 1.4775 14.5451 1.4775 15.0996C1.47689 15.938 1.80466 16.726 2.40095 17.3197C3.01406 17.9303 3.82008 18.2356 4.62671 18.2356C5.1686 18.2356 5.7055 18.0851 6.18936 17.8092C6.61578 18.8986 7.67592 19.6822 8.90702 19.6822C10.1519 19.6822 11.2096 18.9005 11.631 17.8067C12.1137 18.0821 12.6499 18.2313 13.1912 18.2313C13.9973 18.2313 14.8033 17.926 15.4164 17.3154C16.0119 16.7229 16.3398 15.9351 16.3398 15.0966C16.3404 14.541 16.1837 14.0135 15.9128 13.544C17.0065 13.1192 17.7937 12.0628 17.7937 10.8372ZM11.842 5.24199C12.5843 4.50341 13.7906 4.50341 14.5328 5.24138C14.8906 5.5972 15.0885 6.07118 15.0885 6.57491C15.0885 7.07937 14.8912 7.55262 14.5328 7.90978C13.5663 8.87127 12.3651 9.44878 11.4436 9.41817C11.4162 9.37013 11.3943 9.31891 11.3643 9.2727L12.0929 8.54789C12.3377 8.30438 12.3389 7.90917 12.0954 7.66505C11.8519 7.42032 11.456 7.41849 11.2125 7.66249L10.4802 8.39108C10.4296 8.35864 10.3733 8.33425 10.3209 8.30487C10.3005 7.51958 10.7401 6.33896 11.842 5.24199ZM10.5827 10.8372C10.5827 11.7543 9.83108 12.5004 8.90702 12.5004C7.98296 12.5004 7.23194 11.7538 7.23194 10.8372C7.23194 9.92007 7.98296 9.17393 8.90702 9.17393C9.83108 9.17405 10.5827 9.92007 10.5827 10.8372ZM8.90702 3.2417C9.78486 3.2417 10.5147 3.93285 10.5727 4.7807C9.71243 5.77779 9.18358 6.92024 9.09176 7.94417C9.02932 7.94039 8.97006 7.92539 8.9069 7.92539C8.84129 7.92539 8.77959 7.94039 8.71521 7.94478C8.62217 6.92207 8.0971 5.78267 7.24364 4.7907C7.30376 3.92773 8.02235 3.2417 8.90702 3.2417ZM3.27745 5.24516C4.01981 4.50597 5.22591 4.50597 5.96889 5.24516C6.93282 6.2047 7.51289 7.39971 7.48411 8.30938C7.43411 8.33742 7.38107 8.36059 7.33303 8.3912L6.60066 7.66261C6.35593 7.4191 5.96133 7.42105 5.71782 7.66517C5.47431 7.9099 5.47552 8.3045 5.72026 8.54801L6.44945 9.27343C6.41824 9.32208 6.39519 9.37525 6.36641 9.42512C5.45297 9.45878 4.24808 8.87944 3.27781 7.91295C2.92004 7.55713 2.72214 7.08316 2.72214 6.57881C2.72177 6.07484 2.9198 5.60098 3.27745 5.24516ZM1.26898 10.8372C1.26898 9.96629 1.96392 9.24197 2.81737 9.18332C3.82008 10.0418 4.97192 10.5687 6.00145 10.6599C5.99767 10.7199 5.9834 10.7766 5.9834 10.8372C5.9834 10.9014 5.9984 10.9614 6.00218 11.0245C4.97387 11.1156 3.82886 11.6394 2.83188 12.4891C1.96136 12.4306 1.26898 11.7156 1.26898 10.8372ZM5.97145 16.4337C5.22848 17.1717 4.02298 17.1705 3.28123 16.4337C2.92285 16.0773 2.72494 15.6033 2.72555 15.0988C2.72555 14.595 2.92224 14.1223 3.28123 13.7653C4.24772 12.8038 5.4526 12.2245 6.36983 12.2563C6.39726 12.3044 6.41909 12.3556 6.44909 12.4024L5.71989 13.1272C5.47516 13.3707 5.47394 13.7653 5.71733 14.01C5.83903 14.1325 5.9995 14.1942 6.15997 14.1942C6.31922 14.1942 6.47835 14.1336 6.60017 14.0125L7.33315 13.2839C7.38375 13.3163 7.43924 13.3407 7.4924 13.3701C7.51423 14.1549 7.07403 15.3367 5.97145 16.4337ZM8.90702 18.4328C8.02918 18.4328 7.29937 17.7416 7.24133 16.8944C8.10222 15.8973 8.63046 14.7542 8.72228 13.7309C8.78471 13.7347 8.84337 13.7497 8.90641 13.7497C8.97262 13.7497 9.03371 13.7347 9.09871 13.7303C9.19175 14.753 9.71682 15.893 10.5703 16.885C10.5097 17.7467 9.79108 18.4328 8.90702 18.4328ZM14.536 16.4299C13.793 17.1685 12.5874 17.1673 11.8451 16.4299C10.8806 15.4704 10.3005 14.2748 10.3299 13.3651C10.3799 13.3371 10.4324 13.3145 10.4804 13.2839L11.2128 14.0125C11.3345 14.1336 11.4937 14.1942 11.653 14.1942C11.8134 14.1942 11.9739 14.1323 12.0956 14.01C12.3391 13.7653 12.3379 13.3707 12.0931 13.1272L11.3645 12.4024C11.3957 12.3537 11.4187 12.3006 11.4475 12.2507C12.3628 12.2177 13.5652 12.797 14.5361 13.7629C14.8945 14.1194 15.0924 14.5933 15.0918 15.0977C15.0917 15.6003 14.8944 16.0729 14.536 16.4299ZM14.9924 12.4917C13.9903 11.6338 12.8422 11.1081 11.8127 11.0176C11.8165 10.957 11.8308 10.899 11.8308 10.8372C11.8308 10.7741 11.8158 10.7141 11.812 10.6523C12.8403 10.5599 13.9884 10.0368 14.9867 9.18575C15.8551 9.24697 16.5451 9.95995 16.5451 10.8371C16.5451 11.7094 15.8477 12.4349 14.9924 12.4917Z" fill="#72705B"/>
<path d="M47.9942 28.6987C47.9948 27.4601 47.2106 26.4062 46.1124 25.9867C46.3822 25.5185 46.5382 24.9916 46.5382 24.4371C46.5382 23.5986 46.2105 22.8107 45.6149 22.2169C44.5898 21.1974 43.0327 21.0419 41.8309 21.7249C41.4127 20.6261 40.3625 19.8545 39.1082 19.8545C37.864 19.8545 36.8064 20.6361 36.385 21.7299C35.1825 21.0444 33.6235 21.1998 32.5984 22.2206C32.0027 22.8131 31.6749 23.601 31.6749 24.4394C31.6743 24.9951 31.831 25.5226 32.102 25.9928C31.0088 26.4174 30.2222 27.4737 30.2222 28.6992C30.2222 29.9379 31.0064 30.9918 32.1039 31.4113C31.8342 31.8801 31.6781 32.407 31.6781 32.9615C31.6787 33.8 32.0065 34.5872 32.6022 35.1803C33.2153 35.7916 34.0213 36.0962 34.8279 36.0962C35.3698 36.0962 35.9067 35.9457 36.3906 35.6698C36.8164 36.7592 37.8771 37.5434 39.1082 37.5434C40.3525 37.5434 41.4108 36.7611 41.8315 35.6672C42.3148 35.9426 42.851 36.0924 43.3923 36.0924C44.1984 36.0924 45.0044 35.7871 45.6175 35.1759C46.2132 34.5834 46.5409 33.7956 46.5409 32.957C46.5409 32.4033 46.3855 31.8776 46.1169 31.4099C47.22 30.9932 47.9942 29.9474 47.9942 28.6987ZM42.0431 23.1028C42.7854 22.3649 43.9923 22.3649 44.7333 23.1022C45.0917 23.4588 45.2896 23.9326 45.2896 24.4371C45.2896 24.9409 45.0923 25.4142 44.7339 25.7706C43.7668 26.7321 42.5588 27.3108 41.6447 27.2796C41.6173 27.2316 41.5954 27.1804 41.5654 27.1341L42.2946 26.4093C42.5394 26.1658 42.5406 25.7712 42.2971 25.5265C42.0536 25.2818 41.659 25.2799 41.4142 25.5239L40.6813 26.2525C40.6307 26.2201 40.5752 26.1957 40.522 26.1663C40.501 25.381 40.9411 24.1998 42.0431 23.1028ZM40.7832 28.6987C40.7832 29.6159 40.0322 30.362 39.1081 30.362C38.1841 30.362 37.433 29.616 37.433 28.6987C37.433 27.7816 38.1841 27.0355 39.1081 27.0355C40.0322 27.0355 40.7832 27.7815 40.7832 28.6987ZM39.1081 21.1032C40.001 21.1032 40.717 21.7805 40.7738 22.6415C39.9135 23.6386 39.3847 24.7817 39.2929 25.8056C39.2304 25.8018 39.1718 25.7868 39.108 25.7868C39.0424 25.7868 38.9807 25.8018 38.9163 25.8062C38.8239 24.7835 38.2988 23.6441 37.4447 22.6521C37.5055 21.7892 38.2235 21.1032 39.1081 21.1032ZM33.4786 23.106C34.2209 22.368 35.4278 22.368 36.1694 23.106C37.1347 24.0663 37.7146 25.2612 37.6846 26.1714C37.6346 26.1995 37.5822 26.222 37.5341 26.2526L36.8012 25.5241C36.5564 25.2805 36.1618 25.2831 35.9183 25.5266C35.6748 25.7714 35.676 26.1659 35.9208 26.4095L36.6499 27.1343C36.6187 27.1829 36.5957 27.2361 36.5669 27.2866C35.6548 27.3196 34.4498 26.7409 33.4783 25.7744C33.1199 25.4179 32.922 24.944 32.9226 24.4395C32.9229 23.9357 33.1202 23.4624 33.4786 23.106ZM31.4701 28.6987C31.4701 27.8279 32.165 27.1035 33.0185 27.0449C34.0212 27.9027 35.173 28.4302 36.2019 28.5214C36.1982 28.5814 36.1839 28.6381 36.1839 28.6987C36.1839 28.763 36.1989 28.823 36.2033 28.8867C35.1769 28.9785 34.03 29.5016 33.0324 30.3507C32.1625 30.292 31.4701 29.5777 31.4701 28.6987ZM36.1726 34.2939C35.4302 35.0325 34.2234 35.0325 33.4823 34.2945C33.124 33.938 32.9267 33.4647 32.926 32.961C32.926 32.4566 33.1233 31.9833 33.4823 31.6261C34.4488 30.6634 35.6475 30.0853 36.5709 30.1178C36.5984 30.1658 36.6202 30.217 36.6502 30.2632L35.9216 30.9886C35.6769 31.2322 35.6757 31.6274 35.9192 31.8715C36.0409 31.9938 36.2013 32.0556 36.3618 32.0556C36.5211 32.0556 36.6808 31.995 36.802 31.8739L37.5344 31.1447C37.585 31.1772 37.6411 31.2016 37.6936 31.2309C37.7152 32.0157 37.2751 33.197 36.1726 34.2939ZM39.1081 36.2942C38.2303 36.2942 37.5005 35.6031 37.4424 34.7552C38.3033 33.7581 38.8316 32.6157 38.9234 31.5918C38.9858 31.5955 39.0445 31.6105 39.1075 31.6105C39.1731 31.6105 39.2348 31.5955 39.2998 31.5911C39.3928 32.6139 39.9179 33.7533 40.7708 34.7452C40.7108 35.6082 39.9922 36.2942 39.1081 36.2942ZM44.7365 34.2908C43.9947 35.03 42.7879 35.03 42.0462 34.2908C41.0817 33.3312 40.501 32.1362 40.531 31.2259C40.581 31.1979 40.6341 31.1747 40.6821 31.1441L41.4145 31.8727C41.5356 31.9938 41.6954 32.0544 41.8547 32.0544C42.0152 32.0544 42.1756 31.9926 42.2973 31.8703C42.5408 31.6261 42.5396 31.2309 42.2948 30.9874L41.5656 30.262C41.5968 30.214 41.6198 30.1609 41.648 30.1103C42.5601 30.0767 43.7657 30.656 44.7366 31.6231C45.095 31.9796 45.2923 32.4529 45.2923 32.9572C45.2928 33.4611 45.0961 33.9343 44.7365 34.2908ZM45.1935 30.3532C44.1921 29.496 43.0446 28.9691 42.0132 28.8786C42.017 28.818 42.0312 28.7606 42.0312 28.6987C42.0312 28.6357 42.0162 28.5757 42.0125 28.5139C43.0408 28.4221 44.1888 27.8983 45.1872 27.0473C46.0556 27.1079 46.7461 27.8215 46.7461 28.6986C46.7461 29.5709 46.0488 30.2964 45.1935 30.3532Z" fill="#72705B"/>
<path d="M37.0779 42.5686C34.7711 40.9916 31.8498 41.5728 30.8733 41.8332C30.3008 41.3712 29.2975 40.4428 28.9797 39.6356C28.9785 39.6088 28.9797 39.5838 28.9785 39.5563C29.4861 39.0656 30.6848 37.812 31.0319 36.5989C31.1268 36.2674 30.9351 35.9216 30.6037 35.8273C30.2759 35.7337 29.9263 35.9241 29.832 36.2556C29.5923 37.0922 28.6733 38.1135 28.1432 38.6292C27.1455 38.46 24.1793 38.1492 22.0241 39.9335C20.3797 41.2958 19.6173 43.5266 19.7572 46.5638C19.7703 46.8479 19.9733 47.0871 20.251 47.1463C20.3216 47.1607 21.0708 47.3148 22.1066 47.3148C23.5107 47.3148 25.4411 47.0327 26.9189 45.7409C28.0171 44.7813 28.677 43.4234 28.9043 41.6995C29.3664 42.2008 29.8458 42.6098 30.1274 42.8358C30.231 45.609 31.1107 47.6131 32.7439 48.7949C34.007 49.7084 35.496 49.9606 36.7559 49.9606C38.2468 49.9606 39.4155 49.6072 39.5029 49.5797C39.7745 49.4949 39.9543 49.2382 39.9412 48.9548C39.8012 45.9195 38.8379 43.7718 37.0779 42.5686ZM22.8158 40.8992C23.9402 39.9646 25.4043 39.7474 26.5218 39.7474C26.6548 39.7474 26.7827 39.7506 26.9051 39.7562L21.0152 45.086C21.1419 43.1937 21.745 41.7882 22.8158 40.8992ZM26.1022 44.7956C24.8155 45.9232 22.9999 46.0923 21.8049 46.0561L27.7442 40.6812C27.6762 42.5168 27.1261 43.8979 26.1022 44.7956ZM33.4706 47.7781C32.3698 46.9802 31.6962 45.6578 31.4603 43.8404L37.8565 48.6365C36.6583 48.7851 34.8509 48.7801 33.4706 47.7781ZM32.2075 42.8397C33.3388 42.6848 35.0214 42.6742 36.3731 43.5995C37.5219 44.3843 38.2523 45.7254 38.5526 47.597L32.2075 42.8397Z" fill="#72705B"/>
<path d="M32.3841 14.6676C32.3772 14.3834 32.1799 14.1401 31.9026 14.0744C28.9489 13.3765 26.6171 13.713 24.977 15.0759C22.8274 16.8609 22.5845 19.8296 22.5677 20.8398C21.9664 21.263 20.8002 21.9736 19.9337 22.0566C19.9075 22.0504 19.8837 22.0422 19.8575 22.036C19.5253 21.4129 18.6488 19.917 17.5775 19.2496C17.2859 19.0673 16.9001 19.1565 16.7178 19.4493C16.5355 19.7421 16.6254 20.1267 16.9175 20.309C17.6561 20.769 18.3859 21.9334 18.7355 22.584C18.2991 23.4967 17.1853 26.2644 18.3097 28.8267C19.1682 30.7815 21.1036 32.1274 24.0635 32.8268C24.1104 32.8374 24.1584 32.843 24.2065 32.843C24.4337 32.843 24.6479 32.7187 24.7583 32.5114C24.8376 32.3616 26.6906 28.8004 25.2378 25.7144C24.616 24.3945 23.4915 23.3876 21.8964 22.6952C22.5058 22.3886 23.0302 22.0403 23.325 21.8311C26.019 22.4929 28.1891 22.1976 29.773 20.9515C32.4503 18.8456 32.3878 14.8367 32.3841 14.6676ZM19.4555 28.3304C18.7949 26.8332 19.1165 25.1725 19.4792 24.0843L22.9873 31.2111C21.2024 30.5692 20.0174 29.6033 19.4555 28.3304ZM24.1048 26.2407C24.8352 27.7871 24.5043 29.5677 24.1366 30.719L20.5985 23.5318C22.346 24.1005 23.523 25.0089 24.1048 26.2407ZM25.7798 16.0311C26.6339 15.3237 27.7552 14.9697 29.1294 14.9697C29.4765 14.9697 29.8399 14.9922 30.2182 15.0372L23.9043 19.8301C24.0673 18.6963 24.5219 17.0718 25.7798 16.0311ZM28.9959 19.9737C27.9257 20.8122 26.4723 21.0982 24.658 20.8248L31.0249 15.9924C30.8395 17.1849 30.3388 18.921 28.9959 19.9737Z" fill="#72705B"/>
<path d="M49.3384 8.3582C49.1593 8.11408 48.9394 7.89873 48.7041 7.69766C49.4607 6.58947 49.5825 5.29216 48.985 4.25824C48.3869 3.22065 47.1957 2.67437 45.8509 2.78228C45.7947 2.49012 45.7186 2.20478 45.6024 1.93761C45.1998 1.01172 44.4942 0.371785 43.6127 0.135833C42.7325 -0.10012 41.8004 0.0996167 40.9887 0.7009C40.7452 0.88137 40.5299 1.1011 40.3288 1.33645C39.2206 0.579082 37.9227 0.457996 36.8888 1.05489C35.8512 1.65422 35.3079 2.84362 35.4134 4.18593C34.1242 4.43688 33.0804 5.25546 32.7662 6.4279C32.4497 7.61096 32.9554 8.8534 33.9649 9.71685C33.2101 10.8238 33.0896 12.1187 33.6858 13.1513C34.2359 14.1034 35.2834 14.6422 36.4903 14.6422C36.5983 14.6422 36.7088 14.6322 36.8193 14.6234C36.8755 14.9168 36.9516 15.2034 37.0684 15.4725C37.471 16.3978 38.1772 17.0383 39.0588 17.2737C39.2997 17.3385 39.5439 17.3698 39.7886 17.3698C40.4398 17.3698 41.0929 17.145 41.6822 16.708C41.9275 16.5263 42.1436 16.3054 42.3452 16.0681C42.9795 16.5013 43.6743 16.733 44.348 16.733C44.8507 16.733 45.3401 16.6087 45.7814 16.354C46.8204 15.7541 47.3647 14.5622 47.2568 13.2168C48.5448 12.9652 49.5899 12.153 49.9034 10.9816C50.1393 10.1013 49.939 9.16922 49.3384 8.3582ZM45.7747 4.8594C45.8484 4.58467 45.8922 4.30811 45.917 4.03277C46.7849 3.96034 47.5535 4.27628 47.9037 4.88305C48.2527 5.48738 48.1446 6.30901 47.6521 7.02199C47.4112 6.91212 47.1589 6.81908 46.8955 6.74848C46.2025 6.56301 45.3865 6.628 44.6573 6.76726C45.1378 6.20805 45.5924 5.5425 45.7747 4.8594ZM40.5858 3.46904C40.7825 2.73302 41.1896 2.10674 41.7321 1.70531C42.2309 1.33572 42.786 1.20646 43.2897 1.34254C43.7954 1.47802 44.21 1.8664 44.4572 2.43573C44.7263 3.05445 44.7656 3.80048 44.5683 4.53662C44.4216 5.08413 43.9339 5.77906 43.2116 6.48826C42.8882 6.21414 42.5116 6.00502 42.0903 5.89198C41.6583 5.77528 41.2163 5.77211 40.7886 5.85515C40.5141 4.87257 40.4385 4.01972 40.5858 3.46904ZM37.5136 2.13734C38.1291 1.78275 38.9364 1.88639 39.6537 2.38769C39.5439 2.62925 39.4502 2.88215 39.3796 3.14566C39.1935 3.83742 39.2591 4.65466 39.3984 5.38447C38.8421 4.90683 38.1741 4.4498 37.4904 4.26628C37.2132 4.19202 36.936 4.1452 36.6626 4.12142C36.5901 3.25492 36.9073 2.48768 37.5136 2.13734ZM33.9729 6.75177C34.2677 5.6542 35.7005 5.07791 37.167 5.47251C37.7133 5.6192 38.4101 6.10684 39.1193 6.82921C38.8452 7.1532 38.6354 7.52914 38.5218 7.95178C38.4057 8.38442 38.4025 8.82584 38.485 9.25287C37.5022 9.52821 36.65 9.60442 36.0987 9.45639C34.6335 9.06301 33.679 7.84996 33.9729 6.75177ZM36.8979 12.5518C36.8243 12.8265 36.7805 13.1031 36.7556 13.3784C35.8878 13.449 35.1186 13.1337 34.769 12.5274C34.42 11.9231 34.528 11.1027 35.0193 10.3903C35.2584 10.4996 35.5113 10.5914 35.7767 10.6625C36.082 10.7443 36.4122 10.778 36.7488 10.778C37.174 10.778 37.6072 10.723 38.0149 10.6449C37.5348 11.2039 37.0809 11.8688 36.8979 12.5518ZM42.0868 13.9422C41.8901 14.6776 41.4825 15.3039 40.94 15.7053C40.4405 16.0755 39.8868 16.2016 39.3829 16.0681C38.8772 15.9326 38.462 15.5442 38.2155 14.9749C37.9457 14.3568 37.9071 13.6101 38.1038 12.8746C38.2505 12.3265 38.7375 11.6328 39.4585 10.9248C39.9886 11.3718 40.6572 11.6178 41.3415 11.6178C41.5226 11.6178 41.7043 11.5947 41.8846 11.5603C42.1586 12.5406 42.2341 13.3915 42.0868 13.9422ZM42.1673 10.1475C41.3763 10.6046 40.3543 10.3317 39.8947 9.5376C39.673 9.153 39.6137 8.70414 39.728 8.27516C39.8435 7.84557 40.1188 7.48658 40.5034 7.26502C40.76 7.1171 41.0447 7.0415 41.3332 7.0415C41.4769 7.0415 41.6229 7.06028 41.7659 7.09893C42.1954 7.2138 42.5544 7.48914 42.776 7.87435C43.2349 8.66854 42.9621 9.68807 42.1673 10.1475ZM45.1585 15.2726C44.5429 15.6279 43.7363 15.5236 43.0189 15.0223C43.1288 14.7807 43.2224 14.5285 43.293 14.2649C43.4785 13.5726 43.4135 12.7559 43.2742 12.0255C43.8337 12.5062 44.4991 12.9608 45.1822 13.1437C45.46 13.218 45.7367 13.2574 46.0101 13.281C46.0843 14.1507 45.7666 14.9218 45.1585 15.2726ZM48.6991 10.6588C48.4044 11.7564 46.9722 12.3327 45.505 11.9381C44.9563 11.7908 44.2613 11.3025 43.5521 10.5796C44.1172 9.90964 44.3494 9.01997 44.1846 8.15846C45.168 7.88252 46.0214 7.80765 46.5727 7.95434C47.3087 8.15103 47.935 8.55867 48.3364 9.10118C48.7059 9.60003 48.8346 10.1531 48.6991 10.6588Z" fill="#72705B"/>
<path d="M16.6688 38.4414C16.4889 38.1979 16.2692 37.9819 16.0338 37.7814C16.7906 36.6733 16.9123 35.3759 16.3148 34.342C15.7167 33.305 14.5254 32.7606 13.1837 32.8661C12.9328 31.5768 12.1149 30.5342 10.9424 30.2195C10.0627 29.9829 9.13 30.1839 8.31837 30.7846C8.07425 30.965 7.8589 31.1848 7.65843 31.4207C6.55025 30.6647 5.25354 30.5423 4.21901 31.1392C3.18143 31.7385 2.63819 32.9279 2.74367 34.2702C1.45379 34.5211 0.410603 35.339 0.0964876 36.5116C-0.139465 37.3918 0.0608813 38.3239 0.661554 39.135C0.842025 39.3791 1.06176 39.5944 1.29771 39.7955C0.540347 40.9031 0.419261 42.2004 1.01615 43.2343C1.56622 44.1864 2.6138 44.7253 3.82064 44.7253C3.92867 44.7253 4.03915 44.7153 4.14963 44.7065C4.20584 44.9999 4.28193 45.2864 4.39875 45.5556C4.80139 46.4808 5.50754 47.1214 6.38843 47.3567C6.62939 47.4216 6.87351 47.4529 7.11885 47.4529C7.77001 47.4529 8.42311 47.2282 9.01245 46.7912C9.25779 46.6095 9.47386 46.3885 9.67543 46.1512C10.3098 46.5845 11.004 46.8162 11.6783 46.8162C12.1809 46.8162 12.6704 46.6919 13.1117 46.4372C14.1506 45.8366 14.6949 44.6447 14.5863 43.2999C15.8749 43.0484 16.9194 42.2361 17.2335 41.0648C17.4698 40.1845 17.2694 39.2524 16.6688 38.4414ZM13.1033 34.9433C13.1775 34.6661 13.2244 34.3896 13.2481 34.1167C14.1154 34.0455 14.8832 34.3608 15.2328 34.9663C15.5818 35.5707 15.4738 36.3923 14.9813 37.1053C14.7403 36.9954 14.488 36.9024 14.2246 36.8318C13.5335 36.6463 12.7162 36.7119 11.9852 36.8518C12.4658 36.2924 12.921 35.6263 13.1033 34.9433ZM7.91572 33.5522C8.11241 32.8168 8.51945 32.1905 9.06195 31.7885C9.56142 31.4189 10.1159 31.2902 10.6196 31.4257C11.7178 31.7204 12.2909 33.1532 11.8983 34.6198C11.7516 35.1673 11.2639 35.8622 10.5416 36.5714C10.2182 36.2973 9.84163 36.0882 9.42021 35.9751C8.98818 35.8585 8.54615 35.8553 8.11851 35.9383C7.8439 34.9557 7.7683 34.1029 7.91572 33.5522ZM4.84334 32.2212C5.45706 31.8666 6.26552 31.9709 6.9835 32.4722C6.87363 32.7138 6.77998 32.9667 6.70938 33.2302C6.5233 33.9219 6.5889 34.7392 6.72816 35.469C6.17187 34.9913 5.50389 34.5343 4.82017 34.3508C4.543 34.2765 4.26571 34.2297 3.99233 34.2059C3.92002 33.3387 4.23657 32.5708 4.84334 32.2212ZM1.30283 36.8349C1.59817 35.7374 3.03096 35.163 4.49691 35.5557C5.0432 35.7024 5.73996 36.19 6.44916 36.9124C6.17504 37.2364 5.9653 37.6123 5.85227 38.0349C5.73618 38.4676 5.73301 38.909 5.81544 39.3367C4.83212 39.612 3.97806 39.6875 3.42921 39.5396C2.69319 39.3429 2.0669 38.9352 1.66548 38.3927C1.29588 37.8939 1.16736 37.3407 1.30283 36.8349ZM4.22779 42.6344C4.15414 42.9091 4.11036 43.1857 4.08549 43.461C3.21765 43.5322 2.44845 43.2175 2.09824 42.6107C1.74925 42.0058 1.85729 41.1848 2.3498 40.4718C2.59076 40.5816 2.84305 40.6747 3.10644 40.7453C3.41177 40.8271 3.74199 40.8608 4.07793 40.8608C4.50313 40.8608 4.93699 40.8058 5.34463 40.7277C4.86456 41.2865 4.41131 41.9514 4.22779 42.6344ZM9.41594 44.0253C9.21987 44.7614 8.81222 45.3876 8.26971 45.7885C7.77086 46.1587 7.21713 46.2861 6.71206 46.1512C6.20638 46.0157 5.79179 45.628 5.54461 45.0587C5.27549 44.4399 5.23684 43.6933 5.43353 42.9578C5.58022 42.4096 6.06725 41.7159 6.78827 41.0073C7.31834 41.4544 7.98633 41.7009 8.67065 41.7009C8.85234 41.7009 9.03403 41.6779 9.2145 41.6435C9.48838 42.6238 9.56398 43.4748 9.41594 44.0253ZM10.2726 39.22C10.1577 39.6495 9.88236 40.0085 9.49716 40.2301C8.70357 40.689 7.68416 40.4168 7.22457 39.6208C7.00289 39.2362 6.94362 38.7873 7.05788 38.3583C7.17336 37.9287 7.4487 37.5697 7.83329 37.3482C8.08985 37.2003 8.37458 37.1247 8.66297 37.1247C8.80661 37.1247 8.9527 37.1434 9.09561 37.1821C9.5252 37.297 9.88419 37.5723 10.1058 37.9575C10.328 38.3421 10.3874 38.791 10.2726 39.22ZM12.4883 45.3564C11.8734 45.7116 11.0655 45.6074 10.3488 45.1061C10.4586 44.8645 10.5523 44.6122 10.6229 44.3487C10.8084 43.6564 10.7434 42.8397 10.6041 42.1093C11.1636 42.59 11.829 43.0446 12.5121 43.2275C12.7899 43.3018 13.0658 43.3411 13.3393 43.3648C13.4136 44.234 13.0963 45.005 12.4883 45.3564ZM16.0288 40.742C15.7341 41.8396 14.3025 42.4159 12.8348 42.0213C12.2866 41.8746 11.5923 41.3863 10.8831 40.6646C11.1572 40.3412 11.3664 39.9646 11.4794 39.5433C11.5955 39.1107 11.5987 38.6687 11.5162 38.2416C12.4989 37.9669 13.3518 37.8901 13.9025 38.0381C14.6385 38.2348 15.2648 38.6424 15.6662 39.185C16.0357 39.6838 16.1643 40.2369 16.0288 40.742Z" fill="#72705B"/>
</svg>
