<svg width="50" height="50" viewBox="0 0 50 50" fill="none" xmlns="http://www.w3.org/2000/svg">
<g clip-path="url(#clip0)">
<path d="M23.3418 46.9495C23.746 46.9495 24.0754 47.2762 24.0754 47.6832C24.0754 48.0873 23.746 48.4139 23.3418 48.4139H3.57666C2.59121 48.4139 1.69697 48.0126 1.04922 47.3647C0.401367 46.717 0 45.8229 0 44.8373V40.447C0 39.4614 0.401367 38.5673 1.04922 37.9195C1.69697 37.2717 2.59111 36.8703 3.57666 36.8703H3.79258V30.664C3.79258 29.886 4.02783 29.1663 4.42647 28.5628C4.8417 27.9372 5.43135 27.4361 6.12334 27.126C6.39746 27.0015 6.64102 26.8797 6.77676 26.7413C6.89853 26.6168 6.91787 26.4589 6.9207 26.29V24.6846H6.70478C6.03486 24.6846 5.42305 24.4104 4.98291 23.9676C4.53994 23.5274 4.26592 22.9157 4.26592 22.2457C4.26592 21.573 4.53994 20.964 4.98291 20.5211C5.42305 20.081 6.03477 19.8069 6.70478 19.8069H13.152C13.8219 19.8069 14.4336 20.0811 14.8738 20.5211C15.3168 20.964 15.5908 21.573 15.5908 22.2457C15.5908 22.9156 15.3168 23.5274 14.8738 23.9676C14.4337 24.4104 13.8219 24.6846 13.152 24.6846H12.936V26.29C12.936 26.4617 12.9554 26.614 13.08 26.7413C13.2156 26.8797 13.4564 27.0015 13.7332 27.126C14.4226 27.4361 15.0149 27.9372 15.4274 28.5628C15.8288 29.1663 16.0642 29.886 16.0642 30.664V36.8703H18.8657V30.664C18.8657 29.886 19.101 29.1663 19.4996 28.5628C19.9148 27.9372 20.5045 27.4361 21.1965 27.126C21.4706 27.0015 21.7113 26.8797 21.8471 26.7413C21.9717 26.6168 21.991 26.4589 21.9937 26.29V24.6846H21.7778C21.1052 24.6846 20.4962 24.4104 20.056 23.9676C19.6131 23.5274 19.339 22.9157 19.339 22.2457C19.339 21.573 19.6131 20.964 20.056 20.5211C20.4961 20.081 21.1052 19.8069 21.7778 19.8069H28.225C28.8949 19.8069 29.504 20.0811 29.947 20.5211C30.3871 20.964 30.6611 21.573 30.6611 22.2457C30.6611 22.9156 30.387 23.5274 29.947 23.9676C29.504 24.4104 28.8949 24.6846 28.225 24.6846H28.0091V26.29C28.0091 26.4617 28.0284 26.614 28.1531 26.7413C28.2888 26.8797 28.5295 27.0015 28.8063 27.126C29.4958 27.4361 30.0881 27.9372 30.5006 28.5628C30.902 29.1663 31.1373 29.886 31.1373 30.664V36.8703H33.9389V30.664C33.9389 29.886 34.1714 29.1663 34.5728 28.5628C34.9853 27.9372 35.5775 27.4361 36.2669 27.126C36.5437 27.0015 36.7846 26.8797 36.9201 26.7413C37.0419 26.6168 37.0642 26.4589 37.0669 26.29V24.6846H36.851C36.1782 24.6846 35.5692 24.4104 35.1264 23.9676C34.6862 23.5274 34.4121 22.9157 34.4121 22.2457C34.4121 21.573 34.6862 20.964 35.1264 20.5211C35.5692 20.081 36.1782 19.8069 36.851 19.8069H43.2954C43.9682 19.8069 44.5771 20.0811 45.02 20.5211C45.4602 20.964 45.7341 21.573 45.7341 22.2457C45.7341 22.9156 45.4601 23.5274 45.02 23.9676C44.5771 24.4104 43.9681 24.6846 43.2954 24.6846H43.0822V26.29C43.0822 26.4617 43.1016 26.614 43.2262 26.7413C43.3619 26.8797 43.6026 27.0015 43.8795 27.126C44.5687 27.4361 45.1611 27.9372 45.5736 28.5628C45.975 29.1663 46.2104 29.886 46.2104 30.664V36.8703H46.4235C47.4091 36.8703 48.3031 37.2717 48.951 37.9195C49.5986 38.5673 50 39.4614 50 40.447V44.8373C50 45.8229 49.5986 46.717 48.9509 47.3647C48.303 48.0126 47.409 48.4139 46.4234 48.4139H26.6581C26.2539 48.4139 25.9273 48.0872 25.9273 47.6832C25.9273 47.2762 26.254 46.9495 26.6581 46.9495H46.4234C47.0048 46.9495 47.5335 46.7114 47.9155 46.3294C48.2975 45.9445 48.5356 45.4187 48.5356 44.8373V40.447C48.5356 39.8656 48.2975 39.3396 47.9155 38.9549C47.5335 38.5729 47.0048 38.3348 46.4234 38.3348C32.1421 38.3348 17.8579 38.3348 3.57666 38.3348C2.99805 38.3348 2.46934 38.5729 2.0873 38.9549C1.70254 39.3396 1.46445 39.8656 1.46445 40.447V44.8373C1.46445 45.4187 1.70254 45.9445 2.0873 46.3294C2.46934 46.7114 2.99805 46.9495 3.57666 46.9495H23.3418ZM35.6189 39.9403H44.5299C44.9921 39.9403 45.413 40.1312 45.7147 40.433C46.0191 40.7375 46.2103 41.1583 46.2103 41.6206V43.6635C46.2103 44.1258 46.0191 44.5466 45.7147 44.8511C45.413 45.1528 44.9922 45.3438 44.5299 45.3438H35.6189C35.1538 45.3438 34.7358 45.1528 34.4313 44.8511C34.1269 44.5466 33.9387 44.1258 33.9387 43.6635V41.6206C33.9387 41.1583 34.1269 40.7375 34.4313 40.433C34.7358 40.1312 35.1539 39.9403 35.6189 39.9403ZM44.5299 41.4075H35.6189C35.558 41.4075 35.5055 41.4297 35.4666 41.4711C35.4278 41.5099 35.403 41.5625 35.403 41.6206V43.6635C35.403 43.7217 35.4279 43.7743 35.4666 43.813C35.5054 43.8546 35.558 43.8767 35.6189 43.8767H44.5299C44.5881 43.8767 44.6406 43.8545 44.6793 43.813C44.7209 43.7742 44.743 43.7217 44.743 43.6635V41.6206C44.743 41.5624 44.7208 41.5099 44.6793 41.4711C44.6406 41.4296 44.5881 41.4075 44.5299 41.4075ZM20.5459 39.9403H29.4569C29.9192 39.9403 30.34 40.1312 30.6445 40.433C30.9489 40.7375 31.1372 41.1583 31.1372 41.6206V43.6635C31.1372 44.1258 30.9489 44.5466 30.6445 44.8511C30.34 45.1528 29.9192 45.3438 29.4569 45.3438H20.5459C20.0836 45.3438 19.6629 45.1528 19.3583 44.8511C19.0538 44.5466 18.8656 44.1258 18.8656 43.6635V41.6206C18.8656 41.1583 19.0538 40.7375 19.3583 40.433C19.6629 40.1312 20.0836 39.9403 20.5459 39.9403ZM29.4569 41.4075H20.5459C20.4878 41.4075 20.4324 41.4297 20.3937 41.4711C20.3549 41.5099 20.33 41.5625 20.33 41.6206V43.6635C20.33 43.7217 20.3549 43.7743 20.3937 43.813C20.4324 43.8546 20.4878 43.8767 20.5459 43.8767H29.4569C29.5151 43.8767 29.5677 43.8545 29.6063 43.813C29.6479 43.7742 29.6729 43.7217 29.6729 43.6635V41.6206C29.6729 41.5624 29.6479 41.5099 29.6063 41.4711C29.5676 41.4296 29.515 41.4075 29.4569 41.4075ZM5.47285 39.9403H14.3838C14.8461 39.9403 15.2669 40.1312 15.5714 40.433C15.8759 40.7375 16.0641 41.1583 16.0641 41.6206V43.6635C16.0641 44.1258 15.8759 44.5466 15.5714 44.8511C15.2669 45.1528 14.8461 45.3438 14.3838 45.3438H5.47285C5.01064 45.3438 4.58984 45.1528 4.28535 44.8511C3.98086 44.5466 3.79258 44.1258 3.79258 43.6635V41.6206C3.79258 41.1583 3.98086 40.7375 4.28535 40.433C4.58975 40.1312 5.01055 39.9403 5.47285 39.9403ZM14.3838 41.4075H5.47285C5.41475 41.4075 5.35938 41.4297 5.32061 41.4711C5.28184 41.5099 5.25693 41.5625 5.25693 41.6206V43.6635C5.25693 43.7217 5.28184 43.7743 5.32061 43.813C5.35928 43.8546 5.41465 43.8767 5.47285 43.8767H14.3838C14.4419 43.8767 14.4945 43.8545 14.536 43.813C14.5748 43.7742 14.5997 43.7217 14.5997 43.6635V41.6206C14.5997 41.5624 14.5748 41.5099 14.536 41.4711C14.4945 41.4296 14.4419 41.4075 14.3838 41.4075ZM25 4.33525C25.6449 4.33525 26.2264 4.59551 26.6499 5.01904C27.0707 5.43975 27.3309 6.02393 27.3309 6.66611C27.3309 7.31104 27.0707 7.89238 26.6499 8.31592C26.2264 8.73672 25.645 8.99687 25 8.99687C24.3578 8.99687 23.7736 8.73672 23.3529 8.31592C22.9294 7.89229 22.6691 7.31104 22.6691 6.66611C22.6691 6.02393 22.9294 5.43975 23.3529 5.01904C23.7736 4.59551 24.3578 4.33525 25 4.33525ZM25.6146 6.0543C25.4568 5.89648 25.2409 5.79961 25 5.79961C24.7619 5.79961 24.546 5.89648 24.3882 6.0543C24.2304 6.21201 24.1335 6.42803 24.1335 6.66611C24.1335 6.90693 24.2304 7.12285 24.3882 7.28066C24.546 7.43564 24.7619 7.53252 25 7.53252C25.2409 7.53252 25.4568 7.43564 25.6146 7.28066C25.7696 7.12285 25.8665 6.90693 25.8665 6.66611C25.8665 6.42803 25.7696 6.21201 25.6146 6.0543ZM25.7336 15.3832V16.4711C25.7336 16.8753 25.4042 17.202 25 17.202C24.5958 17.202 24.2692 16.8752 24.2692 16.4711V15.3832H24.0146C23.0899 15.3832 22.3342 14.6303 22.3342 13.7029V11.7457H20.186C19.4607 11.7457 18.8047 11.4522 18.3285 10.9761C17.9853 10.6328 17.7361 10.1955 17.6227 9.70547H11.6433C11.2391 9.70547 10.9125 9.37881 10.9125 8.97471C10.9125 8.57051 11.2392 8.24111 11.6433 8.24111H17.5562V5.09365H1.68027C1.56406 5.09365 1.46436 5.19053 1.46436 5.30693V8.02529C1.46436 8.1416 1.56406 8.24121 1.68027 8.24121H8.32686C8.73105 8.24121 9.05762 8.57061 9.05762 8.9748C9.05762 9.379 8.73096 9.70557 8.32686 9.70557H1.68027C0.755762 9.70557 0 8.95264 0 8.02529V5.30693C0 4.38232 0.755762 3.62646 1.68027 3.62646H17.6227C17.7361 3.13936 17.9853 2.70195 18.3285 2.35869C18.8047 1.88262 19.4607 1.58643 20.186 1.58643H29.8168C30.5393 1.58643 31.1981 1.88262 31.6743 2.35869C32.0176 2.70205 32.2666 3.13936 32.3773 3.62646H38.3567C38.7609 3.62646 39.0903 3.95586 39.0903 4.36016C39.0903 4.76436 38.7609 5.09375 38.3567 5.09375H32.4437V8.24131H48.3196C48.4387 8.24131 48.5355 8.1416 48.5355 8.02539V5.30693C48.5355 5.19062 48.4387 5.09365 48.3196 5.09365H41.6758C41.2716 5.09365 40.9422 4.76426 40.9422 4.36006C40.9422 3.95576 41.2716 3.62637 41.6758 3.62637H48.3196C49.247 3.62637 49.9999 4.38223 49.9999 5.30684V8.0252C49.9999 8.95254 49.247 9.70547 48.3196 9.70547H32.3772C32.2665 10.1955 32.0174 10.6328 31.6742 10.9761C31.198 11.4522 30.5393 11.7457 29.8167 11.7457H27.6657V13.7029C27.6657 14.6303 26.9128 15.3832 25.9854 15.3832H25.7336ZM26.2015 13.7029V11.7457H23.7986V13.7029C23.7986 13.822 23.8983 13.9188 24.0146 13.9188H25H25.9855C26.1045 13.9188 26.2015 13.822 26.2015 13.7029ZM44.7431 34.8661H42.307C41.9029 34.8661 41.5763 34.5366 41.5763 34.1325C41.5763 33.302 40.9036 32.6293 40.0731 32.6293C39.6579 32.6293 39.2842 32.7981 39.0101 33.0694C38.7389 33.3436 38.5699 33.7172 38.5699 34.1325C38.5699 34.5366 38.2433 34.8661 37.8392 34.8661H35.4031V36.8703H44.7432V34.8661H44.7431ZM35.403 33.3989H37.1968C37.3296 32.8758 37.6037 32.4052 37.9747 32.0342C38.5118 31.4972 39.2537 31.165 40.073 31.165C41.4599 31.165 42.6226 32.1173 42.9492 33.3989H44.743V30.664C44.743 30.1822 44.599 29.7394 44.3554 29.3684C44.0925 28.9726 43.7187 28.6569 43.2786 28.4576C42.8634 28.2723 42.4869 28.0757 42.1796 27.7601C41.781 27.3504 41.6149 26.8576 41.6149 26.29V24.6846H38.5312V26.2652C38.5312 26.8438 38.3789 27.3394 37.9665 27.7602C37.6593 28.0758 37.2828 28.2723 36.8675 28.4577C36.4272 28.657 36.0536 28.9727 35.7906 29.3685C35.5471 29.7396 35.4031 30.1824 35.4031 30.6641V33.3989H35.403ZM29.6729 34.8661H27.234C26.8298 34.8661 26.5032 34.5366 26.5032 34.1325C26.5032 33.302 25.8305 32.6293 25 32.6293C24.5848 32.6293 24.211 32.7981 23.937 33.0694C23.6657 33.3436 23.4996 33.7172 23.4996 34.1325C23.4996 34.5366 23.1702 34.8661 22.766 34.8661H20.33V36.8703H29.6728V34.8661H29.6729ZM20.33 33.3989H22.1237C22.2594 32.8758 22.5307 32.4052 22.9017 32.0342C23.4387 31.4972 24.1806 31.165 24.9999 31.165C26.3867 31.165 27.5494 32.1173 27.8761 33.3989H29.6728V30.664C29.6728 30.1822 29.5288 29.7394 29.2823 29.3684C29.0222 28.9726 28.6456 28.6569 28.2056 28.4576C27.7903 28.2723 27.4139 28.0757 27.1065 27.7601C26.708 27.3504 26.5446 26.8576 26.5446 26.29V24.6846H23.458V26.279C23.458 26.8465 23.2975 27.3476 22.896 27.7601C22.586 28.0757 22.2095 28.2722 21.7971 28.4576C21.3569 28.6569 20.9805 28.9726 20.7202 29.3684C20.4738 29.7395 20.3299 30.1823 20.3299 30.664V33.3989H20.33ZM14.5997 34.8661H12.1637C11.7567 34.8661 11.4301 34.5366 11.4301 34.1325C11.4301 33.302 10.7573 32.6293 9.92686 32.6293C9.09912 32.6293 8.42656 33.302 8.42656 34.1325C8.42656 34.5366 8.09707 34.8661 7.69297 34.8661H5.25693V36.8703H14.5997V34.8661ZM5.25693 33.3989H7.05352C7.37734 32.1173 8.54287 31.165 9.92686 31.165C11.3138 31.165 12.4765 32.1173 12.8031 33.3989H14.5997V30.664C14.5997 30.1822 14.4558 29.7394 14.2094 29.3684C13.9491 28.9726 13.5727 28.6569 13.1325 28.4576C12.7173 28.2723 12.3408 28.0757 12.0336 27.7601C11.635 27.3504 11.4717 26.8576 11.4717 26.29V24.6846H8.38506V26.29C8.39062 26.9434 8.17188 27.4001 7.82314 27.7601C7.51309 28.0757 7.13662 28.2722 6.72412 28.4576C6.28398 28.6569 5.90752 28.9726 5.64727 29.3684C5.40088 29.7395 5.25693 30.1823 5.25693 30.664V33.3989ZM29.8168 3.05068H20.186C19.8649 3.05068 19.5742 3.1835 19.3639 3.39395C19.1535 3.60439 19.0206 3.89502 19.0206 4.21611V9.11875C19.0206 9.43711 19.1535 9.72764 19.3639 9.94082C19.5742 10.1512 19.8649 10.2813 20.186 10.2813H29.8168C30.1352 10.2813 30.4257 10.1512 30.6361 9.94082C30.8494 9.72764 30.9795 9.43711 30.9795 9.11875V4.21611C30.9795 3.89502 30.8494 3.6043 30.6361 3.39395C30.4258 3.18359 30.1352 3.05068 29.8168 3.05068ZM37.7977 23.2201H42.3486H43.2953C43.5639 23.2201 43.8074 23.1094 43.9847 22.9322C44.1617 22.7551 44.2697 22.5114 44.2697 22.2457C44.2697 21.9772 44.1618 21.7336 43.9847 21.5593C43.8075 21.3821 43.5639 21.2714 43.2953 21.2714H36.8509C36.5823 21.2714 36.3388 21.3821 36.1615 21.5593C35.9871 21.7336 35.8764 21.9772 35.8764 22.2457C35.8764 22.5115 35.9871 22.7551 36.1615 22.9322C36.3387 23.1094 36.5823 23.2201 36.8509 23.2201H37.7977ZM22.7245 23.2201H27.2755H28.225C28.4908 23.2201 28.7344 23.1094 28.9115 22.9322C29.0886 22.7551 29.1968 22.5114 29.1968 22.2457C29.1968 21.9772 29.0887 21.7336 28.9115 21.5593C28.7344 21.3821 28.4907 21.2714 28.225 21.2714H21.7778C21.5093 21.2714 21.2685 21.3821 21.0913 21.5593C20.9142 21.7336 20.8034 21.9772 20.8034 22.2457C20.8034 22.5115 20.9142 22.7551 21.0913 22.9322C21.2685 23.1094 21.5093 23.2201 21.7778 23.2201H22.7245ZM7.6542 23.2201H12.2024H13.152C13.4177 23.2201 13.6613 23.1094 13.8385 22.9322C14.0156 22.7551 14.1236 22.5114 14.1236 22.2457C14.1236 21.9772 14.0157 21.7336 13.8385 21.5593C13.6613 21.3821 13.4177 21.2714 13.152 21.2714H6.70469C6.43896 21.2714 6.19531 21.3821 6.01816 21.5593C5.84102 21.7336 5.73027 21.9772 5.73027 22.2457C5.73027 22.5115 5.84102 22.7551 6.01816 22.9322C6.19531 23.1094 6.43896 23.2201 6.70469 23.2201H7.6542Z" fill="#72705B"/>
</g>
<defs>
<clipPath id="clip0">
<rect width="50" height="50" fill="white"/>
</clipPath>
</defs>
</svg>
