<svg width="50" height="50" viewBox="0 0 50 50" fill="none" xmlns="http://www.w3.org/2000/svg">
<g clip-path="url(#clip0)">
<path d="M30.2568 5.86309C30.2568 5.37598 30.0631 4.91357 29.7171 4.56758C29.3848 4.23535 28.9281 4.03047 28.4242 4.03047H26.7688C26.3343 4.03047 26.0186 3.86992 25.7833 3.60703C25.5896 3.39102 25.4844 3.13359 25.4151 2.85674C25.3154 2.45254 25.0802 2.10107 24.7618 1.85186C24.4517 1.61104 24.0614 1.46426 23.6351 1.46426H17.4066C16.9804 1.46426 16.5928 1.6083 16.2827 1.84912C15.8841 2.16191 15.6792 2.63799 15.6045 2.93975C15.4218 3.69268 15.3415 4.03037 14.2729 4.03037H12.6176C12.1138 4.03037 11.6569 4.23525 11.322 4.56748C10.9898 4.90244 10.7849 5.35918 10.7849 5.86299C10.7849 6.36406 10.9898 6.82354 11.322 7.15576C11.6569 7.48799 12.1137 7.69561 12.6176 7.69561H28.4241C28.928 7.69561 29.3848 7.48799 29.717 7.15576C30.0492 6.82363 30.2568 6.36416 30.2568 5.86309ZM12.5456 45.6649C12.1414 45.6649 11.812 45.3355 11.812 44.9313C11.812 44.5271 12.1414 44.2006 12.5456 44.2006H24.723C25.1272 44.2006 25.4566 44.5272 25.4566 44.9313C25.4566 45.3355 25.1272 45.6649 24.723 45.6649H12.5456ZM10.0515 42.8192C9.64725 42.8192 9.32069 42.4925 9.32069 42.0884C9.32069 41.6842 9.64735 41.3548 10.0515 41.3548H24.723C25.1272 41.3548 25.4566 41.6842 25.4566 42.0884C25.4566 42.4926 25.1272 42.8192 24.723 42.8192H10.0515ZM10.0515 39.9762C9.64725 39.9762 9.32069 39.6495 9.32069 39.2454C9.32069 38.8385 9.64735 38.5118 10.0515 38.5118H24.723C25.1272 38.5118 25.4566 38.8385 25.4566 39.2454C25.4566 39.6496 25.1272 39.9762 24.723 39.9762H10.0515ZM10.0515 37.1332C9.64725 37.1332 9.32069 36.8038 9.32069 36.3996C9.32069 35.9954 9.64735 35.6689 10.0515 35.6689H24.723C25.1272 35.6689 25.4566 35.9955 25.4566 36.3996C25.4566 36.8038 25.1272 37.1332 24.723 37.1332H10.0515ZM16.3187 34.2874C15.9145 34.2874 15.5851 33.9607 15.5851 33.5566C15.5851 33.1524 15.9145 32.823 16.3187 32.823H24.723C25.1272 32.823 25.4566 33.1524 25.4566 33.5566C25.4566 33.9608 25.1272 34.2874 24.723 34.2874H16.3187ZM14.4225 15.6628C15.1256 15.6628 15.7623 15.9396 16.2302 16.3881L17.9824 15.3749C17.9354 15.1756 17.9077 14.968 17.9077 14.7548C17.9077 14.0322 18.2011 13.3789 18.6744 12.9055C19.1478 12.435 19.7984 12.1415 20.5208 12.1415C21.2405 12.1415 21.8939 12.435 22.3672 12.9055C22.8406 13.3789 23.1312 14.0321 23.1312 14.7548C23.1312 14.968 23.1062 15.1756 23.0564 15.3749L24.8115 16.3881C25.2794 15.9396 25.9161 15.6628 26.6164 15.6628C27.3389 15.6628 27.9922 15.9535 28.4627 16.4268C28.9362 16.9002 29.2297 17.5534 29.2297 18.2731C29.2297 18.9956 28.9362 19.6462 28.4627 20.1195C28.1583 20.4268 27.7763 20.6565 27.3499 20.7812V22.8048C27.7762 22.9293 28.1582 23.1618 28.4627 23.4664C28.9362 23.9397 29.2297 24.5931 29.2297 25.3127C29.2297 26.0352 28.9362 26.6885 28.4627 27.1591C27.9922 27.6324 27.3389 27.9259 26.6164 27.9259C25.916 27.9259 25.2794 27.649 24.8115 27.2005L23.0564 28.211C23.1062 28.4104 23.1312 28.6179 23.1312 28.8338C23.1312 29.5537 22.8405 30.2069 22.3672 30.6803C21.8938 31.1537 21.2405 31.4442 20.5208 31.4442C19.7984 31.4442 19.1477 31.1536 18.6744 30.6803C18.201 30.2069 17.9077 29.5537 17.9077 28.8338C17.9077 28.6179 17.9353 28.4104 17.9824 28.211L16.2302 27.2005C15.7596 27.649 15.1256 27.9259 14.4225 27.9259C13.7028 27.9259 13.0494 27.6323 12.5762 27.1591C12.1055 26.6885 11.8121 26.0352 11.8121 25.3127C11.8121 24.5931 12.1055 23.9397 12.5762 23.4664C12.8834 23.1618 13.2654 22.9293 13.6917 22.8048V20.7812C13.2654 20.6566 12.8835 20.4269 12.5762 20.1196C12.1055 19.6462 11.8121 18.9957 11.8121 18.2732C11.8121 17.5535 12.1055 16.9002 12.5762 16.4269C13.0494 15.9534 13.7027 15.6628 14.4225 15.6628ZM16.9609 17.6503C17.0108 17.8496 17.0357 18.06 17.0357 18.2731C17.0357 18.9956 16.7423 19.6462 16.2718 20.1195C15.9644 20.4268 15.5824 20.6565 15.1561 20.7812V22.8048C15.5824 22.9293 15.9643 23.1618 16.2718 23.4664C16.7423 23.9397 17.0357 24.5931 17.0357 25.3127C17.0357 25.5286 17.0108 25.7363 16.9609 25.9356L18.716 26.946C19.1839 26.4976 19.8207 26.2208 20.5209 26.2208C21.2213 26.2208 21.8579 26.4976 22.3258 26.946L24.0808 25.9356C24.031 25.7363 24.0061 25.5286 24.0061 25.3127C24.0061 24.5931 24.2968 23.9397 24.7701 23.4664C25.0773 23.1618 25.4594 22.9293 25.8856 22.8048V20.7812C25.4594 20.6566 25.0774 20.4269 24.7701 20.1196C24.2967 19.6462 24.0061 18.9957 24.0061 18.2732C24.0061 18.0601 24.031 17.8497 24.0808 17.6504L22.3286 16.64C21.858 17.0885 21.2213 17.3652 20.5209 17.3652C19.8206 17.3652 19.1839 17.0885 18.7132 16.64L16.9609 17.6503ZM15.2335 17.462C15.0259 17.2545 14.7408 17.1271 14.4224 17.1271C14.1068 17.1271 13.8189 17.2545 13.6141 17.462C13.4065 17.6697 13.2764 17.9575 13.2764 18.2731C13.2764 18.5915 13.4065 18.8767 13.6141 19.0843C13.819 19.2919 14.1068 19.4192 14.4224 19.4192C14.7408 19.4192 15.0259 19.2919 15.2335 19.0843C15.4411 18.8767 15.5713 18.5915 15.5713 18.2731C15.5713 17.9576 15.4411 17.6698 15.2335 17.462ZM21.3319 13.9437C21.1243 13.7359 20.8365 13.6059 20.5208 13.6059C20.2024 13.6059 19.9174 13.7359 19.7098 13.9437C19.502 14.1512 19.3747 14.4364 19.3747 14.7548C19.3747 15.0703 19.502 15.3583 19.7098 15.5631C19.9174 15.7707 20.2024 15.9008 20.5208 15.9008C20.8364 15.9008 21.1243 15.7707 21.3319 15.5631C21.5395 15.3582 21.667 15.0703 21.667 14.7548C21.667 14.4364 21.5395 14.1512 21.3319 13.9437ZM27.4275 17.462C27.22 17.2545 26.9348 17.1271 26.6165 17.1271C26.3009 17.1271 26.013 17.2545 25.8054 17.462C25.5977 17.6697 25.4703 17.9575 25.4703 18.2731C25.4703 18.5915 25.5977 18.8767 25.8054 19.0843C26.013 19.2919 26.3008 19.4192 26.6165 19.4192C26.9348 19.4192 27.22 19.2919 27.4275 19.0843C27.6352 18.8767 27.7626 18.5915 27.7626 18.2731C27.7626 17.9576 27.6352 17.6698 27.4275 17.462ZM26.6166 26.459C26.9349 26.459 27.2201 26.3315 27.4276 26.1239C27.6353 25.9163 27.7627 25.6312 27.7627 25.3128C27.7627 24.9973 27.6353 24.7093 27.4276 24.5018C27.2201 24.294 26.9349 24.1667 26.6166 24.1667C26.301 24.1667 26.0131 24.294 25.8055 24.5018C25.5978 24.7093 25.4704 24.9972 25.4704 25.3128C25.4704 25.6312 25.5978 25.9163 25.8055 26.1239C26.0131 26.3315 26.3009 26.459 26.6166 26.459ZM20.5209 29.9802C20.8365 29.9802 21.1244 29.8527 21.332 29.6451C21.5396 29.4375 21.6671 29.1497 21.6671 28.8339C21.6671 28.5155 21.5396 28.2304 21.332 28.0229C21.1244 27.8151 20.8366 27.6878 20.5209 27.6878C20.2025 27.6878 19.9175 27.8151 19.7099 28.0229C19.5021 28.2304 19.3748 28.5155 19.3748 28.8339C19.3748 29.1496 19.5021 29.4375 19.7099 29.6451C19.9175 29.8527 20.2025 29.9802 20.5209 29.9802ZM14.4225 26.459C14.7409 26.459 15.026 26.3315 15.2336 26.1239C15.4412 25.9163 15.5714 25.6312 15.5714 25.3128C15.5714 24.9973 15.4412 24.7093 15.2336 24.5018C15.026 24.294 14.7409 24.1667 14.4225 24.1667C14.1069 24.1667 13.819 24.294 13.6142 24.5018C13.4066 24.7093 13.2765 24.9972 13.2765 25.3128C13.2765 25.6312 13.4066 25.9163 13.6142 26.1239C13.819 26.3315 14.1068 26.459 14.4225 26.459ZM31.1925 39.5748C31.5967 39.5748 31.9261 39.9042 31.9261 40.3084C31.9261 40.7126 31.5967 41.042 31.1925 41.042H28.7592C28.9364 43.0213 29.8111 44.7986 31.1371 46.1272C32.6265 47.6139 34.6832 48.5356 36.956 48.5356C39.2287 48.5356 41.2854 47.6138 42.7749 46.1272C44.1009 44.7986 44.9784 43.0212 45.1528 41.042H34.5115C34.1073 41.042 33.7779 40.7126 33.7779 40.3084C33.7779 39.9042 34.1073 39.5748 34.5115 39.5748H45.1527C45.0392 38.2904 44.6323 37.0917 44.0012 36.0481C43.2232 34.7637 42.102 33.7089 40.765 33.0085C40.1754 32.7013 39.8349 32.441 39.6134 32.0453C39.3947 31.6522 39.3505 31.2396 39.3505 30.6113V23.9481H34.5613V30.6391C34.5613 31.2646 34.4811 31.702 34.2347 32.0951C33.9938 32.4827 33.6394 32.7484 33.0887 33.0418C31.7682 33.7449 30.6638 34.7996 29.8941 36.0787C29.2713 37.1141 28.8726 38.3043 28.7592 39.5749H31.1925V39.5748ZM46.6475 40.3056C46.6475 42.8855 45.6345 45.3355 43.8101 47.1625C42.0551 48.9148 39.6329 50 36.956 50H7.22499C6.15927 50 5.19032 49.5654 4.48993 48.865C3.7868 48.1619 3.35223 47.1931 3.35223 46.1272V43.7577C3.35223 43.3535 3.68163 43.0268 4.08583 43.0268C4.49003 43.0268 4.81659 43.3536 4.81659 43.7577V46.1272C4.81659 46.7889 5.08788 47.3924 5.52528 47.827C5.96268 48.2644 6.56346 48.5356 7.22499 48.5356H31.8291C31.2035 48.1453 30.6222 47.6831 30.1017 47.1625C28.3494 45.4075 27.2642 42.9854 27.2642 40.3084C27.2642 38.4897 27.7653 36.7872 28.6429 35.3283C29.5453 33.8224 30.8464 32.5822 32.4021 31.7547C32.7232 31.5829 32.9114 31.4555 32.9944 31.3228C33.072 31.1981 33.0969 30.9877 33.0969 30.639V23.8263C32.7564 23.7128 32.4519 23.5218 32.2028 23.2727C31.7876 22.8546 31.5301 22.2816 31.5301 21.6477C31.5301 21.0137 31.7876 20.4378 32.2028 20.0226C32.6208 19.6046 33.1966 19.3472 33.8305 19.3472H36.2223V13.7414C36.2223 13.3372 36.5517 13.0107 36.9559 13.0107C37.36 13.0107 37.6895 13.3373 37.6895 13.7414V19.3472H40.0841C40.7152 19.3472 41.2909 19.6046 41.7091 20.0226C42.1243 20.4378 42.3845 21.0136 42.3845 21.6477C42.3845 22.2815 42.1243 22.8545 41.7091 23.2727C41.4599 23.5218 41.1554 23.7128 40.8149 23.8263V30.6113C40.8149 30.9933 40.8288 31.2203 40.8897 31.331C40.9506 31.4389 41.1195 31.5497 41.4406 31.7157C43.0131 32.5379 44.3307 33.7808 45.2498 35.295C46.1354 36.7596 46.6475 38.4758 46.6475 40.3056ZM40.0841 22.4837C40.311 22.4837 40.5214 22.3896 40.6709 22.2374C40.8232 22.0851 40.9173 21.8774 40.9173 21.6478C40.9173 21.418 40.8231 21.2103 40.6709 21.058C40.5215 20.9058 40.311 20.8116 40.0841 20.8116H36.956H33.8306C33.6008 20.8116 33.3904 20.9059 33.241 21.058C33.0887 21.2103 32.9946 21.418 32.9946 21.6478C32.9946 21.8775 33.0888 22.0852 33.241 22.2374C33.3904 22.3868 33.598 22.481 33.8278 22.4837H40.0841ZM31.6382 5.12949H33.8168C34.8826 5.12949 35.8488 5.56406 36.5519 6.26719C37.2522 6.96758 37.6896 7.93652 37.6896 9.00225V10.4251C37.6896 10.8293 37.3601 11.156 36.956 11.156C36.5518 11.156 36.2224 10.8292 36.2224 10.4251V9.00225C36.2224 8.34072 35.9539 7.73994 35.5165 7.30264C35.079 6.86523 34.4784 6.59385 33.8168 6.59385H31.6382C31.4998 7.2085 31.1843 7.75947 30.7524 8.19121C30.1572 8.78916 29.3323 9.16006 28.4242 9.16006H12.6176C11.7096 9.16006 10.8847 8.78916 10.2867 8.19121C9.85487 7.75937 9.54208 7.2085 9.40087 6.59385H7.22509C6.56356 6.59385 5.96278 6.86514 5.52538 7.30264C5.08798 7.74004 4.81669 8.34072 4.81669 9.00225V40.4413C4.81669 40.8455 4.49003 41.172 4.08593 41.172C3.68173 41.172 3.35233 40.8454 3.35233 40.4413V9.00234C3.35233 7.93662 3.7869 6.96768 4.49003 6.26729C5.19042 5.56416 6.15936 5.12959 7.22509 5.12959H9.40087C9.54208 4.51504 9.85487 3.96416 10.2867 3.53232C10.8847 2.93711 11.7096 2.56621 12.6176 2.56621H14.1927C14.3643 1.83809 14.7657 1.18203 15.383 0.700391C15.9449 0.262988 16.648 0 17.4066 0H23.6351C24.3936 0 25.0995 0.262988 25.6587 0.703125C26.2815 1.19033 26.6525 1.80488 26.849 2.56621H28.4241C29.3322 2.56621 30.1571 2.93711 30.7523 3.53232C31.1842 3.96416 31.4998 4.51494 31.6382 5.12949Z" fill="#72705B"/>
</g>
<defs>
<clipPath id="clip0">
<rect width="50" height="50" fill="white"/>
</clipPath>
</defs>
</svg>
