<?xml version="1.0" encoding="utf-8"?>
<!-- Generator: Adobe Illustrator 25.2.3, SVG Export Plug-In . SVG Version: 6.00 Build 0)  -->
<svg version="1.1" id="圖層_1" xmlns="http://www.w3.org/2000/svg" xmlns:xlink="http://www.w3.org/1999/xlink" x="0px" y="0px"
	 viewBox="0 0 56 56" enable-background="new 0 0 56 56" xml:space="preserve">
<g>
	<defs>
		<rect id="SVGID_1_" y="0" width="56" height="56"/>
	</defs>
	<clipPath id="SVGID_2_">
		<use xlink:href="#SVGID_1_"  overflow="visible"/>
	</clipPath>
	<g clip-path="url(#SVGID_2_)">
		<path fill="#72705B" d="M28,9.3c1.5,0,2.8-1.3,2.8-2.8S29.5,3.7,28,3.7S25.2,5,25.2,6.5S26.5,9.3,28,9.3z M28,5.6
			c0.5,0,0.9,0.4,0.9,0.9c0,0.5-0.4,0.9-0.9,0.9c-0.5,0-0.9-0.4-0.9-0.9C27.1,6,27.5,5.6,28,5.6z"/>
		<path fill="#72705B" d="M48.4,31c-0.6-0.3-1.4-0.2-2,0.2L36.4,39l-9.2-6.7c-0.5-0.3-1.1-0.5-1.6-0.5H8.4c-1,0-1.9,0.8-1.9,1.9
			v17.7c0,2.6,2.1,4.7,4.7,4.7h33.6c2.6,0,4.7-2.1,4.7-4.7V32.7C49.5,32,49.1,31.3,48.4,31z M26.1,33.8l9.2,6.7
			c0.7,0.5,1.6,0.5,2.2,0l6.3-4.9v14.8H12.1V33.6h13.4C25.7,33.6,25.9,33.7,26.1,33.8z M44.8,54.1H11.2c-1.5,0-2.8-1.3-2.8-2.8V33.6
			h1.9v16.8c0,1,0.8,1.9,1.9,1.9h31.7c1,0,1.9-0.8,1.9-1.9V34.1l1.9-1.4v18.6C47.6,52.9,46.3,54.1,44.8,54.1z"/>
		<path fill="#72705B" d="M44.8,5.6h-5.9C38.6,5,38,4.7,37.3,4.7l-3.1,0C33.5,1.9,30.9,0,28,0c-2.9,0-5.4,1.9-6.3,4.7h-3.1
			c-0.7,0-1.3,0.4-1.6,0.9h-5.9c-2.6,0-4.7,2.1-4.7,4.7v16.8c0,1,0.8,1.9,1.9,1.9h18.1c0.2,0,0.4,0.1,0.5,0.2l8.3,5.8
			c0.7,0.5,1.6,0.4,2.2,0l11.2-8.6c0.5-0.4,0.7-0.9,0.7-1.5V10.3C49.5,7.7,47.4,5.6,44.8,5.6z M21.7,6.5c0.8,0,1.5-0.5,1.8-1.3
			c0.6-2,2.4-3.3,4.5-3.3s3.9,1.4,4.5,3.3c0.2,0.8,1,1.3,1.8,1.3h3.1v4.7H18.7V6.5H21.7z M8.4,10.3c0-1.5,1.3-2.8,2.8-2.8h5.6v1.9
			h-4.7c-1,0-1.9,0.8-1.9,1.9v15.9H8.4V10.3z M36.4,33.4l-8.3-5.8c-0.5-0.3-1-0.5-1.6-0.5H12.1V11.2h4.7c0,1,0.8,1.9,1.9,1.9h18.7
			c1,0,1.9-0.8,1.9-1.9h4.7v16.4L36.4,33.4z M47.6,24.7l-1.9,1.4v-15c0-1-0.8-1.9-1.9-1.9h-4.7V7.5h5.6c1.5,0,2.8,1.3,2.8,2.8V24.7z
			"/>
	</g>
</g>
</svg>
