<?xml version="1.0" encoding="utf-8"?>
<!-- Generator: Adobe Illustrator 25.2.3, SVG Export Plug-In . SVG Version: 6.00 Build 0)  -->
<svg version="1.1" id="圖層_1" xmlns="http://www.w3.org/2000/svg" xmlns:xlink="http://www.w3.org/1999/xlink" x="0px" y="0px"
	 viewBox="0 0 56 56" enable-background="new 0 0 56 56" xml:space="preserve">
<g>
	<defs>
		<rect id="SVGID_1_" y="0" width="56" height="56"/>
	</defs>
	<clipPath id="SVGID_2_">
		<use xlink:href="#SVGID_1_"  overflow="visible"/>
	</clipPath>
	<g clip-path="url(#SVGID_2_)">
		<path fill="#72705B" d="M50.1,41.7V17.9c0-0.3-0.2-0.7-0.5-0.9l-2.7-2l2.1-1.3c0.3-0.2,0.5-0.5,0.5-0.9c0-0.4-0.1-0.7-0.4-0.9
			l-2-1.5V9.7H49c0.6,0,1.1-0.5,1.1-1.1V6.5c0-3.6-2.9-6.5-6.5-6.5H6.3c0,0,0,0,0,0c0,0,0,0-0.1,0C4.5,0,2.9,0.9,1.7,2.4
			C0.6,3.9,0,5.8,0,7.8c0,3.7,2.4,6.6,5.3,6.6h6.1v17.3c0,0.4,0.2,0.7,0.5,0.9l2.1,1.4l-2.3,2c-0.2,0.2-0.4,0.5-0.4,0.8v9.5
			c0,0.1,0,0.1,0,0.2c0,0.1,0,0.1,0,0.2c0,2.8,0.7,5.1,2.1,6.8c1.3,1.6,3.2,2.5,5.3,2.5h30.1c4,0,7.2-3.2,7.2-7.2
			C56,45.2,53.4,42.3,50.1,41.7z M9,12.2c0.3-0.6,0.5-1.3,0.5-2.1c0-2.5-1.6-4.3-4-4.3C4.9,5.9,4.4,6.4,4.4,7s0.5,1.1,1.1,1.1
			c1.1,0,1.8,0.8,1.8,2.1c0,1.3-1,2.1-2,2.1c-1.7,0-3.1-2-3.1-4.4c0-3.1,1.8-5.6,4-5.6c1.5,0,2.8,0.5,3.6,1.4c1,1.2,1.6,3.1,1.6,5.6
			v3H9z M15.1,52.1c-1-1.3-1.6-3.1-1.6-5.4c0-0.1,0-0.1,0-0.2c0-0.1,0-0.1,0-0.2v-9l3-2.7c0.3-0.2,0.4-0.6,0.4-0.9
			c0-0.3-0.2-0.6-0.5-0.8l-2.8-1.8V9.2c0-3.1-0.7-5.5-2.1-7.1h32.2c2.4,0,4.3,1.9,4.3,4.3v1.1h-1.8C45.5,7.5,45,8,45,8.6V11
			c0,0.3,0.2,0.7,0.4,0.9l1.1,0.9l-2.2,1.3c-0.3,0.2-0.5,0.5-0.5,0.9c0,0.4,0.2,0.7,0.4,0.9l3.6,2.6v23.1H20.1c-0.1,0-0.1,0-0.2,0
			c-0.1,0-0.2,0-0.3,0c-2.3,0-4.1,1.9-4.1,4.2c0,2.5,1.6,4.3,4,4.3c0.6,0,1.1-0.5,1.1-1.1s-0.5-1.1-1.1-1.1c-1.1,0-1.8-0.8-1.8-2.1
			c0-1.3,1-2.1,2-2.1c1.7,0,3.1,2,3.1,4.4c0,3.1-1.8,5.6-4,5.6C17.3,53.8,16.1,53.2,15.1,52.1z M48.8,53.8H23.1
			c0.1-0.1,0.1-0.1,0.2-0.2c1-1.4,1.7-3.1,1.7-5H42c0.6,0,1.1-0.5,1.1-1.1c0-0.6-0.5-1.1-1.1-1.1H24.7c-0.2-1-0.6-1.9-1.2-2.6h25.2
			c2.8,0,5,2.3,5,5C53.8,51.6,51.6,53.8,48.8,53.8z"/>
		<path fill="#72705B" d="M20.7,10.7c0.3,0,0.6-0.1,0.8-0.3c0.2-0.2,0.3-0.5,0.3-0.8s-0.1-0.6-0.3-0.8c-0.2-0.2-0.5-0.3-0.8-0.3
			c-0.3,0-0.6,0.1-0.8,0.3c-0.2,0.2-0.3,0.5-0.3,0.8s0.1,0.6,0.3,0.8C20.1,10.6,20.4,10.7,20.7,10.7z"/>
		<path fill="#72705B" d="M25.4,10.7h15.8c0.6,0,1.1-0.5,1.1-1.1c0-0.6-0.5-1.1-1.1-1.1H25.4c-0.6,0-1.1,0.5-1.1,1.1
			C24.3,10.2,24.8,10.7,25.4,10.7z"/>
		<path fill="#72705B" d="M20.7,16.8h20.5c0.6,0,1.1-0.5,1.1-1.1c0-0.6-0.5-1.1-1.1-1.1H20.7c-0.6,0-1.1,0.5-1.1,1.1
			C19.6,16.4,20.1,16.8,20.7,16.8z"/>
		<path fill="#72705B" d="M20.7,23h20.5c0.6,0,1.1-0.5,1.1-1.1s-0.5-1.1-1.1-1.1H20.7c-0.6,0-1.1,0.5-1.1,1.1S20.1,23,20.7,23z"/>
		<path fill="#72705B" d="M20.7,29.1h20.5c0.6,0,1.1-0.5,1.1-1.1s-0.5-1.1-1.1-1.1H20.7c-0.6,0-1.1,0.5-1.1,1.1S20.1,29.1,20.7,29.1
			z"/>
		<path fill="#72705B" d="M20.7,35.2h20.5c0.6,0,1.1-0.5,1.1-1.1S41.8,33,41.2,33H20.7c-0.6,0-1.1,0.5-1.1,1.1S20.1,35.2,20.7,35.2z
			"/>
		<path fill="#72705B" d="M46.3,46.4c-0.3,0-0.6,0.1-0.8,0.3c-0.2,0.2-0.3,0.5-0.3,0.8c0,0.3,0.1,0.6,0.3,0.8
			c0.2,0.2,0.5,0.3,0.8,0.3c0.3,0,0.6-0.1,0.8-0.3c0.2-0.2,0.3-0.5,0.3-0.8c0-0.3-0.1-0.6-0.3-0.8C46.8,46.5,46.5,46.4,46.3,46.4z"
			/>
	</g>
</g>
</svg>
