<?xml version="1.0" encoding="utf-8"?>
<!-- Generator: Adobe Illustrator 25.2.3, SVG Export Plug-In . SVG Version: 6.00 Build 0)  -->
<svg version="1.1" id="圖層_1" xmlns="http://www.w3.org/2000/svg" xmlns:xlink="http://www.w3.org/1999/xlink" x="0px" y="0px"
	 viewBox="0 0 56 56" enable-background="new 0 0 56 56" xml:space="preserve">
<path fill="#72705B" d="M28,0C12.5,0,0,12.5,0,28s12.5,28,28,28s28-12.5,28-28C56,12.5,43.5,0,28,0z M28,54.1
	C13.6,54.1,1.9,42.4,1.9,28S13.6,1.9,28,1.9S54.1,13.6,54.1,28C54.1,42.4,42.4,54.1,28,54.1z"/>
<path fill="#72705B" d="M29.9,43.9c-0.5,0-0.9,0.4-0.9,0.9c0,0.5-0.4,0.9-0.9,0.9c-0.5,0-0.9,0.4-0.9,0.9c0,0.5,0.4,0.9,0.9,0.9
	c1.5,0,2.8-1.3,2.8-2.8C30.8,44.3,30.4,43.9,29.9,43.9z"/>
<path fill="#72705B" d="M40.1,35.5c-2.6,0-4.7,2.1-4.7,4.7c0,0.3,0,0.5,0.1,0.8l-1.8,0.7c-1-1.8-2.8-3-4.8-3.3v-2
	c2.3-0.5,4-2.7,3.7-5c-0.2-2.4-2.2-4.2-4.6-4.2s-4.4,1.8-4.6,4.2c-0.2,2.4,1.4,4.6,3.7,5v2c-2,0.3-3.8,1.5-4.8,3.3l-1.8-0.7
	c0-0.3,0.1-0.5,0.1-0.8c0-2.3-1.7-4.3-4-4.7c-2.3-0.3-4.5,1.1-5.2,3.3c-0.7,2.2,0.4,4.6,2.5,5.6c2.1,1,4.6,0.2,5.9-1.7l1.8,0.7
	c-0.6,2.6,0.5,5.3,2.7,6.9s5.1,1.5,7.4,0c2.2-1.5,3.3-4.2,2.7-6.9l1.8-0.7c1.2,1.9,3.6,2.7,5.7,1.8c2.1-0.8,3.3-3,2.9-5.2
	C44.3,37.1,42.4,35.5,40.1,35.5z M15.9,42.9c-1.5,0-2.8-1.3-2.8-2.8c0-1.5,1.3-2.8,2.8-2.8s2.8,1.3,2.8,2.8
	C18.7,41.7,17.4,42.9,15.9,42.9z M25.2,31.7c0-1.5,1.3-2.8,2.8-2.8s2.8,1.3,2.8,2.8c0,1.5-1.3,2.8-2.8,2.8S25.2,33.3,25.2,31.7z
	 M28,49.5c-2.6,0-4.7-2.1-4.7-4.7s2.1-4.7,4.7-4.7c2.6,0,4.7,2.1,4.7,4.7C32.7,47.4,30.6,49.5,28,49.5z M40.1,42.9
	c-1.5,0-2.8-1.3-2.8-2.8c0-1.5,1.3-2.8,2.8-2.8c1.5,0,2.8,1.3,2.8,2.8C42.9,41.7,41.7,42.9,40.1,42.9z"/>
<path fill="#72705B" d="M19.2,30.5c0.3-0.4,0.3-0.9,0-1.2c-0.1-0.1-2.8-3.1-6.2-3.1c-0.2,0-0.4,0-0.5,0l2.1-2.1
	c1.5,1.4,3.5,2.3,5.5,2.4c3.4,0,6.1-2.9,6.2-3.1c0.3-0.4,0.3-0.9,0-1.2c-0.1-0.1-2.8-3.1-6.2-3.1c-0.2,0-0.4,0-0.5,0l2.1-2.1
	c1.5,1.4,3.5,2.3,5.5,2.4c3.4,0,6.1-2.9,6.2-3.1c0.3-0.4,0.3-0.9,0-1.2c-1-1-2.1-1.9-3.4-2.5c2.3-2.4,2.1-6.3,2.1-6.4
	c0-0.5-0.4-0.9-0.9-0.9c-0.2,0-4-0.2-6.4,2.1c-0.6-1.3-1.4-2.5-2.5-3.4c-0.4-0.3-0.9-0.3-1.2,0c-0.1,0.1-3.1,2.8-3.1,6.2
	c0.1,2.1,1,4,2.4,5.5l-2.1,2.1c0-0.2,0-0.4,0-0.5c0-3.4-2.9-6.1-3.1-6.2c-0.4-0.3-0.9-0.3-1.2,0c-0.1,0.1-3.1,2.8-3.1,6.2
	c0.1,2.1,1,4,2.4,5.5l-2.1,2.1c0-0.2,0-0.4,0-0.5c0-3.4-2.9-6.1-3.1-6.2c-0.4-0.3-0.9-0.3-1.2,0c-0.1,0.1-3.1,2.8-3.1,6.2
	c0.1,2.1,1,4,2.4,5.5l-0.9,0.9c-0.2,0.2-0.3,0.6-0.3,0.9c0.1,0.3,0.3,0.6,0.7,0.7c0.3,0.1,0.7,0,0.9-0.3l0.9-0.9
	c1.5,1.4,3.5,2.3,5.5,2.4C16.4,33.6,19.1,30.7,19.2,30.5z M24.2,22.8c-1.1,1.1-2.6,1.7-4.2,1.8c-1.6-0.1-3-0.8-4.2-1.8
	c1.1-1.1,2.6-1.7,4.2-1.8C21.6,21.1,23.1,21.7,24.2,22.8z M27.2,17.5c-1.6-0.1-3-0.8-4.2-1.8c1.1-1.1,2.6-1.7,4.2-1.8
	c1.6,0.1,3,0.8,4.2,1.8C30.2,16.8,28.7,17.4,27.2,17.5z M25.9,8.8c1.2-1,2.7-1.6,4.2-1.6c0,1.6-0.6,3.1-1.6,4.2
	c-0.2,0.2-0.5,0.4-0.8,0.6c-0.2,0-0.4,0-0.6,0c-0.8,0-1.5,0.1-2.2,0.4c0.3-0.7,0.4-1.5,0.4-2.2c0-0.2,0-0.4,0-0.6
	C25.5,9.3,25.7,9.1,25.9,8.8z M21.6,6c1.1,1.1,1.7,2.6,1.8,4.2c-0.1,1.6-0.8,3-1.8,4.2c-1.1-1.1-1.7-2.6-1.8-4.2
	C19.9,8.6,20.6,7.2,21.6,6z M14.5,13.1c1.1,1.1,1.7,2.6,1.8,4.2c-0.1,1.6-0.8,3-1.8,4.2c-1.1-1.1-1.7-2.6-1.8-4.2
	C12.8,15.7,13.5,14.3,14.5,13.1z M7.4,20.2c1.1,1.1,1.7,2.6,1.8,4.2c-0.1,1.6-0.8,3-1.8,4.2c-1.1-1.1-1.7-2.6-1.8-4.2
	C5.7,22.8,6.4,21.4,7.4,20.2L7.4,20.2z M13,28.1c1.6,0.1,3,0.8,4.2,1.8C16,31,14.5,31.6,13,31.7c-1.6-0.1-3-0.8-4.2-1.8
	C9.9,28.8,11.4,28.2,13,28.1L13,28.1z"/>
<path fill="#72705B" d="M35,13.2c-0.4,0.3-0.6,0.8-0.3,1.3v0c1.4,2.5,2,5.5,1.6,8.4c-0.1,0.5-0.2,1-0.4,1.8c-0.2,0.7-0.2,1.3-0.2,2
	c0.1,2.2,1.3,4.3,3.1,5.6c1.8,1.3,4.2,1.7,6.3,1.1c2.1-0.5,3.8-2,4.6-4c1.4-3.3,0.5-7.3-0.8-9.7C45.3,12.8,35.8,12.7,35,13.2z
	 M47.3,20.5c1.2,2.2,1.8,5.6,0.7,8.1c-0.6,1.5-1.9,2.5-3.4,2.9c-1.6,0.5-3.3,0.2-4.7-0.8c-1.4-1-2.2-2.5-2.3-4.2
	c0-0.5,0.1-1,0.2-1.5c0.2-0.8,0.3-1.3,0.4-1.9c0.4-2.8,0-5.6-1.1-8.2C41.2,15.2,45.3,16.9,47.3,20.5z"/>
<path fill="#72705B" d="M43.8,29.8c0.1,0,0.2,0,0.3,0c1.3-0.4,2.2-1.4,2.4-2.7c0.2-1.3,0.1-2.6-0.2-3.8c-0.1-0.3-0.3-0.6-0.7-0.6
	c-0.3-0.1-0.7,0-0.9,0.3c-0.2,0.2-0.3,0.6-0.2,0.9c0.3,0.9,0.4,1.9,0.2,2.9c-0.1,0.6-0.5,1.1-1.1,1.3c-0.4,0.1-0.7,0.6-0.7,1
	C43,29.4,43.4,29.8,43.8,29.8z"/>
</svg>
