<?xml version="1.0" encoding="utf-8"?>
<!-- Generator: Adobe Illustrator 25.2.3, SVG Export Plug-In . SVG Version: 6.00 Build 0)  -->
<svg version="1.1" id="圖層_1" xmlns="http://www.w3.org/2000/svg" xmlns:xlink="http://www.w3.org/1999/xlink" x="0px" y="0px"
	 viewBox="0 0 57 56" enable-background="new 0 0 57 56" xml:space="preserve">
<g>
	<defs>
		<rect id="SVGID_1_" x="0.5" y="0" width="56" height="56"/>
	</defs>
	<clipPath id="SVGID_2_">
		<use xlink:href="#SVGID_1_"  overflow="visible"/>
	</clipPath>
	<g clip-path="url(#SVGID_2_)">
		<path fill="#72705B" d="M43.4,24.7c0-1.8-1.4-3.2-3.2-3.2h-5.9c1.4-1.6,2.4-3.5,2.6-5.1c0.1-1-0.2-2-0.9-2.7
			c-0.6-0.7-1.4-1-2.3-1.1c0,0,0,0,0,0c-0.9,0-1.7,0.3-2.3,0.9c-0.6,0.6-0.9,1.4-0.9,2.3c0,0.2-0.4,0.8-1.2,1.6
			c-0.7,0.6-1.8,1.5-3.5,2c-0.7,0.2-1.3,0.6-1.8,1.2c-0.3,0.3-0.7,0.7-1.2,1.1c-0.3-0.1-0.5-0.2-0.8-0.2h-5.6c-1,0-1.8,0.8-1.8,1.8
			v15c0,1,0.8,1.8,1.8,1.8H22c0.7,0,1.3-0.4,1.6-0.9h14.3c1.5,0,2.7-1.2,2.7-2.7c0-0.5-0.1-1-0.4-1.4c0.8-0.5,1.3-1.4,1.3-2.3
			c0-0.5-0.1-1-0.4-1.4c0.8-0.5,1.3-1.4,1.3-2.3c0-0.6-0.2-1.1-0.5-1.5C42.8,26.8,43.4,25.8,43.4,24.7z M40.2,26.2h-0.5
			c-0.5,0-0.9,0.4-0.9,0.9c0,0.5,0.4,0.9,0.9,0.9c0.5,0,1,0.4,1,1s-0.4,1-1,1h-0.9c-0.5,0-0.9,0.4-0.9,0.9c0,0.5,0.4,0.9,0.9,0.9
			c0.5,0,1,0.4,1,1s-0.4,1-1,1h-0.9c-0.5,0-0.9,0.4-0.9,0.9c0,0.5,0.4,0.9,0.9,0.9c0.5,0,1,0.4,1,1c0,0.5-0.4,1-1,1H23.8v-8.5
			c0-0.5-0.4-0.9-0.9-0.9c-0.5,0-0.9,0.4-0.9,0.9v9.4c0,0,0,0.1-0.1,0.1h-5.6c0,0-0.1,0-0.1-0.1v-15c0,0,0-0.1,0.1-0.1H22
			c0,0,0.1,0,0.1,0.1v1.9c0,0.5,0.4,0.9,0.9,0.9c0.5,0,0.9-0.4,0.9-0.9v-1.9c0,0,0-0.1,0-0.1c0.7-0.5,1.2-1,1.5-1.4
			c0.3-0.3,0.7-0.6,1.1-0.7c2.1-0.7,3.5-1.7,4.3-2.5c1-1,1.6-2,1.6-2.8c0-0.4,0.2-0.8,0.4-1c0.3-0.3,0.6-0.4,1-0.4
			c0.5,0,0.8,0.3,1,0.5c0.3,0.4,0.5,0.9,0.4,1.4c-0.2,1.7-1.6,3.9-3.5,5.5c-0.3,0.2-0.4,0.6-0.3,1c0.1,0.4,0.5,0.6,0.8,0.6h8.1
			c0.8,0,1.5,0.7,1.5,1.5C41.7,25.5,41,26.2,40.2,26.2z"/>
		<path fill="#72705B" d="M19.1,34.6c-0.5,0-0.9,0.4-0.9,0.9s0.4,0.9,0.9,0.9S20,36,20,35.5C20,35,19.6,34.6,19.1,34.6z"/>
		<path fill="#72705B" d="M54.9,28l1.5-4c0.1-0.3,0.1-0.6-0.1-0.9l-2.7-3.3l0.2-4.3c0-0.3-0.1-0.6-0.4-0.8l-3.6-2.3l-1.1-4.1
			c-0.1-0.3-0.3-0.5-0.6-0.6L44,6.6l-2.3-3.6c-0.2-0.3-0.5-0.4-0.8-0.4l-4.3,0.2l-3.3-2.7c-0.2-0.2-0.6-0.2-0.9-0.1l-4,1.5l-4-1.5
			c-0.3-0.1-0.6-0.1-0.9,0.1l-3.3,2.7l-4.3-0.2c-0.3,0-0.6,0.1-0.8,0.4L13,6.6L8.9,7.7C8.6,7.8,8.3,8.1,8.2,8.4l-1.1,4.1l-3.6,2.3
			c-0.3,0.2-0.4,0.5-0.4,0.8l0.2,4.3l-2.7,3.3c-0.2,0.2-0.2,0.6-0.1,0.9l1.5,4l-1.5,4c-0.1,0.3-0.1,0.6,0.1,0.9l2.7,3.3l-0.2,4.3
			c0,0.3,0.1,0.6,0.4,0.8l3.6,2.3l1.1,4.1c0.1,0.3,0.3,0.5,0.6,0.6l4.1,1.1l2.3,3.6c0.2,0.3,0.5,0.4,0.8,0.4l4.3-0.2l3.3,2.7
			c0.2,0.2,0.6,0.2,0.9,0.1l4-1.5l4,1.5c0.1,0,0.2,0.1,0.3,0.1c0.2,0,0.4-0.1,0.5-0.2l3.3-2.7l4.3,0.2c0.3,0,0.6-0.1,0.8-0.4
			l2.3-3.6l4.1-1.1c0.3-0.1,0.5-0.3,0.6-0.6l1.1-4.1l3.6-2.3c0.3-0.2,0.4-0.5,0.4-0.8l-0.2-4.3l2.7-3.3c0.2-0.2,0.2-0.6,0.1-0.9
			L54.9,28z M53.2,28.3l1.4,3.8l-2.6,3.2c-0.1,0.2-0.2,0.4-0.2,0.6l0.2,4.1l-3.4,2.2c-0.2,0.1-0.3,0.3-0.4,0.5l-1.1,3.9l-3.9,1.1
			c-0.2,0.1-0.4,0.2-0.5,0.4l-2.2,3.4l-4.1-0.2c-0.2,0-0.4,0.1-0.6,0.2l-3.2,2.6l-3.8-1.4c-0.1,0-0.2-0.1-0.3-0.1s-0.2,0-0.3,0.1
			l-3.8,1.4l-3.2-2.6c-0.2-0.1-0.4-0.2-0.6-0.2l-4.1,0.2l-2.2-3.4c-0.1-0.2-0.3-0.3-0.5-0.4l-3.9-1.1l-1.1-3.9
			c-0.1-0.2-0.2-0.4-0.4-0.5L4.9,40l0.2-4.1c0-0.2-0.1-0.4-0.2-0.6l-2.6-3.2l1.4-3.8c0.1-0.2,0.1-0.4,0-0.6l-1.4-3.8l2.6-3.2
			c0.1-0.2,0.2-0.4,0.2-0.6L4.9,16l3.4-2.2c0.2-0.1,0.3-0.3,0.4-0.5l1.1-3.9l3.9-1.1c0.2-0.1,0.4-0.2,0.5-0.4l2.2-3.4l4.1,0.2
			c0.2,0,0.4-0.1,0.6-0.2l3.2-2.6l3.8,1.4c0.2,0.1,0.4,0.1,0.6,0l3.8-1.4l3.2,2.6c0.2,0.1,0.4,0.2,0.6,0.2l4.1-0.2l2.2,3.4
			c0.1,0.2,0.3,0.3,0.5,0.4l3.9,1.1l1.1,3.9c0.1,0.2,0.2,0.4,0.4,0.5l3.4,2.2l-0.2,4.1c0,0.2,0.1,0.4,0.2,0.6l2.6,3.2l-1.4,3.8
			C53.1,27.9,53.1,28.1,53.2,28.3z"/>
		<path fill="#72705B" d="M45,12.9c-0.2-0.2-0.4-0.5-0.7-0.7c-0.2-0.2-0.5-0.5-0.7-0.7c-0.4-0.3-0.9-0.3-1.2,0.1
			c-0.3,0.4-0.3,0.9,0.1,1.2c0.2,0.2,0.4,0.4,0.6,0.6s0.4,0.4,0.6,0.6c0.2,0.2,0.4,0.3,0.6,0.3c0.2,0,0.4-0.1,0.6-0.2
			C45.3,13.8,45.3,13.2,45,12.9z"/>
		<path fill="#72705B" d="M40.5,9.1c-4.2-2.7-9.3-3.9-14.3-3.4c-5.1,0.5-9.9,2.8-13.5,6.4c-4,4-6.3,9.3-6.5,14.9
			c-0.2,5.6,1.6,11,5.2,15.3c0.2,0.2,0.4,0.3,0.7,0.3c0.2,0,0.4-0.1,0.6-0.2c0.4-0.3,0.4-0.9,0.1-1.2c-3.3-3.9-5-8.9-4.8-14.1
			c0.2-5.2,2.4-10.1,6-13.8c3.3-3.3,7.8-5.4,12.5-5.9C31,7,35.6,8.1,39.5,10.6c0.4,0.3,1,0.1,1.2-0.3C41,9.9,40.9,9.4,40.5,9.1z"/>
		<path fill="#72705B" d="M47.4,16c-0.3-0.4-0.8-0.5-1.2-0.3c-0.4,0.3-0.5,0.8-0.3,1.2c2.5,3.9,3.6,8.6,3.1,13.2
			c-0.5,4.7-2.6,9.1-5.9,12.5c-3.7,3.7-8.6,5.8-13.8,6c-5.2,0.2-10.2-1.5-14.1-4.8c-0.4-0.3-0.9-0.3-1.2,0.1
			c-0.3,0.4-0.3,0.9,0.1,1.2c4,3.4,9.1,5.2,14.4,5.2c0.3,0,0.6,0,0.9,0c5.6-0.2,10.9-2.6,14.9-6.5c3.6-3.6,5.9-8.4,6.4-13.5
			C51.3,25.3,50.1,20.2,47.4,16z"/>
	</g>
</g>
</svg>
