<?xml version="1.0" encoding="utf-8"?>
<!-- Generator: Adobe Illustrator 25.2.3, SVG Export Plug-In . SVG Version: 6.00 Build 0)  -->
<svg version="1.1" id="圖層_1" xmlns="http://www.w3.org/2000/svg" xmlns:xlink="http://www.w3.org/1999/xlink" x="0px" y="0px"
	 viewBox="0 0 56 56" enable-background="new 0 0 56 56" xml:space="preserve">
<path fill="#72705B" d="M39.2,11.1c-0.1,0-3.4,1.2-3.4,4.5c0,0.5,0.4,0.9,0.9,0.9c0.5,0,0.9-0.4,0.9-0.9c0.1-1.3,0.9-2.3,2.1-2.8
	c0.5-0.2,0.7-0.7,0.6-1.2C40.2,11.2,39.7,10.9,39.2,11.1L39.2,11.1z"/>
<path fill="#72705B" d="M55.1,6c0-1.7-1.1-3.3-2.7-3.9C50.8,1.5,49,2,47.9,3.3c-1.1,1.3-1.3,3.2-0.5,4.7l-1.6,1.4
	C42.8,6.8,38.5,6.7,35.5,9l-1.2-1.1c1.3-2,0.8-4.6-1.1-6.1c-1.9-1.4-4.5-1.2-6.1,0.5c-1.6,1.7-1.7,4.4-0.1,6.2
	c1.5,1.8,4.2,2.1,6.1,0.7l1.1,1c-5.3,6.2,0.7,15.6,8.6,13.3l1.2,1.6c-1.3,2.4-0.8,5.4,1.2,7.3c2,1.9,5,2.1,7.3,0.6
	c2.3-1.5,3.2-4.4,2.3-7c-0.9-2.6-3.5-4.2-6.2-3.9l-1.3-1.8c2-2.9,1.9-6.8-0.2-9.6l1.6-1.3c1.3,0.9,2.9,1,4.3,0.3
	C54.2,8.9,55.1,7.5,55.1,6z M51,3.7c0.9,0,1.8,0.5,2.2,1.4C53.5,6,53.3,7,52.6,7.6c-0.7,0.7-1.7,0.8-2.6,0.4l1.1-0.9
	c0.4-0.3,0.4-0.9,0.1-1.3c-0.3-0.4-0.9-0.4-1.3-0.1l-1.1,0.9c-0.2-0.7-0.1-1.4,0.3-2C49.5,4,50.2,3.7,51,3.7z M27.5,5.5
	c0-1.1,0.7-2.1,1.7-2.6s2.2-0.2,3,0.6c0.8,0.8,1,2,0.5,3l-1-0.9c-0.4-0.3-0.9-0.3-1.3,0.1c-0.3,0.4-0.3,0.9,0.1,1.3l0.9,0.8
	c-0.8,0.4-1.8,0.4-2.7-0.1C28.1,7.3,27.6,6.5,27.5,5.5z M34,15.6c0-2.7,1.7-5.1,4.2-6c2.5-0.9,5.3-0.2,7.1,1.8
	c1.8,2,2.1,4.9,0.8,7.3c-0.9-1.1-2.6-1.3-3.8-0.5c-1.2,0.9-1.5,2.5-0.7,3.7c-1.9,0.4-3.8-0.1-5.3-1.4C34.8,19.3,34,17.5,34,15.6z
	 M53.2,28c0,2.3-1.8,4.1-4.1,4.1c-2.3,0-4.1-1.8-4.1-4.1c0-2.3,1.8-4.1,4.1-4.1C51.4,23.9,53.2,25.7,53.2,28z M45.1,23.6l-1.9-2.7
	C43,20.7,42.9,20.3,43,20c0.1-0.3,0.4-0.5,0.7-0.5c0.3,0,0.7,0.1,0.8,0.4l2,2.8C46.1,22.9,45.5,23.2,45.1,23.6z"/>
<path fill="#72705B" d="M37.6,34h-2.2c0.6-1.3,0.3-3-0.9-3.9c-1.2-0.9-2.8-0.9-4,0c-1.2,0.9-1.5,2.5-0.9,3.9h-2.2
	c-1.5-0.1-2.8,1-3,2.6c-0.1,1.5,1,2.8,2.6,3c-2.6,2.8-6.5,3.9-10.1,2.9c-3.7-1-6.5-4-7.2-7.7c-0.8-3.7,0.6-7.6,3.6-9.9
	c0.1,0,0.3,0,0.4,0c1,0,2-0.3,2.8-0.9l1.1,1.1c-0.2,0.6,0,1.3,0.5,1.8l1.3,1.3c0.3,0.3,0.8,0.5,1.3,0.5c0.5,0,1-0.2,1.3-0.5l0.7-0.7
	l1.9,2c0.3,0.3,0.8,0.5,1.3,0.5c0.5,0,1-0.2,1.3-0.5l2.6-2.6c0.3-0.3,0.5-0.8,0.5-1.3c0-0.5-0.2-1-0.5-1.3l-1.9-1.9l0.7-0.6
	c0.3-0.3,0.5-0.8,0.5-1.3c0-0.5-0.2-1-0.5-1.3l-1.3-1.3c-0.5-0.5-1.1-0.6-1.8-0.5L12.2,4c-0.3-0.3-0.8-0.5-1.3-0.5S10,3.7,9.6,4
	L7,1.5C6.7,1.1,6.2,0.9,5.7,0.9s-1,0.2-1.3,0.5L1.8,4C1.5,4.4,1.3,4.9,1.3,5.3s0.2,1,0.5,1.3l2.6,2.6c-0.3,0.3-0.5,0.8-0.5,1.3
	s0.2,1,0.5,1.3l5.7,5.6c-0.5,0.7-0.8,1.5-0.9,2.3c-4.1,3.6-6.1,9-5.4,14.4c0.7,5.4,4,10.1,8.8,12.6H8.3c-3,0-5.5,2.5-5.5,5.5v1.8
	H1.8c-0.5,0-0.9,0.4-0.9,0.9c0,0.5,0.4,0.9,0.9,0.9h36.7c0.5,0,0.9-0.4,0.9-0.9c0-0.5-0.4-0.9-0.9-0.9h-0.9v-1.8
	c0-3-2.5-5.5-5.5-5.5h-4.4c3.1-1.6,5.7-4.2,7.3-7.3h2.7c1.5,0,2.8-1.2,2.8-2.8C40.4,35.2,39.2,34,37.6,34z M31.2,32.6
	c0-0.8,0.6-1.4,1.4-1.4c0.8,0,1.4,0.6,1.4,1.4c0,0.8-0.6,1.4-1.4,1.4C31.8,34,31.2,33.4,31.2,32.6z M13.8,17.4
	c1.5,0,2.8,1.2,2.8,2.8c0,1.5-1.2,2.8-2.8,2.8c-1.5,0-2.8-1.2-2.8-2.8C11,18.7,12.2,17.4,13.8,17.4z M28.5,25.5l-2.6,2.6l-1.9-1.9
	l2.6-2.6L28.5,25.5z M27.2,20.3l-6.5,6.5l-1.3-1.3l6.5-6.5L27.2,20.3z M3.1,5.4l2.6-2.6l2.6,2.6L5.7,8L3.1,5.4z M10.9,5.4l13,13
	l-5.2,5.2l-1-1c1-1.8,0.7-4.1-0.7-5.5c-1.5-1.5-3.7-1.8-5.5-0.7l-5.7-5.7C14.2,2,9.2,7.1,10.9,5.4z M32.1,48.7c2,0,3.7,1.6,3.7,3.7
	v1.8H4.6v-1.8c0-2,1.6-3.7,3.7-3.7H32.1z M20.2,46.8c-5.9,0-11.2-3.5-13.5-8.9S5.5,26.3,9.6,22c0.4,0.9,1,1.6,1.8,2.1
	C8.2,27.3,7.1,32,8.5,36.3c1.4,4.3,5.1,7.4,9.5,8.1c4.4,0.7,8.9-1.2,11.5-4.9h3.3C30.3,44,25.4,46.8,20.2,46.8z M37.6,37.6H27.5
	c-0.5,0-0.9-0.4-0.9-0.9s0.4-0.9,0.9-0.9h10.1c0.5,0,0.9,0.4,0.9,0.9S38.1,37.6,37.6,37.6z"/>
</svg>
