<?xml version="1.0" encoding="utf-8"?>
<!-- Generator: Adobe Illustrator 25.2.3, SVG Export Plug-In . SVG Version: 6.00 Build 0)  -->
<svg version="1.1" id="圖層_1" xmlns="http://www.w3.org/2000/svg" xmlns:xlink="http://www.w3.org/1999/xlink" x="0px" y="0px"
	 viewBox="0 0 56 56" enable-background="new 0 0 56 56" xml:space="preserve">
<path fill="#72705B" d="M42.2,16.2c-0.5,0-0.9-0.3-1-0.7c-0.2-0.4,0-0.9,0.3-1.2c0.4-0.3,0.9-0.4,1.3-0.1c0.4,0.2,0.6,0.7,0.5,1.2
	C43.1,15.9,42.7,16.2,42.2,16.2z"/>
<path fill="#72705B" d="M46.7,38.3c-1.7,0-3.3,0.5-4.7,1.4L37,34.6c1.6-1.9,2.5-4.3,2.5-7c0-2.3-0.7-4.5-2-6.3l1.9-1.9
	c0.4-0.4,0.4-1.1,0-1.5c-0.4-0.4-1.1-0.4-1.5,0l-1.8,1.8c-2-1.9-4.6-3-7.5-3c-2.4,0-4.6,0.8-6.5,2.1l-3-3.4c0,0,0-0.1,0.1-0.1
	c0.7-1.1,0.9-2.4,0.7-3.6c-0.5-2.6-3.1-4.3-5.7-3.7v0c-1.3,0.3-2.3,1-3,2.1c-0.7,1.1-0.9,2.4-0.7,3.6c0.5,2.3,2.5,3.8,4.7,3.8
	c0.3,0,0.7,0,1-0.1c0.5-0.1,0.9-0.3,1.4-0.5l2.9,3.4c-1.8,1.9-2.9,4.5-2.9,7.4c0,1.4,0.3,2.7,0.7,4l-6.8,5.9c-1.2-1.4-3-2.3-5-2.3
	c-3.6,0-6.6,3-6.6,6.6s3,6.6,6.6,6.6c3.6,0,6.6-3,6.6-6.6c0-0.8-0.2-1.7-0.5-2.4c0,0,0,0,0.1-0.1l6.6-5.7c2,3,5.3,5,9.2,5
	c2.6,0,5-0.9,6.8-2.4l5,5.1c-1.3,1.5-2.1,3.4-2.1,5.5c0,4.6,3.8,8.4,8.4,8.4c4.6,0,8.4-3.8,8.4-8.4S51.3,38.3,46.7,38.3z M6.6,46.1
	c-2.4,0-4.4-2-4.4-4.4c0-2.4,2-4.4,4.4-4.4c2.4,0,4.4,2,4.4,4.4C11,44.1,9,46.1,6.6,46.1z M15.7,15.2c-1.4,0.3-2.8-0.6-3.1-2
	c-0.1-0.7,0-1.4,0.4-2c0.4-0.6,1-1,1.7-1.1v0c1.4-0.3,2.8,0.6,3.1,2c0.1,0.7,0,1.4-0.4,2C17,14.6,16.4,15,15.7,15.2z M19.8,27.6
	c0-4.8,3.9-8.8,8.8-8.8c4.8,0,8.8,3.9,8.8,8.8s-3.9,8.8-8.8,8.8C23.8,36.3,19.8,32.4,19.8,27.6z M46.7,52.9c-3.4,0-6.2-2.8-6.2-6.2
	c0-3.4,2.8-6.2,6.2-6.2s6.2,2.8,6.2,6.2C52.9,50.1,50.1,52.9,46.7,52.9z"/>
<path fill="#72705B" d="M49.2,14.6c-3.8,0-6.8-3.1-6.8-6.8S45.4,1,49.2,1C52.9,1,56,4,56,7.8S52.9,14.6,49.2,14.6z M49.2,3.1
	c-2.6,0-4.6,2.1-4.6,4.6c0,2.6,2.1,4.6,4.6,4.6c2.6,0,4.6-2.1,4.6-4.6C53.8,5.2,51.7,3.1,49.2,3.1z"/>
</svg>
