<?xml version="1.0" encoding="utf-8"?>
<!-- Generator: Adobe Illustrator 25.2.3, SVG Export Plug-In . SVG Version: 6.00 Build 0)  -->
<svg version="1.1" id="圖層_1" xmlns="http://www.w3.org/2000/svg" xmlns:xlink="http://www.w3.org/1999/xlink" x="0px" y="0px"
	 viewBox="0 0 57 56" enable-background="new 0 0 57 56" xml:space="preserve">
<g>
	<defs>
		<rect id="SVGID_1_" x="0.5" y="0" width="56" height="56"/>
	</defs>
	<clipPath id="SVGID_2_">
		<use xlink:href="#SVGID_1_"  overflow="visible"/>
	</clipPath>
	<g clip-path="url(#SVGID_2_)">
		<path fill="#72705B" d="M52.5,13.9c-0.5,0-0.9,0.3-0.9,0.7c-0.2,1.5-0.7,2.9-1.5,4.1V8.7c0.6,0.9,1.1,2,1.4,3.2
			c0.1,0.4,0.5,0.7,1,0.6c0.4-0.1,0.7-0.5,0.6-1c-1-4.9-5.4-8.4-10.4-8.4C36.8,3.2,32,7.9,32,13.7c0,5.8,4.8,10.5,10.6,10.5
			c2.6,0,5.2-1,7.1-2.7c2-1.8,3.2-4.1,3.4-6.7C53.3,14.3,53,13.9,52.5,13.9z M48.5,7v13.5c-1.6,1.3-3.6,2.1-5.8,2.1c-5,0-9-4-9-8.9
			c0-4.9,4-8.9,9-8.9C44.9,4.8,46.9,5.6,48.5,7C48.5,7,48.5,7,48.5,7z"/>
		<path fill="#72705B" d="M37.1,13.7c0-1.5,0.6-2.8,1.6-3.9c0.3-0.3,0.3-0.8,0-1.2c-0.3-0.3-0.8-0.3-1.2,0c-1.4,1.3-2.1,3.1-2.1,5
			s0.7,3.7,2.1,5c0.2,0.2,0.4,0.2,0.6,0.2c0.2,0,0.4-0.1,0.6-0.2c0.3-0.3,0.3-0.8,0-1.2C37.7,16.5,37.1,15.2,37.1,13.7z"/>
		<path fill="#72705B" d="M11.1,46.5c0,0.5,0.4,0.8,0.8,0.8h24.4c0.5,0,0.8-0.4,0.8-0.8c0-0.5-0.4-0.8-0.8-0.8h-3.4v-4
			c0-0.7-0.6-1.4-1.4-1.4h-2.1c-0.7,0-1.4,0.6-1.4,1.4v4h-1.5V35.3c0-0.7-0.6-1.4-1.4-1.4h-2.1c-0.7,0-1.4,0.6-1.4,1.4v10.3h-1.5
			v-6.1c0-0.7-0.6-1.4-1.4-1.4h-2.1c-0.7,0-1.4,0.6-1.4,1.4v6.1h-2.6V34.8c0-0.5-0.4-0.8-0.8-0.8c-0.5,0-0.8,0.4-0.8,0.8V46.5z
			 M29.7,42h1.5v3.7h-1.5V42z M23.4,35.6h1.5v10h-1.5V35.6z M17,39.9h1.5v5.8H17V39.9z"/>
		<path fill="#72705B" d="M11.9,27.1h18c0.5,0,0.8-0.4,0.8-0.8c0-0.5-0.4-0.8-0.8-0.8h-18c-0.5,0-0.8,0.4-0.8,0.8
			C11.1,26.8,11.5,27.1,11.9,27.1z"/>
		<path fill="#72705B" d="M11.9,17.6h4.2c0.5,0,0.8-0.4,0.8-0.8c0-0.5-0.4-0.8-0.8-0.8h-4.2c-0.5,0-0.8,0.4-0.8,0.8
			C11.1,17.2,11.5,17.6,11.9,17.6z"/>
		<path fill="#72705B" d="M11.9,23.9h14.9c0.5,0,0.8-0.4,0.8-0.8c0-0.5-0.4-0.8-0.8-0.8H11.9c-0.5,0-0.8,0.4-0.8,0.8
			C11.1,23.6,11.5,23.9,11.9,23.9z"/>
		<path fill="#72705B" d="M11.9,9.1h12.7c0.5,0,0.8-0.4,0.8-0.8c0-0.5-0.4-0.8-0.8-0.8H11.9c-0.5,0-0.8,0.4-0.8,0.8
			C11.1,8.7,11.5,9.1,11.9,9.1z"/>
		<path fill="#72705B" d="M56.5,13.7C56.5,6.1,50.3,0,42.7,0c-2.7,0-5.3,0.8-7.4,2.1c-0.1,0-0.1,0-0.2,0H4.5c-2.2,0-4,1.8-4,4v8.5
			c0,0.5,0.4,0.8,0.8,0.8h5.5v34.2c0,1,0.8,1.9,1.9,1.9h27.6c0.5,0,0.8-0.4,0.8-0.8c0-0.5-0.4-0.8-0.8-0.8H8.8
			c-0.1,0-0.2-0.1-0.2-0.2V6.1c0-0.9-0.3-1.7-0.8-2.4h25.4c-2.7,2.5-4.3,6-4.3,9.9c0,6.7,4.9,12.4,11.4,13.5l0,8
			c-1,0.3-1.7,1.2-1.7,2.3v0.1c0,0.7,0.3,1.3,0.8,1.8c-0.5,2.1-0.8,4.7-0.8,7.4c0,2.3,0.2,4.5,0.6,6.4c0.3,1.7,1.8,2.9,3.5,2.9
			c1.7,0,3.2-1.2,3.5-2.9c0.1-0.5,0.2-1,0.3-1.6h1.8c1,0,1.9-0.8,1.9-1.9V27.9c0-0.5-0.4-0.8-0.8-0.8c-0.5,0-0.8,0.4-0.8,0.8v21.8
			c0,0.1-0.1,0.2-0.2,0.2h-1.6c0.1-1,0.1-2.1,0.1-3.2c0-2.7-0.3-5.4-0.8-7.4c0.5-0.4,0.8-1.1,0.8-1.8v-0.1c0-1.1-0.7-2-1.7-2.3l0-8
			C51.6,26.1,56.5,20.4,56.5,13.7z M6.9,13.8H2.1V6.1c0-1.3,1.1-2.4,2.4-2.4s2.4,1.1,2.4,2.4V13.8z M44.6,52.8
			c-0.2,0.9-1,1.6-1.9,1.6s-1.7-0.7-1.9-1.6c-0.3-1.8-0.5-3.9-0.5-6.1c0-2.5,0.2-4.9,0.7-6.8c0,0,0,0,0.1,0h3.4c0,0,0,0,0.1,0
			c0.4,1.9,0.7,4.3,0.7,6.8C45.1,48.9,44.9,51,44.6,52.8z M45.1,37.4v0.1c0,0.4-0.3,0.7-0.8,0.7H41c-0.4,0-0.8-0.3-0.8-0.7v-0.1
			c0-0.4,0.3-0.7,0.8-0.7h3.4C44.8,36.7,45.1,37,45.1,37.4z M41.9,35l0-7.7c0.5,0,1,0,1.5,0l0,7.7H41.9z M42.7,25.8
			c-6.7,0-12.2-5.4-12.2-12.1C30.5,7,36,1.6,42.7,1.6S54.9,7,54.9,13.7C54.9,20.3,49.4,25.8,42.7,25.8z"/>
		<path fill="#72705B" d="M11.9,12.3h8.5c0.5,0,0.8-0.4,0.8-0.8c0-0.5-0.4-0.8-0.8-0.8h-8.5c-0.5,0-0.8,0.4-0.8,0.8
			C11.1,11.9,11.5,12.3,11.9,12.3z"/>
		<path fill="#72705B" d="M11.9,30.3h14.9c0.5,0,0.8-0.4,0.8-0.8c0-0.5-0.4-0.8-0.8-0.8H11.9c-0.5,0-0.8,0.4-0.8,0.8
			C11.1,29.9,11.5,30.3,11.9,30.3z"/>
	</g>
</g>
</svg>
