<?xml version="1.0" encoding="utf-8"?>
<!-- Generator: Adobe Illustrator 25.2.3, SVG Export Plug-In . SVG Version: 6.00 Build 0)  -->
<svg version="1.1" id="圖層_1" xmlns="http://www.w3.org/2000/svg" xmlns:xlink="http://www.w3.org/1999/xlink" x="0px" y="0px"
	 viewBox="0 0 56 56" enable-background="new 0 0 56 56" xml:space="preserve">
<path fill="#72705B" d="M54.9,24.1c-0.3,0-0.6-0.1-0.8-0.3c-0.2-0.2-0.3-0.5-0.3-0.8c0-0.3,0.1-0.6,0.3-0.8c0.4-0.4,1.2-0.4,1.6,0
	c0.2,0.2,0.3,0.5,0.3,0.8c0,0.3-0.1,0.6-0.3,0.8C55.5,24,55.2,24.1,54.9,24.1z"/>
<path fill="#72705B" d="M16.8,44.2c-0.3,0-0.6-0.1-0.8-0.3c-0.2-0.2-0.3-0.5-0.3-0.8c0-0.3,0.1-0.6,0.3-0.8c0.4-0.4,1.2-0.4,1.6,0
	c0.2,0.2,0.3,0.5,0.3,0.8c0,0.3-0.1,0.6-0.3,0.8C17.4,44.1,17.1,44.2,16.8,44.2z"/>
<path fill="#72705B" d="M54.9,33c-0.6,0-1.1-0.5-1.1-1.1v-4.5c0-0.6,0.5-1.1,1.1-1.1c0.6,0,1.1,0.5,1.1,1.1v4.5
	C56,32.5,55.5,33,54.9,33z"/>
<path fill="#72705B" d="M54.9,19.6c-0.6,0-1.1-0.5-1.1-1.1V5.6c0-0.6,0.5-1.1,1.1-1.1C55.5,4.5,56,5,56,5.6v12.9
	C56,19.1,55.5,19.6,54.9,19.6z"/>
<path fill="#72705B" d="M16.8,39.8c-0.6,0-1.1-0.5-1.1-1.1V25.4c0-0.6,0.5-1.1,1.1-1.1c0.6,0,1.1,0.5,1.1,1.1v13.2
	C17.9,39.3,17.4,39.8,16.8,39.8z"/>
<path fill="#72705B" d="M16.8,53.2c-0.6,0-1.1-0.5-1.1-1.1v-4.5c0-0.6,0.5-1.1,1.1-1.1c0.6,0,1.1,0.5,1.1,1.1v4.5
	C17.9,52.7,17.4,53.2,16.8,53.2z"/>
<path fill="#72705B" d="M31.5,52.6c-0.6,0-1.1-0.5-1.1-1.1V34.2c0-0.6,0.5-1.1,1.1-1.1c0.6,0,1.1,0.5,1.1,1.1v17.4
	C32.6,52.1,32.1,52.6,31.5,52.6z"/>
<path fill="#72705B" d="M52.6,35.3c-0.6,0-1.1-0.5-1.1-1.1c0-0.6,0.5-1.1,1.1-1.1c0.6,0,1.1-0.5,1.1-1.1c0-0.6,0.5-1.1,1.1-1.1
	c0.6,0,1.1,0.5,1.1,1.1C56,33.8,54.5,35.3,52.6,35.3z"/>
<path fill="#72705B" d="M52.6,35.3H16.8c-0.6,0-1.1-0.5-1.1-1.1c0-0.6,0.5-1.1,1.1-1.1h35.8c0.6,0,1.1,0.5,1.1,1.1
	C53.8,34.8,53.3,35.3,52.6,35.3z"/>
<path fill="#72705B" d="M48.2,15.7H31.8c-0.6,0-1.1-0.5-1.1-1.1c0-0.6,0.5-1.1,1.1-1.1h16.4c0.6,0,1.1,0.5,1.1,1.1
	C49.3,15.2,48.8,15.7,48.2,15.7z"/>
<path fill="#72705B" d="M48.2,20.2H33c-0.6,0-1.1-0.5-1.1-1.1c0-0.6,0.5-1.1,1.1-1.1h15.1c0.6,0,1.1,0.5,1.1,1.1
	C49.3,19.7,48.8,20.2,48.2,20.2z"/>
<path fill="#72705B" d="M48.2,24.6H30.8c-0.6,0-1.1-0.5-1.1-1.1c0-0.6,0.5-1.1,1.1-1.1h17.4c0.6,0,1.1,0.5,1.1,1.1
	C49.3,24.1,48.8,24.6,48.2,24.6z"/>
<path fill="#72705B" d="M43.7,11.2H22.4c-0.6,0-1.1-0.5-1.1-1.1c0-0.6,0.5-1.1,1.1-1.1h21.3c0.6,0,1.1,0.5,1.1,1.1
	C44.8,10.7,44.3,11.2,43.7,11.2z"/>
<path fill="#72705B" d="M33,4.5c-0.6,0-1.1-0.5-1.1-1.1V1.1C31.9,0.5,32.4,0,33,0c0.6,0,1.1,0.5,1.1,1.1v2.2C34.2,4,33.7,4.5,33,4.5
	z"/>
<path fill="#72705B" d="M11.2,11.2c-0.6,0-1.1-0.5-1.1-1.1V5.6c0-0.6,0.5-1.1,1.1-1.1c0.6,0,1.1,0.5,1.1,1.1v4.5
	C12.3,10.7,11.8,11.2,11.2,11.2z"/>
<path fill="#72705B" d="M11.2,6.7c-0.6,0-1.1-0.5-1.1-1.1c0-1.9,1.5-3.4,3.4-3.4c0.6,0,1.1,0.5,1.1,1.1s-0.5,1.1-1.1,1.1
	c-0.6,0-1.1,0.5-1.1,1.1C12.3,6.2,11.8,6.7,11.2,6.7z"/>
<path fill="#72705B" d="M52.6,4.5H13.4c-0.6,0-1.1-0.5-1.1-1.1s0.5-1.1,1.1-1.1h39.2c0.6,0,1.1,0.5,1.1,1.1S53.3,4.5,52.6,4.5z"/>
<path fill="#72705B" d="M54.9,6.7c-0.6,0-1.1-0.5-1.1-1.1c0-0.6-0.5-1.1-1.1-1.1c-0.6,0-1.1-0.5-1.1-1.1s0.5-1.1,1.1-1.1
	c1.9,0,3.4,1.5,3.4,3.4C56,6.2,55.5,6.7,54.9,6.7z"/>
<path fill="#72705B" d="M4.3,23.1c-0.5,0-0.9-0.3-1.1-0.8C3,21.7,3.4,21.1,4,20.9c3.6-1.2,7.5-1.4,11.2-0.7c0.6,0.1,1,0.7,0.9,1.3
	c-0.1,0.6-0.7,1-1.3,0.9C11.4,21.8,7.9,22,4.6,23C4.5,23.1,4.4,23.1,4.3,23.1z"/>
<path fill="#72705B" d="M15,22.4c-0.4,0-0.8-0.2-1-0.6c-0.3-0.6,0-1.2,0.5-1.5l10.4-4.9c0.6-0.3,1.2,0,1.5,0.5
	c0.3,0.6,0,1.2-0.5,1.5l-10.4,4.9C15.3,22.4,15.1,22.4,15,22.4z"/>
<path fill="#72705B" d="M27.3,21.7c-0.4,0-0.8-0.2-1-0.6c-0.3-0.6,0-1.2,0.5-1.5c0.9-0.4,0.6-1.3,0.5-1.5c-0.1-0.2-0.5-1-1.4-0.6
	c-0.6,0.3-1.2,0-1.5-0.5c-0.3-0.6,0-1.2,0.5-1.5c2-0.9,3.7,0.1,4.4,1.7c0.7,1.5,0.4,3.5-1.6,4.4C27.6,21.6,27.4,21.7,27.3,21.7z"/>
<path fill="#72705B" d="M16.8,26.5c-0.4,0-0.8-0.2-1-0.6c-0.3-0.6,0-1.2,0.5-1.5l10.5-4.9c0.6-0.3,1.2,0,1.5,0.5
	c0.3,0.6,0,1.2-0.5,1.5l-10.5,4.9C17.1,26.5,17,26.5,16.8,26.5z"/>
<path fill="#72705B" d="M21,56c-0.3,0-0.6-0.1-0.8-0.4c-0.4-0.5-0.4-1.2,0.1-1.6l10.5-9.1c0.5-0.4,1.2-0.4,1.6,0.1
	c0.4,0.5,0.4,1.2-0.1,1.6l-10.5,9.1C21.5,55.9,21.3,56,21,56z"/>
<path fill="#72705B" d="M42,56c-0.3,0-0.5-0.1-0.7-0.3l-10.5-9.1c-0.5-0.4-0.5-1.1-0.1-1.6c0.4-0.5,1.1-0.5,1.6-0.1L42.7,54
	c0.5,0.4,0.5,1.1,0.1,1.6C42.6,55.9,42.3,56,42,56z"/>
<path fill="#72705B" d="M1.1,38.9c-0.6,0-1.1-0.5-1.1-1.1V26.2c0-0.6,0.5-1.1,1.1-1.1s1.1,0.5,1.1,1.1v11.6
	C2.2,38.4,1.7,38.9,1.1,38.9z"/>
<path fill="#72705B" d="M1.1,27.4c-0.6,0-1.1-0.5-1.1-1.1c0-2.5,1.6-4.6,4-5.4c0.6-0.2,1.2,0.2,1.4,0.7c0.2,0.6-0.2,1.2-0.7,1.4
	c-1.4,0.4-2.4,1.7-2.4,3.2C2.2,26.9,1.7,27.4,1.1,27.4z"/>
<path fill="#72705B" d="M5.6,53.2c-0.6,0-1.1-0.5-1.1-1.1V27.5c0-0.6,0.5-1.1,1.1-1.1s1.1,0.5,1.1,1.1v24.6
	C6.7,52.7,6.2,53.2,5.6,53.2z"/>
<path fill="#72705B" d="M11.2,22.1c-3.5,0-6.5-3-6.5-6.5S7.7,9,11.2,9c3.5,0,6.5,3,6.5,6.5S14.7,22.1,11.2,22.1z M11.2,11.2
	c-2.3,0-4.3,2-4.3,4.3s2,4.3,4.3,4.3c2.3,0,4.3-2,4.3-4.3C15.5,13.2,13.5,11.2,11.2,11.2z"/>
<path fill="#72705B" d="M11.2,53.2c-0.6,0-1.1-0.5-1.1-1.1V37.8c0-0.6,0.5-1.1,1.1-1.1c0.6,0,1.1,0.5,1.1,1.1v14.3
	C12.3,52.7,11.8,53.2,11.2,53.2z"/>
<path fill="#72705B" d="M3.4,41.1C1.7,41.1,0,40,0,37.8c0-0.6,0.5-1.1,1.1-1.1s1.1,0.5,1.1,1.1c0,1,0.9,1,1.1,1c0.2,0,1.1-0.1,1.1-1
	c0-0.6,0.5-1.1,1.1-1.1s1.1,0.5,1.1,1.1C6.7,40,5,41.1,3.4,41.1z"/>
<path fill="#72705B" d="M14,55.9c-1,0-1.9-0.3-2.7-0.9c-0.8-0.7-1.3-1.7-1.3-2.9c0-0.6,0.5-1.1,1.1-1.1c0.6,0,1.1,0.5,1.1,1.1
	c0,1.5,1.5,1.6,1.7,1.6c0.2,0,1.7,0,1.7-1.6c0-0.6,0.5-1.1,1.1-1.1c0.6,0,1.1,0.5,1.1,1.1C17.9,54.6,15.9,55.9,14,55.9z"/>
<path fill="#72705B" d="M8.4,55.9c-1,0-1.9-0.3-2.7-0.9c-0.8-0.7-1.3-1.7-1.3-2.9C4.5,51.5,5,51,5.6,51s1.1,0.5,1.1,1.1
	c0,1.5,1.5,1.6,1.7,1.6s1.7,0,1.7-1.6c0-0.6,0.5-1.1,1.1-1.1c0.6,0,1.1,0.5,1.1,1.1C12.3,54.6,10.3,55.9,8.4,55.9z"/>
</svg>
