<?xml version="1.0" encoding="utf-8"?>
<!-- Generator: Adobe Illustrator 25.2.3, SVG Export Plug-In . SVG Version: 6.00 Build 0)  -->
<svg version="1.1" id="圖層_1" xmlns="http://www.w3.org/2000/svg" xmlns:xlink="http://www.w3.org/1999/xlink" x="0px" y="0px"
	 viewBox="0 0 56 56" enable-background="new 0 0 56 56" xml:space="preserve">
<g>
	<defs>
		<rect id="SVGID_1_" y="0" width="56" height="56"/>
	</defs>
	<clipPath id="SVGID_2_">
		<use xlink:href="#SVGID_1_"  overflow="visible"/>
	</clipPath>
	<g clip-path="url(#SVGID_2_)">
		<path fill="#72705B" d="M11.5,15.2H7.5c-0.5,0-0.8,0.4-0.8,0.8s0.4,0.8,0.8,0.8h4.1c0.5,0,0.8-0.4,0.8-0.8
			C12.4,15.6,12,15.2,11.5,15.2z"/>
		<path fill="#72705B" d="M11.5,18.5H7.5c-0.5,0-0.8,0.4-0.8,0.8c0,0.5,0.4,0.8,0.8,0.8h4.1c0.5,0,0.8-0.4,0.8-0.8
			C12.4,18.9,12,18.5,11.5,18.5z"/>
		<path fill="#72705B" d="M11.5,21.2H7.5c-0.5,0-0.8,0.4-0.8,0.8c0,0.5,0.4,0.8,0.8,0.8h4.1c0.5,0,0.8-0.4,0.8-0.8
			C12.4,21.6,12,21.2,11.5,21.2z"/>
		<path fill="#72705B" d="M11.5,26.4H7.5c-0.5,0-0.8,0.4-0.8,0.8C6.6,27.7,7,28,7.5,28h4.1c0.5,0,0.8-0.4,0.8-0.8
			C12.4,26.8,12,26.4,11.5,26.4z"/>
		<path fill="#72705B" d="M48.4,27.9v-18c0-1.4-1.1-2.5-2.5-2.5H27.3c-0.3-0.4-0.6-0.7-0.9-1c-0.3-0.3-0.8-0.3-1.2,0
			c-0.3,0.3-0.3,0.7-0.1,1h-9c1.7-1.6,4-2.2,6.2-1.6c0.4,0.1,0.9-0.1,1-0.6c0.1-0.4-0.1-0.9-0.6-1c-2.8-0.8-5.9,0-8,2.1
			c-0.3,0.3-0.6,0.7-0.9,1H2.5C1.1,7.4,0,8.5,0,9.8v29.4c0,1.4,1.1,2.5,2.5,2.5h3.6c0.5,0,0.8-0.4,0.8-0.8c0-0.5-0.4-0.8-0.8-0.8
			H2.5c-0.5,0-0.8-0.4-0.8-0.8V9.8C1.6,9.4,2,9,2.5,9h10.6c-0.3,0.8-0.5,1.7-0.6,2.6H5.3c-0.9,0-1.6,0.7-1.6,1.6v16.9
			c0,0.9,0.7,1.6,1.6,1.6h8.6c0.9,0,1.6-0.7,1.6-1.6V18.5c1.4,1.2,3.2,1.8,5.1,1.8c1.2,0,2.3-0.3,3.4-0.7l3.7,3.7
			c0.6,0.6,1.3,0.8,2,0.8c0.7,0,1.5-0.3,2-0.8c0.5-0.5,0.8-1.3,0.8-2s-0.3-1.5-0.8-2l-3.7-3.7c0.9-2,1-4.4,0.1-6.5h5.3v22.5
			c-1.7,2.2-2.8,4.9-2.8,7.9c0,0.2,0,0.5,0,0.7h-1.6v-6.9c0-0.4-0.2-0.8-0.6-1L27.9,32c-0.4-0.2-0.9-0.2-1.2,0l-0.9,0.4L24.8,32
			c-0.4-0.2-0.9-0.2-1.2,0l-0.9,0.4L21.8,32c-0.4-0.2-0.9-0.2-1.2,0l-0.6,0.3c-0.4,0.2-0.6,0.5-0.6,1v6.9H9.9
			c-0.5,0-0.8,0.4-0.8,0.8c0,0.5,0.4,0.8,0.8,0.8H31c1.1,5.9,6.2,10.3,12.4,10.3c2,0,4-0.5,5.8-1.4c0.4-0.2,0.6-0.7,0.3-1.1
			c-0.2-0.4-0.7-0.6-1.1-0.3c-1.6,0.8-3.3,1.2-5.1,1.2c-6.1,0-11-4.9-11-11s4.9-11,11-11s11,4.9,11,11c0,2.9-1.1,5.6-3.2,7.7
			c-0.3,0.3-0.3,0.8,0,1.2c0.3,0.3,0.8,0.3,1.2,0c2.3-2.4,3.6-5.5,3.6-8.9C56,34.3,52.9,29.8,48.4,27.9z M13.9,30.1H5.4V13.3h7.2
			c0.2,1.2,0.6,2.4,1.3,3.4L13.9,30.1L13.9,30.1z M20.6,18.6c-1.7,0-3.4-0.7-4.6-1.9s-1.9-2.9-1.9-4.6c0-1.1,0.3-2.1,0.8-3.1h11.5
			c0.5,0.9,0.8,2,0.8,3.1c0,1.7-0.7,3.4-1.9,4.6C24,17.9,22.4,18.6,20.6,18.6z M30.6,20.4c0.2,0.2,0.4,0.5,0.4,0.9
			c0,0.3-0.1,0.6-0.4,0.9c-0.5,0.5-1.3,0.5-1.7,0l-3.4-3.4c0.3-0.2,0.6-0.5,0.9-0.8c0.3-0.3,0.6-0.6,0.8-0.9L30.6,20.4z M27.5,40.1
			h-6.7v-6.3c0-0.1,0.1-0.2,0.1-0.2c0.1,0,0.1,0,0.2,0l0.8,0.4c0.4,0.2,0.8,0.2,1.2,0l0.9-0.4l0.9,0.4c0.4,0.2,0.8,0.2,1.2,0
			l0.8-0.4c0.1,0,0.1,0,0.2,0l0,0c0.1,0,0.1,0.1,0.1,0.2L27.5,40.1L27.5,40.1z M46.8,27.3c-1.1-0.3-2.2-0.5-3.4-0.5
			c-3.1,0-6,1.1-8.2,3V9H46c0.5,0,0.8,0.4,0.8,0.8V27.3z"/>
		<path fill="#72705B" d="M44,46c0.3-0.3,0.3-0.9,0-1.2c-0.3-0.3-0.9-0.3-1.2,0c-0.3,0.3-0.3,0.9,0,1.2C43.1,46.4,43.7,46.4,44,46z"
			/>
		<path fill="#72705B" d="M46.7,36.5c-0.1-1.8-1.5-3.2-3.3-3.2c-1.7,0-3.2,1.2-3.4,2.9c0,0.2,0,0.3,0,0.5c0,0.5,0.4,0.8,0.8,0.8
			s0.8-0.4,0.8-0.8c0-0.1,0-0.2,0-0.2c0.1-0.9,0.9-1.5,1.7-1.5c0.9,0,1.6,0.7,1.7,1.6c0,0.5-0.1,0.9-0.5,1.3
			c-0.3,0.3-0.8,0.5-1.3,0.5c-0.5,0-0.8,0.4-0.8,0.8v2.7c0,0.5,0.4,0.8,0.8,0.8s0.8-0.4,0.8-0.8v-1.9c0.6-0.2,1.2-0.5,1.6-0.9
			C46.5,38.3,46.8,37.4,46.7,36.5z"/>
	</g>
</g>
</svg>
