<?xml version="1.0" encoding="utf-8"?>
<!-- Generator: Adobe Illustrator 25.2.3, SVG Export Plug-In . SVG Version: 6.00 Build 0)  -->
<svg version="1.1" id="圖層_1" xmlns="http://www.w3.org/2000/svg" xmlns:xlink="http://www.w3.org/1999/xlink" x="0px" y="0px"
	 viewBox="0 0 56 56" enable-background="new 0 0 56 56" xml:space="preserve">
<path fill="#72705B" d="M21,25.9c0.9,1,2.2,1.5,3.5,1.5c1.2,0,2.4-0.5,3.4-1.4l12.9-12.9c0.7-0.7,0.7-1.9,0-2.6l-10-10
	C30.4,0.2,29.9,0,29.4,0c-0.5,0-1,0.2-1.3,0.5L21.7,7c-0.3,0.3-0.3,0.8,0,1.1c0.3,0.3,0.8,0.3,1.1,0l6.4-6.4c0.1-0.1,0.3-0.1,0.4,0
	l10,10c0.1,0.1,0.1,0.3,0,0.4L26.8,24.9c-1.2,1.2-3.2,1.2-4.5,0c-0.9-0.8-1-2.3-0.1-3.2c0.7-0.7,1.7-0.8,2.5-0.3
	c0.3,0.2,0.7,0.1,1-0.1c0.3-0.3,0.3-0.9,0-1.2l-7.4-7.4l2.1-2.1c0.3-0.3,0.3-0.8,0-1.1c-0.3-0.3-0.8-0.3-1.1,0l-2.2,2.2
	c-1.4-0.9-3.4-0.8-4.6,0.5c-0.7,0.7-1.1,1.6-1.1,2.6s0.4,1.9,1.1,2.6L21,25.9z M13.6,13.2c0.8-0.8,2.2-0.8,3,0l6.4,6.4
	c-0.7,0.1-1.4,0.5-2,1c-0.5,0.5-0.9,1.2-1,2l-6.4-6.4C12.8,15.4,12.8,14,13.6,13.2z"/>
<path fill="#72705B" d="M42.1,27.7h-6.7c-0.4,0-0.8,0.4-0.8,0.8c0,0.4,0.4,0.8,0.8,0.8h6.7c0.6,0,1.1,0.5,1.1,1.1
	c0,0.6-0.5,1.1-1.1,1.1H13.9c-0.6,0-1.1-0.5-1.1-1.1c0-0.6,0.5-1.1,1.1-1.1h17.8c0.4,0,0.8-0.4,0.8-0.8c0-0.4-0.4-0.8-0.8-0.8H13.9
	c-1.5,0-2.7,1.2-2.7,2.7c0,1.5,1.2,2.7,2.7,2.7H14l2,12.2c0.1,0.4,0.5,0.7,0.9,0.7c0.4-0.1,0.7-0.5,0.7-0.9l0-0.1h3.7l0.3,4.6h-3.2
	l-0.2-1.1c-0.1-0.4-0.5-0.7-0.9-0.7c-0.4,0.1-0.7,0.5-0.7,0.9l0.9,5.2c0.2,1.2,1.3,2.1,2.5,2.1h16c1.3,0,2.3-0.9,2.5-2.1L42,33h0.1
	c1.5,0,2.7-1.2,2.7-2.7C44.8,28.9,43.6,27.7,42.1,27.7z M28.8,54.4V51h4l-0.2,3.4H28.8z M23.4,54.4L23.2,51h4v3.4H23.4z M28.8,49.4
	v-4.6h4.4l-0.3,4.6H28.8z M34.8,44.8h3.7l-0.8,4.6h-3.2L34.8,44.8z M38.7,43.3h-3.8l0.3-4.6h4.3L38.7,43.3z M33.3,43.3h-4.5v-4.6
	h4.7L33.3,43.3z M27.2,38.7v4.6h-4.5l-0.3-4.6H27.2z M22.4,37.1L22.1,33h5.1v4.1H22.4z M28.8,37.1V33h5.1l-0.3,4.1H28.8z M20.5,33
	l0.3,4.1h-4.5L15.6,33H20.5z M17.3,43.3l-0.8-4.6h4.3l0.3,4.6H17.3z M22.8,44.8h4.4v4.6h-4.1L22.8,44.8z M19,53.6L18.6,51h3l0.2,3.4
	H20C19.5,54.4,19.1,54.1,19,53.6z M36,54.4h-1.8l0.2-3.4h3L37,53.6C36.9,54.1,36.5,54.4,36,54.4z M39.7,37.1h-4.5l0.3-4.1h4.9
	L39.7,37.1z"/>
<path fill="#72705B" d="M33.7,13.3c0.7,0,1.1-0.9,0.6-1.4l-5-5c-0.3-0.3-0.8-0.3-1.1,0c-0.3,0.3-0.3,0.8,0,1.1l5,5
	C33.3,13.2,33.5,13.3,33.7,13.3z"/>
<path fill="#72705B" d="M25.4,9.6c-0.3,0.3-0.3,0.8,0,1.1l5,5c0.3,0.3,0.8,0.3,1.1,0c0.3-0.3,0.3-0.8,0-1.1l-5-5
	C26.2,9.3,25.7,9.3,25.4,9.6z"/>
<path fill="#72705B" d="M22.7,12.3c-0.3,0.3-0.3,0.8,0,1.1l4.9,4.9c0.3,0.3,0.8,0.3,1.1,0c0.3-0.3,0.3-0.8,0-1.1l-4.9-4.9
	C23.5,12,23,12,22.7,12.3z"/>
</svg>
