<?xml version="1.0" encoding="utf-8"?>
<!-- Generator: Adobe Illustrator 25.2.3, SVG Export Plug-In . SVG Version: 6.00 Build 0)  -->
<svg version="1.1" id="圖層_1" xmlns="http://www.w3.org/2000/svg" xmlns:xlink="http://www.w3.org/1999/xlink" x="0px" y="0px"
	 viewBox="0 0 56 56" enable-background="new 0 0 56 56" xml:space="preserve">
<path fill="#72705B" d="M32.7,23.7h-0.3v-1.5h1.1c0.2,0,0.4-0.1,0.5-0.2c0.1-0.1,0.2-0.3,0.2-0.5V14c0-0.2-0.1-0.4-0.2-0.5
	c-0.1-0.1-0.3-0.2-0.5-0.2h-1.9v-6c0-1-0.4-1.9-1.1-2.6C29.9,4,29,3.6,28,3.6c-1,0-1.9,0.4-2.6,1.1c-0.7,0.7-1.1,1.6-1.1,2.6v6h-1.9
	c-0.2,0-0.4,0.1-0.5,0.2c-0.1,0.1-0.2,0.3-0.2,0.5v7.4c0,0.2,0.1,0.4,0.2,0.5c0.1,0.1,0.3,0.2,0.5,0.2h1.1v1.5h-0.3
	c-1.4,0-2.7,0.5-3.6,1.5c-1,1-1.5,2.3-1.5,3.6V47c0,1.4,0.5,2.7,1.5,3.6c1,1,2.3,1.5,3.6,1.5h9.5c1.4,0,2.7-0.5,3.6-1.5
	c1-1,1.5-2.3,1.5-3.6V28.9c0-1.4-0.5-2.7-1.5-3.6C35.4,24.3,34.1,23.7,32.7,23.7z M25.9,7.3c0-0.6,0.2-1.1,0.6-1.5s0.9-0.6,1.5-0.6
	c0.6,0,1.1,0.2,1.5,0.6s0.6,0.9,0.6,1.5v6h-4.2V7.3z M23.2,14.8h9.6v5.9h-9.6V14.8z M25.1,22.2h5.9v1.5h-5.9V22.2z M23.3,25.3h9.5
	c1,0,1.9,0.4,2.6,1.1c0.7,0.7,1.1,1.6,1.1,2.6v2.3H19.7v-2.3c0-1,0.4-1.9,1.1-2.6C21.4,25.6,22.3,25.3,23.3,25.3L23.3,25.3z
	 M36.3,43.2H19.7V32.7h16.7V43.2z M32.7,50.7h-9.5c-1,0-1.9-0.4-2.6-1.1C20,48.9,19.7,48,19.7,47v-2.3h16.7V47c0,1-0.4,1.9-1.1,2.6
	C34.6,50.3,33.7,50.7,32.7,50.7z"/>
</svg>
