<?xml version="1.0" encoding="utf-8"?>
<!-- Generator: Adobe Illustrator 25.2.3, SVG Export Plug-In . SVG Version: 6.00 Build 0)  -->
<svg version="1.1" id="圖層_1" xmlns="http://www.w3.org/2000/svg" xmlns:xlink="http://www.w3.org/1999/xlink" x="0px" y="0px"
	 viewBox="0 0 56 56" enable-background="new 0 0 56 56" xml:space="preserve">
<path fill="#72705B" d="M37.2,18.6c-2.2,0-4.4,0.5-6.4,1.4c-2,1-3.7,2.3-5.1,4.1v-2.6c0-1.3-0.5-2.5-1.3-3.4c-0.8-0.9-2-1.5-3.2-1.7
	c0-9.7,0-8.9-0.1-9.1c-0.2-1.2-0.8-2.3-1.7-3.1C18.4,3.4,17.2,3,16,3h-2.3c-1.2,0-2.4,0.4-3.3,1.2S8.8,6.1,8.6,7.3
	c-0.1,0.2-0.1-0.5-0.1,9.1c-1.2,0.1-2.4,0.8-3.2,1.7C4.5,19,4,20.2,4,21.5v26.4c0,1.4,0.5,2.7,1.5,3.6c1,1,2.3,1.5,3.6,1.5h11.4
	c1.4,0,2.7-0.5,3.6-1.5c1-1,1.5-2.3,1.5-3.6v-5.2c1.6,1.9,3.6,3.5,5.9,4.4c2.3,0.9,4.8,1.3,7.3,1s4.8-1.2,6.9-2.7
	c2-1.5,3.7-3.4,4.7-5.7c1.1-2.3,1.6-4.7,1.4-7.2c-0.1-2.5-0.9-4.9-2.3-7c-1.3-2.1-3.2-3.9-5.4-5.1C42.1,19.3,39.7,18.6,37.2,18.6z
	 M10.1,16.4v-8h9.5v8H10.1z M13.7,4.5H16c0.7,0,1.4,0.2,2,0.6c0.6,0.4,1.1,1,1.3,1.7h-9c0.3-0.7,0.7-1.3,1.3-1.7
	C12.3,4.7,13,4.5,13.7,4.5L13.7,4.5z M9.2,17.9h11.4c1,0,1.9,0.4,2.6,1.1c0.7,0.7,1.1,1.6,1.1,2.6v1.2H5.6v-1.2c0-1,0.4-1.9,1.1-2.6
	C7.3,18.3,8.2,17.9,9.2,17.9z M20.5,51.5H9.2c-1,0-1.9-0.4-2.6-1.1c-0.7-0.7-1.1-1.6-1.1-2.6v-1.4h18.6v1.4c0,1-0.4,1.9-1.1,2.6
	C22.4,51.1,21.5,51.5,20.5,51.5z M24.2,44.9H5.6V24.2h18.6v2.2c-1.2,2.2-1.8,4.6-1.8,7c0,2.4,0.6,4.9,1.8,7V44.9z M37.2,46.7
	c-2.6,0-5.2-0.8-7.4-2.2c-2.2-1.5-3.9-3.5-4.9-6c-1-2.4-1.3-5.1-0.8-7.7c0.5-2.6,1.8-4.9,3.6-6.8c1.9-1.9,4.2-3.1,6.8-3.6
	c2.6-0.5,5.2-0.2,7.7,0.8c2.4,1,4.5,2.7,6,4.9c1.5,2.2,2.2,4.7,2.2,7.4c0,3.5-1.4,6.9-3.9,9.4C44.1,45.3,40.7,46.7,37.2,46.7z"/>
<path fill="#72705B" d="M43.2,29c-0.1,0.1-0.2,0.1-0.2,0.2c-0.1,0.1-0.1,0.2-0.1,0.3c0,0.1,0,0.2,0,0.3c0,0.1,0,0.2,0.1,0.3
	c0.6,1,0.9,2.2,0.9,3.3c0,0.2,0.1,0.4,0.2,0.5s0.3,0.2,0.5,0.2h0c0.1,0,0.2,0,0.3-0.1c0.1,0,0.2-0.1,0.2-0.2
	c0.1-0.1,0.1-0.2,0.2-0.2c0-0.1,0.1-0.2,0.1-0.3c0-1.4-0.4-2.9-1.1-4.1c-0.1-0.1-0.1-0.2-0.2-0.2C44,29,43.9,29,43.8,28.9
	c-0.1,0-0.2,0-0.3,0C43.4,28.9,43.3,29,43.2,29z"/>
<path fill="#72705B" d="M44,36.5c-0.2-0.1-0.4-0.1-0.6-0.1c-0.2,0.1-0.4,0.2-0.5,0.4c-0.6,1-1.4,1.9-2.4,2.5
	c-0.1,0.1-0.2,0.1-0.2,0.2c-0.1,0.1-0.1,0.2-0.1,0.3c0,0.1,0,0.2,0,0.3s0,0.2,0.1,0.3c0.1,0.1,0.1,0.2,0.2,0.2
	c0.1,0.1,0.2,0.1,0.3,0.1c0.1,0,0.2,0,0.3,0c0.1,0,0.2,0,0.3-0.1c1.2-0.7,2.3-1.8,3-3c0.1-0.2,0.1-0.4,0.1-0.6
	C44.3,36.7,44.2,36.6,44,36.5z"/>
<path fill="#72705B" d="M34.1,26.6c-0.1-0.1-0.1-0.2-0.2-0.2c-0.1-0.1-0.2-0.1-0.3-0.1c-0.1,0-0.2,0-0.3,0c-0.1,0-0.2,0-0.3,0.1
	c-1.2,0.7-2.3,1.8-3,3c-0.1,0.1-0.1,0.2-0.1,0.3c0,0.1,0,0.2,0,0.3c0,0.1,0.1,0.2,0.1,0.3c0.1,0.1,0.1,0.1,0.2,0.2
	c0.1,0.1,0.2,0.1,0.3,0.1c0.1,0,0.2,0,0.3,0c0.1,0,0.2-0.1,0.3-0.1c0.1-0.1,0.1-0.1,0.2-0.2c0.6-1,1.4-1.9,2.5-2.5
	c0.1-0.1,0.2-0.1,0.2-0.2c0.1-0.1,0.1-0.2,0.1-0.3c0-0.1,0-0.2,0-0.3C34.2,26.8,34.1,26.7,34.1,26.6z"/>
<path fill="#72705B" d="M37.2,40.1c-1.2,0-2.3-0.3-3.3-0.9c-0.1-0.1-0.2-0.1-0.3-0.1c-0.1,0-0.2,0-0.3,0c-0.2,0.1-0.4,0.2-0.5,0.4
	c-0.1,0.2-0.1,0.4-0.1,0.6c0.1,0.2,0.2,0.4,0.4,0.5c1.3,0.7,2.7,1.1,4.1,1.1h0c0.1,0,0.2,0,0.3-0.1c0.1,0,0.2-0.1,0.2-0.2
	c0.1-0.1,0.1-0.2,0.2-0.2c0-0.1,0.1-0.2,0.1-0.3c0-0.2-0.1-0.4-0.2-0.5C37.6,40.2,37.4,40.1,37.2,40.1z"/>
<path fill="#72705B" d="M30.5,33.4c0-0.2-0.1-0.4-0.2-0.5c-0.1-0.1-0.3-0.2-0.5-0.2c-0.2,0-0.4,0.1-0.5,0.2
	c-0.1,0.1-0.2,0.3-0.2,0.5c0,1.4,0.4,2.9,1.1,4.1c0,0.1,0.1,0.2,0.2,0.2c0.1,0.1,0.2,0.1,0.3,0.1c0.1,0,0.2,0,0.3,0
	c0.1,0,0.2,0,0.3-0.1c0.1-0.1,0.2-0.1,0.2-0.2c0.1-0.1,0.1-0.2,0.1-0.3c0-0.1,0-0.2,0-0.3c0-0.1,0-0.2-0.1-0.3
	C30.8,35.8,30.5,34.6,30.5,33.4z"/>
<path fill="#72705B" d="M37.2,26.7c2.3,0,3.2,1,3.7,1c0.2,0,0.3-0.1,0.5-0.2c0.1-0.1,0.2-0.2,0.3-0.4c0-0.2,0-0.3,0-0.5
	c-0.1-0.2-0.2-0.3-0.3-0.4c-1.2-0.7-2.7-1.1-4.1-1.1h0c-0.1,0-0.2,0-0.3,0.1c-0.1,0-0.2,0.1-0.2,0.2c-0.1,0.1-0.1,0.2-0.2,0.2
	c0,0.1-0.1,0.2-0.1,0.3c0,0.2,0.1,0.4,0.2,0.5C36.8,26.7,37,26.7,37.2,26.7z"/>
</svg>
