<?xml version="1.0" encoding="utf-8"?>
<!-- Generator: Adobe Illustrator 25.2.3, SVG Export Plug-In . SVG Version: 6.00 Build 0)  -->
<svg version="1.1" id="圖層_1" xmlns="http://www.w3.org/2000/svg" xmlns:xlink="http://www.w3.org/1999/xlink" x="0px" y="0px"
	 viewBox="0 0 56 56" style="enable-background:new 0 0 56 56;" xml:space="preserve">
<path style="fill:#72705B;" d="M55.2,27.2h-3.8c-0.2-4.8-1.8-9.3-4.6-13.2c-0.3-0.4-0.8-0.4-1.1-0.2c-0.4,0.3-0.4,0.8-0.2,1.1
	c2.7,3.6,4.2,7.8,4.3,12.2h-2.8c-0.4-9.8-8.3-17.7-18.1-18.1V6.2c5.5,0.2,10.7,2.4,14.6,6.4c0.3,0.3,0.8,0.3,1.2,0
	c0.3-0.3,0.3-0.8,0-1.2c-4.2-4.2-9.8-6.6-15.7-6.8V0.8C28.8,0.4,28.5,0,28,0s-0.8,0.4-0.8,0.8v3.8c-6,0.2-11.6,2.7-15.9,7
	c-0.3,0.3-0.3,0.8,0,1.2c0.2,0.2,0.4,0.2,0.6,0.2c0.2,0,0.4-0.1,0.6-0.2c3.9-4,9.1-6.3,14.7-6.5v2.8C17.4,9.5,9.5,17.4,9.1,27.2H6.2
	c0.2-4.4,1.6-8.5,4.2-12.1c0.3-0.4,0.2-0.9-0.2-1.1c-0.4-0.3-0.9-0.2-1.1,0.2c-2.8,3.8-4.4,8.3-4.5,13H0.8C0.4,27.2,0,27.5,0,28
	s0.4,0.8,0.8,0.8h3.8c0.2,6,2.6,11.5,6.8,15.7c4.2,4.2,9.8,6.6,15.7,6.8v3.8c0,0.5,0.4,0.8,0.8,0.8s0.8-0.4,0.8-0.8v-3.8
	c6-0.2,11.5-2.6,15.7-6.8c4.2-4.2,6.6-9.8,6.8-15.7h3.8c0.5,0,0.8-0.4,0.8-0.8S55.6,27.2,55.2,27.2z M28,10.7
	c9.5,0,17.3,7.8,17.3,17.3S37.5,45.3,28,45.3S10.7,37.5,10.7,28S18.5,10.7,28,10.7z M6.2,28.8h2.8c0.4,9.8,8.3,17.7,18.1,18.1v2.8
	C15.8,49.4,6.6,40.2,6.2,28.8z M28.8,49.8v-2.8c9.8-0.4,17.7-8.3,18.1-18.1h2.8C49.4,40.2,40.2,49.4,28.8,49.8z"/>
<path style="fill:#72705B;" d="M27.2,35.8v4.9c0,0.5,0.4,0.8,0.8,0.8c0.5,0,0.8-0.4,0.8-0.8v-4.9c3.7-0.4,6.6-3.3,6.9-6.9h4.9
	c0.5,0,0.8-0.4,0.8-0.8c0-0.5-0.4-0.8-0.8-0.8h-4.9c-0.4-3.7-3.3-6.6-6.9-6.9v-4.9c0-0.5-0.4-0.8-0.8-0.8c-0.5,0-0.8,0.4-0.8,0.8
	v4.9c-3.7,0.4-6.6,3.3-6.9,6.9h-4.9c-0.5,0-0.8,0.4-0.8,0.8c0,0.5,0.4,0.8,0.8,0.8h4.9C20.6,32.5,23.5,35.4,27.2,35.8z M27.2,21.9
	v3.2c0,0.5,0.4,0.8,0.8,0.8c0.5,0,0.8-0.4,0.8-0.8v-3.2c2.7,0.4,4.9,2.5,5.3,5.3h-3.2c-0.5,0-0.8,0.4-0.8,0.8c0,0.5,0.4,0.8,0.8,0.8
	h3.2c-0.4,2.7-2.5,4.9-5.3,5.3v-3.2c0-0.5-0.4-0.8-0.8-0.8c-0.5,0-0.8,0.4-0.8,0.8v3.2c-2.7-0.4-4.9-2.5-5.3-5.3h3.2
	c0.5,0,0.8-0.4,0.8-0.8c0-0.5-0.4-0.8-0.8-0.8h-3.2C22.3,24.4,24.4,22.3,27.2,21.9z"/>
</svg>
