<?xml version="1.0" encoding="utf-8"?>
<!-- Generator: Adobe Illustrator 25.2.3, SVG Export Plug-In . SVG Version: 6.00 Build 0)  -->
<svg version="1.1" id="圖層_1" xmlns="http://www.w3.org/2000/svg" xmlns:xlink="http://www.w3.org/1999/xlink" x="0px" y="0px"
	 viewBox="0 0 56 56" enable-background="new 0 0 56 56" xml:space="preserve">
<path fill="#72705B" d="M33.5,18.6v-2.8c0-0.2-0.1-0.4-0.2-0.5c-0.1-0.1-0.3-0.2-0.5-0.2h0v-4c0-0.2-0.1-0.4-0.2-0.5
	c-0.1-0.1-0.3-0.2-0.5-0.2h-1.2V7.3h2.3c0.1,0,0.2,0,0.3-0.1c0.1,0,0.2-0.1,0.2-0.2c0.1-0.1,0.1-0.2,0.2-0.2c0-0.1,0.1-0.2,0.1-0.3
	V3.4c0-0.2-0.1-0.4-0.2-0.5c-0.1-0.1-0.3-0.2-0.5-0.2H20c-1,0-2,0.4-2.7,1.1c-0.7,0.7-1.1,1.7-1.1,2.7c0,0.1,0,0.2,0.1,0.3
	c0,0.1,0.1,0.2,0.2,0.2c0.1,0.1,0.2,0.1,0.2,0.2c0.1,0,0.2,0.1,0.3,0.1h8.3v3.1h-1.2c-0.2,0-0.4,0.1-0.5,0.2
	c-0.1,0.1-0.2,0.3-0.2,0.5v4h0c-0.2,0-0.4,0.1-0.5,0.2c-0.1,0.1-0.2,0.3-0.2,0.5v2.8C16,26,14.7,41.5,17.8,50c0.4,1,1,1.8,1.9,2.4
	c0.9,0.6,1.9,0.9,2.9,0.9h10.7c1,0,2.1-0.3,2.9-0.9c0.9-0.6,1.5-1.4,1.9-2.4C41.3,41.5,39.9,26,33.5,18.6z M24,16.6h8v1.5h-8V16.6z
	 M20,4.2h12.3v1.5H17.8c0.2-0.4,0.5-0.8,0.8-1.1C19.1,4.4,19.5,4.2,20,4.2z M26.8,7.3h2.4v3.1h-2.4V7.3z M24.8,11.9h6.3v3.2h-6.3
	V11.9z M36.8,49.4c-0.3,0.7-0.7,1.3-1.3,1.7c-0.6,0.4-1.3,0.6-2.1,0.6H22.6c-0.7,0-1.5-0.2-2.1-0.6c-0.6-0.4-1.1-1-1.3-1.7
	c-3-8.1-1.7-22.7,4.3-29.8h8.8C38.5,26.7,39.7,41.4,36.8,49.4z"/>
<path fill="#72705B" d="M30.6,27.8h-5.1c-1.4,0-2.7,0.5-3.6,1.5c-1,1-1.5,2.3-1.5,3.6v7.5c0,1.4,0.5,2.7,1.5,3.6
	c1,1,2.3,1.5,3.6,1.5h5.1c1.4,0,2.7-0.5,3.6-1.5c1-1,1.5-2.3,1.5-3.6V33c0-1.4-0.5-2.7-1.5-3.6C33.2,28.4,31.9,27.9,30.6,27.8z
	 M34.2,40.5c0,1-0.4,1.9-1.1,2.6c-0.7,0.7-1.6,1.1-2.6,1.1h-5.1c-1,0-1.9-0.4-2.6-1.1c-0.7-0.7-1.1-1.6-1.1-2.6V33
	c0-1,0.4-1.9,1.1-2.6c0.7-0.7,1.6-1.1,2.6-1.1h5.1c1,0,1.9,0.4,2.6,1.1c0.7,0.7,1.1,1.6,1.1,2.6V40.5z"/>
</svg>
