<?xml version="1.0" encoding="utf-8"?>
<!-- Generator: Adobe Illustrator 25.2.3, SVG Export Plug-In . SVG Version: 6.00 Build 0)  -->
<svg version="1.1" id="圖層_1" xmlns="http://www.w3.org/2000/svg" xmlns:xlink="http://www.w3.org/1999/xlink" x="0px" y="0px"
	 viewBox="0 0 56 56" enable-background="new 0 0 56 56" xml:space="preserve">
<path fill="#72705B" d="M49.5,23h-0.3v-3.6c0-0.2-0.1-0.4-0.2-0.5c-0.1-0.1-0.3-0.2-0.5-0.2H48l-1.7-2.7c-0.1-0.1-0.2-0.2-0.4-0.3
	c-0.4-4.2-5.1-4.7-7.1-4.9c-1.2-0.1-3.1-0.8-3.4-2c-0.2-0.9,0.5-2.2,2-3.6c0.1-0.1,0.2-0.2,0.2-0.4c0-0.1,0-0.3,0-0.4
	C37.6,4.2,37.5,4,37.3,4c-0.1-0.1-0.3-0.1-0.4-0.1c-7.2,0-12.8,3.8-17.8,7.2c-3.2,2.2-5.9,4-8.5,4.5c-0.2,0-0.7-0.1-1,0.4L8,18.7
	H7.6c-0.2,0-0.4,0.1-0.5,0.2c-0.1,0.1-0.2,0.3-0.2,0.5V23H6.5c-0.8,0-1.5,0.3-2.1,0.9c-0.6,0.6-0.9,1.3-0.9,2.1v20.2
	c0,1.6,0.6,3.1,1.8,4.3s2.7,1.8,4.3,1.8h36.9c1.6,0,3.1-0.6,4.3-1.8c1.1-1.1,1.8-2.7,1.8-4.3V26c0-0.8-0.3-1.5-0.9-2.1
	C51.1,23.3,50.3,23,49.5,23z M20,12.3c4.4-3,9.3-6.3,15.2-6.9C34.2,6.8,33.8,8,34,9c0.4,2,2.7,3,4.7,3.2c3.7,0.4,5.4,1.4,5.7,3.4
	H14.8C16.6,14.6,18.3,13.5,20,12.3z M10.7,17.1h34.5l1,1.5H9.8L10.7,17.1z M8.4,20.2h39.3V23H8.4V20.2z M50.9,46.2
	c0,1.2-0.5,2.3-1.3,3.2c-0.8,0.8-2,1.3-3.2,1.3H9.5c-1.2,0-2.3-0.5-3.2-1.3c-0.8-0.8-1.3-2-1.3-3.2V26c0-0.4,0.2-0.7,0.4-1
	c0.3-0.3,0.6-0.4,1-0.4h43c0.4,0,0.7,0.2,1,0.4c0.3,0.3,0.4,0.6,0.4,1V46.2z"/>
<path fill="#72705B" d="M28,30.1c-8.4,0-15,3.3-15,7.5s6.6,7.5,15,7.5s15-3.3,15-7.5S36.4,30.1,28,30.1z M28,43.6
	c-7.3,0-13.5-2.7-13.5-6c0-3.2,6.2-6,13.5-6s13.5,2.7,13.5,6C41.5,40.8,35.3,43.6,28,43.6z"/>
</svg>
