<?xml version="1.0" encoding="utf-8"?>
<!-- Generator: Adobe Illustrator 25.2.3, SVG Export Plug-In . SVG Version: 6.00 Build 0)  -->
<svg version="1.1" id="圖層_1" xmlns="http://www.w3.org/2000/svg" xmlns:xlink="http://www.w3.org/1999/xlink" x="0px" y="0px"
	 viewBox="0 0 57 56" enable-background="new 0 0 57 56" xml:space="preserve">
<path fill="#72705B" d="M55.5,24.1c-0.3,0-0.6-0.1-0.8-0.3c-0.2-0.2-0.3-0.5-0.3-0.8c0-0.3,0.1-0.6,0.3-0.8c0.4-0.4,1.2-0.4,1.6,0
	c0.2,0.2,0.3,0.5,0.3,0.8c0,0.3-0.1,0.6-0.3,0.8C56.1,24,55.8,24.1,55.5,24.1z"/>
<path fill="#72705B" d="M17.5,44.2c-0.3,0-0.6-0.1-0.8-0.3c-0.2-0.2-0.3-0.5-0.3-0.8c0-0.3,0.1-0.6,0.3-0.8c0.4-0.4,1.2-0.4,1.6,0
	c0.2,0.2,0.3,0.5,0.3,0.8c0,0.3-0.1,0.6-0.3,0.8C18,44.1,17.8,44.2,17.5,44.2z"/>
<path fill="#72705B" d="M55.5,33c-0.6,0-1.1-0.5-1.1-1.1v-4.5c0-0.6,0.5-1.1,1.1-1.1c0.6,0,1.1,0.5,1.1,1.1v4.5
	C56.7,32.5,56.2,33,55.5,33z"/>
<path fill="#72705B" d="M55.5,19.6c-0.6,0-1.1-0.5-1.1-1.1V5.6c0-0.6,0.5-1.1,1.1-1.1c0.6,0,1.1,0.5,1.1,1.1v12.9
	C56.7,19.1,56.2,19.6,55.5,19.6z"/>
<path fill="#72705B" d="M17.5,39.8c-0.6,0-1.1-0.5-1.1-1.1V25.4c0-0.6,0.5-1.1,1.1-1.1c0.6,0,1.1,0.5,1.1,1.1v13.2
	C18.6,39.3,18.1,39.8,17.5,39.8z"/>
<path fill="#72705B" d="M17.5,53.2c-0.6,0-1.1-0.5-1.1-1.1v-4.5c0-0.6,0.5-1.1,1.1-1.1c0.6,0,1.1,0.5,1.1,1.1v4.5
	C18.6,52.7,18.1,53.2,17.5,53.2z"/>
<path fill="#72705B" d="M32.2,52.6c-0.6,0-1.1-0.5-1.1-1.1V34.2c0-0.6,0.5-1.1,1.1-1.1c0.6,0,1.1,0.5,1.1,1.1v17.4
	C33.3,52.1,32.8,52.6,32.2,52.6z"/>
<path fill="#72705B" d="M53.3,35.3c-0.6,0-1.1-0.5-1.1-1.1c0-0.6,0.5-1.1,1.1-1.1c0.6,0,1.1-0.5,1.1-1.1c0-0.6,0.5-1.1,1.1-1.1
	c0.6,0,1.1,0.5,1.1,1.1C56.7,33.8,55.2,35.3,53.3,35.3z"/>
<path fill="#72705B" d="M53.3,35.3H17.5c-0.6,0-1.1-0.5-1.1-1.1c0-0.6,0.5-1.1,1.1-1.1h35.8c0.6,0,1.1,0.5,1.1,1.1
	C54.4,34.8,53.9,35.3,53.3,35.3z"/>
<path fill="#72705B" d="M48.8,15.7H32.4c-0.6,0-1.1-0.5-1.1-1.1c0-0.6,0.5-1.1,1.1-1.1h16.4c0.6,0,1.1,0.5,1.1,1.1
	C49.9,15.2,49.4,15.7,48.8,15.7z"/>
<path fill="#72705B" d="M48.8,20.2H33.7c-0.6,0-1.1-0.5-1.1-1.1c0-0.6,0.5-1.1,1.1-1.1h15.1c0.6,0,1.1,0.5,1.1,1.1
	C49.9,19.7,49.4,20.2,48.8,20.2z"/>
<path fill="#72705B" d="M48.8,24.6H31.5c-0.6,0-1.1-0.5-1.1-1.1c0-0.6,0.5-1.1,1.1-1.1h17.4c0.6,0,1.1,0.5,1.1,1.1
	C49.9,24.1,49.4,24.6,48.8,24.6z"/>
<path fill="#72705B" d="M44.3,11.2H23.1c-0.6,0-1.1-0.5-1.1-1.1c0-0.6,0.5-1.1,1.1-1.1h21.3c0.6,0,1.1,0.5,1.1,1.1
	C45.5,10.7,45,11.2,44.3,11.2z"/>
<path fill="#72705B" d="M33.7,4.5c-0.6,0-1.1-0.5-1.1-1.1V1.1c0-0.6,0.5-1.1,1.1-1.1c0.6,0,1.1,0.5,1.1,1.1v2.2
	C34.8,4,34.3,4.5,33.7,4.5z"/>
<path fill="#72705B" d="M11.9,11.2c-0.6,0-1.1-0.5-1.1-1.1V5.6c0-0.6,0.5-1.1,1.1-1.1S13,5,13,5.6v4.5C13,10.7,12.5,11.2,11.9,11.2z
	"/>
<path fill="#72705B" d="M11.9,6.7c-0.6,0-1.1-0.5-1.1-1.1c0-1.9,1.5-3.4,3.4-3.4c0.6,0,1.1,0.5,1.1,1.1s-0.5,1.1-1.1,1.1
	C13.5,4.5,13,5,13,5.6C13,6.2,12.5,6.7,11.9,6.7z"/>
<path fill="#72705B" d="M53.3,4.5H14.1C13.5,4.5,13,4,13,3.4s0.5-1.1,1.1-1.1h39.2c0.6,0,1.1,0.5,1.1,1.1S53.9,4.5,53.3,4.5z"/>
<path fill="#72705B" d="M55.5,6.7c-0.6,0-1.1-0.5-1.1-1.1c0-0.6-0.5-1.1-1.1-1.1c-0.6,0-1.1-0.5-1.1-1.1s0.5-1.1,1.1-1.1
	c1.9,0,3.4,1.5,3.4,3.4C56.7,6.2,56.2,6.7,55.5,6.7z"/>
<path fill="#72705B" d="M5,23.1c-0.5,0-0.9-0.3-1.1-0.8c-0.2-0.6,0.1-1.2,0.7-1.4c3.6-1.2,7.5-1.4,11.2-0.7c0.6,0.1,1,0.7,0.9,1.3
	c-0.1,0.6-0.7,1-1.3,0.9C12.1,21.8,8.6,22,5.3,23C5.2,23.1,5.1,23.1,5,23.1z"/>
<path fill="#72705B" d="M15.6,22.4c-0.4,0-0.8-0.2-1-0.6c-0.3-0.6,0-1.2,0.5-1.5l10.4-4.9c0.6-0.3,1.2,0,1.5,0.5
	c0.3,0.6,0,1.2-0.5,1.5l-10.4,4.9C15.9,22.4,15.8,22.4,15.6,22.4z"/>
<path fill="#72705B" d="M27.9,21.7c-0.4,0-0.8-0.2-1-0.6c-0.3-0.6,0-1.2,0.5-1.5c0.9-0.4,0.6-1.3,0.5-1.5c-0.1-0.2-0.5-1-1.4-0.6
	c-0.6,0.3-1.2,0-1.5-0.5c-0.3-0.6,0-1.2,0.5-1.5c2-0.9,3.7,0.1,4.4,1.7c0.7,1.5,0.4,3.5-1.6,4.4C28.3,21.6,28.1,21.7,27.9,21.7z"/>
<path fill="#72705B" d="M17.5,26.5c-0.4,0-0.8-0.2-1-0.6c-0.3-0.6,0-1.2,0.5-1.5l10.5-4.9c0.6-0.3,1.2,0,1.5,0.5
	c0.3,0.6,0,1.2-0.5,1.5l-10.5,4.9C17.8,26.5,17.6,26.5,17.5,26.5z"/>
<path fill="#72705B" d="M21.7,56c-0.3,0-0.6-0.1-0.8-0.4c-0.4-0.5-0.4-1.2,0.1-1.6l10.5-9.1c0.5-0.4,1.2-0.4,1.6,0.1
	c0.4,0.5,0.4,1.2-0.1,1.6l-10.5,9.1C22.2,55.9,21.9,56,21.7,56z"/>
<path fill="#72705B" d="M42.7,56c-0.3,0-0.5-0.1-0.7-0.3l-10.5-9.1c-0.5-0.4-0.5-1.1-0.1-1.6c0.4-0.5,1.1-0.5,1.6-0.1L43.4,54
	c0.5,0.4,0.5,1.1,0.1,1.6C43.3,55.9,43,56,42.7,56z"/>
<path fill="#72705B" d="M1.8,38.9c-0.6,0-1.1-0.5-1.1-1.1V26.2c0-0.6,0.5-1.1,1.1-1.1s1.1,0.5,1.1,1.1v11.6
	C2.9,38.4,2.4,38.9,1.8,38.9z"/>
<path fill="#72705B" d="M1.8,27.4c-0.6,0-1.1-0.5-1.1-1.1c0-2.5,1.6-4.6,4-5.4C5.2,20.7,5.9,21,6,21.6c0.2,0.6-0.2,1.2-0.7,1.4
	c-1.4,0.4-2.4,1.7-2.4,3.2C2.9,26.9,2.4,27.4,1.8,27.4z"/>
<path fill="#72705B" d="M6.3,53.2c-0.6,0-1.1-0.5-1.1-1.1V27.5c0-0.6,0.5-1.1,1.1-1.1s1.1,0.5,1.1,1.1v24.6
	C7.4,52.7,6.9,53.2,6.3,53.2z"/>
<path fill="#72705B" d="M11.9,22.1c-3.5,0-6.5-3-6.5-6.5S8.3,9,11.9,9c3.5,0,6.5,3,6.5,6.5S15.4,22.1,11.9,22.1z M11.9,11.2
	c-2.3,0-4.3,2-4.3,4.3s2,4.3,4.3,4.3c2.3,0,4.3-2,4.3-4.3C16.2,13.2,14.2,11.2,11.9,11.2z"/>
<path fill="#72705B" d="M11.9,53.2c-0.6,0-1.1-0.5-1.1-1.1V37.8c0-0.6,0.5-1.1,1.1-1.1s1.1,0.5,1.1,1.1v14.3
	C13,52.7,12.5,53.2,11.9,53.2z"/>
<path fill="#72705B" d="M4,41.1c-1.7,0-3.4-1.1-3.4-3.3c0-0.6,0.5-1.1,1.1-1.1s1.1,0.5,1.1,1.1c0,1,0.9,1,1.1,1c0.2,0,1.1-0.1,1.1-1
	c0-0.6,0.5-1.1,1.1-1.1s1.1,0.5,1.1,1.1C7.4,40,5.7,41.1,4,41.1z"/>
<path fill="#72705B" d="M14.7,55.9c-1,0-1.9-0.3-2.7-0.9c-0.8-0.7-1.3-1.7-1.3-2.9c0-0.6,0.5-1.1,1.1-1.1s1.1,0.5,1.1,1.1
	c0,1.5,1.5,1.6,1.7,1.6s1.7,0,1.7-1.6c0-0.6,0.5-1.1,1.1-1.1s1.1,0.5,1.1,1.1C18.6,54.6,16.6,55.9,14.7,55.9z"/>
<path fill="#72705B" d="M9.1,55.9c-1,0-1.9-0.3-2.7-0.9c-0.8-0.7-1.3-1.7-1.3-2.9c0-0.6,0.5-1.1,1.1-1.1s1.1,0.5,1.1,1.1
	c0,1.5,1.5,1.6,1.7,1.6s1.7,0,1.7-1.6c0-0.6,0.5-1.1,1.1-1.1c0.6,0,1.1,0.5,1.1,1.1C13,54.6,11,55.9,9.1,55.9z"/>
</svg>
