<?xml version="1.0" encoding="utf-8"?>
<!-- Generator: Adobe Illustrator 25.2.3, SVG Export Plug-In . SVG Version: 6.00 Build 0)  -->
<svg version="1.1" id="圖層_1" xmlns="http://www.w3.org/2000/svg" xmlns:xlink="http://www.w3.org/1999/xlink" x="0px" y="0px"
	 viewBox="0 0 19 20" enable-background="new 0 0 19 20" xml:space="preserve">
<path fill-rule="evenodd" clip-rule="evenodd" fill="#FFFFFF" d="M2.8,9.1c0-3.4,2.8-6.2,6.2-6.2s6.2,2.8,6.2,6.2
	c0,1.7-0.7,3.2-1.7,4.3c0,0-0.1,0.1-0.1,0.1c0,0-0.1,0.1-0.1,0.1c-1.1,1.1-2.6,1.7-4.3,1.7C5.6,15.3,2.8,12.5,2.8,9.1z M14,15.6
	c-1.4,1.1-3.1,1.7-5,1.7c-4.5,0-8.2-3.7-8.2-8.2c0-4.5,3.7-8.2,8.2-8.2c4.5,0,8.2,3.7,8.2,8.2c0,1.9-0.6,3.7-1.7,5l3.2,3.2
	c0.4,0.4,0.4,1,0,1.4c-0.4,0.4-1,0.4-1.4,0L14,15.6z"/>
</svg>
