<?xml version="1.0" encoding="utf-8"?>
<!-- Generator: Adobe Illustrator 25.2.3, SVG Export Plug-In . SVG Version: 6.00 Build 0)  -->
<svg version="1.1" id="圖層_1" xmlns="http://www.w3.org/2000/svg" xmlns:xlink="http://www.w3.org/1999/xlink" x="0px" y="0px"
	 viewBox="0 0 56 56" enable-background="new 0 0 56 56" xml:space="preserve">
<path fill="#72705B" d="M42.3,3H13.7c-0.2,0-0.4,0.1-0.5,0.2C13.1,3.4,13,3.6,13,3.8c0,4.8,0,4.6,0,4.7c1.7,10.3,3.7,22.8,5.5,33.6
	v10.2c0,0.2,0.1,0.4,0.2,0.5c0.1,0.1,0.3,0.2,0.5,0.2h17.5c0.2,0,0.4-0.1,0.5-0.2c0.1-0.1,0.2-0.3,0.2-0.5V42.1
	C43.3,6.9,43,8.4,43,8.3V3.8c0-0.2-0.1-0.4-0.2-0.5C42.7,3.1,42.5,3,42.3,3z M41.5,4.5v3h-27v-3H41.5z M23.5,47.8V47
	c0-0.4,0.2-0.7,0.4-1c0.3-0.3,0.6-0.4,1-0.4h6.3c0.4,0,0.7,0.2,1,0.4c0.3,0.3,0.4,0.6,0.4,1v0.9H23.5z M31.2,44h-6.3
	c-0.8,0-1.5,0.3-2.1,0.9C22.3,45.4,22,46.2,22,47v0.9h-2v-5.1h16v5.1h-1.8V47c0-0.8-0.3-1.5-0.9-2.1S32,44,31.2,44z M36.1,41.2H19.9
	c0,0-5.2-31.8-5.2-32.1h26.7L36.1,41.2z M36,51.5H20v-2.1h16V51.5z"/>
<path fill="#72705B" d="M37.4,18.6c-0.2-0.2-4.2-4.9-9.4-4.9s-9.2,4.7-9.4,4.9c-0.1,0.1-0.2,0.3-0.2,0.5c0,0.2,0.1,0.4,0.2,0.5
	c0.2,0.2,4.2,4.9,9.4,4.9s9.2-4.7,9.4-4.9c0.1-0.1,0.2-0.3,0.2-0.5C37.5,18.9,37.5,18.8,37.4,18.6z M31.8,19.1
	c0,0.8-0.2,1.5-0.6,2.1s-1,1.1-1.7,1.4S28,23,27.3,22.9c-0.7-0.1-1.4-0.5-2-1c-0.5-0.5-0.9-1.2-1-2c-0.1-0.7-0.1-1.5,0.2-2.2
	c0.3-0.7,0.8-1.3,1.4-1.7c0.6-0.4,1.4-0.6,2.1-0.6c1,0,2,0.4,2.7,1.1C31.4,17.1,31.8,18.1,31.8,19.1z M23.2,16.8
	c-0.3,0.7-0.5,1.5-0.5,2.3c0,0.8,0.2,1.6,0.5,2.3c-1-0.6-2-1.4-2.9-2.3C21.1,18.3,22.1,17.5,23.2,16.8z M32.8,21.4
	c0.3-0.7,0.5-1.5,0.5-2.3c0-0.8-0.2-1.6-0.5-2.3c1,0.6,2,1.4,2.9,2.3C34.8,20,33.9,20.8,32.8,21.4z"/>
<path fill="#72705B" d="M28,21.4c0.5,0,0.9-0.1,1.3-0.4c0.4-0.3,0.7-0.6,0.8-1c0.2-0.4,0.2-0.9,0.1-1.3c-0.1-0.4-0.3-0.9-0.6-1.2
	c-0.3-0.3-0.7-0.5-1.2-0.6c-0.4-0.1-0.9,0-1.3,0.1s-0.8,0.5-1,0.8c-0.3,0.4-0.4,0.8-0.4,1.3c0,0.6,0.2,1.2,0.7,1.6
	C26.8,21.2,27.4,21.4,28,21.4z M28,18.4c0.2,0,0.3,0,0.4,0.1c0.1,0.1,0.2,0.2,0.3,0.3c0.1,0.1,0.1,0.3,0,0.4c0,0.1-0.1,0.3-0.2,0.4
	c-0.1,0.1-0.2,0.2-0.4,0.2c-0.1,0-0.3,0-0.4,0s-0.3-0.2-0.3-0.3c-0.1-0.1-0.1-0.3-0.1-0.4c0-0.2,0.1-0.4,0.2-0.5
	C27.6,18.4,27.8,18.4,28,18.4z"/>
</svg>
