<?xml version="1.0" encoding="utf-8"?>
<!-- Generator: Adobe Illustrator 25.2.3, SVG Export Plug-In . SVG Version: 6.00 Build 0)  -->
<svg version="1.1" id="圖層_1" xmlns="http://www.w3.org/2000/svg" xmlns:xlink="http://www.w3.org/1999/xlink" x="0px" y="0px"
	 viewBox="0 0 56 56" enable-background="new 0 0 56 56" xml:space="preserve">
<g>
	<defs>
		<rect id="SVGID_1_" y="0" width="56" height="56"/>
	</defs>
	<clipPath id="SVGID_2_">
		<use xlink:href="#SVGID_1_"  overflow="visible"/>
	</clipPath>
	<g clip-path="url(#SVGID_2_)">
		<path fill="#72705B" d="M28,36.1c-4.5,0-8.2-3.6-8.2-8s3.7-8,8.2-8c0.6,0,1.4,0.2,1.4,1c0,0.8-0.8,0.8-1.4,0.8
			c-3.5,0-6.4,2.8-6.4,6.2c0,3.4,2.9,6.2,6.4,6.2c3.5,0,6.4-2.8,6.4-6.2c0-1-0.2-2-0.7-2.8c-0.2-0.4-0.1-1,0.4-1.2
			c0.4-0.2,1-0.1,1.2,0.4c0.6,1.1,0.9,2.4,0.9,3.7C36.2,32.5,32.5,36.1,28,36.1z"/>
		<path fill="#72705B" d="M32.3,23.3c-0.2,0-0.4-0.1-0.5-0.2c-0.2-0.2-0.5-0.3-0.8-0.5c-0.4-0.2-0.6-0.8-0.4-1.2
			c0.2-0.4,0.8-0.6,1.2-0.4c0.3,0.2,0.7,0.4,1,0.6C33.6,22.1,33.2,23.3,32.3,23.3z"/>
		<path fill="#72705B" d="M52.6,13.8l0-3.9c0-0.5-0.4-0.9-0.9-0.9c0,0,0,0,0,0c-0.5,0-0.9,0.4-0.9,0.9l0,1.2
			C45.3,4.6,36.7,0.5,28.3,0.5C19.7,0.5,11.7,4.3,6.5,11c-0.3,0.4-0.2,1,0.2,1.3c0.4,0.3,1,0.2,1.3-0.2c4.9-6.3,12.4-9.9,20.5-9.9
			c8.1,0,16.6,4.2,21.6,10.7h-2.5c-0.5,0-0.9,0.4-0.9,0.9c0,0.5,0.4,0.9,0.9,0.9h4.3C52,14.7,52.6,14.4,52.6,13.8z"/>
		<path fill="#72705B" d="M54.2,18c-0.2-0.5-0.7-0.7-1.2-0.5c-0.5,0.2-0.7,0.7-0.5,1.2c1.1,2.9,1.7,6,1.7,9.1
			c0,9.9-6.9,19.4-16.7,23.5l0.7-1c0.3-0.4,0.2-1-0.3-1.2c-0.4-0.3-1-0.2-1.3,0.3l-2.2,3.3c-0.3,0.5-0.1,1.1,0.4,1.3l3.6,1.6
			c1.1,0.5,1.8-1.2,0.7-1.7l-1.5-0.7c4.7-1.9,9-5,12.3-9c4-4.9,6.1-10.5,6.1-16.4C56,24.4,55.4,21.1,54.2,18
			C55.4,21.1,54,17.5,54.2,18z"/>
		<path fill="#72705B" d="M29.4,53.2c-0.4,0-0.7,0-1.1,0c-14.3,0-25.9-11.4-25.9-25.5c0-2.5,1-5.6,2-8.2l0.8,1.8
			c0.5,1.1,2.1,0.3,1.6-0.7l-1.7-3.7c-0.2-0.5-0.8-0.7-1.2-0.4l-3.5,1.8c-0.4,0.2-0.6,0.8-0.4,1.2c0.2,0.4,0.8,0.6,1.2,0.4l1.5-0.7
			c-1,2.7-2.1,6-2.1,8.7c0,15.1,12.4,27.3,27.7,27.3c0.4,0,0.8,0,1.1,0c0.5,0,0.9-0.4,0.9-0.9C30.3,53.6,29.9,53.2,29.4,53.2
			C29.9,53.2,29,53.2,29.4,53.2z"/>
		<path fill="#72705B" d="M29.4,46.1c-0.9,0-3.5,0-3.9-0.2c-0.7-0.3-1.3-1.1-1.3-1.8v-1.8c-1.4-0.4-2.7-0.9-3.9-1.6l-1.3,1.3
			c-0.8,0.8-2.1,0.7-2.9-0.1c-0.4-0.4-1.8-1.8-2.2-2.2c-0.7-0.8-0.7-2.1,0.1-2.9l1.3-1.3c-0.7-1.3-1.3-2.6-1.6-3.9H12
			c-1.1,0-2-0.9-2.1-2c0-0.5,0-2.6,0-3.1c0-1.1,0.9-2.1,2-2.1h1.8c0.4-1.4,0.9-2.7,1.6-3.9l-1.3-1.3c-0.8-0.8-0.7-2.1,0.1-2.9
			c0.4-0.4,1.8-1.8,2.2-2.2c0.8-0.7,2.1-0.7,2.9,0.1l1.3,1.3c1.3-0.7,2.6-1.3,3.9-1.6V12c0-1.1,0.9-2,2-2.1c0.5,0,2.6,0,3.1,0
			c1.1,0,2,1,2,2.1v1.8c1.4,0.4,2.7,0.9,3.9,1.6l1.3-1.3c0.8-0.8,2.1-0.7,2.9,0.1c0.4,0.4,1.8,1.8,2.2,2.2c0.7,0.8,0.7,2.1-0.1,2.9
			l-1.3,1.3c0.7,1.3,1.3,2.6,1.6,3.9h1.8c1.1,0,2,0.8,2.2,1.9c0.1,0.5,0,2.7,0,3.2c0,1.1-0.9,2.1-2,2.1h-1.8
			c-0.4,1.4-0.9,2.7-1.6,3.9l1.3,1.3c0.8,0.8,0.7,2.1-0.1,2.9c-0.4,0.4-1.8,1.8-2.2,2.2c-0.8,0.7-2.1,0.7-2.9-0.1l-1.3-1.3
			c-1.3,0.7-2.6,1.3-3.9,1.6V44C31.5,45,30.5,46.1,29.4,46.1z M26,44c0,0.1,0.1,0.3,0.3,0.3h3c0.1,0,0.3-0.1,0.3-0.3v-2.5
			c0-0.4,0.3-0.8,0.8-0.9c1.5-0.3,3.1-0.9,4.6-1.9c0.4-0.2,0.8-0.2,1.1,0.1l1.8,1.8c0.1,0.1,0.3,0.1,0.4,0l2.2-2.1
			c0.1-0.1,0.1-0.3,0-0.4l-1.7-1.7c-0.3-0.3-0.4-0.8-0.1-1.2c0.9-1.3,1.6-3,1.9-4.6c0.1-0.4,0.5-0.7,0.9-0.7H44
			c0.1,0,0.3-0.1,0.3-0.3v-3c0-0.2-0.2-0.3-0.4-0.3h-2.5c-0.4,0-0.8-0.3-0.9-0.8c-0.3-1.5-0.9-3.1-1.9-4.6c-0.2-0.4-0.2-0.8,0.1-1.1
			l1.8-1.8c0.1-0.1,0.1-0.3,0-0.4l-2.1-2.2c-0.1-0.1-0.3-0.1-0.4,0l-1.7,1.7c-0.3,0.3-0.8,0.4-1.1,0.1c-1.3-0.9-3-1.6-4.6-1.9
			c-0.4-0.1-0.7-0.5-0.7-0.9V12c0-0.2-0.1-0.3-0.2-0.3h-3c-0.1,0-0.3,0.1-0.3,0.3v2.6c0,0.4-0.3,0.8-0.8,0.9
			c-1.5,0.3-3.1,0.9-4.6,1.9c-0.4,0.2-0.8,0.2-1.1-0.1l-1.8-1.8c-0.1-0.1-0.3-0.1-0.4,0l-2.2,2.1c-0.1,0.1-0.1,0.3,0,0.4l1.7,1.7
			c0.3,0.3,0.4,0.8,0.1,1.2c-0.9,1.3-1.6,3-1.9,4.6c-0.1,0.4-0.5,0.7-0.9,0.7H12c-0.1,0-0.3,0.1-0.3,0.3v3c0,0.1,0.1,0.3,0.3,0.3
			h2.5c0.4,0,0.8,0.3,0.9,0.8c0.3,1.5,0.9,3.1,1.9,4.6c0.2,0.4,0.2,0.8-0.1,1.1L15.4,38c-0.1,0.1-0.1,0.3,0,0.4l2.1,2.2
			c0.1,0.1,0.3,0.1,0.4,0l1.7-1.7c0.3-0.3,0.8-0.4,1.1-0.1c1.3,0.9,3,1.6,4.6,1.9c0.4,0.1,0.7,0.5,0.7,0.9L26,44L26,44z"/>
	</g>
</g>
</svg>
