<?xml version="1.0" encoding="utf-8"?>
<!-- Generator: Adobe Illustrator 25.2.3, SVG Export Plug-In . SVG Version: 6.00 Build 0)  -->
<svg version="1.1" id="圖層_1" xmlns="http://www.w3.org/2000/svg" xmlns:xlink="http://www.w3.org/1999/xlink" x="0px" y="0px"
	 viewBox="0 0 56 56" enable-background="new 0 0 56 56" xml:space="preserve">
<path fill="#72705B" d="M35.7,20.9v-6.3c0-0.1,0-0.2-0.1-0.3c0-0.1-0.1-0.2-0.2-0.2c-0.1-0.1-0.2-0.1-0.2-0.2
	c-0.1,0-0.2-0.1-0.3-0.1h-0.8v-2.3c0-0.2-0.1-0.4-0.2-0.5c-0.1-0.1-0.3-0.2-0.5-0.2h-3.1V7.1h5c0.2,0,0.4-0.1,0.5-0.2
	C36,6.8,36,6.6,36,6.4V3.3c0-0.2-0.1-0.4-0.2-0.5c-0.1-0.1-0.3-0.2-0.5-0.2h-8.8c-0.2,0-0.4,0.1-0.5,0.2c-0.1,0.1-0.2,0.3-0.2,0.5
	v7.5h-3.1c-0.2,0-0.4,0.1-0.5,0.2c-0.1,0.1-0.2,0.3-0.2,0.5v2.3H21c-0.1,0-0.2,0-0.3,0.1c-0.1,0-0.2,0.1-0.2,0.2
	c-0.1,0.1-0.1,0.2-0.2,0.2c0,0.1-0.1,0.2-0.1,0.3v6.3c-1.4,0-2.6,0.6-3.6,1.5c-1,1-1.5,2.3-1.5,3.6v24.4c0,0.8,0.3,1.5,0.9,2.1
	c0.6,0.6,1.3,0.9,2.1,0.9h19.7c0.8,0,1.5-0.3,2.1-0.9c0.6-0.6,0.9-1.3,0.9-2.1V26.1c0-1.4-0.5-2.6-1.5-3.6
	C38.4,21.5,37.1,21,35.7,20.9z M27.2,4.1h7.3v1.5h-5c-0.2,0-0.4,0.1-0.5,0.2c-0.1,0.1-0.2,0.3-0.2,0.5v4.5h-1.5V4.1z M23.4,12.4h9.2
	v1.5h-9.2V12.4z M34.2,15.4v5.5H21.8v-5.5H34.2z M39.3,50.5c0,0.4-0.2,0.7-0.4,1c-0.3,0.3-0.6,0.4-1,0.4H18.1c-0.4,0-0.7-0.2-1-0.4
	c-0.3-0.3-0.4-0.6-0.4-1V26.1c0-1,0.4-1.9,1.1-2.6c0.7-0.7,1.6-1.1,2.6-1.1c15.8,0,14.4,0,15.3,0c1,0,1.9,0.4,2.6,1.1
	c0.7,0.7,1.1,1.6,1.1,2.6V50.5z"/>
<path fill="#72705B" d="M27.4,29.4C26.9,30,22.1,36,22.1,39c0,3.4,2.8,6.3,5.9,6.3s5.9-2.9,5.9-6.3c0-3-4.8-9-5.3-9.7
	c-0.1-0.1-0.2-0.2-0.3-0.2c-0.1,0-0.2-0.1-0.3-0.1c-0.1,0-0.2,0-0.3,0.1C27.6,29.2,27.5,29.3,27.4,29.4z M28,43.8
	c-2.3,0-4.4-2.2-4.4-4.8c0-1.8,2.8-5.8,4.4-7.9c1.6,2.1,4.4,6.1,4.4,7.9C32.4,41.6,30.3,43.8,28,43.8z"/>
</svg>
