<?xml version="1.0" encoding="utf-8"?>
<!-- Generator: Adobe Illustrator 25.2.3, SVG Export Plug-In . SVG Version: 6.00 Build 0)  -->
<svg version="1.1" id="圖層_1" xmlns="http://www.w3.org/2000/svg" xmlns:xlink="http://www.w3.org/1999/xlink" x="0px" y="0px"
	 viewBox="0 0 56 56" enable-background="new 0 0 56 56" xml:space="preserve">
<path fill="#72705B" d="M28,22c-1.2,0-2.4,0.4-3.3,1c-1,0.7-1.8,1.6-2.2,2.7c-0.5,1.1-0.6,2.3-0.3,3.5c0.2,1.2,0.8,2.2,1.6,3.1
	c0.8,0.8,1.9,1.4,3.1,1.6c1.2,0.2,2.4,0.1,3.5-0.3c1.1-0.5,2-1.2,2.7-2.2c0.7-1,1-2.2,1-3.3c0-1.6-0.6-3.1-1.8-4.3
	C31.1,22.6,29.6,22,28,22z M28,32.5c-0.9,0-1.8-0.3-2.5-0.8c-0.7-0.5-1.3-1.2-1.7-2c-0.3-0.8-0.4-1.7-0.3-2.6
	c0.2-0.9,0.6-1.7,1.2-2.3c0.6-0.6,1.4-1.1,2.3-1.2c0.9-0.2,1.8-0.1,2.6,0.3c0.8,0.3,1.5,0.9,2,1.7c0.5,0.7,0.8,1.6,0.8,2.5
	c0,1.2-0.5,2.3-1.3,3.2S29.2,32.5,28,32.5z"/>
<path fill="#72705B" d="M30.6,27.2c-0.2,0-0.4,0.1-0.5,0.2c-0.1,0.1-0.2,0.3-0.2,0.5c0,0.3-0.1,0.6-0.2,0.9
	c-0.2,0.3-0.4,0.5-0.7,0.7c-0.1,0.1-0.2,0.1-0.2,0.2s-0.1,0.2-0.1,0.3c0,0.1,0,0.2,0,0.3c0,0.1,0,0.2,0.1,0.3
	c0.1,0.1,0.1,0.2,0.2,0.2c0.1,0.1,0.2,0.1,0.3,0.1c0.1,0,0.2,0,0.3,0c0.1,0,0.2,0,0.3-0.1c0.5-0.3,0.9-0.7,1.2-1.2
	c0.3-0.5,0.5-1.1,0.5-1.7c0-0.2-0.1-0.4-0.2-0.5C31,27.3,30.8,27.2,30.6,27.2z"/>
<path fill="#72705B" d="M47.8,26.2c0.3,0.1,0.6,0.1,0.9,0.1c0.7,0,1.3-0.2,1.9-0.6c0.6-0.4,1-0.9,1.2-1.5c0.3-0.6,0.3-1.3,0.2-2
	c-0.1-0.7-0.5-1.3-0.9-1.7c-0.1-0.1-0.1-0.1-0.2-0.2c0.6-2.1,0.4-3.9-0.4-5.3c-1.8-3.2-6.7-4.2-13.3-2.9C35,5.7,31.7,2.1,28,2.1
	s-7,3.7-9.2,10.1C12.2,10.8,7.4,11.9,5.5,15c-0.8,1.4-1,3.2-0.4,5.2c-0.6,0.5-1.1,1.2-1.2,2c-0.2,0.8-0.1,1.6,0.3,2.3
	c0.4,0.7,1,1.3,1.7,1.6c0.7,0.3,1.5,0.3,2.3,0.1c0.5,0.6,1,1.2,1.5,1.8c-4.4,5.1-6,9.8-4.1,13c1.3,2.3,4.2,3.5,8.1,3.5
	c1.7,0,3.5-0.2,5.2-0.6c2.2,6.4,5.5,10.1,9.2,10.1c1.7,0,3.3-0.8,4.8-2.2c0.7,0.3,1.5,0.4,2.3,0.2c0.8-0.2,1.4-0.7,1.9-1.3
	c0.4-0.7,0.6-1.4,0.6-2.2c-0.1-0.8-0.4-1.5-1-2.1c-0.1-0.1-0.1-0.1-0.2-0.2c0.3-0.7,0.6-1.4,0.8-2.2c1.7,0.4,3.4,0.5,5.2,0.6
	c4,0,6.8-1.2,8.1-3.5c1.8-3.2,0.3-7.9-4.1-13C46.8,27.4,47.3,26.8,47.8,26.2z M50,24.2c-0.3,0.3-0.8,0.5-1.3,0.5
	c-0.5,0-1-0.2-1.3-0.5c-0.3-0.3-0.4-0.6-0.5-1c-0.1-0.4,0-0.7,0.1-1.1c0.1-0.3,0.4-0.6,0.7-0.8c0.3-0.2,0.7-0.3,1-0.3
	c0.4,0,0.7,0.1,1,0.3c0.3,0.2,0.5,0.5,0.7,0.8c0.1,0.3,0.2,0.7,0.1,1.1C50.4,23.7,50.2,24,50,24.2L50,24.2z M49.1,15.8
	c0.6,1,0.7,2.3,0.4,3.8c-0.7-0.2-1.5-0.1-2.2,0.2c-0.7,0.3-1.3,0.8-1.6,1.4c-0.4,0.6-0.5,1.4-0.4,2.1c0.1,0.7,0.4,1.4,1,1.9
	c0.1,0.1,0.1,0.1,0.2,0.2c-0.4,0.5-0.7,0.9-1.1,1.4c-1.9-1.9-3.9-3.7-6.1-5.3c-0.3-2.7-0.8-5.3-1.5-7.9
	C43.4,12.5,47.7,13.3,49.1,15.8L49.1,15.8z M36.1,42.1c-2.1-0.5-4.2-1.2-6.2-2c1.3-0.6,2.6-1.3,3.9-2.1c1.3-0.7,2.5-1.5,3.7-2.3
	C37.2,37.8,36.7,40,36.1,42.1z M19.9,42.1c-0.6-2.1-1.1-4.3-1.4-6.4c1.2,0.8,2.4,1.6,3.7,2.3c1.3,0.7,2.6,1.4,3.9,2.1
	C24.1,40.9,22,41.6,19.9,42.1z M19.9,13.9c2.1,0.5,4.2,1.2,6.2,2c-1.3,0.6-2.6,1.3-3.9,2.1c-1.3,0.7-2.5,1.5-3.7,2.3
	C18.8,18.2,19.3,16,19.9,13.9z M16.6,32.4c-1.7-1.3-3.4-2.8-4.9-4.4c1.5-1.6,3.1-3.1,4.9-4.4c-0.1,1.4-0.2,2.9-0.2,4.4
	S16.5,30.9,16.6,32.4z M23,36.7c-1.7-1-3.2-2-4.7-3.1C18.1,31.8,18,29.9,18,28s0.1-3.8,0.3-5.6c1.5-1.1,3.1-2.1,4.7-3.1
	c1.6-0.9,3.3-1.8,5-2.6c1.7,0.8,3.4,1.6,5,2.6c1.7,1,3.2,2,4.7,3.1c0.2,1.8,0.3,3.7,0.3,5.6s-0.1,3.8-0.3,5.6
	c-1.5,1.1-3.1,2.1-4.7,3.1c-1.6,0.9-3.3,1.8-5,2.6C26.3,38.5,24.6,37.6,23,36.7L23,36.7z M36.1,13.9c0.6,2.1,1.1,4.3,1.4,6.4
	c-1.2-0.8-2.4-1.6-3.7-2.3c-1.3-0.7-2.6-1.4-3.9-2.1C31.9,15.1,34,14.4,36.1,13.9L36.1,13.9z M39.4,23.6c1.7,1.3,3.4,2.8,4.9,4.4
	c-1.5,1.6-3.1,3.1-4.9,4.4c0.1-1.4,0.2-2.9,0.2-4.4S39.5,25.1,39.4,23.6z M28,3.6c2.9,0,5.7,3.3,7.7,8.8C33,13.1,30.5,14,28,15.1
	c-2.5-1.1-5-2-7.7-2.6C22.3,6.9,25.1,3.6,28,3.6z M5.9,24.2c-0.3-0.3-0.5-0.7-0.5-1.1c0-0.4,0.1-0.9,0.3-1.2c0.2-0.4,0.6-0.6,1-0.7
	C7.1,21,7.5,21,7.9,21.2c0.4,0.2,0.7,0.5,0.9,0.8C9,22.4,9.1,22.9,9,23.3c-0.1,0.4-0.3,0.8-0.6,1.1s-0.8,0.4-1.2,0.4
	c-0.2,0-0.5,0-0.7-0.1S6,24.4,5.9,24.2L5.9,24.2z M9.6,20.5c-0.4-0.4-0.9-0.7-1.4-0.8c-0.5-0.2-1.1-0.2-1.7-0.1
	c-0.4-1.5-0.2-2.8,0.4-3.8c1.5-2.5,5.7-3.3,11.5-2.2c-0.7,2.6-1.3,5.3-1.5,7.9c-2.2,1.6-4.2,3.4-6.1,5.3c-0.4-0.5-0.8-1-1.2-1.5
	c0,0,0,0,0.1-0.1c0.6-0.6,1-1.5,1-2.4C10.6,22,10.2,21.2,9.6,20.5L9.6,20.5z M6.9,40.2c-1.4-2.5,0-6.6,3.8-11.1
	c1.9,1.9,3.9,3.7,6.1,5.3c0.3,2.7,0.8,5.3,1.5,7.9C12.6,43.5,8.3,42.7,6.9,40.2L6.9,40.2z M35.4,49.9c-0.3,0.3-0.7,0.5-1.1,0.5
	c-0.4,0-0.9-0.1-1.2-0.3c-0.4-0.2-0.6-0.6-0.7-1c-0.1-0.4-0.1-0.9,0.1-1.3c0.2-0.4,0.5-0.7,0.8-0.9c0.4-0.2,0.8-0.3,1.2-0.2
	c0.4,0.1,0.8,0.3,1.1,0.6c0.3,0.3,0.4,0.8,0.4,1.2C36,49.1,35.8,49.5,35.4,49.9z M34.1,45.2c-0.6,0-1.3,0.2-1.8,0.5
	c-0.5,0.3-1,0.8-1.3,1.4c-0.3,0.6-0.4,1.2-0.3,1.9c0.1,0.6,0.3,1.2,0.8,1.7c-1.1,1.1-2.3,1.6-3.5,1.6c-2.9,0-5.7-3.3-7.7-8.8
	c2.6-0.7,5.2-1.5,7.7-2.6c2.5,1.1,5,2,7.7,2.6c-0.2,0.6-0.4,1.2-0.7,1.8C34.7,45.2,34.4,45.2,34.1,45.2L34.1,45.2z M49.1,40.2
	c-1.5,2.5-5.7,3.3-11.5,2.2c0.7-2.6,1.3-5.3,1.5-7.9c2.2-1.6,4.2-3.4,6.1-5.3C49.1,33.6,50.6,37.7,49.1,40.2L49.1,40.2z"/>
</svg>
