<?xml version="1.0" encoding="utf-8"?>
<!-- Generator: Adobe Illustrator 25.2.3, SVG Export Plug-In . SVG Version: 6.00 Build 0)  -->
<svg version="1.1" id="圖層_1" xmlns="http://www.w3.org/2000/svg" xmlns:xlink="http://www.w3.org/1999/xlink" x="0px" y="0px"
	 viewBox="0 0 56 56" enable-background="new 0 0 56 56" xml:space="preserve">
<path fill="#72705B" d="M35.2,43.9c4.8,0,8.8,3.9,8.8,8.8c0,0.6,0.5,1.1,1.1,1.1s1.1-0.5,1.1-1.1c0-4.8,3.9-8.8,8.8-8.8
	c0.6,0,1.1-0.5,1.1-1.1c0-0.6-0.5-1.1-1.1-1.1c-4.8,0-8.8-3.9-8.8-8.8c0-0.6-0.5-1.1-1.1-1.1S44,32.3,44,32.9c0,4.8-3.9,8.8-8.8,8.8
	c-0.6,0-1.1,0.5-1.1,1.1C34.1,43.4,34.6,43.9,35.2,43.9z M45.1,37.7c1.1,2.2,2.9,4,5.1,5.1c-2.2,1.1-4,2.9-5.1,5.1
	c-1.1-2.2-2.9-4-5.1-5.1C42.2,41.7,44,39.9,45.1,37.7z"/>
<path fill="#72705B" d="M1.1,11c3,0,5.5,2.5,5.5,5.5c0,0.6,0.5,1.1,1.1,1.1s1.1-0.5,1.1-1.1c0-3,2.5-5.5,5.5-5.5
	c0.6,0,1.1-0.5,1.1-1.1c0-0.6-0.5-1.1-1.1-1.1c-3,0-5.5-2.5-5.5-5.5c0-0.6-0.5-1.1-1.1-1.1S6.6,2.8,6.6,3.4c0,3-2.5,5.5-5.5,5.5
	C0.5,8.9,0,9.3,0,10C0,10.6,0.5,11,1.1,11z M7.7,7.3c0.6,1.1,1.5,2,2.6,2.6c-1.1,0.6-2,1.5-2.6,2.6C7,11.5,6.1,10.6,5,10
	C6.1,9.3,7,8.4,7.7,7.3z"/>
<path fill="#72705B" d="M30.5,33.2c0.6,0,1.1-0.5,1.1-1.1c0-0.6-0.5-1.1-1.1-1.1c-0.6,0-1.1,0.5-1.1,1.1
	C29.4,32.8,29.9,33.2,30.5,33.2z"/>
<path fill="#72705B" d="M33.4,29.7c0.3,0.5,1,0.7,1.5,0.4c2.9-1.7,6.1-2.6,9.5-2.6c0.6,0,1.1-0.5,1.1-1.1c0-0.6-0.5-1.1-1.1-1.1
	c-10.3,0-18.6-8.3-18.6-18.6c0-0.6-0.5-1.1-1.1-1.1c-0.6,0-1.1,0.5-1.1,1.1c0,10.3-8.3,18.6-18.6,18.6c-0.6,0-1.1,0.5-1.1,1.1
	c0,0.6,0.5,1.1,1.1,1.1c10.3,0,18.6,8.3,18.6,18.6c0,0.6,0.5,1.1,1.1,1.1c0.6,0,1.1-0.5,1.1-1.1c0-3.3,0.9-6.6,2.6-9.5
	c0.3-0.5,0.1-1.2-0.4-1.5c-0.5-0.3-1.2-0.1-1.5,0.4c-0.7,1.2-1.3,2.6-1.8,3.9c-2.1-6.1-6.9-11-13-13c6.1-2.1,11-6.9,13-13
	c2.1,6.1,6.9,11,13,13c-1.4,0.5-2.7,1.1-3.9,1.8C33.3,28.5,33.1,29.1,33.4,29.7z"/>
</svg>
