<?xml version="1.0" encoding="utf-8"?>
<!-- Generator: Adobe Illustrator 25.2.3, SVG Export Plug-In . SVG Version: 6.00 Build 0)  -->
<svg version="1.1" id="圖層_1" xmlns="http://www.w3.org/2000/svg" xmlns:xlink="http://www.w3.org/1999/xlink" x="0px" y="0px"
	 viewBox="0 0 56 56" enable-background="new 0 0 56 56" xml:space="preserve">
<path fill="#72705B" d="M34.1,15.9H34v-3.5c0-0.7-0.2-1.3-0.6-1.8c-0.4-0.5-1-0.9-1.6-1v-2H35c0.2,0,0.4-0.1,0.5-0.2
	c0.1-0.1,0.2-0.3,0.2-0.5V3.8c0-0.2-0.1-0.4-0.2-0.5C35.4,3.1,35.2,3,35,3h-9.8c-0.2,0-0.4,0.1-0.5,0.2c-0.1,0.1-0.2,0.3-0.2,0.5
	v5.8c-0.7,0.1-1.3,0.5-1.7,1S22,11.7,22,12.4v3.5h-0.2c-0.8,0-1.5,0.3-2.1,0.9c-0.6,0.6-0.9,1.3-0.9,2.1V50c0,0.8,0.3,1.5,0.9,2.1
	c0.6,0.6,1.3,0.9,2.1,0.9h12.2c0.8,0,1.5-0.3,2.1-0.9c0.6-0.6,0.9-1.3,0.9-2.1V18.9c0-0.8-0.3-1.5-0.9-2.1
	C35.6,16.2,34.9,15.9,34.1,15.9z M34.3,6.1h-2.6V4.5h2.6V6.1z M30.2,4.5v4.9H26V4.5H30.2z M23.6,12.4c0-0.4,0.2-0.7,0.4-1
	c0.3-0.3,0.6-0.4,1-0.4h6c0.4,0,0.7,0.2,1,0.4c0.3,0.3,0.4,0.6,0.4,1v3.5h-8.8V12.4z M35.5,50c0,0.4-0.2,0.7-0.4,1
	c-0.3,0.3-0.6,0.4-1,0.4H21.9c-0.4,0-0.7-0.2-1-0.4c-0.3-0.3-0.4-0.6-0.4-1V18.9c0-0.4,0.2-0.7,0.4-1c0.3-0.3,0.6-0.4,1-0.4h12.2
	c0.4,0,0.7,0.2,1,0.4c0.3,0.3,0.4,0.6,0.4,1V50z"/>
<path fill="#72705B" d="M31.9,20.3h-7.8c-0.1,0-0.2,0-0.3,0.1c-0.1,0-0.2,0.1-0.2,0.2c-0.1,0.1-0.1,0.2-0.2,0.2
	c0,0.1-0.1,0.2-0.1,0.3v26.8c0,0.2,0.1,0.4,0.2,0.5c0.1,0.1,0.3,0.2,0.5,0.2h7.8c0.2,0,0.4-0.1,0.5-0.2s0.2-0.3,0.2-0.5V21.1
	c0-0.1,0-0.2-0.1-0.3c0-0.1-0.1-0.2-0.2-0.2c-0.1-0.1-0.2-0.1-0.2-0.2C32.1,20.3,32,20.3,31.9,20.3z M31.1,47.1h-6.3V21.8h6.3V47.1z
	"/>
</svg>
