<?xml version="1.0" encoding="utf-8"?>
<!-- Generator: Adobe Illustrator 25.2.3, SVG Export Plug-In . SVG Version: 6.00 Build 0)  -->
<svg version="1.1" id="圖層_1" xmlns="http://www.w3.org/2000/svg" xmlns:xlink="http://www.w3.org/1999/xlink" x="0px" y="0px"
	 viewBox="0 0 56 56" enable-background="new 0 0 56 56" xml:space="preserve">
<path fill="#72705B" d="M37,6.6L33.6,4c-0.1-0.1-0.3-0.1-0.5-0.1H21.8c-0.2,0-0.4,0.1-0.5,0.2S21,4.4,21,4.6c0,0.2,0.1,0.4,0.2,0.5
	c0.1,0.1,0.3,0.2,0.5,0.2h5v3h-1.5c-0.1,0-0.2,0-0.3,0.1c-0.1,0-0.2,0.1-0.2,0.2c-0.1,0.1-0.1,0.2-0.2,0.2c0,0.1-0.1,0.2-0.1,0.3
	v2.3h-0.7c-0.1,0-0.2,0-0.3,0.1c-0.1,0-0.2,0.1-0.2,0.2s-0.1,0.2-0.2,0.2c0,0.1-0.1,0.2-0.1,0.3v2.3h-0.4c-0.2,0-0.3,0.1-0.5,0.2
	c-0.1,0.1-0.2,0.2-0.3,0.4l-0.9,3.4c-0.7,0.5-1.3,1.1-1.7,1.8c-0.4,0.7-0.6,1.6-0.6,2.4V47c0,1.4,0.5,2.7,1.5,3.6
	c1,1,2.3,1.5,3.6,1.5h7.4c1.4,0,2.7-0.5,3.6-1.5c1-1,1.5-2.3,1.5-3.6V22.7c0-0.8-0.2-1.7-0.6-2.4c-0.4-0.7-1-1.4-1.7-1.8l-0.9-3.4
	c0-0.2-0.1-0.3-0.3-0.4c-0.1-0.1-0.3-0.2-0.5-0.2H32v-2.3c0-0.1,0-0.2-0.1-0.3c0-0.1-0.1-0.2-0.2-0.2s-0.2-0.1-0.2-0.2
	c-0.1,0-0.2-0.1-0.3-0.1h-0.7V9.1c0-0.1,0-0.2-0.1-0.3c0-0.1-0.1-0.2-0.2-0.2c-0.1-0.1-0.2-0.1-0.2-0.2c-0.1,0-0.2-0.1-0.3-0.1h-1.5
	v-3h4.6l3.3,2.4c0.2,0.1,0.4,0.2,0.6,0.1c0.2,0,0.4-0.1,0.5-0.3c0.1-0.2,0.2-0.4,0.1-0.6C37.3,6.9,37.2,6.7,37,6.6z M20.2,27.3H28
	v15.1h-7.8V27.3z M34.8,47c0,1-0.4,1.9-1.1,2.6c-0.7,0.7-1.6,1.1-2.6,1.1h-7.4c-1,0-1.9-0.4-2.6-1.1c-0.7-0.7-1.1-1.6-1.1-2.6v-3.1
	h8.5c0.1,0,0.2,0,0.3-0.1c0.1,0,0.2-0.1,0.2-0.2c0.1-0.1,0.1-0.2,0.2-0.2c0-0.1,0.1-0.2,0.1-0.3V26.5c0-0.1,0-0.2-0.1-0.3
	c0-0.1-0.1-0.2-0.2-0.2c-0.1-0.1-0.2-0.1-0.2-0.2c-0.1,0-0.2-0.1-0.3-0.1h-8.5v-3.1c0-1,0.4-1.9,1.1-2.6c0.7-0.7,1.6-1.1,2.6-1.1
	h7.4c1,0,1.9,0.4,2.6,1.1c0.7,0.7,1.1,1.6,1.1,2.6V47z M31.2,17.6h-7.4c-0.4,0-0.7,0-1.1,0.1l0.5-1.6h8.6l0.5,1.6
	C31.9,17.6,31.6,17.6,31.2,17.6z M24.6,14.5V13h5.9v1.5H24.6z M29,11.4h-3V9.9h3V11.4z"/>
</svg>
