<?xml version="1.0" encoding="utf-8"?>
<!-- Generator: Adobe Illustrator 25.2.3, SVG Export Plug-In . SVG Version: 6.00 Build 0)  -->
<svg version="1.1" id="圖層_1" xmlns="http://www.w3.org/2000/svg" xmlns:xlink="http://www.w3.org/1999/xlink" x="0px" y="0px"
	 viewBox="0 0 16 16" enable-background="new 0 0 16 16" xml:space="preserve">
<path fill="#72705B" d="M15.1,7.7L8.3,0.9C8,0.7,7.6,0.5,7.2,0.5H2c-0.4,0-0.8,0.2-1.1,0.4C0.7,1.2,0.5,1.6,0.5,2v5.2
	c0,0.2,0,0.4,0.1,0.6C0.7,8,0.8,8.2,0.9,8.3l6.8,6.8c0.3,0.3,0.7,0.4,1.1,0.4c0.4,0,0.8-0.2,1.1-0.4l5.2-5.2
	c0.3-0.3,0.4-0.7,0.4-1.1c0-0.2,0-0.4-0.1-0.6C15.3,8,15.2,7.8,15.1,7.7z M8.8,14L2,7.2V2h5.2L14,8.8L8.8,14z M3.9,2.8
	c0.2,0,0.4,0.1,0.6,0.2c0.2,0.1,0.3,0.3,0.4,0.5C5,3.7,5,3.9,5,4.1c0,0.2-0.2,0.4-0.3,0.6C4.5,4.8,4.3,4.9,4.1,5
	C3.9,5,3.7,5,3.4,4.9C3.2,4.8,3.1,4.7,2.9,4.5C2.8,4.3,2.8,4.1,2.8,3.9c0-0.3,0.1-0.6,0.3-0.8C3.3,2.9,3.6,2.8,3.9,2.8z"/>
</svg>
