<?xml version="1.0" encoding="utf-8"?>
<!-- Generator: Adobe Illustrator 25.2.3, SVG Export Plug-In . SVG Version: 6.00 Build 0)  -->
<svg version="1.1" id="圖層_1" xmlns="http://www.w3.org/2000/svg" xmlns:xlink="http://www.w3.org/1999/xlink" x="0px" y="0px"
	 viewBox="0 0 56 56" enable-background="new 0 0 56 56" xml:space="preserve">
<path fill="#72705B" d="M41.6,37.2c-0.2,0-0.5,0-0.7-0.1c-0.7-0.3-1.1-1-1.3-1.9l-3.5-1.5c-0.4-0.2-0.7-0.7-0.5-1.2
	c0.2-0.4,0.7-0.7,1.2-0.5l4,1.7c0.3,0.1,0.6,0.5,0.5,0.9c0,0.5,0.1,0.8,0.2,0.8c0,0,0.2,0,0.4-0.2c0.3-0.2,0.6-0.7,0.8-1.1
	c0.2-0.5,0.3-1,0.2-1.4c0-0.3-0.1-0.4-0.2-0.4c-0.1,0-0.4,0.1-0.7,0.4c-0.2,0.3-0.6,0.4-1,0.2l-4-1.7c-0.4-0.2-0.6-0.6-0.5-1
	c0.4-1.5,0.4-3,0-4.5c-0.1-0.4,0.1-0.9,0.5-1l4-1.7c0.3-0.1,0.7-0.1,1,0.2c0.3,0.4,0.6,0.5,0.7,0.4c0,0,0.1-0.2,0.2-0.4
	c0.1-0.4,0-0.9-0.2-1.4c-0.2-0.5-0.5-0.9-0.8-1.1c-0.2-0.2-0.4-0.2-0.4-0.2c-0.1,0-0.2,0.3-0.2,0.8c0,0.4-0.2,0.7-0.5,0.9l-4,1.7
	c-0.4,0.2-0.9,0-1.1-0.4c-0.8-1.3-1.9-2.4-3.2-3.2c-0.4-0.2-0.5-0.7-0.4-1.1l1.7-4c0.1-0.3,0.5-0.6,0.9-0.5c0.5,0,0.8-0.1,0.8-0.2
	c0,0,0-0.2-0.2-0.4c-0.2-0.3-0.7-0.6-1.1-0.8c-1-0.4-1.8-0.2-1.8,0c0,0.1,0.1,0.4,0.4,0.7c0.3,0.2,0.4,0.6,0.2,1l-1.7,4
	c-0.2,0.4-0.6,0.6-1,0.5c-1.5-0.4-3-0.4-4.5,0c-0.4,0.1-0.9-0.1-1-0.5l-1.7-4c-0.1-0.3-0.1-0.7,0.2-1c0.4-0.3,0.5-0.6,0.4-0.7
	c-0.1-0.2-0.8-0.4-1.8,0c-0.5,0.2-0.9,0.5-1.1,0.8c-0.2,0.2-0.2,0.4-0.2,0.4c0,0.1,0.3,0.2,0.8,0.2c0.4,0,0.7,0.2,0.9,0.5l1.7,4
	c0.2,0.4,0,1-0.5,1.2c-0.4,0.2-1,0-1.2-0.5l-1.4-3.5c-0.9-0.1-1.6-0.6-1.9-1.3c-0.3-0.7-0.1-1.5,0.4-2.2c0.4-0.6,1.1-1.1,1.9-1.4
	c1.8-0.7,3.6-0.3,4.1,0.9c0.3,0.7,0.1,1.5-0.4,2.2l1.2,2.8c1.3-0.2,2.6-0.2,3.9,0l1.2-2.8c-0.6-0.7-0.7-1.5-0.4-2.2
	c0.5-1.3,2.3-1.7,4.1-0.9c0.8,0.3,1.4,0.8,1.9,1.4c0.5,0.7,0.7,1.5,0.4,2.2c-0.3,0.7-1,1.1-1.9,1.3L34,19.2c1.1,0.7,2,1.7,2.7,2.7
	l2.8-1.2c0.1-0.9,0.6-1.6,1.3-1.9c0.7-0.3,1.5-0.1,2.2,0.4c0.6,0.4,1.1,1.1,1.4,1.9c0.3,0.8,0.4,1.6,0.3,2.3
	c-0.1,0.9-0.6,1.5-1.2,1.8c-0.7,0.3-1.5,0.1-2.2-0.4l-2.8,1.2c0.2,1.3,0.2,2.6,0,3.9l2.8,1.2c0.7-0.6,1.5-0.7,2.2-0.4
	c0.7,0.3,1.1,0.9,1.3,1.8c0.1,0.7,0,1.5-0.3,2.3c-0.3,0.8-0.8,1.4-1.4,1.9C42.5,37,42,37.2,41.6,37.2z"/>
<path fill="#72705B" d="M23,44.8c-0.6,0-1.2-0.1-1.8-0.4c-0.8-0.3-1.4-0.8-1.9-1.4c-0.5-0.7-0.7-1.5-0.4-2.2c0.3-0.7,1-1.1,1.9-1.3
	l1.2-2.8c-1.1-0.7-2-1.7-2.7-2.7l-2.8,1.2c-0.1,0.9-0.6,1.6-1.3,1.9c-1.3,0.5-2.8-0.5-3.6-2.3c-0.3-0.8-0.4-1.6-0.3-2.3
	c0.1-0.9,0.6-1.5,1.3-1.8c0.7-0.3,1.5-0.1,2.2,0.4l2.8-1.2c-0.2-1.3-0.2-2.6,0-3.9l-2.8-1.2c-0.7,0.6-1.5,0.7-2.2,0.4
	c-1.3-0.5-1.7-2.3-0.9-4.1c0.3-0.8,0.8-1.4,1.4-1.9c0.7-0.5,1.5-0.7,2.2-0.4c0.7,0.3,1.1,1,1.3,1.9l3.5,1.5c0.4,0.2,0.7,0.7,0.5,1.2
	c-0.2,0.4-0.7,0.7-1.2,0.5l-4-1.7c-0.3-0.1-0.6-0.5-0.5-0.9c0-0.5-0.1-0.8-0.2-0.8c0,0-0.2,0-0.4,0.2c-0.3,0.2-0.6,0.7-0.8,1.1
	c-0.4,1-0.2,1.8,0,1.8c0.1,0,0.4-0.1,0.7-0.4c0.2-0.3,0.6-0.4,1-0.2l4,1.7c0.4,0.2,0.6,0.6,0.5,1c-0.4,1.5-0.4,3,0,4.5
	c0.1,0.4-0.1,0.9-0.5,1l-4,1.7c-0.3,0.1-0.7,0.1-1-0.2c-0.3-0.4-0.6-0.5-0.7-0.4c0,0-0.1,0.2-0.2,0.4c-0.1,0.4,0,0.9,0.2,1.4
	c0.4,1,1.1,1.4,1.3,1.3c0.1,0,0.2-0.3,0.2-0.8c0-0.4,0.2-0.7,0.5-0.9l4-1.7c0.4-0.2,0.9,0,1.1,0.4c0.8,1.3,1.9,2.4,3.2,3.2
	c0.4,0.2,0.5,0.7,0.4,1.1l-1.7,4c-0.1,0.3-0.5,0.6-0.9,0.5c-0.5,0-0.8,0.1-0.8,0.2c0,0,0,0.2,0.2,0.4c0.2,0.3,0.7,0.6,1.1,0.8
	c0.5,0.2,1,0.3,1.4,0.2c0.3,0,0.4-0.1,0.4-0.2c0-0.1-0.1-0.4-0.4-0.7c-0.3-0.2-0.4-0.6-0.2-1l1.7-4c0.2-0.4,0.6-0.6,1-0.5
	c1.5,0.4,3,0.4,4.5,0c0.4-0.1,0.9,0.1,1,0.5l1.7,4c0.1,0.3,0.1,0.7-0.2,1c-0.4,0.3-0.5,0.6-0.4,0.7c0,0,0.2,0.1,0.4,0.2
	c0.4,0.1,0.9,0,1.4-0.2c1-0.4,1.4-1.1,1.3-1.3c0-0.1-0.3-0.2-0.8-0.2c-0.4,0-0.7-0.2-0.9-0.5l-1.7-4c-0.2-0.4,0-1,0.5-1.2
	c0.4-0.2,1,0,1.2,0.5l1.4,3.5c0.9,0.1,1.6,0.6,1.9,1.3c0.5,1.3-0.5,2.8-2.3,3.6c-0.8,0.3-1.6,0.4-2.3,0.3c-0.9-0.1-1.5-0.6-1.8-1.3
	c-0.3-0.7-0.1-1.5,0.4-2.2l-1.2-2.8c-1.3,0.2-2.6,0.2-3.9,0l-1.2,2.8c0.6,0.7,0.7,1.5,0.4,2.2c-0.3,0.7-0.9,1.1-1.8,1.3
	C23.4,44.8,23.2,44.8,23,44.8z"/>
<path fill="#72705B" d="M28,56C12.6,56,0,43.4,0,28S12.6,0,28,0s28,12.6,28,28S43.4,56,28,56z M28,1.8C13.5,1.8,1.8,13.5,1.8,28
	c0,14.5,11.8,26.2,26.2,26.2S54.2,42.5,54.2,28C54.2,13.5,42.5,1.8,28,1.8z"/>
<path fill="#72705B" d="M47.2,48c-0.2,0-0.5-0.1-0.6-0.3L8.2,9.4c-0.3-0.3-0.3-0.9,0-1.2c0.3-0.3,0.9-0.3,1.2,0l38.4,38.4
	c0.3,0.3,0.3,0.9,0,1.2C47.6,48,47.4,48,47.2,48z"/>
</svg>
