<?xml version="1.0" encoding="utf-8"?>
<!-- Generator: Adobe Illustrator 25.2.3, SVG Export Plug-In . SVG Version: 6.00 Build 0)  -->
<svg version="1.1" id="圖層_1" xmlns="http://www.w3.org/2000/svg" xmlns:xlink="http://www.w3.org/1999/xlink" x="0px" y="0px"
	 viewBox="0 0 57 56" enable-background="new 0 0 57 56" xml:space="preserve">
<path fill="#72705B" d="M39.5,11.1c-0.1,0-3.4,1.2-3.4,4.5c0,0.5,0.4,0.9,0.9,0.9s0.9-0.4,0.9-0.9c0.1-1.3,0.9-2.3,2.1-2.8
	c0.5-0.2,0.7-0.7,0.6-1.2C40.5,11.2,40,10.9,39.5,11.1L39.5,11.1z"/>
<path fill="#72705B" d="M55.4,6c0-1.7-1.1-3.3-2.7-3.9S49.3,2,48.2,3.3c-1.1,1.3-1.3,3.2-0.5,4.7l-1.6,1.4C43.1,6.8,38.9,6.7,35.8,9
	l-1.2-1.1c1.3-2,0.8-4.6-1.1-6.1c-1.9-1.4-4.5-1.2-6.1,0.5c-1.6,1.7-1.7,4.4-0.1,6.2c1.5,1.8,4.2,2.1,6.1,0.7l1.1,1
	c-5.3,6.2,0.7,15.6,8.6,13.3l1.2,1.6c-1.3,2.4-0.8,5.4,1.2,7.3c2,1.9,5,2.1,7.3,0.6c2.3-1.5,3.2-4.4,2.3-7c-0.9-2.6-3.5-4.2-6.2-3.9
	l-1.3-1.8c2-2.9,1.9-6.8-0.2-9.6l1.6-1.3c1.3,0.9,2.9,1,4.3,0.3C54.5,8.9,55.4,7.5,55.4,6z M51.3,3.7c0.9,0,1.8,0.5,2.2,1.4
	C53.8,6,53.6,7,52.9,7.6s-1.7,0.8-2.6,0.4l1.1-0.9c0.4-0.3,0.4-0.9,0.1-1.3c-0.3-0.4-0.9-0.4-1.3-0.1l-1.1,0.9
	c-0.2-0.7-0.1-1.4,0.3-2C49.9,4,50.6,3.7,51.3,3.7z M27.9,5.5c0-1.1,0.7-2.1,1.7-2.6c1-0.4,2.2-0.2,3,0.6c0.8,0.8,1,2,0.5,3l-1-0.9
	c-0.4-0.3-0.9-0.3-1.3,0.1c-0.3,0.4-0.3,0.9,0.1,1.3l0.9,0.8C31,8.3,30,8.3,29.2,7.8C28.4,7.3,27.9,6.5,27.9,5.5z M34.3,15.6
	c0-2.7,1.7-5.1,4.2-6c2.5-0.9,5.3-0.2,7.1,1.8c1.8,2,2.1,4.9,0.8,7.3c-0.9-1.1-2.6-1.3-3.8-0.5c-1.2,0.9-1.5,2.5-0.7,3.7
	c-1.9,0.4-3.8-0.1-5.3-1.4C35.2,19.3,34.3,17.5,34.3,15.6z M53.6,28c0,2.3-1.8,4.1-4.1,4.1c-2.3,0-4.1-1.8-4.1-4.1
	c0-2.3,1.8-4.1,4.1-4.1C51.7,23.9,53.6,25.7,53.6,28z M45.4,23.6l-1.9-2.7c-0.2-0.3-0.2-0.6-0.1-0.9c0.1-0.3,0.4-0.5,0.7-0.5
	c0.3,0,0.7,0.1,0.8,0.4l2,2.8C46.4,22.9,45.9,23.2,45.4,23.6z"/>
<path fill="#72705B" d="M38,34h-2.2c0.6-1.3,0.3-3-0.9-3.9c-1.2-0.9-2.8-0.9-4,0C29.8,31,29.4,32.6,30,34h-2.2c-1.5-0.1-2.8,1-3,2.6
	c-0.1,1.5,1,2.8,2.6,3c-2.6,2.8-6.5,3.9-10.1,2.9c-3.7-1-6.5-4-7.2-7.7c-0.8-3.7,0.6-7.6,3.6-9.9c0.1,0,0.3,0,0.4,0
	c1,0,2-0.3,2.8-0.9L18,25c-0.2,0.6,0,1.3,0.5,1.8l1.3,1.3c0.3,0.3,0.8,0.5,1.3,0.5c0.5,0,1-0.2,1.3-0.5l0.7-0.7l1.9,2
	c0.3,0.3,0.8,0.5,1.3,0.5c0.5,0,1-0.2,1.3-0.5l2.6-2.6c0.3-0.3,0.5-0.8,0.5-1.3c0-0.5-0.2-1-0.5-1.3l-1.9-1.9l0.7-0.6
	c0.3-0.3,0.5-0.8,0.5-1.3c0-0.5-0.2-1-0.5-1.3l-1.3-1.3c-0.5-0.5-1.1-0.6-1.8-0.5L12.6,4c-0.3-0.3-0.8-0.5-1.3-0.5S10.3,3.7,10,4
	L7.4,1.5C7,1.1,6.6,0.9,6.1,0.9c-0.5,0-1,0.2-1.3,0.5L2.2,4C1.8,4.4,1.6,4.9,1.6,5.3s0.2,1,0.5,1.3l2.6,2.6
	c-0.3,0.3-0.5,0.8-0.5,1.3s0.2,1,0.5,1.3l5.7,5.6c-0.5,0.7-0.8,1.5-0.9,2.3c-4.1,3.6-6.1,9-5.4,14.4c0.7,5.4,4,10.1,8.8,12.6H8.6
	c-3,0-5.5,2.5-5.5,5.5v1.8H2.2c-0.5,0-0.9,0.4-0.9,0.9c0,0.5,0.4,0.9,0.9,0.9h36.7c0.5,0,0.9-0.4,0.9-0.9c0-0.5-0.4-0.9-0.9-0.9H38
	v-1.8c0-3-2.5-5.5-5.5-5.5h-4.4c3.1-1.6,5.7-4.2,7.3-7.3H38c1.5,0,2.8-1.2,2.8-2.8C40.7,35.2,39.5,34,38,34z M31.5,32.6
	c0-0.8,0.6-1.4,1.4-1.4c0.8,0,1.4,0.6,1.4,1.4c0,0.8-0.6,1.4-1.4,1.4C32.2,34,31.5,33.4,31.5,32.6z M14.1,17.4
	c1.5,0,2.8,1.2,2.8,2.8c0,1.5-1.2,2.8-2.8,2.8s-2.8-1.2-2.8-2.8C11.3,18.7,12.6,17.4,14.1,17.4z M28.8,25.5l-2.6,2.6l-1.9-1.9
	l2.6-2.6L28.8,25.5z M27.5,20.3L21,26.8l-1.3-1.3l6.5-6.5L27.5,20.3z M3.5,5.4l2.6-2.6l2.6,2.6L6.1,8L3.5,5.4z M11.3,5.4l13,13
	l-5.2,5.2l-1-1c1-1.8,0.7-4.1-0.7-5.5c-1.5-1.5-3.7-1.8-5.5-0.7l-5.7-5.7C14.6,2,9.5,7.1,11.3,5.4z M32.5,48.7c2,0,3.7,1.6,3.7,3.7
	v1.8H4.9v-1.8c0-2,1.6-3.7,3.7-3.7H32.5z M20.5,46.8c-5.9,0-11.2-3.5-13.5-8.9C4.7,32.5,5.9,26.3,9.9,22c0.4,0.9,1,1.6,1.8,2.1
	C8.6,27.3,7.4,32,8.8,36.3c1.4,4.3,5.1,7.4,9.5,8.1c4.4,0.7,8.9-1.2,11.5-4.9h3.3C30.6,44,25.8,46.8,20.5,46.8z M38,37.6H27.9
	c-0.5,0-0.9-0.4-0.9-0.9s0.4-0.9,0.9-0.9H38c0.5,0,0.9,0.4,0.9,0.9S38.5,37.6,38,37.6z"/>
</svg>
