<?xml version="1.0" encoding="utf-8"?>
<!-- Generator: Adobe Illustrator 25.2.3, SVG Export Plug-In . SVG Version: 6.00 Build 0)  -->
<svg version="1.1" id="圖層_1" xmlns="http://www.w3.org/2000/svg" xmlns:xlink="http://www.w3.org/1999/xlink" x="0px" y="0px"
	 viewBox="0 0 50 50" enable-background="new 0 0 50 50" xml:space="preserve">
<g>
	<defs>
		<rect id="SVGID_1_" y="0" width="50" height="50"/>
	</defs>
	<clipPath id="SVGID_2_">
		<use xlink:href="#SVGID_1_"  overflow="visible"/>
	</clipPath>
	<g clip-path="url(#SVGID_2_)">
		<path fill="#72705B" d="M49.2,25.8H34.6c-0.3,0-0.6,0.2-0.7,0.4c-0.2,0.2-0.2,0.6,0,0.8c2.2,4.2,1.1,9.4-2.6,12.4
			c-3.7,3-9,3-12.6,0c-3.7-3-4.7-8.2-2.6-12.4c0.1-0.3,0.1-0.6,0-0.8c-0.2-0.2-0.4-0.4-0.7-0.4H0.8c-0.5,0-0.8,0.4-0.8,0.8
			c0,0.5,0.4,0.8,0.8,0.8h13.3C12.2,32.4,13.8,37.9,18,41c4.2,3.1,9.9,3.1,14,0c4.2-3.1,5.7-8.6,3.9-13.5h13.3
			c0.5,0,0.8-0.4,0.8-0.8C50,26.2,49.6,25.8,49.2,25.8z"/>
		<path fill="#72705B" d="M29.8,4.1C27.3,7,24.1,12.2,22.5,21c-0.4,2.1-1.4,4-3,5.5c-2.7,2.8-2.8,7.3-0.2,10.2
			c2.6,2.9,7.1,3.3,10.2,0.9c3.1-2.4,3.8-6.8,1.6-10.1c-1.7-2.4-2.5-5.4-2.2-8.3c0.5-4.6,1.7-9,3.5-13.2c0.3-0.8,0.1-1.6-0.6-2.1
			C31.3,3.4,30.4,3.5,29.8,4.1z M27.4,18.9c-0.4,3.4,0.5,6.7,2.4,9.5c1.7,2.5,1.1,6-1.3,7.8s-5.9,1.6-7.9-0.7c-2-2.3-2-5.7,0.1-7.9
			c1.7-1.7,2.9-4,3.4-6.4c1.5-8.3,4.5-13.3,6.9-16C29.2,9.6,27.9,14.2,27.4,18.9z"/>
		<path fill="#72705B" d="M5,32.5c0.5,0,0.8-0.4,0.8-0.8c0-0.5-0.4-0.8-0.8-0.8c-0.5,0-0.8,0.4-0.8,0.8C4.2,32.1,4.5,32.5,5,32.5z"
			/>
		<path fill="#72705B" d="M10,32.5c0.5,0,0.8-0.4,0.8-0.8c0-0.5-0.4-0.8-0.8-0.8c-0.5,0-0.8,0.4-0.8,0.8C9.2,32.1,9.5,32.5,10,32.5z
			"/>
		<path fill="#72705B" d="M2.5,35.8c0.5,0,0.8-0.4,0.8-0.8c0-0.5-0.4-0.8-0.8-0.8S1.7,34.5,1.7,35C1.7,35.5,2,35.8,2.5,35.8z"/>
		<path fill="#72705B" d="M7.5,35.8c0.5,0,0.8-0.4,0.8-0.8c0-0.5-0.4-0.8-0.8-0.8c-0.5,0-0.8,0.4-0.8,0.8C6.7,35.5,7,35.8,7.5,35.8z
			"/>
		<path fill="#72705B" d="M5,39.2c0.5,0,0.8-0.4,0.8-0.8c0-0.5-0.4-0.8-0.8-0.8c-0.5,0-0.8,0.4-0.8,0.8C4.2,38.8,4.5,39.2,5,39.2z"
			/>
		<path fill="#72705B" d="M10,39.2c0.5,0,0.8-0.4,0.8-0.8c0-0.5-0.4-0.8-0.8-0.8c-0.5,0-0.8,0.4-0.8,0.8C9.2,38.8,9.5,39.2,10,39.2z
			"/>
		<path fill="#72705B" d="M2.5,42.5c0.5,0,0.8-0.4,0.8-0.8c0-0.5-0.4-0.8-0.8-0.8s-0.8,0.4-0.8,0.8C1.7,42.1,2,42.5,2.5,42.5z"/>
		<path fill="#72705B" d="M7.5,42.5c0.5,0,0.8-0.4,0.8-0.8c0-0.5-0.4-0.8-0.8-0.8c-0.5,0-0.8,0.4-0.8,0.8C6.7,42.1,7,42.5,7.5,42.5z
			"/>
		<path fill="#72705B" d="M12.5,42.5c0.5,0,0.8-0.4,0.8-0.8c0-0.5-0.4-0.8-0.8-0.8c-0.5,0-0.8,0.4-0.8,0.8
			C11.7,42.1,12,42.5,12.5,42.5z"/>
		<path fill="#72705B" d="M5,45.8c0.5,0,0.8-0.4,0.8-0.8c0-0.5-0.4-0.8-0.8-0.8c-0.5,0-0.8,0.4-0.8,0.8C4.2,45.5,4.5,45.8,5,45.8z"
			/>
		<path fill="#72705B" d="M10,45.8c0.5,0,0.8-0.4,0.8-0.8c0-0.5-0.4-0.8-0.8-0.8c-0.5,0-0.8,0.4-0.8,0.8C9.2,45.5,9.5,45.8,10,45.8z
			"/>
		<path fill="#72705B" d="M15,45.8c0.5,0,0.8-0.4,0.8-0.8c0-0.5-0.4-0.8-0.8-0.8c-0.5,0-0.8,0.4-0.8,0.8
			C14.2,45.5,14.5,45.8,15,45.8z"/>
		<path fill="#72705B" d="M20,45.8c0.5,0,0.8-0.4,0.8-0.8c0-0.5-0.4-0.8-0.8-0.8c-0.5,0-0.8,0.4-0.8,0.8
			C19.2,45.5,19.5,45.8,20,45.8z"/>
		<path fill="#72705B" d="M25,45.8c0.5,0,0.8-0.4,0.8-0.8c0-0.5-0.4-0.8-0.8-0.8c-0.5,0-0.8,0.4-0.8,0.8
			C24.2,45.5,24.5,45.8,25,45.8z"/>
		<path fill="#72705B" d="M45,32.5c0.5,0,0.8-0.4,0.8-0.8c0-0.5-0.4-0.8-0.8-0.8c-0.5,0-0.8,0.4-0.8,0.8
			C44.2,32.1,44.5,32.5,45,32.5z"/>
		<path fill="#72705B" d="M40,32.5c0.5,0,0.8-0.4,0.8-0.8c0-0.5-0.4-0.8-0.8-0.8c-0.5,0-0.8,0.4-0.8,0.8
			C39.2,32.1,39.5,32.5,40,32.5z"/>
		<path fill="#72705B" d="M47.5,35.8c0.5,0,0.8-0.4,0.8-0.8c0-0.5-0.4-0.8-0.8-0.8c-0.5,0-0.8,0.4-0.8,0.8
			C46.7,35.5,47,35.8,47.5,35.8z"/>
		<path fill="#72705B" d="M42.5,35.8c0.5,0,0.8-0.4,0.8-0.8c0-0.5-0.4-0.8-0.8-0.8c-0.5,0-0.8,0.4-0.8,0.8
			C41.7,35.5,42,35.8,42.5,35.8z"/>
		<path fill="#72705B" d="M45,39.2c0.5,0,0.8-0.4,0.8-0.8c0-0.5-0.4-0.8-0.8-0.8c-0.5,0-0.8,0.4-0.8,0.8
			C44.2,38.8,44.5,39.2,45,39.2z"/>
		<path fill="#72705B" d="M40,39.2c0.5,0,0.8-0.4,0.8-0.8c0-0.5-0.4-0.8-0.8-0.8c-0.5,0-0.8,0.4-0.8,0.8
			C39.2,38.8,39.5,39.2,40,39.2z"/>
		<path fill="#72705B" d="M47.5,42.5c0.5,0,0.8-0.4,0.8-0.8c0-0.5-0.4-0.8-0.8-0.8c-0.5,0-0.8,0.4-0.8,0.8
			C46.7,42.1,47,42.5,47.5,42.5z"/>
		<path fill="#72705B" d="M42.5,42.5c0.5,0,0.8-0.4,0.8-0.8c0-0.5-0.4-0.8-0.8-0.8c-0.5,0-0.8,0.4-0.8,0.8
			C41.7,42.1,42,42.5,42.5,42.5z"/>
		<path fill="#72705B" d="M37.5,42.5c0.5,0,0.8-0.4,0.8-0.8c0-0.5-0.4-0.8-0.8-0.8c-0.5,0-0.8,0.4-0.8,0.8
			C36.7,42.1,37,42.5,37.5,42.5z"/>
		<path fill="#72705B" d="M45,45.8c0.5,0,0.8-0.4,0.8-0.8c0-0.5-0.4-0.8-0.8-0.8c-0.5,0-0.8,0.4-0.8,0.8
			C44.2,45.5,44.5,45.8,45,45.8z"/>
		<path fill="#72705B" d="M40,45.8c0.5,0,0.8-0.4,0.8-0.8c0-0.5-0.4-0.8-0.8-0.8c-0.5,0-0.8,0.4-0.8,0.8
			C39.2,45.5,39.5,45.8,40,45.8z"/>
		<path fill="#72705B" d="M35,45.8c0.5,0,0.8-0.4,0.8-0.8c0-0.5-0.4-0.8-0.8-0.8c-0.5,0-0.8,0.4-0.8,0.8
			C34.2,45.5,34.5,45.8,35,45.8z"/>
		<path fill="#72705B" d="M30,45.8c0.5,0,0.8-0.4,0.8-0.8c0-0.5-0.4-0.8-0.8-0.8c-0.5,0-0.8,0.4-0.8,0.8
			C29.2,45.5,29.5,45.8,30,45.8z"/>
		<path fill="#72705B" d="M2.5,49.2c0.5,0,0.8-0.4,0.8-0.8c0-0.5-0.4-0.8-0.8-0.8s-0.8,0.4-0.8,0.8C1.7,48.8,2,49.2,2.5,49.2z"/>
		<path fill="#72705B" d="M7.5,49.2c0.5,0,0.8-0.4,0.8-0.8c0-0.5-0.4-0.8-0.8-0.8c-0.5,0-0.8,0.4-0.8,0.8C6.7,48.8,7,49.2,7.5,49.2z
			"/>
		<path fill="#72705B" d="M12.5,49.2c0.5,0,0.8-0.4,0.8-0.8c0-0.5-0.4-0.8-0.8-0.8c-0.5,0-0.8,0.4-0.8,0.8
			C11.7,48.8,12,49.2,12.5,49.2z"/>
		<path fill="#72705B" d="M17.5,49.2c0.5,0,0.8-0.4,0.8-0.8c0-0.5-0.4-0.8-0.8-0.8c-0.5,0-0.8,0.4-0.8,0.8
			C16.7,48.8,17,49.2,17.5,49.2z"/>
		<path fill="#72705B" d="M22.5,49.2c0.5,0,0.8-0.4,0.8-0.8c0-0.5-0.4-0.8-0.8-0.8c-0.5,0-0.8,0.4-0.8,0.8
			C21.7,48.8,22,49.2,22.5,49.2z"/>
		<path fill="#72705B" d="M42.5,49.2c0.5,0,0.8-0.4,0.8-0.8c0-0.5-0.4-0.8-0.8-0.8c-0.5,0-0.8,0.4-0.8,0.8
			C41.7,48.8,42,49.2,42.5,49.2z"/>
		<path fill="#72705B" d="M47.5,49.2c0.5,0,0.8-0.4,0.8-0.8c0-0.5-0.4-0.8-0.8-0.8c-0.5,0-0.8,0.4-0.8,0.8
			C46.7,48.8,47,49.2,47.5,49.2z"/>
		<path fill="#72705B" d="M37.5,49.2c0.5,0,0.8-0.4,0.8-0.8c0-0.5-0.4-0.8-0.8-0.8c-0.5,0-0.8,0.4-0.8,0.8
			C36.7,48.8,37,49.2,37.5,49.2z"/>
		<path fill="#72705B" d="M32.5,49.2c0.5,0,0.8-0.4,0.8-0.8c0-0.5-0.4-0.8-0.8-0.8c-0.5,0-0.8,0.4-0.8,0.8
			C31.7,48.8,32,49.2,32.5,49.2z"/>
		<path fill="#72705B" d="M27.5,49.2c0.5,0,0.8-0.4,0.8-0.8c0-0.5-0.4-0.8-0.8-0.8c-0.5,0-0.8,0.4-0.8,0.8
			C26.7,48.8,27,49.2,27.5,49.2z"/>
		<path fill="#72705B" d="M9.9,1.9c-2,2.6-5.6,8.6-5.6,11.7c0,2.8,1.5,5.5,3.9,6.9c2.5,1.4,5.5,1.4,7.9,0c2.5-1.4,4-4.1,3.9-6.9
			c0-3.1-3.7-9.2-5.6-11.7c-0.5-0.7-1.4-1.1-2.3-1.1C11.2,0.8,10.4,1.2,9.9,1.9z M12.1,20c-3.5,0-6.2-2.9-6.2-6.3
			C5.9,11.3,9,5.8,11.2,3c0.2-0.3,0.6-0.5,0.9-0.5c0.4,0,0.7,0.2,0.9,0.5c2.2,2.9,5.3,8.3,5.3,10.7C18.4,17.1,15.6,20,12.1,20z"/>
		<path fill="#72705B" d="M11.3,16.1c-0.7-0.1-1.4-0.5-1.7-1.2C9.3,14,9.4,13,9.8,12.1c0.2-0.4,0-0.9-0.4-1.1
			c-0.4-0.2-0.9,0-1.1,0.4c0,0.1-1.1,2.3-0.2,4.2c0.6,1.1,1.6,1.9,2.8,2.1c0.3,0.1,0.6,0,0.8-0.2c0.2-0.2,0.3-0.5,0.2-0.8
			C11.8,16.3,11.6,16.1,11.3,16.1L11.3,16.1z"/>
		<path fill="#72705B" d="M36.9,15.6c0.3,0.3,0.9,0.3,1.2,0l0.8-0.8c0.3-0.3,0.3-0.8,0-1.2c-0.3-0.3-0.8-0.3-1.2,0l-0.8,0.8
			C36.6,14.7,36.6,15.3,36.9,15.6z"/>
		<path fill="#72705B" d="M33.6,17.7l-0.8,0.8c-0.3,0.3-0.3,0.8,0,1.2c0.3,0.3,0.8,0.3,1.2,0l0.8-0.8c0.3-0.3,0.3-0.8,0-1.2
			C34.4,17.4,33.9,17.4,33.6,17.7z"/>
		<path fill="#72705B" d="M36.9,18.9c0.9,0.9,1,1.1,1.4,1.1c0.3,0,0.6-0.2,0.8-0.5c0.1-0.3,0.1-0.7-0.2-0.9l-0.8-0.8
			c-0.3-0.3-0.8-0.3-1.2,0C36.6,18.1,36.6,18.6,36.9,18.9z"/>
		<path fill="#72705B" d="M34.8,14.4l-0.8-0.8c-0.3-0.3-0.8-0.3-1.2,0c-0.3,0.3-0.3,0.8,0,1.2l0.8,0.8c0.3,0.3,0.8,0.3,1.2,0
			C35.1,15.3,35.1,14.7,34.8,14.4z"/>
		<path fill="#72705B" d="M42.5,6.7c0.4,0,0.6-0.2,1.4-1.1c0.2-0.2,0.3-0.5,0.2-0.8c-0.1-0.3-0.3-0.5-0.6-0.6
			c-0.3-0.1-0.6,0-0.8,0.2l-0.8,0.8c-0.2,0.2-0.3,0.6-0.2,0.9C41.9,6.5,42.2,6.7,42.5,6.7z"/>
		<path fill="#72705B" d="M37.7,10.6c0.3,0.3,0.9,0.3,1.2,0l0.8-0.8c0.3-0.3,0.3-0.8,0-1.2c-0.3-0.3-0.8-0.3-1.2,0l-0.8,0.8
			C37.4,9.7,37.4,10.3,37.7,10.6z"/>
		<path fill="#72705B" d="M41.9,9.8c0.9,0.9,1,1.1,1.4,1.1c0.3,0,0.6-0.2,0.8-0.5c0.1-0.3,0.1-0.7-0.2-0.9l-0.8-0.8
			c-0.3-0.3-0.8-0.3-1.2,0C41.6,8.9,41.6,9.4,41.9,9.8z"/>
		<path fill="#72705B" d="M38.6,6.4c0.3,0.3,0.8,0.3,1.2,0c0.3-0.3,0.3-0.8,0-1.2l-0.8-0.8c-0.3-0.3-0.8-0.3-1.2,0
			c-0.3,0.3-0.3,0.8,0,1.2L38.6,6.4z"/>
	</g>
</g>
</svg>
