<?xml version="1.0" encoding="utf-8"?>
<!-- Generator: Adobe Illustrator 25.2.3, SVG Export Plug-In . SVG Version: 6.00 Build 0)  -->
<svg version="1.1" id="圖層_1" xmlns="http://www.w3.org/2000/svg" xmlns:xlink="http://www.w3.org/1999/xlink" x="0px" y="0px"
	 viewBox="0 0 50 50" enable-background="new 0 0 50 50" xml:space="preserve">
<path fill="#72705B" d="M17.8,10.8c0-1.2-0.8-2.3-1.9-2.7c0.3-0.5,0.4-1,0.4-1.6c0-0.8-0.3-1.6-0.9-2.2c-1-1-2.6-1.2-3.8-0.5
	C11.2,2.8,10.1,2,8.9,2C7.7,2,6.6,2.8,6.2,3.9C5,3.2,3.4,3.3,2.4,4.4C1.8,5,1.5,5.7,1.5,6.6c0,0.6,0.2,1.1,0.4,1.6
	C0.8,8.6,0,9.6,0,10.8c0,1.2,0.8,2.3,1.9,2.7c-0.3,0.5-0.4,1-0.4,1.5c0,0.8,0.3,1.6,0.9,2.2c0.6,0.6,1.4,0.9,2.2,0.9
	c0.5,0,1.1-0.2,1.6-0.4c0.4,1.1,1.5,1.9,2.7,1.9c1.2,0,2.3-0.8,2.7-1.9c0.5,0.3,1,0.4,1.6,0.4c0.8,0,1.6-0.3,2.2-0.9
	c0.6-0.6,0.9-1.4,0.9-2.2c0-0.6-0.2-1.1-0.4-1.6C17,13.1,17.8,12.1,17.8,10.8z M11.8,5.2c0.7-0.7,1.9-0.7,2.7,0
	c0.4,0.4,0.6,0.8,0.6,1.3c0,0.5-0.2,1-0.6,1.3c-1,1-2.2,1.5-3.1,1.5c0,0,0-0.1-0.1-0.1l0.7-0.7c0.2-0.2,0.2-0.6,0-0.9
	c-0.2-0.2-0.6-0.2-0.9,0l-0.7,0.7c-0.1,0-0.1-0.1-0.2-0.1C10.3,7.5,10.7,6.3,11.8,5.2z M10.6,10.8c0,0.9-0.8,1.7-1.7,1.7
	s-1.7-0.7-1.7-1.7c0-0.9,0.8-1.7,1.7-1.7C9.8,9.2,10.6,9.9,10.6,10.8z M8.9,3.2c0.9,0,1.6,0.7,1.7,1.5c-0.9,1-1.4,2.1-1.5,3.2
	c-0.1,0-0.1,0-0.2,0c-0.1,0-0.1,0-0.2,0c-0.1-1-0.6-2.2-1.5-3.2C7.3,3.9,8,3.2,8.9,3.2z M3.3,5.2C4,4.5,5.2,4.5,6,5.2
	c1,1,1.5,2.2,1.5,3.1c0,0-0.1,0.1-0.2,0.1L6.6,7.7C6.4,7.4,6,7.4,5.7,7.7c-0.2,0.2-0.2,0.6,0,0.9l0.7,0.7c0,0-0.1,0.1-0.1,0.2
	c-0.9,0-2.1-0.5-3.1-1.5C2.9,7.6,2.7,7.1,2.7,6.6C2.7,6.1,2.9,5.6,3.3,5.2z M1.3,10.8C1.3,10,2,9.2,2.8,9.2C3.8,10,5,10.6,6,10.7
	c0,0.1,0,0.1,0,0.2C6,10.9,6,11,6,11c-1,0.1-2.2,0.6-3.2,1.5C2,12.4,1.3,11.7,1.3,10.8z M6,16.4c-0.7,0.7-1.9,0.7-2.7,0
	c-0.4-0.4-0.6-0.8-0.6-1.3c0-0.5,0.2-1,0.6-1.3c1-1,2.2-1.5,3.1-1.5c0,0,0,0.1,0.1,0.1l-0.7,0.7c-0.2,0.2-0.2,0.6,0,0.9
	c0.1,0.1,0.3,0.2,0.4,0.2c0.2,0,0.3-0.1,0.4-0.2l0.7-0.7c0.1,0,0.1,0.1,0.2,0.1C7.5,14.2,7.1,15.3,6,16.4z M8.9,18.4
	c-0.9,0-1.6-0.7-1.7-1.5c0.9-1,1.4-2.1,1.5-3.2c0.1,0,0.1,0,0.2,0c0.1,0,0.1,0,0.2,0c0.1,1,0.6,2.2,1.5,3.2
	C10.5,17.7,9.8,18.4,8.9,18.4z M14.5,16.4c-0.7,0.7-1.9,0.7-2.7,0c-1-1-1.5-2.2-1.5-3.1c0.1,0,0.1-0.1,0.2-0.1l0.7,0.7
	c0.1,0.1,0.3,0.2,0.4,0.2c0.2,0,0.3-0.1,0.4-0.2c0.2-0.2,0.2-0.6,0-0.9l-0.7-0.7c0,0,0.1-0.1,0.1-0.2c0.9,0,2.1,0.5,3.1,1.5
	c0.4,0.4,0.6,0.8,0.6,1.3C15.1,15.6,14.9,16.1,14.5,16.4z M15,12.5c-1-0.9-2.2-1.4-3.2-1.5c0-0.1,0-0.1,0-0.2c0-0.1,0-0.1,0-0.2
	c1-0.1,2.2-0.6,3.2-1.5c0.9,0.1,1.6,0.8,1.6,1.7C16.5,11.7,15.8,12.4,15,12.5z"/>
<path fill="#72705B" d="M48,28.7c0-1.2-0.8-2.3-1.9-2.7c0.3-0.5,0.4-1,0.4-1.5c0-0.8-0.3-1.6-0.9-2.2c-1-1-2.6-1.2-3.8-0.5
	c-0.4-1.1-1.5-1.9-2.7-1.9c-1.2,0-2.3,0.8-2.7,1.9c-1.2-0.7-2.8-0.5-3.8,0.5c-0.6,0.6-0.9,1.4-0.9,2.2c0,0.6,0.2,1.1,0.4,1.6
	c-1.1,0.4-1.9,1.5-1.9,2.7c0,1.2,0.8,2.3,1.9,2.7c-0.3,0.5-0.4,1-0.4,1.6c0,0.8,0.3,1.6,0.9,2.2c0.6,0.6,1.4,0.9,2.2,0.9
	c0.5,0,1.1-0.2,1.6-0.4c0.4,1.1,1.5,1.9,2.7,1.9c1.2,0,2.3-0.8,2.7-1.9c0.5,0.3,1,0.4,1.6,0.4c0.8,0,1.6-0.3,2.2-0.9
	c0.6-0.6,0.9-1.4,0.9-2.2c0-0.6-0.2-1.1-0.4-1.5C47.2,31,48,29.9,48,28.7z M42,23.1c0.7-0.7,1.9-0.7,2.7,0c0.4,0.4,0.6,0.8,0.6,1.3
	c0,0.5-0.2,1-0.6,1.3c-1,1-2.2,1.5-3.1,1.5c0,0,0-0.1-0.1-0.1l0.7-0.7c0.2-0.2,0.2-0.6,0-0.9c-0.2-0.2-0.6-0.2-0.9,0l-0.7,0.7
	c-0.1,0-0.1-0.1-0.2-0.1C40.5,25.4,40.9,24.2,42,23.1z M40.8,28.7c0,0.9-0.8,1.7-1.7,1.7c-0.9,0-1.7-0.7-1.7-1.7
	c0-0.9,0.8-1.7,1.7-1.7C40,27,40.8,27.8,40.8,28.7z M39.1,21.1c0.9,0,1.6,0.7,1.7,1.5c-0.9,1-1.4,2.1-1.5,3.2c-0.1,0-0.1,0-0.2,0
	c-0.1,0-0.1,0-0.2,0c-0.1-1-0.6-2.2-1.5-3.2C37.5,21.8,38.2,21.1,39.1,21.1z M33.5,23.1c0.7-0.7,1.9-0.7,2.7,0c1,1,1.5,2.2,1.5,3.1
	c0,0-0.1,0.1-0.2,0.1l-0.7-0.7c-0.2-0.2-0.6-0.2-0.9,0c-0.2,0.2-0.2,0.6,0,0.9l0.7,0.7c0,0-0.1,0.1-0.1,0.2c-0.9,0-2.1-0.5-3.1-1.5
	c-0.4-0.4-0.6-0.8-0.6-1.3C32.9,23.9,33.1,23.5,33.5,23.1z M31.5,28.7c0-0.9,0.7-1.6,1.5-1.7c1,0.9,2.2,1.4,3.2,1.5
	c0,0.1,0,0.1,0,0.2c0,0.1,0,0.1,0,0.2c-1,0.1-2.2,0.6-3.2,1.5C32.2,30.3,31.5,29.6,31.5,28.7z M36.2,34.3c-0.7,0.7-1.9,0.7-2.7,0
	c-0.4-0.4-0.6-0.8-0.6-1.3c0-0.5,0.2-1,0.6-1.3c1-1,2.2-1.5,3.1-1.5c0,0,0,0.1,0.1,0.1L35.9,31c-0.2,0.2-0.2,0.6,0,0.9
	c0.1,0.1,0.3,0.2,0.4,0.2c0.2,0,0.3-0.1,0.4-0.2l0.7-0.7c0.1,0,0.1,0.1,0.2,0.1C37.7,32,37.3,33.2,36.2,34.3z M39.1,36.3
	c-0.9,0-1.6-0.7-1.7-1.5c0.9-1,1.4-2.1,1.5-3.2c0.1,0,0.1,0,0.2,0c0.1,0,0.1,0,0.2,0c0.1,1,0.6,2.2,1.5,3.2
	C40.7,35.6,40,36.3,39.1,36.3z M44.7,34.3C44,35,42.8,35,42,34.3c-1-1-1.5-2.2-1.5-3.1c0.1,0,0.1-0.1,0.2-0.1l0.7,0.7
	c0.1,0.1,0.3,0.2,0.4,0.2c0.2,0,0.3-0.1,0.4-0.2c0.2-0.2,0.2-0.6,0-0.9l-0.7-0.7c0,0,0.1-0.1,0.1-0.2c0.9,0,2.1,0.5,3.1,1.5
	c0.4,0.4,0.6,0.8,0.6,1.3C45.3,33.5,45.1,33.9,44.7,34.3z M45.2,30.4c-1-0.9-2.1-1.4-3.2-1.5c0-0.1,0-0.1,0-0.2c0-0.1,0-0.1,0-0.2
	c1-0.1,2.2-0.6,3.2-1.5c0.9,0.1,1.6,0.8,1.6,1.7C46.7,29.6,46,30.3,45.2,30.4z"/>
<path fill="#72705B" d="M37.1,42.6c-2.3-1.6-5.2-1-6.2-0.7c-0.6-0.5-1.6-1.4-1.9-2.2c0,0,0-0.1,0-0.1c0.5-0.5,1.7-1.7,2.1-3
	c0.1-0.3-0.1-0.7-0.4-0.8c-0.3-0.1-0.7,0.1-0.8,0.4c-0.2,0.8-1.2,1.9-1.7,2.4c-1-0.2-4-0.5-6.1,1.3c-1.6,1.4-2.4,3.6-2.3,6.6
	c0,0.3,0.2,0.5,0.5,0.6c0.1,0,0.8,0.2,1.9,0.2c1.4,0,3.3-0.3,4.8-1.6c1.1-1,1.8-2.3,2-4c0.5,0.5,0.9,0.9,1.2,1.1
	c0.1,2.8,1,4.8,2.6,6c1.3,0.9,2.8,1.2,4,1.2c1.5,0,2.7-0.4,2.7-0.4c0.3-0.1,0.5-0.3,0.4-0.6C39.8,45.9,38.8,43.8,37.1,42.6z
	 M22.8,40.9c1.1-0.9,2.6-1.2,3.7-1.2c0.1,0,0.3,0,0.4,0L21,45.1C21.1,43.2,21.7,41.8,22.8,40.9z M26.1,44.8
	c-1.3,1.1-3.1,1.3-4.3,1.3l5.9-5.4C27.7,42.5,27.1,43.9,26.1,44.8z M33.5,47.8c-1.1-0.8-1.8-2.1-2-3.9l6.4,4.8
	C36.7,48.8,34.9,48.8,33.5,47.8z M32.2,42.8c1.1-0.2,2.8-0.2,4.2,0.8c1.1,0.8,1.9,2.1,2.2,4L32.2,42.8z"/>
<path fill="#72705B" d="M32.4,14.7c0-0.3-0.2-0.5-0.5-0.6c-3-0.7-5.3-0.4-6.9,1c-2.1,1.8-2.4,4.8-2.4,5.8c-0.6,0.4-1.8,1.1-2.6,1.2
	c0,0,0,0-0.1,0c-0.3-0.6-1.2-2.1-2.3-2.8c-0.3-0.2-0.7-0.1-0.9,0.2c-0.2,0.3-0.1,0.7,0.2,0.9c0.7,0.5,1.5,1.6,1.8,2.3
	c-0.4,0.9-1.6,3.7-0.4,6.2c0.9,2,2.8,3.3,5.8,4c0,0,0.1,0,0.1,0c0.2,0,0.4-0.1,0.6-0.3c0.1-0.1,1.9-3.7,0.5-6.8
	c-0.6-1.3-1.7-2.3-3.3-3c0.6-0.3,1.1-0.7,1.4-0.9c2.7,0.7,4.9,0.4,6.4-0.9C32.5,18.8,32.4,14.8,32.4,14.7z M19.5,28.3
	c-0.7-1.5-0.3-3.2,0-4.2l3.5,7.1C21.2,30.6,20,29.6,19.5,28.3z M24.1,26.2c0.7,1.5,0.4,3.3,0,4.5l-3.5-7.2
	C22.3,24.1,23.5,25,24.1,26.2z M25.8,16c0.9-0.7,2-1.1,3.3-1.1c0.3,0,0.7,0,1.1,0.1l-6.3,4.8C24.1,18.7,24.5,17.1,25.8,16z M29,20
	c-1.1,0.8-2.5,1.1-4.3,0.9L31,16C30.8,17.2,30.3,18.9,29,20z"/>
<path fill="#72705B" d="M49.3,8.4c-0.2-0.2-0.4-0.5-0.6-0.7c0.8-1.1,0.9-2.4,0.3-3.4c-0.6-1-1.8-1.6-3.1-1.5
	c-0.1-0.3-0.1-0.6-0.2-0.8c-0.4-0.9-1.1-1.6-2-1.8c-0.9-0.2-1.8,0-2.6,0.6c-0.2,0.2-0.5,0.4-0.7,0.6c-1.1-0.8-2.4-0.9-3.4-0.3
	c-1,0.6-1.6,1.8-1.5,3.1c-1.3,0.3-2.3,1.1-2.6,2.2C32.4,7.6,33,8.9,34,9.7c-0.8,1.1-0.9,2.4-0.3,3.4c0.6,1,1.6,1.5,2.8,1.5
	c0.1,0,0.2,0,0.3,0c0.1,0.3,0.1,0.6,0.2,0.8c0.4,0.9,1.1,1.6,2,1.8c0.2,0.1,0.5,0.1,0.7,0.1c0.7,0,1.3-0.2,1.9-0.7
	c0.2-0.2,0.5-0.4,0.7-0.6c0.6,0.4,1.3,0.7,2,0.7c0.5,0,1-0.1,1.4-0.4c1-0.6,1.6-1.8,1.5-3.1c1.3-0.3,2.3-1.1,2.6-2.2
	C50.1,10.1,49.9,9.2,49.3,8.4z M45.8,4.9c0.1-0.3,0.1-0.6,0.1-0.8c0.9-0.1,1.6,0.2,2,0.9c0.3,0.6,0.2,1.4-0.3,2.1
	c-0.2-0.1-0.5-0.2-0.8-0.3c-0.7-0.2-1.5-0.1-2.2,0C45.1,6.2,45.6,5.5,45.8,4.9z M40.6,3.5c0.2-0.7,0.6-1.4,1.1-1.8
	c0.5-0.4,1.1-0.5,1.6-0.4c0.5,0.1,0.9,0.5,1.2,1.1c0.3,0.6,0.3,1.4,0.1,2.1c-0.1,0.5-0.6,1.2-1.4,2c-0.3-0.3-0.7-0.5-1.1-0.6
	c-0.4-0.1-0.9-0.1-1.3,0C40.5,4.9,40.4,4,40.6,3.5z M37.5,2.1c0.6-0.4,1.4-0.3,2.1,0.3c-0.1,0.2-0.2,0.5-0.3,0.8
	c-0.2,0.7-0.1,1.5,0,2.2c-0.6-0.5-1.2-0.9-1.9-1.1c-0.3-0.1-0.6-0.1-0.8-0.1C36.6,3.3,36.9,2.5,37.5,2.1z M34,6.8
	c0.3-1.1,1.7-1.7,3.2-1.3c0.5,0.1,1.2,0.6,2,1.4c-0.3,0.3-0.5,0.7-0.6,1.1c-0.1,0.4-0.1,0.9,0,1.3c-1,0.3-1.8,0.4-2.4,0.2
	C34.6,9.1,33.7,7.8,34,6.8z M36.9,12.6c-0.1,0.3-0.1,0.6-0.1,0.8c-0.9,0.1-1.6-0.2-2-0.9c-0.3-0.6-0.2-1.4,0.3-2.1
	c0.2,0.1,0.5,0.2,0.8,0.3c0.3,0.1,0.6,0.1,1,0.1c0.4,0,0.9-0.1,1.3-0.1C37.5,11.2,37.1,11.9,36.9,12.6z M42.1,13.9
	c-0.2,0.7-0.6,1.4-1.1,1.8c-0.5,0.4-1.1,0.5-1.6,0.4c-0.5-0.1-0.9-0.5-1.2-1.1c-0.3-0.6-0.3-1.4-0.1-2.1c0.1-0.5,0.6-1.2,1.4-1.9
	c0.5,0.4,1.2,0.7,1.9,0.7c0.2,0,0.4,0,0.5-0.1C42.2,12.5,42.2,13.4,42.1,13.9z M42.2,10.1c-0.8,0.5-1.8,0.2-2.3-0.6
	c-0.2-0.4-0.3-0.8-0.2-1.3c0.1-0.4,0.4-0.8,0.8-1C40.8,7.1,41,7,41.3,7c0.1,0,0.3,0,0.4,0.1c0.4,0.1,0.8,0.4,1,0.8
	C43.2,8.7,43,9.7,42.2,10.1z M45.2,15.3c-0.6,0.4-1.4,0.3-2.1-0.3c0.1-0.2,0.2-0.5,0.3-0.8c0.2-0.7,0.1-1.5,0-2.2
	c0.6,0.5,1.2,0.9,1.9,1.1c0.3,0.1,0.6,0.1,0.8,0.1C46.1,14.2,45.8,14.9,45.2,15.3z M48.7,10.7c-0.3,1.1-1.7,1.7-3.2,1.3
	c-0.5-0.1-1.2-0.6-2-1.4c0.6-0.7,0.8-1.6,0.6-2.4c1-0.3,1.8-0.4,2.4-0.2c0.7,0.2,1.4,0.6,1.8,1.1C48.7,9.6,48.8,10.2,48.7,10.7z"/>
<path fill="#72705B" d="M16.7,38.4c-0.2-0.2-0.4-0.5-0.6-0.7c0.8-1.1,0.9-2.4,0.3-3.4c-0.6-1-1.8-1.6-3.1-1.5
	c-0.3-1.3-1.1-2.3-2.2-2.6c-0.9-0.2-1.8,0-2.6,0.6c-0.2,0.2-0.5,0.4-0.7,0.6c-1.1-0.8-2.4-0.9-3.4-0.3c-1,0.6-1.6,1.8-1.5,3.1
	c-1.3,0.3-2.3,1.1-2.6,2.2c-0.2,0.9,0,1.8,0.6,2.6c0.2,0.2,0.4,0.5,0.6,0.7c-0.8,1.1-0.9,2.4-0.3,3.4c0.6,1,1.6,1.5,2.8,1.5
	c0.1,0,0.2,0,0.3,0c0.1,0.3,0.1,0.6,0.2,0.8c0.4,0.9,1.1,1.6,2,1.8c0.2,0.1,0.5,0.1,0.7,0.1c0.7,0,1.3-0.2,1.9-0.7
	c0.2-0.2,0.5-0.4,0.7-0.6c0.6,0.4,1.3,0.7,2,0.7c0.5,0,1-0.1,1.4-0.4c1-0.6,1.6-1.8,1.5-3.1c1.3-0.3,2.3-1.1,2.6-2.2
	C17.5,40.2,17.3,39.3,16.7,38.4z M13.1,34.9c0.1-0.3,0.1-0.6,0.1-0.8c0.9-0.1,1.6,0.2,2,0.8c0.3,0.6,0.2,1.4-0.3,2.1
	c-0.2-0.1-0.5-0.2-0.8-0.3c-0.7-0.2-1.5-0.1-2.2,0C12.5,36.3,12.9,35.6,13.1,34.9z M7.9,33.6c0.2-0.7,0.6-1.4,1.1-1.8
	c0.5-0.4,1.1-0.5,1.6-0.4c1.1,0.3,1.7,1.7,1.3,3.2c-0.1,0.5-0.6,1.2-1.4,2c-0.3-0.3-0.7-0.5-1.1-0.6c-0.4-0.1-0.9-0.1-1.3,0
	C7.8,35,7.8,34.1,7.9,33.6z M4.8,32.2C5.5,31.9,6.3,32,7,32.5c-0.1,0.2-0.2,0.5-0.3,0.8c-0.2,0.7-0.1,1.5,0,2.2
	c-0.6-0.5-1.2-0.9-1.9-1.1c-0.3-0.1-0.6-0.1-0.8-0.1C3.9,33.3,4.2,32.6,4.8,32.2z M1.3,36.8c0.3-1.1,1.7-1.7,3.2-1.3
	c0.5,0.1,1.2,0.6,2,1.4C6.2,37.2,6,37.6,5.9,38c-0.1,0.4-0.1,0.9,0,1.3c-1,0.3-1.8,0.4-2.4,0.2c-0.7-0.2-1.4-0.6-1.8-1.1
	C1.3,37.9,1.2,37.3,1.3,36.8z M4.2,42.6c-0.1,0.3-0.1,0.6-0.1,0.8c-0.9,0.1-1.6-0.2-2-0.9c-0.3-0.6-0.2-1.4,0.3-2.1
	c0.2,0.1,0.5,0.2,0.8,0.3c0.3,0.1,0.6,0.1,1,0.1c0.4,0,0.9-0.1,1.3-0.1C4.9,41.3,4.4,42,4.2,42.6z M9.4,44c-0.2,0.7-0.6,1.4-1.1,1.8
	c-0.5,0.4-1.1,0.5-1.6,0.4c-0.5-0.1-0.9-0.5-1.2-1.1c-0.3-0.6-0.3-1.4-0.1-2.1c0.1-0.5,0.6-1.2,1.4-2c0.5,0.4,1.2,0.7,1.9,0.7
	c0.2,0,0.4,0,0.5-0.1C9.5,42.6,9.6,43.5,9.4,44z M10.3,39.2c-0.1,0.4-0.4,0.8-0.8,1c-0.8,0.5-1.8,0.2-2.3-0.6
	c-0.2-0.4-0.3-0.8-0.2-1.3c0.1-0.4,0.4-0.8,0.8-1c0.3-0.1,0.5-0.2,0.8-0.2c0.1,0,0.3,0,0.4,0.1c0.4,0.1,0.8,0.4,1,0.8
	C10.3,38.3,10.4,38.8,10.3,39.2z M12.5,45.4c-0.6,0.4-1.4,0.3-2.1-0.3c0.1-0.2,0.2-0.5,0.3-0.8c0.2-0.7,0.1-1.5,0-2.2
	c0.6,0.5,1.2,0.9,1.9,1.1c0.3,0.1,0.6,0.1,0.8,0.1C13.4,44.2,13.1,45,12.5,45.4z M16,40.7c-0.3,1.1-1.7,1.7-3.2,1.3
	c-0.5-0.1-1.2-0.6-2-1.4c0.3-0.3,0.5-0.7,0.6-1.1c0.1-0.4,0.1-0.9,0-1.3c1-0.3,1.8-0.4,2.4-0.2c0.7,0.2,1.4,0.6,1.8,1.1
	C16,39.7,16.2,40.2,16,40.7z"/>
</svg>
