<?xml version="1.0" encoding="utf-8"?>
<!-- Generator: Adobe Illustrator 25.2.3, SVG Export Plug-In . SVG Version: 6.00 Build 0)  -->
<svg version="1.1" id="圖層_1" xmlns="http://www.w3.org/2000/svg" xmlns:xlink="http://www.w3.org/1999/xlink" x="0px" y="0px"
	 viewBox="0 0 50 50" enable-background="new 0 0 50 50" xml:space="preserve">
<g>
	<defs>
		<rect id="SVGID_1_" y="0" width="50" height="50"/>
	</defs>
	<clipPath id="SVGID_2_">
		<use xlink:href="#SVGID_1_"  overflow="visible"/>
	</clipPath>
	<g clip-path="url(#SVGID_2_)">
		<path fill="#72705B" d="M23.3,46.9c0.4,0,0.7,0.3,0.7,0.7c0,0.4-0.3,0.7-0.7,0.7H3.6c-1,0-1.9-0.4-2.5-1c-0.6-0.6-1-1.5-1-2.5
			v-4.4c0-1,0.4-1.9,1-2.5c0.6-0.6,1.5-1,2.5-1h0.2v-6.2c0-0.8,0.2-1.5,0.6-2.1c0.4-0.6,1-1.1,1.7-1.4c0.3-0.1,0.5-0.2,0.7-0.4
			c0.1-0.1,0.1-0.3,0.1-0.5v-1.6H6.7C6,24.7,5.4,24.4,5,24c-0.4-0.4-0.7-1.1-0.7-1.7c0-0.7,0.3-1.3,0.7-1.7c0.4-0.4,1.1-0.7,1.7-0.7
			h6.4c0.7,0,1.3,0.3,1.7,0.7c0.4,0.4,0.7,1.1,0.7,1.7c0,0.7-0.3,1.3-0.7,1.7c-0.4,0.4-1.1,0.7-1.7,0.7h-0.2v1.6
			c0,0.2,0,0.3,0.1,0.5c0.1,0.1,0.4,0.3,0.7,0.4c0.7,0.3,1.3,0.8,1.7,1.4c0.4,0.6,0.6,1.3,0.6,2.1v6.2h2.8v-6.2
			c0-0.8,0.2-1.5,0.6-2.1c0.4-0.6,1-1.1,1.7-1.4c0.3-0.1,0.5-0.2,0.7-0.4c0.1-0.1,0.1-0.3,0.1-0.5v-1.6h-0.2c-0.7,0-1.3-0.3-1.7-0.7
			c-0.4-0.4-0.7-1.1-0.7-1.7c0-0.7,0.3-1.3,0.7-1.7c0.4-0.4,1-0.7,1.7-0.7h6.4c0.7,0,1.3,0.3,1.7,0.7c0.4,0.4,0.7,1.1,0.7,1.7
			c0,0.7-0.3,1.3-0.7,1.7c-0.4,0.4-1.1,0.7-1.7,0.7H28v1.6c0,0.2,0,0.3,0.1,0.5c0.1,0.1,0.4,0.3,0.7,0.4c0.7,0.3,1.3,0.8,1.7,1.4
			c0.4,0.6,0.6,1.3,0.6,2.1v6.2h2.8v-6.2c0-0.8,0.2-1.5,0.6-2.1c0.4-0.6,1-1.1,1.7-1.4c0.3-0.1,0.5-0.2,0.7-0.4
			c0.1-0.1,0.1-0.3,0.1-0.5v-1.6h-0.2c-0.7,0-1.3-0.3-1.7-0.7c-0.4-0.4-0.7-1.1-0.7-1.7c0-0.7,0.3-1.3,0.7-1.7
			c0.4-0.4,1.1-0.7,1.7-0.7h6.4c0.7,0,1.3,0.3,1.7,0.7c0.4,0.4,0.7,1.1,0.7,1.7c0,0.7-0.3,1.3-0.7,1.7c-0.4,0.4-1.1,0.7-1.7,0.7
			h-0.2v1.6c0,0.2,0,0.3,0.1,0.5c0.1,0.1,0.4,0.3,0.7,0.4c0.7,0.3,1.3,0.8,1.7,1.4c0.4,0.6,0.6,1.3,0.6,2.1v6.2h0.2
			c1,0,1.9,0.4,2.5,1c0.6,0.6,1,1.5,1,2.5v4.4c0,1-0.4,1.9-1,2.5c-0.6,0.6-1.5,1-2.5,1H26.7c-0.4,0-0.7-0.3-0.7-0.7
			c0-0.4,0.3-0.7,0.7-0.7h19.8c0.6,0,1.1-0.2,1.5-0.6c0.4-0.4,0.6-0.9,0.6-1.5v-4.4c0-0.6-0.2-1.1-0.6-1.5c-0.4-0.4-0.9-0.6-1.5-0.6
			c-14.3,0-28.6,0-42.8,0c-0.6,0-1.1,0.2-1.5,0.6c-0.4,0.4-0.6,0.9-0.6,1.5v4.4c0,0.6,0.2,1.1,0.6,1.5c0.4,0.4,0.9,0.6,1.5,0.6H23.3
			z M35.6,39.9h8.9c0.5,0,0.9,0.2,1.2,0.5c0.3,0.3,0.5,0.7,0.5,1.2v2c0,0.5-0.2,0.9-0.5,1.2c-0.3,0.3-0.7,0.5-1.2,0.5h-8.9
			c-0.5,0-0.9-0.2-1.2-0.5c-0.3-0.3-0.5-0.7-0.5-1.2v-2c0-0.5,0.2-0.9,0.5-1.2C34.7,40.1,35.2,39.9,35.6,39.9z M44.5,41.4h-8.9
			c-0.1,0-0.1,0-0.2,0.1c0,0-0.1,0.1-0.1,0.1v2c0,0.1,0,0.1,0.1,0.1c0,0,0.1,0.1,0.2,0.1h8.9c0.1,0,0.1,0,0.1-0.1
			c0,0,0.1-0.1,0.1-0.1v-2c0-0.1,0-0.1-0.1-0.1C44.6,41.4,44.6,41.4,44.5,41.4z M20.5,39.9h8.9c0.5,0,0.9,0.2,1.2,0.5
			c0.3,0.3,0.5,0.7,0.5,1.2v2c0,0.5-0.2,0.9-0.5,1.2c-0.3,0.3-0.7,0.5-1.2,0.5h-8.9c-0.5,0-0.9-0.2-1.2-0.5
			c-0.3-0.3-0.5-0.7-0.5-1.2v-2c0-0.5,0.2-0.9,0.5-1.2C19.7,40.1,20.1,39.9,20.5,39.9z M29.5,41.4h-8.9c-0.1,0-0.1,0-0.2,0.1
			c0,0-0.1,0.1-0.1,0.1v2c0,0.1,0,0.1,0.1,0.1c0,0,0.1,0.1,0.2,0.1h8.9c0.1,0,0.1,0,0.1-0.1c0,0,0.1-0.1,0.1-0.1v-2
			c0-0.1,0-0.1-0.1-0.1C29.6,41.4,29.5,41.4,29.5,41.4z M5.5,39.9h8.9c0.5,0,0.9,0.2,1.2,0.5c0.3,0.3,0.5,0.7,0.5,1.2v2
			c0,0.5-0.2,0.9-0.5,1.2c-0.3,0.3-0.7,0.5-1.2,0.5H5.5c-0.5,0-0.9-0.2-1.2-0.5c-0.3-0.3-0.5-0.7-0.5-1.2v-2c0-0.5,0.2-0.9,0.5-1.2
			C4.6,40.1,5,39.9,5.5,39.9z M14.4,41.4H5.5c-0.1,0-0.1,0-0.2,0.1c0,0-0.1,0.1-0.1,0.1v2c0,0.1,0,0.1,0.1,0.1c0,0,0.1,0.1,0.2,0.1
			h8.9c0.1,0,0.1,0,0.2-0.1c0,0,0.1-0.1,0.1-0.1v-2c0-0.1,0-0.1-0.1-0.1C14.5,41.4,14.4,41.4,14.4,41.4z M25,4.3
			c0.6,0,1.2,0.3,1.6,0.7c0.4,0.4,0.7,1,0.7,1.6c0,0.6-0.3,1.2-0.7,1.6C26.2,8.7,25.6,9,25,9c-0.6,0-1.2-0.3-1.6-0.7
			c-0.4-0.4-0.7-1-0.7-1.6c0-0.6,0.3-1.2,0.7-1.6C23.8,4.6,24.4,4.3,25,4.3z M25.6,6.1c-0.2-0.2-0.4-0.3-0.6-0.3
			c-0.2,0-0.5,0.1-0.6,0.3c-0.2,0.2-0.3,0.4-0.3,0.6c0,0.2,0.1,0.5,0.3,0.6c0.2,0.2,0.4,0.3,0.6,0.3c0.2,0,0.5-0.1,0.6-0.3
			c0.2-0.2,0.3-0.4,0.3-0.6C25.9,6.4,25.8,6.2,25.6,6.1z M25.7,15.4v1.1c0,0.4-0.3,0.7-0.7,0.7s-0.7-0.3-0.7-0.7v-1.1H24
			c-0.9,0-1.7-0.8-1.7-1.7v-2h-2.1c-0.7,0-1.4-0.3-1.9-0.8c-0.3-0.3-0.6-0.8-0.7-1.3h-6c-0.4,0-0.7-0.3-0.7-0.7
			c0-0.4,0.3-0.7,0.7-0.7h5.9V5.1H1.7c-0.1,0-0.2,0.1-0.2,0.2V8c0,0.1,0.1,0.2,0.2,0.2h6.6c0.4,0,0.7,0.3,0.7,0.7
			c0,0.4-0.3,0.7-0.7,0.7H1.7C0.8,9.7,0,9,0,8V5.3c0-0.9,0.8-1.7,1.7-1.7h15.9c0.1-0.5,0.4-0.9,0.7-1.3c0.5-0.5,1.1-0.8,1.9-0.8h9.6
			c0.7,0,1.4,0.3,1.9,0.8c0.3,0.3,0.6,0.8,0.7,1.3h6c0.4,0,0.7,0.3,0.7,0.7c0,0.4-0.3,0.7-0.7,0.7h-5.9v3.1h15.9
			c0.1,0,0.2-0.1,0.2-0.2V5.3c0-0.1-0.1-0.2-0.2-0.2h-6.6c-0.4,0-0.7-0.3-0.7-0.7c0-0.4,0.3-0.7,0.7-0.7h6.6c0.9,0,1.7,0.8,1.7,1.7
			V8c0,0.9-0.8,1.7-1.7,1.7H32.4c-0.1,0.5-0.4,0.9-0.7,1.3c-0.5,0.5-1.1,0.8-1.9,0.8h-2.2v2c0,0.9-0.8,1.7-1.7,1.7H25.7z M26.2,13.7
			v-2h-2.4v2c0,0.1,0.1,0.2,0.2,0.2h1h1C26.1,13.9,26.2,13.8,26.2,13.7z M44.7,34.9h-2.4c-0.4,0-0.7-0.3-0.7-0.7
			c0-0.8-0.7-1.5-1.5-1.5c-0.4,0-0.8,0.2-1.1,0.4c-0.3,0.3-0.4,0.6-0.4,1.1c0,0.4-0.3,0.7-0.7,0.7h-2.4v2h9.3L44.7,34.9L44.7,34.9z
			 M35.4,33.4h1.8c0.1-0.5,0.4-1,0.8-1.4c0.5-0.5,1.3-0.9,2.1-0.9c1.4,0,2.5,1,2.9,2.2h1.8v-2.7c0-0.5-0.1-0.9-0.4-1.3
			c-0.3-0.4-0.6-0.7-1.1-0.9c-0.4-0.2-0.8-0.4-1.1-0.7c-0.4-0.4-0.6-0.9-0.6-1.5v-1.6h-3.1v1.6c0,0.6-0.2,1.1-0.6,1.5
			c-0.3,0.3-0.7,0.5-1.1,0.7c-0.4,0.2-0.8,0.5-1.1,0.9c-0.2,0.4-0.4,0.8-0.4,1.3L35.4,33.4L35.4,33.4z M29.7,34.9h-2.4
			c-0.4,0-0.7-0.3-0.7-0.7c0-0.8-0.7-1.5-1.5-1.5c-0.4,0-0.8,0.2-1.1,0.4c-0.3,0.3-0.4,0.6-0.4,1.1c0,0.4-0.3,0.7-0.7,0.7h-2.4v2
			h9.3L29.7,34.9L29.7,34.9z M20.3,33.4h1.8c0.1-0.5,0.4-1,0.8-1.4c0.5-0.5,1.3-0.9,2.1-0.9c1.4,0,2.5,1,2.9,2.2h1.8v-2.7
			c0-0.5-0.1-0.9-0.4-1.3c-0.3-0.4-0.6-0.7-1.1-0.9c-0.4-0.2-0.8-0.4-1.1-0.7c-0.4-0.4-0.6-0.9-0.6-1.5v-1.6h-3.1v1.6
			c0,0.6-0.2,1.1-0.6,1.5c-0.3,0.3-0.7,0.5-1.1,0.7c-0.4,0.2-0.8,0.5-1.1,0.9c-0.2,0.4-0.4,0.8-0.4,1.3L20.3,33.4L20.3,33.4z
			 M14.6,34.9h-2.4c-0.4,0-0.7-0.3-0.7-0.7c0-0.8-0.7-1.5-1.5-1.5c-0.8,0-1.5,0.7-1.5,1.5c0,0.4-0.3,0.7-0.7,0.7H5.3v2h9.3V34.9z
			 M5.3,33.4h1.8c0.3-1.3,1.5-2.2,2.9-2.2c1.4,0,2.5,1,2.9,2.2h1.8v-2.7c0-0.5-0.1-0.9-0.4-1.3c-0.3-0.4-0.6-0.7-1.1-0.9
			c-0.4-0.2-0.8-0.4-1.1-0.7c-0.4-0.4-0.6-0.9-0.6-1.5v-1.6H8.4v1.6c0,0.7-0.2,1.1-0.6,1.5c-0.3,0.3-0.7,0.5-1.1,0.7
			c-0.4,0.2-0.8,0.5-1.1,0.9c-0.2,0.4-0.4,0.8-0.4,1.3V33.4z M29.8,3.1h-9.6c-0.3,0-0.6,0.1-0.8,0.3C19.2,3.6,19,3.9,19,4.2v4.9
			c0,0.3,0.1,0.6,0.3,0.8c0.2,0.2,0.5,0.3,0.8,0.3h9.6c0.3,0,0.6-0.1,0.8-0.3C30.8,9.7,31,9.4,31,9.1V4.2c0-0.3-0.1-0.6-0.3-0.8
			C30.4,3.2,30.1,3.1,29.8,3.1z M37.8,23.2h4.6h0.9c0.3,0,0.5-0.1,0.7-0.3c0.2-0.2,0.3-0.4,0.3-0.7c0-0.3-0.1-0.5-0.3-0.7
			c-0.2-0.2-0.4-0.3-0.7-0.3h-6.4c-0.3,0-0.5,0.1-0.7,0.3c-0.2,0.2-0.3,0.4-0.3,0.7c0,0.3,0.1,0.5,0.3,0.7c0.2,0.2,0.4,0.3,0.7,0.3
			H37.8z M22.7,23.2h4.6h0.9c0.3,0,0.5-0.1,0.7-0.3c0.2-0.2,0.3-0.4,0.3-0.7c0-0.3-0.1-0.5-0.3-0.7c-0.2-0.2-0.4-0.3-0.7-0.3h-6.4
			c-0.3,0-0.5,0.1-0.7,0.3c-0.2,0.2-0.3,0.4-0.3,0.7c0,0.3,0.1,0.5,0.3,0.7c0.2,0.2,0.4,0.3,0.7,0.3H22.7z M7.7,23.2h4.5h0.9
			c0.3,0,0.5-0.1,0.7-0.3c0.2-0.2,0.3-0.4,0.3-0.7c0-0.3-0.1-0.5-0.3-0.7c-0.2-0.2-0.4-0.3-0.7-0.3H6.7c-0.3,0-0.5,0.1-0.7,0.3
			c-0.2,0.2-0.3,0.4-0.3,0.7c0,0.3,0.1,0.5,0.3,0.7c0.2,0.2,0.4,0.3,0.7,0.3H7.7z"/>
	</g>
</g>
</svg>
