<?xml version="1.0" encoding="utf-8"?>
<!-- Generator: Adobe Illustrator 25.2.3, SVG Export Plug-In . SVG Version: 6.00 Build 0)  -->
<svg version="1.1" id="圖層_1" xmlns="http://www.w3.org/2000/svg" xmlns:xlink="http://www.w3.org/1999/xlink" x="0px" y="0px"
	 viewBox="0 0 50 50" enable-background="new 0 0 50 50" xml:space="preserve">
<g>
	<defs>
		<rect id="SVGID_1_" y="0" width="50" height="50"/>
	</defs>
	<clipPath id="SVGID_2_">
		<use xlink:href="#SVGID_1_"  overflow="visible"/>
	</clipPath>
	<g clip-path="url(#SVGID_2_)">
		<path fill="#72705B" d="M30.3,5.9c0-0.5-0.2-0.9-0.5-1.3C29.4,4.2,28.9,4,28.4,4h-1.7c-0.4,0-0.8-0.2-1-0.4
			c-0.2-0.2-0.3-0.5-0.4-0.8c-0.1-0.4-0.3-0.8-0.7-1c-0.3-0.2-0.7-0.4-1.1-0.4h-6.2c-0.4,0-0.8,0.1-1.1,0.4
			c-0.4,0.3-0.6,0.8-0.7,1.1C15.4,3.7,15.3,4,14.3,4h-1.7c-0.5,0-1,0.2-1.3,0.5c-0.3,0.3-0.5,0.8-0.5,1.3c0,0.5,0.2,1,0.5,1.3
			c0.3,0.3,0.8,0.5,1.3,0.5h15.8c0.5,0,1-0.2,1.3-0.5C30,6.8,30.3,6.4,30.3,5.9z M12.5,45.7c-0.4,0-0.7-0.3-0.7-0.7
			c0-0.4,0.3-0.7,0.7-0.7h12.2c0.4,0,0.7,0.3,0.7,0.7c0,0.4-0.3,0.7-0.7,0.7H12.5z M10.1,42.8c-0.4,0-0.7-0.3-0.7-0.7
			c0-0.4,0.3-0.7,0.7-0.7h14.7c0.4,0,0.7,0.3,0.7,0.7c0,0.4-0.3,0.7-0.7,0.7H10.1z M10.1,40c-0.4,0-0.7-0.3-0.7-0.7
			c0-0.4,0.3-0.7,0.7-0.7h14.7c0.4,0,0.7,0.3,0.7,0.7c0,0.4-0.3,0.7-0.7,0.7H10.1z M10.1,37.1c-0.4,0-0.7-0.3-0.7-0.7
			c0-0.4,0.3-0.7,0.7-0.7h14.7c0.4,0,0.7,0.3,0.7,0.7c0,0.4-0.3,0.7-0.7,0.7H10.1z M16.3,34.3c-0.4,0-0.7-0.3-0.7-0.7
			c0-0.4,0.3-0.7,0.7-0.7h8.4c0.4,0,0.7,0.3,0.7,0.7c0,0.4-0.3,0.7-0.7,0.7H16.3z M14.4,15.7c0.7,0,1.3,0.3,1.8,0.7l1.8-1
			c0-0.2-0.1-0.4-0.1-0.6c0-0.7,0.3-1.4,0.8-1.8c0.5-0.5,1.1-0.8,1.8-0.8c0.7,0,1.4,0.3,1.8,0.8c0.5,0.5,0.8,1.1,0.8,1.8
			c0,0.2,0,0.4-0.1,0.6l1.8,1c0.5-0.4,1.1-0.7,1.8-0.7c0.7,0,1.4,0.3,1.8,0.8c0.5,0.5,0.8,1.1,0.8,1.8c0,0.7-0.3,1.4-0.8,1.8
			c-0.3,0.3-0.7,0.5-1.1,0.7v2c0.4,0.1,0.8,0.4,1.1,0.7c0.5,0.5,0.8,1.1,0.8,1.8c0,0.7-0.3,1.4-0.8,1.8c-0.5,0.5-1.1,0.8-1.8,0.8
			c-0.7,0-1.3-0.3-1.8-0.7l-1.8,1c0,0.2,0.1,0.4,0.1,0.6c0,0.7-0.3,1.4-0.8,1.8c-0.5,0.5-1.1,0.8-1.8,0.8c-0.7,0-1.4-0.3-1.8-0.8
			c-0.5-0.5-0.8-1.1-0.8-1.8c0-0.2,0-0.4,0.1-0.6l-1.8-1c-0.5,0.4-1.1,0.7-1.8,0.7c-0.7,0-1.4-0.3-1.8-0.8c-0.5-0.5-0.8-1.1-0.8-1.8
			c0-0.7,0.3-1.4,0.8-1.8c0.3-0.3,0.7-0.5,1.1-0.7v-2c-0.4-0.1-0.8-0.4-1.1-0.7c-0.5-0.5-0.8-1.1-0.8-1.8c0-0.7,0.3-1.4,0.8-1.8
			C13,16,13.7,15.7,14.4,15.7z M17,17.7c0,0.2,0.1,0.4,0.1,0.6c0,0.7-0.3,1.4-0.8,1.8c-0.3,0.3-0.7,0.5-1.1,0.7v2
			c0.4,0.1,0.8,0.4,1.1,0.7c0.5,0.5,0.8,1.1,0.8,1.8c0,0.2,0,0.4-0.1,0.6l1.8,1c0.5-0.4,1.1-0.7,1.8-0.7c0.7,0,1.3,0.3,1.8,0.7
			l1.8-1c0-0.2-0.1-0.4-0.1-0.6c0-0.7,0.3-1.4,0.8-1.8c0.3-0.3,0.7-0.5,1.1-0.7v-2c-0.4-0.1-0.8-0.4-1.1-0.7
			C24.3,19.6,24,19,24,18.3c0-0.2,0-0.4,0.1-0.6l-1.8-1c-0.5,0.4-1.1,0.7-1.8,0.7c-0.7,0-1.3-0.3-1.8-0.7L17,17.7z M15.2,17.5
			c-0.2-0.2-0.5-0.3-0.8-0.3c-0.3,0-0.6,0.1-0.8,0.3c-0.2,0.2-0.3,0.5-0.3,0.8c0,0.3,0.1,0.6,0.3,0.8c0.2,0.2,0.5,0.3,0.8,0.3
			c0.3,0,0.6-0.1,0.8-0.3c0.2-0.2,0.3-0.5,0.3-0.8C15.6,18,15.4,17.7,15.2,17.5z M21.3,13.9c-0.2-0.2-0.5-0.3-0.8-0.3
			c-0.3,0-0.6,0.1-0.8,0.3c-0.2,0.2-0.3,0.5-0.3,0.8c0,0.3,0.1,0.6,0.3,0.8c0.2,0.2,0.5,0.3,0.8,0.3c0.3,0,0.6-0.1,0.8-0.3
			c0.2-0.2,0.3-0.5,0.3-0.8C21.7,14.4,21.5,14.2,21.3,13.9z M27.4,17.5c-0.2-0.2-0.5-0.3-0.8-0.3c-0.3,0-0.6,0.1-0.8,0.3
			c-0.2,0.2-0.3,0.5-0.3,0.8c0,0.3,0.1,0.6,0.3,0.8c0.2,0.2,0.5,0.3,0.8,0.3c0.3,0,0.6-0.1,0.8-0.3c0.2-0.2,0.3-0.5,0.3-0.8
			C27.8,18,27.6,17.7,27.4,17.5z M26.6,26.5c0.3,0,0.6-0.1,0.8-0.3c0.2-0.2,0.3-0.5,0.3-0.8c0-0.3-0.1-0.6-0.3-0.8
			c-0.2-0.2-0.5-0.3-0.8-0.3c-0.3,0-0.6,0.1-0.8,0.3c-0.2,0.2-0.3,0.5-0.3,0.8c0,0.3,0.1,0.6,0.3,0.8S26.3,26.5,26.6,26.5z M20.5,30
			c0.3,0,0.6-0.1,0.8-0.3c0.2-0.2,0.3-0.5,0.3-0.8c0-0.3-0.1-0.6-0.3-0.8c-0.2-0.2-0.5-0.3-0.8-0.3c-0.3,0-0.6,0.1-0.8,0.3
			c-0.2,0.2-0.3,0.5-0.3,0.8c0,0.3,0.1,0.6,0.3,0.8C19.9,29.9,20.2,30,20.5,30z M14.4,26.5c0.3,0,0.6-0.1,0.8-0.3
			c0.2-0.2,0.3-0.5,0.3-0.8c0-0.3-0.1-0.6-0.3-0.8c-0.2-0.2-0.5-0.3-0.8-0.3c-0.3,0-0.6,0.1-0.8,0.3c-0.2,0.2-0.3,0.5-0.3,0.8
			c0,0.3,0.1,0.6,0.3,0.8C13.8,26.3,14.1,26.5,14.4,26.5z M31.2,39.6c0.4,0,0.7,0.3,0.7,0.7c0,0.4-0.3,0.7-0.7,0.7h-2.4
			c0.2,2,1.1,3.8,2.4,5.1c1.5,1.5,3.5,2.4,5.8,2.4c2.3,0,4.3-0.9,5.8-2.4c1.3-1.3,2.2-3.1,2.4-5.1H34.5c-0.4,0-0.7-0.3-0.7-0.7
			c0-0.4,0.3-0.7,0.7-0.7h10.6C45,38.3,44.6,37.1,44,36c-0.8-1.3-1.9-2.3-3.2-3c-0.6-0.3-0.9-0.6-1.2-1c-0.2-0.4-0.3-0.8-0.3-1.4
			v-6.7h-4.8v6.7c0,0.6-0.1,1.1-0.3,1.5c-0.2,0.4-0.6,0.7-1.1,0.9c-1.3,0.7-2.4,1.8-3.2,3c-0.6,1-1,2.2-1.1,3.5L31.2,39.6L31.2,39.6
			z M46.6,40.3c0,2.6-1,5-2.8,6.9C42.1,48.9,39.6,50,37,50H7.2c-1.1,0-2-0.4-2.7-1.1c-0.7-0.7-1.1-1.7-1.1-2.7v-2.4
			c0-0.4,0.3-0.7,0.7-0.7c0.4,0,0.7,0.3,0.7,0.7v2.4c0,0.7,0.3,1.3,0.7,1.7c0.4,0.4,1,0.7,1.7,0.7h24.6c-0.6-0.4-1.2-0.9-1.7-1.4
			c-1.8-1.8-2.8-4.2-2.8-6.9c0-1.8,0.5-3.5,1.4-5c0.9-1.5,2.2-2.7,3.8-3.6c0.3-0.2,0.5-0.3,0.6-0.4c0.1-0.1,0.1-0.3,0.1-0.7v-6.8
			c-0.3-0.1-0.6-0.3-0.9-0.6c-0.4-0.4-0.7-1-0.7-1.6c0-0.6,0.3-1.2,0.7-1.6c0.4-0.4,1-0.7,1.6-0.7h2.4v-5.6c0-0.4,0.3-0.7,0.7-0.7
			c0.4,0,0.7,0.3,0.7,0.7v5.6h2.4c0.6,0,1.2,0.3,1.6,0.7c0.4,0.4,0.7,1,0.7,1.6c0,0.6-0.3,1.2-0.7,1.6c-0.2,0.2-0.6,0.4-0.9,0.6v6.8
			c0,0.4,0,0.6,0.1,0.7c0.1,0.1,0.2,0.2,0.6,0.4c1.6,0.8,2.9,2.1,3.8,3.6C46.1,36.8,46.6,38.5,46.6,40.3z M40.1,22.5
			c0.2,0,0.4-0.1,0.6-0.2c0.2-0.2,0.2-0.4,0.2-0.6c0-0.2-0.1-0.4-0.2-0.6c-0.1-0.2-0.4-0.2-0.6-0.2H37h-3.1c-0.2,0-0.4,0.1-0.6,0.2
			c-0.2,0.2-0.2,0.4-0.2,0.6c0,0.2,0.1,0.4,0.2,0.6c0.1,0.1,0.4,0.2,0.6,0.2H40.1z M31.6,5.1h2.2c1.1,0,2,0.4,2.7,1.1
			C37.3,7,37.7,7.9,37.7,9v1.4c0,0.4-0.3,0.7-0.7,0.7c-0.4,0-0.7-0.3-0.7-0.7V9c0-0.7-0.3-1.3-0.7-1.7c-0.4-0.4-1-0.7-1.7-0.7h-2.2
			c-0.1,0.6-0.5,1.2-0.9,1.6c-0.6,0.6-1.4,1-2.3,1H12.6c-0.9,0-1.7-0.4-2.3-1c-0.4-0.4-0.7-1-0.9-1.6H7.2C6.6,6.6,6,6.9,5.5,7.3
			C5.1,7.7,4.8,8.3,4.8,9v31.4c0,0.4-0.3,0.7-0.7,0.7c-0.4,0-0.7-0.3-0.7-0.7V9c0-1.1,0.4-2,1.1-2.7c0.7-0.7,1.7-1.1,2.7-1.1h2.2
			C9.5,4.5,9.9,4,10.3,3.5c0.6-0.6,1.4-1,2.3-1h1.6c0.2-0.7,0.6-1.4,1.2-1.9c0.6-0.4,1.3-0.7,2-0.7h6.2c0.8,0,1.5,0.3,2,0.7
			c0.6,0.5,1,1.1,1.2,1.9h1.6c0.9,0,1.7,0.4,2.3,1C31.2,4,31.5,4.5,31.6,5.1z"/>
	</g>
</g>
</svg>
