<?xml version="1.0" encoding="utf-8"?>
<!-- Generator: Adobe Illustrator 25.2.3, SVG Export Plug-In . SVG Version: 6.00 Build 0)  -->
<svg version="1.1" id="圖層_1" xmlns="http://www.w3.org/2000/svg" xmlns:xlink="http://www.w3.org/1999/xlink" x="0px" y="0px"
	 viewBox="0 0 50 50" enable-background="new 0 0 50 50" xml:space="preserve">
<path fill="#72705B" d="M44.2,39.5c-0.3-0.3-0.7-0.4-1.1-0.5c-0.4-0.1-0.8-0.1-1.2,0.1l-10.7,3.2h-5.9L21,39.8h7.9
	c0.2,0,0.4-0.1,0.6-0.2s0.2-0.3,0.2-0.6v-2.3c0-0.2-0.1-0.4-0.2-0.6l-1.6-1.6c-0.1-0.1-0.2-0.2-0.4-0.2L15.8,32c-0.1,0-0.1,0-0.2,0
	h-4.7c-0.1,0-0.2,0-0.3,0.1l-2.8,1.1V32c0-0.2-0.1-0.4-0.2-0.5c-0.1-0.1-0.3-0.2-0.5-0.3l-4.7-0.8c-0.1,0-0.2,0-0.3,0
	c-0.1,0-0.2,0.1-0.3,0.2c-0.1,0.1-0.2,0.2-0.2,0.3c0,0.1-0.1,0.2-0.1,0.3v15.6c0,0.2,0.1,0.4,0.2,0.6c0.1,0.1,0.3,0.2,0.6,0.2
	c0,0,0.1,0,0.1,0l4.7-0.8c0.2,0,0.4-0.1,0.5-0.3c0.1-0.1,0.2-0.3,0.2-0.5v-0.8H10l9.2,3.1c0.1,0,0.2,0,0.2,0h11.7c0.1,0,0.2,0,0.3,0
	l12-4.2c0.5-0.2,1-0.5,1.3-1c0.3-0.5,0.5-1,0.5-1.6c0-0.4-0.1-0.8-0.3-1.2C44.8,40,44.6,39.7,44.2,39.5z M6.2,45.4L3.1,46V32.2
	l3.1,0.5V45.4z M43,42.7l-11.9,4.2H19.7l-9.2-3.1c-0.1,0-0.2,0-0.2,0H7.8v-8.8l3.3-1.3h4.5L27,35.9l1.2,1.2v1.2H18
	c-0.2,0-0.3,0.1-0.5,0.2c-0.1,0.1-0.2,0.3-0.3,0.4c0,0.2,0,0.3,0,0.5c0.1,0.2,0.2,0.3,0.3,0.4l7,3.9c0.1,0.1,0.2,0.1,0.4,0.1h6.2
	c0.1,0,0.1,0,0.2,0l10.8-3.2c0.2-0.1,0.3-0.1,0.5,0c0.2,0,0.3,0.1,0.5,0.2c0.2,0.1,0.3,0.3,0.4,0.5c0.1,0.2,0.1,0.4,0.1,0.6
	c0,0.2-0.1,0.4-0.2,0.5C43.4,42.5,43.2,42.6,43,42.7z"/>
<path fill="#72705B" d="M25,31.2c6.9,0,12.5-7.4,12.5-16.4V5.5c0-0.2-0.1-0.3-0.2-0.5c-0.1-0.1-0.3-0.2-0.4-0.3L25.2,1.6
	c-0.1,0-0.3,0-0.4,0L13.1,4.7c-0.2,0-0.3,0.1-0.4,0.3c-0.1,0.1-0.2,0.3-0.2,0.5v9.4C12.5,23.9,18.1,31.2,25,31.2z M14.1,6.1L25,3.2
	l10.9,2.9v8.8C35.9,23,31,29.7,25,29.7S14.1,23,14.1,14.8V6.1z"/>
<path fill="#72705B" d="M21.9,19.5v2.3c0,0.4,0.2,0.8,0.5,1.1c0.3,0.3,0.7,0.5,1.1,0.5h3.1c0.4,0,0.8-0.2,1.1-0.5
	c0.3-0.3,0.5-0.7,0.5-1.1v-2.3h2.3c0.4,0,0.8-0.2,1.1-0.5c0.3-0.3,0.5-0.7,0.5-1.1v-3.1c0-0.4-0.2-0.8-0.5-1.1
	c-0.3-0.3-0.7-0.5-1.1-0.5h-2.3v-2.3c0-0.4-0.2-0.8-0.5-1.1c-0.3-0.3-0.7-0.5-1.1-0.5h-3.1c-0.4,0-0.8,0.2-1.1,0.5
	c-0.3,0.3-0.5,0.7-0.5,1.1v2.3h-2.3c-0.4,0-0.8,0.2-1.1,0.5C18.1,14,18,14.4,18,14.8V18c0,0.4,0.2,0.8,0.5,1.1
	c0.3,0.3,0.7,0.5,1.1,0.5H21.9z M19.5,14.8h2.3c0.4,0,0.8-0.2,1.1-0.5c0.3-0.3,0.5-0.7,0.5-1.1v-2.3h3.1v2.3c0,0.4,0.2,0.8,0.5,1.1
	c0.3,0.3,0.7,0.5,1.1,0.5h2.3V18h-2.3c-0.4,0-0.8,0.2-1.1,0.5c-0.3,0.3-0.5,0.7-0.5,1.1v2.3h-3.1v-2.3c0-0.4-0.2-0.8-0.5-1.1
	c-0.3-0.3-0.7-0.5-1.1-0.5h-2.3V14.8z"/>
<path fill="#72705B" d="M40.6,6.2h1.6V4.7h1.6V3.1h-1.6V1.6h-1.6v1.6h-1.6v1.6h1.6V6.2z"/>
<path fill="#72705B" d="M48.4,7.8h-1.6V6.2h-1.6v1.6h-1.6v1.6h1.6v1.6h1.6V9.4h1.6V7.8z"/>
<path fill="#72705B" d="M37.5,25.8v1.6h-1.6v1.6h1.6v1.6h1.6v-1.6h1.6v-1.6h-1.6v-1.6H37.5z"/>
<path fill="#72705B" d="M43.8,21.1h-1.6v1.6h-1.6v1.6h1.6v1.6h1.6v-1.6h1.6v-1.6h-1.6V21.1z"/>
<path fill="#72705B" d="M7.8,6.2h1.6V4.7h1.6V3.1H9.4V1.6H7.8v1.6H6.2v1.6h1.6V6.2z"/>
<path fill="#72705B" d="M3.1,10.9h1.6V9.4h1.6V7.8H4.7V6.2H3.1v1.6H1.6v1.6h1.6V10.9z"/>
<path fill="#72705B" d="M10.9,25.8v1.6H9.4v1.6h1.6v1.6h1.6v-1.6h1.6v-1.6h-1.6v-1.6H10.9z"/>
<path fill="#72705B" d="M7.8,25.8v-1.6h1.6v-1.6H7.8v-1.6H6.2v1.6H4.7v1.6h1.6v1.6H7.8z"/>
</svg>
