<svg width="576" height="576" viewBox="0 0 576 576" fill="none" xmlns="http://www.w3.org/2000/svg">
<circle cx="288" cy="288" r="288" fill="#FAF8F5"/>
<path d="M576 288C576 325.821 568.551 363.271 554.077 398.213C539.604 433.155 518.39 464.903 491.647 491.647L288 288H576Z" fill="#FAF8F5"/>
<path d="M576 288C576 325.821 568.551 363.271 554.077 398.213C539.604 433.155 518.39 464.903 491.647 491.647L288 288H576Z" fill="#72705B"/>
<path d="M491.647 491.647C464.903 518.39 433.155 539.604 398.213 554.077C363.271 568.551 325.821 576 288 576V288L491.647 491.647Z" fill="#8E8B71"/>
<path d="M288 576C211.618 576 138.364 545.657 84.3532 491.647L288 288V576Z" fill="#A4A28E"/>
<path d="M84.3532 491.647C57.61 464.903 36.396 433.155 21.9227 398.213C7.44933 363.271 -3.30639e-06 325.821 0 288L288 288L84.3532 491.647Z" fill="#BBBAAA"/>
<path d="M0 288C3.30639e-06 250.179 7.44935 212.729 21.9227 177.787C36.3961 142.845 57.61 111.096 84.3533 84.3532L288 288L0 288Z" fill="#D2D1C6"/>
<path d="M84.3532 84.3533C111.097 57.61 142.845 36.3961 177.787 21.9227C212.729 7.44934 250.179 -4.51007e-07 288 0V288L84.3532 84.3533Z" fill="#E8E8E3"/>
<path d="M491.647 84.3533C545.657 138.364 576 211.618 576 288L288 288L491.647 84.3533Z" fill="#555444"/>
<path d="M421.448 238.208C423.672 238.208 425.096 236.176 425.096 232.096C425.096 228.032 423.672 226.048 421.448 226.048C419.208 226.048 417.784 228.016 417.784 232.096C417.784 236.176 419.208 238.208 421.448 238.208ZM421.448 237.04C420.104 237.04 419.208 235.552 419.208 232.096C419.208 228.672 420.104 227.216 421.448 227.216C422.776 227.216 423.672 228.672 423.672 232.096C423.672 235.552 422.776 237.04 421.448 237.04ZM429.283 238H435.715V236.784H433.363V226.256H432.243C431.603 226.64 430.851 226.912 429.811 227.104V228.032H431.891V236.784H429.283V238ZM440.974 238.208C441.55 238.208 442.03 237.76 442.03 237.104C442.03 236.432 441.55 235.968 440.974 235.968C440.398 235.968 439.918 236.432 439.918 237.104C439.918 237.76 440.398 238.208 440.974 238.208ZM458.515 225.776L458.227 225.856H446.803V227.024H457.091C455.891 228.16 454.179 229.408 452.643 230.16V237.664C452.643 237.952 452.547 238.032 452.211 238.048C451.843 238.064 450.611 238.08 449.283 238.032C449.475 238.352 449.699 238.88 449.763 239.216C451.379 239.216 452.435 239.2 453.043 239.008C453.667 238.832 453.875 238.48 453.875 237.664V230.752C455.859 229.664 458.035 228 459.443 226.464L458.515 225.776ZM468.291 234.112V232.24H469.731V234.112H468.291ZM465.987 232.24H467.427V234.112H465.955C465.987 233.68 465.987 233.248 465.987 232.864V232.24ZM468.387 226.976C468.195 227.536 467.923 228.16 467.683 228.64H465.843C466.131 228.128 466.387 227.568 466.643 226.976H468.387ZM468.291 229.584H469.731V231.344H468.291V229.584ZM465.987 229.584H467.427V231.344H465.987V229.584ZM477.011 226.432C476.915 228.288 476.771 229.024 476.595 229.232C476.483 229.376 476.355 229.392 476.147 229.376C475.923 229.376 475.331 229.376 474.707 229.312C474.851 229.584 474.947 230 474.979 230.304C475.635 230.336 476.291 230.352 476.627 230.32C477.043 230.288 477.283 230.176 477.491 229.92C477.843 229.536 477.971 228.512 478.099 225.872C478.115 225.728 478.115 225.424 478.115 225.424H471.203V226.432H473.363C473.059 227.936 472.419 229.2 470.739 229.936V228.64H468.739C469.107 227.952 469.475 227.136 469.747 226.432L469.043 225.984L468.867 226.032H466.995C467.123 225.648 467.251 225.248 467.363 224.848L466.259 224.608C465.779 226.56 464.899 228.448 463.763 229.664C464.019 229.824 464.483 230.192 464.659 230.384C464.771 230.256 464.883 230.112 464.995 229.952V232.864C464.995 234.656 464.883 237.024 463.811 238.704C464.051 238.816 464.499 239.072 464.659 239.248C465.411 238.096 465.747 236.528 465.891 235.04H469.731V237.92C469.731 238.128 469.651 238.192 469.427 238.208C469.219 238.224 468.499 238.224 467.667 238.192C467.827 238.464 468.003 238.928 468.051 239.2C469.155 239.2 469.795 239.184 470.195 239.008C470.611 238.832 470.739 238.496 470.739 237.92V229.952C470.963 230.144 471.251 230.496 471.379 230.752C473.347 229.856 474.115 228.32 474.451 226.432H477.011ZM478.547 235.12H475.507V233.152H478.275V232.128H475.507V230.496H474.371V232.128H472.979C473.107 231.712 473.219 231.28 473.315 230.848L472.307 230.64C472.019 232 471.539 233.312 470.835 234.224C471.107 234.352 471.571 234.576 471.763 234.72C472.067 234.288 472.355 233.744 472.595 233.152H474.371V235.12H471.011V236.144H474.371V239.136H475.507V236.144H478.547V235.12ZM483.651 227.152H494.707V229.04H495.907V226.048H490.211C489.955 225.552 489.603 224.944 489.283 224.48L488.131 224.768C488.371 225.152 488.627 225.632 488.851 226.048H482.483V229.04H483.651V227.152ZM485.651 234.336C486.899 233.92 488.099 233.424 489.219 232.816C490.371 233.44 491.635 233.936 492.995 234.336H485.651ZM486.083 237.664V235.344H492.403V237.664H486.083ZM486.915 229.552H491.747C491.091 230.288 490.227 230.944 489.235 231.552C488.291 230.976 487.475 230.336 486.851 229.616L486.915 229.552ZM492.771 228.56L492.563 228.608H487.811C488.067 228.288 488.323 227.984 488.547 227.664L487.267 227.44C486.467 228.656 484.915 230.048 482.723 231.024C482.995 231.216 483.347 231.6 483.523 231.872C484.467 231.408 485.299 230.88 486.019 230.32C486.611 230.992 487.315 231.6 488.115 232.16C486.195 233.104 483.955 233.792 481.827 234.16C482.035 234.416 482.291 234.896 482.403 235.2C483.235 235.024 484.083 234.832 484.931 234.576V239.216H486.083V238.688H492.403V239.2H493.603V234.496C494.323 234.688 495.075 234.848 495.827 234.944C496.003 234.608 496.307 234.096 496.579 233.824C494.307 233.536 492.163 232.96 490.387 232.128C491.683 231.28 492.787 230.256 493.571 229.072L492.771 228.56ZM503.187 233.04C503.251 232.368 503.267 231.744 503.267 231.152V229.856H511.379V233.04H503.187ZM503.267 228.752V227.184C506.355 226.8 509.763 226.256 512.083 225.552L511.107 224.656C509.043 225.328 505.299 225.952 502.083 226.304V231.152C502.083 233.424 501.875 236.4 499.843 238.464C500.115 238.608 500.563 239.04 500.755 239.264C502.147 237.872 502.771 235.984 503.059 234.16H511.379V235.008H512.563V228.752H503.267ZM519.603 228.32H524.579V231.824H525.731V228.32H530.787V230.816H531.955V227.392H525.731V226.208H531.219V225.296H519.155V226.208H524.579V227.392H518.467V230.816H519.603V228.32ZM530.387 231.2C529.523 230.912 527.907 230.56 526.675 230.432L526.403 231.152C527.635 231.328 529.267 231.696 530.131 232.016L530.387 231.2ZM529.619 228.528C528.835 228.8 527.507 229.296 526.595 229.504L527.027 230.112C527.939 229.92 529.235 229.584 530.147 229.216L529.619 228.528ZM520.291 229.248C521.331 229.456 522.659 229.856 523.379 230.176L523.715 229.456C522.995 229.136 521.651 228.768 520.643 228.608L520.291 229.248ZM520.227 231.968C521.283 231.76 522.467 231.536 523.715 231.264L523.683 230.512C522.243 230.736 520.883 230.944 519.891 231.056L520.227 231.968ZM532.163 233.264V232.288H518.275V233.264H524.467C524.371 233.648 524.243 234.048 524.131 234.416H519.523V239.2H520.659V235.392H523.027V239.104H524.115V235.392H526.531V239.104H527.619V235.392H530.115V238.032C530.115 238.176 530.067 238.224 529.891 238.24C529.715 238.256 529.171 238.256 528.531 238.24C528.675 238.528 528.851 238.928 528.915 239.232C529.763 239.232 530.371 239.232 530.755 239.04C531.171 238.864 531.267 238.592 531.267 238.048V234.416H525.251C525.395 234.064 525.539 233.664 525.683 233.264H532.163ZM548.467 229.168C547.747 230.16 546.547 231.408 545.555 232.336C544.819 231.184 544.211 229.92 543.779 228.608V228.448H550.179V227.296H548.211L548.883 226.528C548.243 225.984 546.963 225.232 545.955 224.72L545.251 225.472C546.211 225.984 547.411 226.736 548.067 227.296H543.779V224.656H542.579V227.296H536.291V228.448H542.579V232.88C540.163 234.256 537.555 235.712 535.939 236.544L536.707 237.616C538.339 236.672 540.515 235.376 542.579 234.096V237.616C542.579 237.92 542.467 238 542.179 238.016C541.859 238.032 540.819 238.032 539.731 238C539.891 238.352 540.083 238.912 540.147 239.248C541.555 239.248 542.499 239.216 543.027 239.008C543.555 238.816 543.779 238.448 543.779 237.616V231.264C545.155 234.208 547.155 236.64 549.731 237.888C549.939 237.568 550.323 237.104 550.595 236.88C548.867 236.128 547.347 234.816 546.147 233.216C547.235 232.304 548.515 231.024 549.491 229.888L548.467 229.168ZM540.723 232.352C540.211 231.488 539.043 230.256 538.035 229.392L537.139 230.016C538.147 230.912 539.267 232.192 539.763 233.056L540.723 232.352Z" fill="white"/>
<path d="M455.448 368.208C457.672 368.208 459.096 366.176 459.096 362.096C459.096 358.032 457.672 356.048 455.448 356.048C453.208 356.048 451.784 358.016 451.784 362.096C451.784 366.176 453.208 368.208 455.448 368.208ZM455.448 367.04C454.104 367.04 453.208 365.552 453.208 362.096C453.208 358.672 454.104 357.216 455.448 357.216C456.776 357.216 457.672 358.672 457.672 362.096C457.672 365.552 456.776 367.04 455.448 367.04ZM462.579 368H469.955V366.736H466.707C466.115 366.736 465.395 366.8 464.787 366.848C467.539 364.24 469.379 361.856 469.379 359.52C469.379 357.424 468.067 356.048 465.971 356.048C464.483 356.048 463.475 356.736 462.515 357.776L463.363 358.608C464.003 357.84 464.835 357.248 465.795 357.248C467.251 357.248 467.955 358.224 467.955 359.568C467.955 361.584 466.259 363.92 462.579 367.136V368ZM474.974 368.208C475.55 368.208 476.03 367.76 476.03 367.104C476.03 366.432 475.55 365.968 474.974 365.968C474.398 365.968 473.918 366.432 473.918 367.104C473.918 367.76 474.398 368.208 474.974 368.208ZM492.147 357.312H486.851V356.048H492.147V357.312ZM492.147 359.424H486.851V358.144H492.147V359.424ZM493.283 355.152H485.763V360.336H493.283V355.152ZM484.595 361.584L482.979 362.08V358.928H484.739V357.824H482.979V354.64H481.875V357.824H479.907V358.928H481.875V362.432C481.059 362.688 480.323 362.912 479.731 363.056L480.019 364.208C480.595 364.032 481.219 363.84 481.875 363.616V367.728C481.875 367.968 481.795 368.032 481.603 368.032C481.427 368.032 480.787 368.032 480.099 368.016C480.259 368.352 480.403 368.832 480.451 369.12C481.459 369.136 482.067 369.088 482.435 368.896C482.835 368.704 482.979 368.4 482.979 367.744V363.264C483.571 363.056 484.163 362.88 484.739 362.672L484.595 361.584ZM490.067 365.328H493.379V364.352H490.067V362.48H494.179V361.472H485.043V362.48H488.947V367.536C488.035 367.152 487.315 366.416 486.867 365.056C486.995 364.528 487.091 363.952 487.171 363.36L486.083 363.232C485.827 365.6 485.123 367.392 483.699 368.512C483.955 368.672 484.403 369.04 484.595 369.232C485.427 368.48 486.067 367.504 486.499 366.304C487.539 368.544 489.219 368.976 491.523 368.976H494.307C494.355 368.672 494.499 368.176 494.659 367.92C494.115 367.936 491.955 367.936 491.571 367.936C491.043 367.936 490.531 367.904 490.067 367.84V365.328ZM499.651 356.832H510.803V358.112H511.955V355.824H506.099C505.875 355.424 505.539 354.944 505.299 354.592L504.115 354.88C504.291 355.168 504.499 355.488 504.691 355.824H498.531V358.112H499.651V356.832ZM507.411 359.616C506.883 360.24 506.195 360.752 505.363 361.152C504.339 360.944 503.299 360.768 502.243 360.592C502.547 360.288 502.883 359.968 503.219 359.616H507.411ZM511.987 362.816C510.659 362.368 508.899 361.904 506.947 361.488C507.715 360.976 508.339 360.368 508.835 359.616H512.195V358.64H509.363C509.491 358.368 509.587 358.112 509.683 357.808L508.531 357.536C508.403 357.936 508.243 358.304 508.051 358.64H504.115C504.483 358.208 504.835 357.76 505.123 357.344L503.971 356.992C503.635 357.504 503.203 358.08 502.723 358.64H498.259V359.616H501.859C501.315 360.208 500.771 360.736 500.275 361.184C501.443 361.344 502.563 361.552 503.651 361.76C502.211 362.128 500.435 362.336 498.243 362.432C498.435 362.72 498.595 363.104 498.707 363.456C501.635 363.264 503.907 362.896 505.635 362.16C507.715 362.64 509.523 363.12 510.835 363.616L511.987 362.816ZM502.099 365.664C501.251 366.576 499.731 367.408 498.307 367.936C498.595 368.112 499.059 368.528 499.283 368.752C500.675 368.128 502.291 367.136 503.267 366.048L502.099 365.664ZM506.995 366.256C508.467 366.944 510.275 368.048 511.171 368.832L512.035 367.968C511.091 367.2 509.251 366.144 507.795 365.504L506.995 366.256ZM505.747 364.304V362.992H504.579V364.304H498.099V365.312H504.579V369.216H505.747V365.312H512.339V364.304H505.747Z" fill="white"/>
<path d="M337.448 477.208C339.672 477.208 341.096 475.176 341.096 471.096C341.096 467.032 339.672 465.048 337.448 465.048C335.208 465.048 333.784 467.016 333.784 471.096C333.784 475.176 335.208 477.208 337.448 477.208ZM337.448 476.04C336.104 476.04 335.208 474.552 335.208 471.096C335.208 467.672 336.104 466.216 337.448 466.216C338.776 466.216 339.672 467.672 339.672 471.096C339.672 474.552 338.776 476.04 337.448 476.04ZM348.099 477.208C350.179 477.208 351.859 475.96 351.859 473.864C351.859 472.264 350.755 471.208 349.379 470.888V470.824C350.611 470.36 351.459 469.416 351.459 467.992C351.459 466.136 350.019 465.048 348.051 465.048C346.691 465.048 345.651 465.64 344.771 466.456L345.555 467.384C346.211 466.712 347.043 466.248 347.987 466.248C349.203 466.248 349.971 466.984 349.971 468.104C349.971 469.368 349.139 470.344 346.723 470.344V471.464C349.427 471.464 350.371 472.408 350.371 473.8C350.371 475.16 349.379 475.992 347.987 475.992C346.659 475.992 345.763 475.368 345.075 474.648L344.339 475.608C345.107 476.44 346.259 477.208 348.099 477.208ZM356.974 477.208C357.55 477.208 358.03 476.76 358.03 476.104C358.03 475.432 357.55 474.968 356.974 474.968C356.398 474.968 355.918 475.432 355.918 476.104C355.918 476.76 356.398 477.208 356.974 477.208ZM366.323 475.144H364.163V470.424H366.323V475.144ZM362.067 465.576H364.067C363.635 468.008 362.899 470.248 361.779 471.752C361.971 472.072 362.243 472.744 362.323 473.016C362.627 472.632 362.899 472.2 363.155 471.736V477.496H364.163V476.216H367.379V469.368H364.195C364.595 468.184 364.931 466.888 365.187 465.576H367.667V464.488H362.067V465.576ZM370.979 470.2V465.608H373.571V470.2H370.979ZM376.499 470.2H374.707V465.608H376.195V464.488H368.531V465.608H369.843V470.2H368.083V471.336H369.827C369.779 473.48 369.427 475.896 367.795 477.608C368.067 477.752 368.499 478.088 368.691 478.296C370.499 476.424 370.915 473.768 370.963 471.336H373.571V478.216H374.707V471.336H376.499V470.2ZM382.243 473.64C382.323 473.128 382.403 472.552 382.483 471.992H385.859V468.44H383.379C384.803 467.48 386.035 466.216 386.739 464.616L386.003 464.232L385.795 464.28H381.459V465.256H385.171C384.771 465.864 384.243 466.44 383.635 466.952C383.171 466.472 382.387 465.912 381.731 465.528L381.043 466.184C381.651 466.552 382.371 467.112 382.851 467.56C381.875 468.216 380.771 468.744 379.699 469.064C379.923 469.272 380.211 469.688 380.339 469.944C380.947 469.752 381.539 469.496 382.115 469.192V469.384H384.787V471.064H381.619C381.475 472.2 381.251 473.624 381.059 474.568H384.723C384.579 476.088 384.403 476.744 384.163 476.952C384.035 477.08 383.875 477.096 383.587 477.096C383.283 477.096 382.403 477.08 381.539 477C381.715 477.288 381.875 477.704 381.891 478.024C382.755 478.072 383.603 478.088 384.003 478.056C384.467 478.024 384.787 477.928 385.059 477.656C385.443 477.288 385.651 476.344 385.843 474.104C385.875 473.976 385.891 473.64 385.891 473.64H382.243ZM392.275 472.936L392.083 472.984H386.627V473.848H391.523C391.123 474.504 390.595 475.064 389.987 475.56C389.043 475.016 388.051 474.44 387.203 473.992L386.627 474.648C387.411 475.08 388.291 475.608 389.155 476.12C388.179 476.696 387.043 477.112 385.875 477.368C386.083 477.576 386.307 477.976 386.419 478.248C387.747 477.912 388.995 477.416 390.083 476.696C391.011 477.272 391.859 477.832 392.435 478.264L393.027 477.496C392.483 477.096 391.715 476.616 390.867 476.088C391.763 475.336 392.483 474.376 392.931 473.208L392.275 472.936ZM393.235 465.32C392.707 465.88 391.795 466.648 391.075 467.176C390.643 466.872 390.243 466.552 389.907 466.2C390.627 465.688 391.523 465 392.211 464.344L391.331 463.72C390.851 464.264 390.003 465.016 389.315 465.576C388.803 464.968 388.387 464.328 388.067 463.64L387.123 463.928C387.955 465.752 389.283 467.272 390.931 468.376H387.379V469.624C387.379 470.392 387.155 471.256 385.891 471.944C386.115 472.088 386.499 472.472 386.659 472.68C388.067 471.864 388.403 470.68 388.403 469.656V469.336H390.579V470.888C390.579 471.832 390.771 472.216 391.747 472.216H393.059C393.379 472.216 393.699 472.216 393.875 472.152C393.843 471.912 393.811 471.56 393.811 471.304C393.603 471.352 393.251 471.368 393.043 471.368H391.859C391.619 471.368 391.587 471.256 391.587 470.904V468.776C392.291 469.176 393.059 469.496 393.875 469.752C394.051 469.464 394.339 469.048 394.595 468.824C393.619 468.568 392.707 468.184 391.859 467.688C392.595 467.208 393.459 466.552 394.115 465.928L393.235 465.32ZM403.811 470.392L401.587 471.016V467.96H403.795V466.824H401.587V463.64H400.419V466.824H398.035V467.96H400.419V471.368C399.475 471.608 398.595 471.848 397.891 472.024L398.243 473.224C398.899 473.032 399.635 472.808 400.419 472.584V476.632C400.419 476.872 400.323 476.952 400.099 476.952C399.907 476.952 399.219 476.952 398.451 476.936C398.611 477.256 398.787 477.736 398.835 478.056C399.939 478.056 400.595 478.04 401.011 477.832C401.427 477.64 401.587 477.336 401.587 476.648V472.216C402.371 471.992 403.171 471.736 403.955 471.496L403.811 470.392ZM412.515 464.968H403.875V466.136H408.435V476.472C408.435 476.776 408.307 476.872 408.003 476.888C407.667 476.904 406.499 476.904 405.331 476.856C405.523 477.192 405.747 477.784 405.827 478.136C407.331 478.136 408.323 478.12 408.899 477.896C409.475 477.704 409.683 477.304 409.683 476.488V466.136H412.515V464.968ZM425.267 467.336H422.243V468.216H425.267V469.256H421.203V470.2H424.467L424.003 470.744C425.219 471.096 426.771 471.752 427.571 472.216L428.211 471.448C427.491 471.032 426.227 470.536 425.107 470.2H430.419V469.256H426.419V468.216H429.731V467.336H426.419V466.328H430.227V465.448H427.891C428.211 465.032 428.563 464.488 428.915 463.944L427.859 463.608C427.635 464.104 427.235 464.856 426.899 465.352L427.155 465.448H424.275L424.707 465.256C424.483 464.792 424.067 464.12 423.667 463.608L422.787 463.976C423.091 464.424 423.459 465 423.667 465.448H421.603V466.328H425.267V467.336ZM421.347 472.008C421.075 471.576 419.875 469.768 419.427 469.176V468.168H421.251V467.064H419.427V463.608H418.339V467.064H416.099V468.168H418.211C417.747 470.344 416.771 472.84 415.779 474.168C415.971 474.44 416.259 474.888 416.387 475.192C417.123 474.152 417.811 472.472 418.339 470.728V478.2H419.427V470.584C419.907 471.384 420.467 472.376 420.691 472.888L421.347 472.008ZM424.051 473.608L423.859 473.656H421.107V474.52H423.395C422.835 475.688 421.747 476.616 420.611 477.08C420.819 477.256 421.123 477.624 421.251 477.864C422.771 477.16 424.131 475.816 424.707 473.88L424.051 473.608ZM429.315 472.344C428.803 472.904 427.939 473.688 427.235 474.248C426.899 473.8 426.627 473.32 426.403 472.824V471.88H422.371V472.744H425.283V477.032C425.283 477.208 425.219 477.256 425.043 477.256H423.491C423.619 477.528 423.763 477.96 423.811 478.232C424.803 478.232 425.459 478.232 425.875 478.056C426.291 477.896 426.403 477.592 426.403 477.032V474.584C427.299 475.992 428.547 477.128 429.987 477.768C430.147 477.464 430.483 477.08 430.707 476.872C429.587 476.472 428.563 475.768 427.763 474.888C428.515 474.392 429.427 473.656 430.195 473.016L429.315 472.344Z" fill="white"/>
<path d="M184.448 489.208C186.672 489.208 188.096 487.176 188.096 483.096C188.096 479.032 186.672 477.048 184.448 477.048C182.208 477.048 180.784 479.016 180.784 483.096C180.784 487.176 182.208 489.208 184.448 489.208ZM184.448 488.04C183.104 488.04 182.208 486.552 182.208 483.096C182.208 479.672 183.104 478.216 184.448 478.216C185.776 478.216 186.672 479.672 186.672 483.096C186.672 486.552 185.776 488.04 184.448 488.04ZM192.715 484.6L195.387 480.6C195.723 480.024 196.043 479.448 196.331 478.872H196.395C196.363 479.48 196.315 480.424 196.315 481V484.6H192.715ZM196.315 489H197.691V485.768H199.243V484.6H197.691V477.256H196.075L191.195 484.808V485.768H196.315V489ZM203.974 489.208C204.55 489.208 205.03 488.76 205.03 488.104C205.03 487.432 204.55 486.968 203.974 486.968C203.398 486.968 202.918 487.432 202.918 488.104C202.918 488.76 203.398 489.208 203.974 489.208ZM216.955 486.84H219.339V488.52H216.955V486.84ZM219.339 483.288H216.955V481.672H219.339V483.288ZM219.339 485.912H216.955V484.216H219.339V485.912ZM213.019 487.096H211.243V482.424H213.019V487.096ZM223.403 488.52H220.443V486.84H222.731V485.912H220.443V484.216H222.731V483.288H220.443V481.672H222.939V480.664H220.747C220.555 480.12 220.171 479.384 219.851 478.792L218.859 479.192C219.083 479.64 219.339 480.184 219.547 480.664H217.467C217.979 479.928 218.427 479.128 218.827 478.264H221.995V479.944H223.067V477.24H219.243C219.435 476.792 219.595 476.296 219.739 475.816L218.619 475.592C218.459 476.152 218.267 476.712 218.059 477.24H214.667V479.976H215.707V478.264H217.579C216.715 480.008 215.531 481.48 214.059 482.504V481.384H211.323C211.659 480.28 211.915 479.064 212.123 477.832H214.331V476.744H209.083V477.832H210.971C210.555 480.472 209.851 482.92 208.699 484.552C208.923 484.792 209.259 485.336 209.387 485.576C209.691 485.176 209.963 484.696 210.219 484.216V489.448H211.243V488.152H214.059V482.568C214.299 482.824 214.619 483.272 214.747 483.512C215.115 483.224 215.499 482.92 215.835 482.584V490.232H216.955V489.544H223.419L223.403 488.52ZM239.739 477.272C239.611 480.504 239.451 481.752 239.195 482.04C239.051 482.2 238.923 482.232 238.667 482.232C238.411 482.232 237.739 482.216 237.003 482.152C237.195 482.456 237.307 482.888 237.339 483.208C238.043 483.24 238.747 483.24 239.147 483.208C239.579 483.176 239.883 483.064 240.155 482.744C240.539 482.248 240.715 480.808 240.891 476.76C240.891 476.6 240.907 476.248 240.907 476.248H233.115V477.272H236.411C236.331 478.056 236.219 478.792 236.011 479.48C235.403 478.952 234.571 478.264 233.899 477.736L233.275 478.408C234.027 479.032 235.003 479.88 235.595 480.488C235.067 481.56 234.203 482.424 232.779 483.016C233.019 483.208 233.339 483.592 233.467 483.864C236.411 482.552 237.211 480.152 237.499 477.272H239.739ZM235.771 483.88C236.427 484.616 237.147 485.64 237.483 486.264L238.267 485.72C237.915 485.096 237.179 484.136 236.507 483.416L235.771 483.88ZM230.587 477.752C230.363 477.176 229.947 476.296 229.531 475.64L228.523 475.992C228.907 476.68 229.339 477.592 229.515 478.168L230.587 477.752ZM232.523 478.264H226.891V479.256H232.523V478.264ZM232.139 480.424H227.307V481.368H232.139V480.424ZM227.307 483.512H232.139V482.552H227.307V483.512ZM231.035 485.672V488.344H228.315V485.672H231.035ZM232.059 484.696H227.307V490.056H228.315V489.32H232.059V484.696ZM232.955 488.68C233.499 487.8 233.851 486.344 234.059 485.192L233.211 484.936C233.019 486.024 232.635 487.432 232.091 488.296L232.955 488.68ZM236.171 488.92C235.627 488.92 235.515 488.84 235.515 488.456V484.568H234.475V488.456C234.475 489.56 234.795 489.88 236.059 489.88H238.139C239.243 489.88 239.531 489.368 239.643 487.192C239.355 487.128 238.923 486.968 238.699 486.792C238.651 488.648 238.555 488.92 238.027 488.92H236.171ZM239.371 484.584C239.931 485.656 240.491 487.08 240.715 487.944L241.627 487.592C241.403 486.744 240.795 485.352 240.219 484.296L239.371 484.584Z" fill="white"/>
<path d="M71.448 373.208C73.672 373.208 75.096 371.176 75.096 367.096C75.096 363.032 73.672 361.048 71.448 361.048C69.208 361.048 67.784 363.016 67.784 367.096C67.784 371.176 69.208 373.208 71.448 373.208ZM71.448 372.04C70.104 372.04 69.208 370.552 69.208 367.096C69.208 363.672 70.104 362.216 71.448 362.216C72.776 362.216 73.672 363.672 73.672 367.096C73.672 370.552 72.776 372.04 71.448 372.04ZM82.051 373.208C84.035 373.208 85.891 371.752 85.891 369.176C85.891 366.6 84.307 365.448 82.355 365.448C81.651 365.448 81.139 365.624 80.611 365.912L80.899 362.52H85.331V361.256H79.619L79.251 366.76L80.035 367.24C80.707 366.792 81.203 366.552 81.987 366.552C83.459 366.552 84.419 367.544 84.419 369.224C84.419 370.936 83.299 371.992 81.923 371.992C80.563 371.992 79.715 371.368 79.043 370.696L78.323 371.656C79.107 372.44 80.227 373.208 82.051 373.208ZM90.974 373.208C91.55 373.208 92.03 372.76 92.03 372.104C92.03 371.432 91.55 370.968 90.974 370.968C90.398 370.968 89.918 371.432 89.918 372.104C89.918 372.76 90.398 373.208 90.974 373.208ZM103.843 372.568V368.504H108.979V367.352H103.843V363.864H109.571V362.696H103.843V359.624H102.627V362.696H99.3791C99.7311 361.88 100.019 361.016 100.275 360.136L99.0751 359.88C98.4511 362.152 97.4271 364.36 96.1151 365.768C96.4351 365.928 96.9631 366.28 97.2031 366.472C97.7951 365.752 98.3551 364.872 98.8671 363.864H102.627V367.352H97.8751V368.504H102.627V372.568H96.1471V373.72H110.323V372.568H103.843ZM117.843 365.096C119.203 364.792 120.723 364.424 122.163 363.96C123.459 364.36 124.627 364.744 125.555 365.096H117.843ZM124.899 362.056C124.179 362.44 123.251 362.792 122.227 363.128C120.867 362.728 119.459 362.36 118.211 362.056H124.899ZM128.259 366.088V365.096H125.939L126.579 364.504C125.779 364.216 124.691 363.864 123.523 363.512C124.435 363.192 125.267 362.824 125.971 362.44L125.331 362.056H127.779V361.08H122.403C122.099 360.584 121.603 359.944 121.187 359.464L120.339 359.896C120.627 360.248 120.931 360.68 121.203 361.08H115.299V362.056H117.859L117.155 362.632C118.291 362.888 119.539 363.208 120.755 363.56C119.379 363.944 117.923 364.264 116.659 364.504C116.819 364.648 117.075 364.888 117.235 365.096H115.219V368.456C115.219 370.056 115.059 372.12 113.763 373.608C114.019 373.752 114.483 374.152 114.659 374.376C116.099 372.728 116.371 370.28 116.371 368.472V366.088H128.259ZM123.059 372.696V371.096H127.011V370.136H123.059V368.712H127.363V367.736H123.059V366.376H121.891V367.736H119.091C119.251 367.368 119.395 367.016 119.539 366.648L118.515 366.36C118.051 367.64 117.283 368.872 116.403 369.704C116.611 369.912 116.915 370.472 117.027 370.68C117.571 370.168 118.099 369.48 118.547 368.712H121.891V370.136H118.163V371.096H121.891V372.696H116.659V373.704H128.515V372.696H123.059Z" fill="#72705B"/>
<path d="M59.448 226.208C61.72 226.208 63.096 224.08 63.096 220.256C63.096 216.448 61.72 214.384 59.448 214.384C57.176 214.384 55.784 216.432 55.784 220.256C55.784 224.08 57.176 226.208 59.448 226.208ZM59.448 225.04C58.104 225.04 57.208 223.6 57.208 220.256C57.208 216.912 58.104 215.552 59.448 215.552C60.776 215.552 61.672 216.912 61.672 220.256C61.672 223.6 60.776 225.04 59.448 225.04ZM70.547 220.128C71.955 220.128 72.659 221.072 72.659 222.544C72.659 224.064 71.795 225.072 70.659 225.072C69.219 225.072 68.339 223.872 68.147 221.648C68.915 220.528 69.811 220.128 70.547 220.128ZM70.675 226.208C72.499 226.208 74.035 224.736 74.035 222.544C74.035 220.224 72.755 219.04 70.787 219.04C69.859 219.04 68.851 219.584 68.115 220.464C68.179 216.832 69.523 215.6 71.139 215.6C71.843 215.6 72.547 215.936 73.011 216.496L73.827 215.584C73.187 214.896 72.307 214.384 71.091 214.384C68.803 214.384 66.739 216.144 66.739 220.736C66.739 224.384 68.419 226.208 70.675 226.208ZM78.974 226.208C79.55 226.208 80.03 225.76 80.03 225.104C80.03 224.432 79.55 223.968 78.974 223.968C78.398 223.968 77.918 224.432 77.918 225.104C77.918 225.76 78.398 226.208 78.974 226.208ZM89.1391 224.992C87.0271 224.992 85.6511 223.088 85.6511 220.096C85.6511 217.152 87.0271 215.344 89.1391 215.344C91.2351 215.344 92.6271 217.152 92.6271 220.096C92.6271 223.088 91.2351 224.992 89.1391 224.992ZM92.7231 228.944C93.4271 228.944 94.0511 228.816 94.4031 228.688L94.1151 227.536C93.8111 227.632 93.4111 227.712 92.8831 227.712C91.6191 227.712 90.5311 227.184 90.0031 226.144C92.4831 225.712 94.1471 223.472 94.1471 220.096C94.1471 216.336 92.0831 214.048 89.1391 214.048C86.1951 214.048 84.1311 216.336 84.1311 220.096C84.1311 223.536 85.8591 225.808 88.4191 226.16C89.0751 227.776 90.5631 228.944 92.7231 228.944ZM103.11 226.208C104.63 226.208 105.782 225.6 106.71 224.528L105.894 223.6C105.142 224.416 104.294 224.912 103.174 224.912C100.934 224.912 99.5261 223.056 99.5261 220.096C99.5261 217.168 100.998 215.344 103.222 215.344C104.23 215.344 105.014 215.808 105.622 216.464L106.422 215.504C105.75 214.752 104.63 214.048 103.206 214.048C100.23 214.048 98.0061 216.352 98.0061 220.144C98.0061 223.952 100.198 226.208 103.11 226.208ZM120.481 217.456H114.129V214.432H120.481V217.456ZM121.681 213.296H112.977V218.592H121.681V213.296ZM115.137 221.424V225.216H111.793V221.424H115.137ZM110.657 227.232H111.793V226.368H115.137V227.088H116.305V220.272H110.657V227.232ZM119.201 225.216V221.424H122.833V225.216H119.201ZM118.049 220.272V227.232H119.201V226.368H122.833V227.12H124.001V220.272H118.049ZM132.769 220.48C132.513 220.064 131.521 218.416 131.121 217.824V216.8H132.593V216.624C132.833 216.832 133.153 217.152 133.297 217.36C133.889 217.024 134.465 216.656 135.009 216.24V217.168H139.777V216.208H135.057C135.873 215.6 136.609 214.912 137.233 214.176C138.577 215.36 140.497 216.544 142.145 217.248C142.241 216.944 142.481 216.464 142.673 216.176C141.041 215.6 139.041 214.512 137.841 213.424C137.969 213.248 138.081 213.056 138.193 212.88L137.041 212.512C136.177 213.968 134.481 215.504 132.593 216.512V215.68H131.121V212.608H130.145V215.68H128.241V216.8H129.985C129.585 218.912 128.769 221.344 127.953 222.624C128.129 222.928 128.369 223.456 128.481 223.792C129.105 222.736 129.713 221.024 130.145 219.28V227.216H131.121V219.184C131.521 219.936 132.001 220.88 132.193 221.376L132.769 220.48ZM138.849 219.2H140.609V221.296H138.849V219.2ZM137.921 222.16H141.585V218.32H137.921V222.16ZM134.273 219.2H135.985V221.296H134.273V219.2ZM133.361 222.16H136.929V218.32H133.361V222.16ZM134.721 222.528C134.209 224.256 133.121 225.632 131.665 226.496C131.921 226.688 132.305 227.072 132.481 227.28C133.409 226.64 134.241 225.776 134.865 224.736C135.505 225.2 136.161 225.728 136.497 226.112L137.137 225.312C136.737 224.912 135.985 224.336 135.329 223.92C135.505 223.536 135.649 223.152 135.777 222.736L134.721 222.528ZM139.169 222.512C138.833 224.24 137.969 225.6 136.673 226.448C136.913 226.64 137.329 227.024 137.473 227.232C138.289 226.656 138.945 225.888 139.425 224.976C140.353 225.616 141.345 226.432 141.889 226.992L142.609 226.176C142.001 225.568 140.849 224.704 139.841 224.064C140.017 223.616 140.145 223.152 140.257 222.656L139.169 222.512Z" fill="#72705B"/>
<path d="M185.448 106.208C187.672 106.208 189.096 104.176 189.096 100.096C189.096 96.032 187.672 94.048 185.448 94.048C183.208 94.048 181.784 96.016 181.784 100.096C181.784 104.176 183.208 106.208 185.448 106.208ZM185.448 105.04C184.104 105.04 183.208 103.552 183.208 100.096C183.208 96.672 184.104 95.216 185.448 95.216C186.776 95.216 187.672 96.672 187.672 100.096C187.672 103.552 186.776 105.04 185.448 105.04ZM195.043 106H196.563C196.739 101.408 197.251 98.672 200.003 95.152V94.256H192.659V95.52H198.339C196.051 98.72 195.235 101.552 195.043 106ZM204.974 106.208C205.55 106.208 206.03 105.76 206.03 105.104C206.03 104.432 205.55 103.968 204.974 103.968C204.398 103.968 203.918 104.432 203.918 105.104C203.918 105.76 204.398 106.208 204.974 106.208ZM221.907 95.888C221.779 100.32 221.603 101.936 221.299 102.32C221.155 102.512 221.011 102.544 220.771 102.528C220.499 102.544 219.859 102.528 219.171 102.464C219.331 102.784 219.459 103.264 219.475 103.6C220.227 103.648 220.915 103.648 221.331 103.6C221.763 103.552 222.067 103.424 222.339 103.056C222.787 102.48 222.947 100.624 223.123 95.312V94.752H214.291C214.643 94.16 214.979 93.536 215.267 92.88L214.067 92.528C213.139 94.704 211.571 96.768 209.811 98.064C210.115 98.256 210.579 98.704 210.803 98.928C211.779 98.128 212.723 97.088 213.571 95.888H221.907ZM217.699 98.608V101.184H213.539V98.608H217.699ZM215.539 105.76C213.843 105.76 213.539 105.536 213.539 104.672V102.256H218.867V97.536H212.371V104.672C212.371 106.448 213.107 106.88 215.603 106.88H221.635C223.795 106.88 224.275 106.288 224.515 104.192C224.179 104.128 223.667 103.952 223.379 103.76C223.203 105.408 222.979 105.76 221.619 105.76H215.539ZM237.363 98.496H234.275V99.52H241.795V98.496H238.531V95.856H242.115V94.816H238.531V92.608H237.363V94.816H233.923V95.856H237.363V98.496ZM232.115 97.808V100.448H233.235V92.608H232.115V94.912H229.939V92.88H228.899V95.904H232.115V96.848H228.147V97.808H229.299C229.139 98.8 228.739 99.536 227.779 99.984C228.019 100.144 228.323 100.496 228.451 100.752C229.715 100.128 230.211 99.136 230.387 97.808H232.115ZM240.595 102.32C239.907 102.832 238.803 103.488 237.875 103.968C237.219 103.392 236.691 102.752 236.275 102.048H242.339V101.104H236.083C235.891 100.672 235.619 100.16 235.347 99.744L234.211 100.08C234.387 100.384 234.579 100.768 234.739 101.104H228.083V102.048H233.475C231.971 102.96 229.795 103.68 227.859 104.048C228.083 104.272 228.387 104.672 228.515 104.928C229.459 104.736 230.467 104.432 231.443 104.048V105.168C231.443 105.872 230.979 106.224 230.675 106.352C230.851 106.576 231.075 107.04 231.155 107.296C231.475 107.12 231.987 106.976 236.307 105.984C236.307 105.744 236.323 105.328 236.355 105.04L232.611 105.808V103.552C233.555 103.104 234.403 102.592 235.075 102.048H235.123C236.435 104.64 238.787 106.384 241.923 107.152C242.051 106.864 242.371 106.416 242.611 106.192C241.091 105.872 239.747 105.328 238.643 104.56C239.571 104.112 240.627 103.536 241.475 102.944L240.595 102.32Z" fill="#72705B"/>
<path d="M347.448 97.208C349.672 97.208 351.096 95.176 351.096 91.096C351.096 87.032 349.672 85.048 347.448 85.048C345.208 85.048 343.784 87.016 343.784 91.096C343.784 95.176 345.208 97.208 347.448 97.208ZM347.448 96.04C346.104 96.04 345.208 94.552 345.208 91.096C345.208 87.672 346.104 86.216 347.448 86.216C348.776 86.216 349.672 87.672 349.672 91.096C349.672 94.552 348.776 96.04 347.448 96.04ZM358.339 97.208C360.547 97.208 362.019 95.88 362.019 94.168C362.019 92.568 361.059 91.688 360.035 91.096V91.016C360.739 90.472 361.603 89.416 361.603 88.184C361.603 86.376 360.387 85.096 358.387 85.096C356.563 85.096 355.171 86.28 355.171 88.072C355.171 89.304 355.891 90.184 356.755 90.776V90.856C355.683 91.432 354.595 92.52 354.595 94.088C354.595 95.896 356.179 97.208 358.339 97.208ZM359.139 90.632C357.763 90.088 356.499 89.48 356.499 88.072C356.499 86.936 357.283 86.168 358.371 86.168C359.635 86.168 360.355 87.112 360.355 88.264C360.355 89.128 359.939 89.928 359.139 90.632ZM358.371 96.12C356.963 96.12 355.923 95.208 355.923 93.96C355.923 92.84 356.579 91.912 357.523 91.304C359.187 91.976 360.627 92.568 360.627 94.136C360.627 95.304 359.715 96.12 358.371 96.12ZM366.974 97.208C367.55 97.208 368.03 96.76 368.03 96.104C368.03 95.432 367.55 94.968 366.974 94.968C366.398 94.968 365.918 95.432 365.918 96.104C365.918 96.76 366.398 97.208 366.974 97.208ZM384.195 91.56V96.12H379.811V90.552H384.851V85.064H383.571V89.384H379.811V83.624H378.531V89.384H374.867V85.08H373.635V90.552H378.531V96.12H374.211V91.56H372.931V97.288H384.195V98.2H385.475V91.56H384.195ZM402.531 88.584C403.171 88.584 403.859 88.568 404.163 88.488C404.115 88.216 404.067 87.832 404.035 87.496C403.683 87.56 402.915 87.592 402.451 87.592H398.915C398.339 87.592 398.227 87.4 398.227 86.888V85.928H403.379V84.936H398.227V83.64H397.043V86.856C397.043 88.104 397.411 88.584 398.851 88.584H402.531ZM393.283 93.768H401.299V94.888H393.283V93.768ZM393.283 91.912H401.299V93H393.283V91.912ZM393.283 90.056H401.299V91.144H393.283V90.056ZM392.131 95.672H402.483V89.256H392.131V95.672ZM392.867 88.824H394.019V85.576C394.659 85.08 395.235 84.504 395.731 83.944L394.643 83.528C393.539 84.84 391.699 86.04 389.955 86.808C390.211 87 390.643 87.432 390.835 87.64C391.491 87.32 392.195 86.888 392.867 86.44V88.824ZM394.819 95.848C393.667 96.456 391.747 97.032 390.115 97.368C390.387 97.592 390.819 98.024 391.011 98.264C392.595 97.832 394.611 97.096 395.907 96.328L394.819 95.848ZM398.723 96.44C400.435 97 402.179 97.688 403.171 98.216L404.211 97.528C403.075 96.984 401.219 96.312 399.507 95.784L398.723 96.44Z" fill="#72705B"/>
</svg>
