<?xml version="1.0" encoding="utf-8"?>
<!-- Generator: Adobe Illustrator 25.2.3, SVG Export Plug-In . SVG Version: 6.00 Build 0)  -->
<svg version="1.1" id="圖層_1" xmlns="http://www.w3.org/2000/svg" xmlns:xlink="http://www.w3.org/1999/xlink" x="0px" y="0px"
	 viewBox="0 0 576 576" style="enable-background:new 0 0 576 576;" xml:space="preserve">
<style type="text/css">
	.st0{fill:#FAF8F5;}
	.st1{fill:#72705B;}
	.st2{fill:#8E8B71;}
	.st3{fill:#A4A28E;}
	.st4{fill:#BBBAAA;}
	.st5{fill:#D2D1C6;}
	.st6{fill:#E8E8E3;}
	.st7{fill:#FFFFFF;}
</style>
<circle class="st0" cx="288" cy="288" r="288"/>
<path class="st1" d="M576,288c0-42.4-9.4-84.3-27.4-122.6c-18.1-38.4-44.3-72.3-77-99.3L288,288H576z"/>
<path class="st2" d="M473.1,508.6c32.5-27.3,58.5-61.3,76.3-99.8c17.8-38.5,26.8-80.4,26.6-122.8l-288,2L473.1,508.6z"/>
<path class="st3" d="M238,571.6c41.8,7.4,84.6,5.4,125.5-5.7c40.9-11.1,78.9-31.1,111.1-58.6L288,288L238,571.6z"/>
<path class="st4" d="M38.6,432c21.2,36.7,50.2,68.3,85.1,92.5c34.8,24.2,74.5,40.4,116.3,47.5l48-284L38.6,432z"/>
<path class="st5" d="M17.4,189.5c-14.5,39.8-20,82.4-16.2,124.6c3.8,42.2,17,83.1,38.4,119.6L288,288L17.4,189.5z"/>
<path class="st6" d="M189.5,17.4c-39.8,14.5-76,37.6-105.9,67.7c-29.9,30.1-52.7,66.4-67,106.3L288,288L189.5,17.4z"/>
<path class="st7" d="M437.4,221.2c2.2,0,3.6-2,3.6-6.1c0-4.1-1.4-6-3.6-6c-2.2,0-3.7,2-3.7,6C433.8,219.2,435.2,221.2,437.4,221.2z
	 M437.4,220c-1.3,0-2.2-1.5-2.2-4.9c0-3.4,0.9-4.9,2.2-4.9c1.3,0,2.2,1.5,2.2,4.9C439.7,218.6,438.8,220,437.4,220z M445.3,221h6.4
	v-1.2h-2.4v-10.5h-1.1c-0.6,0.4-1.4,0.7-2.4,0.8v0.9h2.1v8.8h-2.6V221z M457,221.2c0.6,0,1.1-0.4,1.1-1.1c0-0.7-0.5-1.1-1.1-1.1
	s-1.1,0.5-1.1,1.1C455.9,220.8,456.4,221.2,457,221.2z M463.7,210.2h11.1v1.9h1.2v-3h-5.7c-0.3-0.5-0.6-1.1-0.9-1.6l-1.2,0.3
	c0.2,0.4,0.5,0.9,0.7,1.3h-6.4v3h1.2V210.2z M465.7,217.3c1.2-0.4,2.4-0.9,3.6-1.5c1.2,0.6,2.4,1.1,3.8,1.5H465.7z M466.1,220.7
	v-2.3h6.3v2.3H466.1z M466.9,212.6h4.8c-0.7,0.7-1.5,1.4-2.5,2C468.3,214,467.5,213.3,466.9,212.6L466.9,212.6z M472.8,211.6l-0.2,0
	h-4.8c0.3-0.3,0.5-0.6,0.7-0.9l-1.3-0.2c-0.8,1.2-2.4,2.6-4.5,3.6c0.3,0.2,0.6,0.6,0.8,0.8c0.9-0.5,1.8-1,2.5-1.6
	c0.6,0.7,1.3,1.3,2.1,1.8c-1.9,0.9-4.2,1.6-6.3,2c0.2,0.3,0.5,0.7,0.6,1c0.8-0.2,1.7-0.4,2.5-0.6v4.6h1.2v-0.5h6.3v0.5h1.2v-4.7
	c0.7,0.2,1.5,0.4,2.2,0.4c0.2-0.3,0.5-0.8,0.8-1.1c-2.3-0.3-4.4-0.9-6.2-1.7c1.3-0.8,2.4-1.9,3.2-3.1L472.8,211.6z M483.2,216
	c0.1-0.7,0.1-1.3,0.1-1.9v-1.3h8.1v3.2H483.2z M483.3,211.8v-1.6c3.1-0.4,6.5-0.9,8.8-1.6l-1-0.9c-2.1,0.7-5.8,1.3-9,1.6v4.8
	c0,2.3-0.2,5.2-2.2,7.3c0.3,0.1,0.7,0.6,0.9,0.8c1.4-1.4,2-3.3,2.3-5.1h8.3v0.8h1.2v-6.3H483.3z M512,209.3h-3.2
	c-0.2-0.5-0.5-1.2-0.8-1.7l-1.3,0.2c0.2,0.4,0.5,1,0.7,1.5h-3.9v1h8.5V209.3z M506.9,212.5c-0.2-0.5-0.7-1.3-1.2-2l-1,0.4
	c0.5,0.6,1,1.5,1.2,2L506.9,212.5z M512.4,213h-2.7c0.4-0.6,0.8-1.4,1.2-2.2l-1.1-0.3c-0.3,0.7-0.8,1.8-1.2,2.5h-5.4v1h9.2V213z
	 M501.1,207.6H500v3.2h-2v1.1h2v3.5c-0.9,0.3-1.6,0.5-2.3,0.7l0.3,1.1c0.6-0.2,1.2-0.4,2-0.6v4.2c0,0.2-0.1,0.3-0.3,0.3
	c-0.2,0-0.8,0-1.5,0c0.2,0.3,0.3,0.8,0.4,1.1c1,0,1.6,0,2-0.2c0.4-0.2,0.5-0.5,0.5-1.2v-4.6l1.7-0.6l-0.2-1.1
	c-0.5,0.2-1,0.3-1.5,0.5v-3.1h1.8v-1.1h-1.8V207.6z M509.6,216.8c-0.4,1-0.9,1.8-1.6,2.4c-0.9-0.4-1.7-0.7-2.5-1
	c0.3-0.4,0.6-0.9,0.9-1.4H509.6z M512.5,216.8v-1h-1.4c0-0.2,0.1-0.5,0.1-0.7l-1.2-0.2c-0.1,0.3-0.1,0.6-0.2,0.9H507
	c0.2-0.5,0.5-0.9,0.7-1.4l-1.1-0.2c-0.2,0.5-0.5,1.1-0.8,1.6h-2.8v1h2.2c-0.4,0.7-0.9,1.3-1.3,1.9c1,0.3,2.1,0.8,3.2,1.2
	c-1,0.6-2.4,1-4.1,1.2c0.2,0.3,0.4,0.7,0.5,1c2.1-0.4,3.6-0.9,4.8-1.7c1.3,0.6,2.4,1.2,3.2,1.7l0.8-0.9c-0.8-0.5-1.9-1-3.1-1.6
	c0.8-0.8,1.3-1.7,1.7-2.9H512.5z M520.6,209.5c-0.7-0.6-2-1.3-3.1-1.8l-0.7,0.8c1.1,0.5,2.4,1.3,3,1.9L520.6,209.5z M519.5,213.9
	c-0.6-0.5-1.9-1.2-2.9-1.7l-0.7,0.8c1,0.5,2.3,1.2,2.9,1.8L519.5,213.9z M517.5,222c0.9-1.5,2-3.4,2.9-5.1l-0.9-0.8
	c-0.9,1.8-2.2,3.9-3,5.1L517.5,222z M527.7,216.8v3.6H523v-3.6H527.7z M521.9,222.3h1.2v-0.9h4.7v0.8h1.2v-6.5h-7.1V222.3z
	 M525,207.6c-0.9,2.2-2.7,4.4-4.9,5.8c0.3,0.2,0.7,0.6,0.9,0.9c0.6-0.4,1.2-0.8,1.7-1.3v0.9h5.5v-1.1h-5.3c1-1,1.9-2.1,2.6-3.3
	c1.2,1.8,2.8,3.6,4.3,4.6c0.2-0.3,0.6-0.8,0.9-1c-1.7-1-3.6-2.9-4.7-4.7c0.1-0.1,0.1-0.3,0.2-0.5L525,207.6z"/>
<path class="st7" d="M420.4,363.2c2.2,0,3.6-2,3.6-6.1c0-4.1-1.4-6-3.6-6c-2.2,0-3.7,2-3.7,6C416.8,361.2,418.2,363.2,420.4,363.2z
	 M420.4,362c-1.3,0-2.2-1.5-2.2-4.9c0-3.4,0.9-4.9,2.2-4.9c1.3,0,2.2,1.5,2.2,4.9C422.7,360.6,421.8,362,420.4,362z M427.6,363h7.4
	v-1.3h-3.2c-0.6,0-1.3,0.1-1.9,0.1c2.8-2.6,4.6-5,4.6-7.3c0-2.1-1.3-3.5-3.4-3.5c-1.5,0-2.5,0.7-3.5,1.7l0.8,0.8
	c0.6-0.8,1.5-1.4,2.4-1.4c1.5,0,2.2,1,2.2,2.3c0,2-1.7,4.4-5.4,7.6V363z M440,363.2c0.6,0,1.1-0.4,1.1-1.1c0-0.7-0.5-1.1-1.1-1.1
	s-1.1,0.5-1.1,1.1C438.9,362.8,439.4,363.2,440,363.2z M457.5,350.8l-0.3,0.1h-11.4v1.2h10.3c-1.2,1.1-2.9,2.4-4.4,3.1v7.5
	c0,0.3-0.1,0.4-0.4,0.4c-0.4,0-1.6,0-2.9,0c0.2,0.3,0.4,0.8,0.5,1.2c1.6,0,2.7,0,3.3-0.2c0.6-0.2,0.8-0.5,0.8-1.3v-6.9
	c2-1.1,4.2-2.8,5.6-4.3L457.5,350.8z M467.3,359.1v-1.9h1.4v1.9H467.3z M465,357.2h1.4v1.9H465c0-0.4,0-0.9,0-1.2V357.2z M467.4,352
	c-0.2,0.6-0.5,1.2-0.7,1.7h-1.8c0.3-0.5,0.5-1.1,0.8-1.7H467.4z M467.3,354.6h1.4v1.8h-1.4V354.6z M465,354.6h1.4v1.8H465V354.6z
	 M476,351.4c-0.1,1.9-0.2,2.6-0.4,2.8c-0.1,0.1-0.2,0.2-0.4,0.1c-0.2,0-0.8,0-1.4-0.1c0.1,0.3,0.2,0.7,0.3,1c0.7,0,1.3,0,1.6,0
	c0.4,0,0.7-0.1,0.9-0.4c0.4-0.4,0.5-1.4,0.6-4c0-0.1,0-0.4,0-0.4h-6.9v1h2.2c-0.3,1.5-0.9,2.8-2.6,3.5v-1.3h-2
	c0.4-0.7,0.7-1.5,1-2.2L468,351l-0.2,0H466c0.1-0.4,0.3-0.8,0.4-1.2l-1.1-0.2c-0.5,2-1.4,3.8-2.5,5.1c0.3,0.2,0.7,0.5,0.9,0.7
	c0.1-0.1,0.2-0.3,0.3-0.4v2.9c0,1.8-0.1,4.2-1.2,5.8c0.2,0.1,0.7,0.4,0.8,0.5c0.8-1.2,1.1-2.7,1.2-4.2h3.8v2.9
	c0,0.2-0.1,0.3-0.3,0.3c-0.2,0-0.9,0-1.8,0c0.2,0.3,0.3,0.7,0.4,1c1.1,0,1.7,0,2.1-0.2c0.4-0.2,0.5-0.5,0.5-1.1v-8
	c0.2,0.2,0.5,0.5,0.6,0.8c2-0.9,2.7-2.4,3.1-4.3H476z M477.5,360.1h-3v-2h2.8v-1h-2.8v-1.6h-1.1v1.6H472c0.1-0.4,0.2-0.8,0.3-1.3
	l-1-0.2c-0.3,1.4-0.8,2.7-1.5,3.6c0.3,0.1,0.7,0.4,0.9,0.5c0.3-0.4,0.6-1,0.8-1.6h1.8v2H470v1h3.4v3h1.1v-3h3V360.1z M482.7,352.2
	h11.1v1.9h1.2v-3h-5.7c-0.3-0.5-0.6-1.1-0.9-1.6l-1.2,0.3c0.2,0.4,0.5,0.9,0.7,1.3h-6.4v3h1.2V352.2z M484.7,359.3
	c1.2-0.4,2.4-0.9,3.6-1.5c1.2,0.6,2.4,1.1,3.8,1.5H484.7z M485.1,362.7v-2.3h6.3v2.3H485.1z M485.9,354.6h4.8
	c-0.7,0.7-1.5,1.4-2.5,2C487.3,356,486.5,355.3,485.9,354.6L485.9,354.6z M491.8,353.6l-0.2,0h-4.8c0.3-0.3,0.5-0.6,0.7-0.9
	l-1.3-0.2c-0.8,1.2-2.4,2.6-4.5,3.6c0.3,0.2,0.6,0.6,0.8,0.8c0.9-0.5,1.8-1,2.5-1.6c0.6,0.7,1.3,1.3,2.1,1.8c-1.9,0.9-4.2,1.6-6.3,2
	c0.2,0.3,0.5,0.7,0.6,1c0.8-0.2,1.7-0.4,2.5-0.6v4.6h1.2v-0.5h6.3v0.5h1.2v-4.7c0.7,0.2,1.5,0.4,2.2,0.4c0.2-0.3,0.5-0.8,0.8-1.1
	c-2.3-0.3-4.4-0.9-6.2-1.7c1.3-0.8,2.4-1.9,3.2-3.1L491.8,353.6z M502.2,358c0.1-0.7,0.1-1.3,0.1-1.9v-1.3h8.1v3.2H502.2z
	 M502.3,353.8v-1.6c3.1-0.4,6.5-0.9,8.8-1.6l-1-0.9c-2.1,0.7-5.8,1.3-9,1.6v4.8c0,2.3-0.2,5.2-2.2,7.3c0.3,0.1,0.7,0.6,0.9,0.8
	c1.4-1.4,2-3.3,2.3-5.1h8.3v0.8h1.2v-6.3H502.3z M518.6,353.3h5v3.5h1.2v-3.5h5.1v2.5h1.2v-3.4h-6.2v-1.2h5.5v-0.9h-12.1v0.9h5.4
	v1.2h-6.1v3.4h1.1V353.3z M529.4,356.2c-0.9-0.3-2.5-0.6-3.7-0.8l-0.3,0.7c1.2,0.2,2.9,0.5,3.7,0.9L529.4,356.2z M528.6,353.5
	c-0.8,0.3-2.1,0.8-3,1l0.4,0.6c0.9-0.2,2.2-0.5,3.1-0.9L528.6,353.5z M519.3,354.2c1,0.2,2.4,0.6,3.1,0.9l0.3-0.7
	c-0.7-0.3-2.1-0.7-3.1-0.8L519.3,354.2z M519.2,357c1.1-0.2,2.2-0.4,3.5-0.7l0-0.8c-1.4,0.2-2.8,0.4-3.8,0.5L519.2,357z
	 M531.2,358.3v-1h-13.9v1h6.2c-0.1,0.4-0.2,0.8-0.3,1.2h-4.6v4.8h1.1v-3.8h2.4v3.7h1.1v-3.7h2.4v3.7h1.1v-3.7h2.5v2.6
	c0,0.1,0,0.2-0.2,0.2c-0.2,0-0.7,0-1.4,0c0.1,0.3,0.3,0.7,0.4,1c0.8,0,1.5,0,1.8-0.2c0.4-0.2,0.5-0.4,0.5-1v-3.6h-6
	c0.1-0.4,0.3-0.8,0.4-1.2H531.2z M547.5,354.2c-0.7,1-1.9,2.2-2.9,3.2c-0.7-1.2-1.3-2.4-1.8-3.7v-0.2h6.4v-1.2h-2l0.7-0.8
	c-0.6-0.5-1.9-1.3-2.9-1.8l-0.7,0.8c1,0.5,2.2,1.3,2.8,1.8h-4.3v-2.6h-1.2v2.6h-6.3v1.2h6.3v4.4c-2.4,1.4-5,2.8-6.6,3.7l0.8,1.1
	c1.6-0.9,3.8-2.2,5.9-3.5v3.5c0,0.3-0.1,0.4-0.4,0.4c-0.3,0-1.4,0-2.4,0c0.2,0.4,0.4,0.9,0.4,1.2c1.4,0,2.4,0,2.9-0.2
	c0.5-0.2,0.8-0.6,0.8-1.4v-6.4c1.4,2.9,3.4,5.4,6,6.6c0.2-0.3,0.6-0.8,0.9-1c-1.7-0.8-3.2-2.1-4.4-3.7c1.1-0.9,2.4-2.2,3.3-3.3
	L547.5,354.2z M539.7,357.4c-0.5-0.9-1.7-2.1-2.7-3l-0.9,0.6c1,0.9,2.1,2.2,2.6,3L539.7,357.4z"/>
<path class="st7" d="M308.4,477.2c2.2,0,3.6-2,3.6-6.1c0-4.1-1.4-6-3.6-6c-2.2,0-3.7,2-3.7,6C304.8,475.2,306.2,477.2,308.4,477.2z
	 M308.4,476c-1.3,0-2.2-1.5-2.2-4.9c0-3.4,0.9-4.9,2.2-4.9c1.3,0,2.2,1.5,2.2,4.9C310.7,474.6,309.8,476,308.4,476z M319.1,477.2
	c2.1,0,3.8-1.2,3.8-3.3c0-1.6-1.1-2.7-2.5-3v-0.1c1.2-0.5,2.1-1.4,2.1-2.8c0-1.9-1.4-2.9-3.4-2.9c-1.4,0-2.4,0.6-3.3,1.4l0.8,0.9
	c0.7-0.7,1.5-1.1,2.4-1.1c1.2,0,2,0.7,2,1.9c0,1.3-0.8,2.2-3.2,2.2v1.1c2.7,0,3.6,0.9,3.6,2.3c0,1.4-1,2.2-2.4,2.2
	c-1.3,0-2.2-0.6-2.9-1.3l-0.7,1C316.1,476.4,317.3,477.2,319.1,477.2z M328,477.2c0.6,0,1.1-0.4,1.1-1.1c0-0.7-0.5-1.1-1.1-1.1
	s-1.1,0.5-1.1,1.1C326.9,476.8,327.4,477.2,328,477.2z M337.3,475.1h-2.2v-4.7h2.2V475.1z M333.1,465.6h2c-0.4,2.4-1.2,4.7-2.3,6.2
	c0.2,0.3,0.5,1,0.5,1.3c0.3-0.4,0.6-0.8,0.8-1.3v5.8h1v-1.3h3.2v-6.8h-3.2c0.4-1.2,0.7-2.5,1-3.8h2.5v-1.1h-5.6V465.6z M342,470.2
	v-4.6h2.6v4.6H342z M347.5,470.2h-1.8v-4.6h1.5v-1.1h-7.7v1.1h1.3v4.6h-1.8v1.1h1.7c0,2.1-0.4,4.6-2,6.3c0.3,0.1,0.7,0.5,0.9,0.7
	c1.8-1.9,2.2-4.5,2.3-7h2.6v6.9h1.1v-6.9h1.8V470.2z M353.2,473.6c0.1-0.5,0.2-1.1,0.2-1.6h3.4v-3.6h-2.5c1.4-1,2.7-2.2,3.4-3.8
	l-0.7-0.4l-0.2,0h-4.3v1h3.7c-0.4,0.6-0.9,1.2-1.5,1.7c-0.5-0.5-1.2-1-1.9-1.4l-0.7,0.7c0.6,0.4,1.3,0.9,1.8,1.4
	c-1,0.7-2.1,1.2-3.2,1.5c0.2,0.2,0.5,0.6,0.6,0.9c0.6-0.2,1.2-0.4,1.8-0.8v0.2h2.7v1.7h-3.2c-0.1,1.1-0.4,2.6-0.6,3.5h3.7
	c-0.1,1.5-0.3,2.2-0.6,2.4c-0.1,0.1-0.3,0.1-0.6,0.1c-0.3,0-1.2,0-2-0.1c0.2,0.3,0.3,0.7,0.4,1c0.9,0,1.7,0.1,2.1,0
	c0.5,0,0.8-0.1,1.1-0.4c0.4-0.4,0.6-1.3,0.8-3.6c0-0.1,0-0.5,0-0.5H353.2z M363.3,472.9l-0.2,0h-5.5v0.9h4.9
	c-0.4,0.7-0.9,1.2-1.5,1.7c-0.9-0.5-1.9-1.1-2.8-1.6l-0.6,0.7c0.8,0.4,1.7,1,2.5,1.5c-1,0.6-2.1,1-3.3,1.2c0.2,0.2,0.4,0.6,0.5,0.9
	c1.3-0.3,2.6-0.8,3.7-1.6c0.9,0.6,1.8,1.1,2.4,1.6l0.6-0.8c-0.5-0.4-1.3-0.9-2.2-1.4c0.9-0.8,1.6-1.7,2.1-2.9L363.3,472.9z
	 M364.2,465.3c-0.5,0.6-1.4,1.3-2.2,1.9c-0.4-0.3-0.8-0.6-1.2-1c0.7-0.5,1.6-1.2,2.3-1.9l-0.9-0.6c-0.5,0.5-1.3,1.3-2,1.9
	c-0.5-0.6-0.9-1.2-1.2-1.9l-0.9,0.3c0.8,1.8,2.2,3.3,3.8,4.4h-3.6v1.2c0,0.8-0.2,1.6-1.5,2.3c0.2,0.1,0.6,0.5,0.8,0.7
	c1.4-0.8,1.7-2,1.7-3v-0.3h2.2v1.6c0,0.9,0.2,1.3,1.2,1.3h1.3c0.3,0,0.6,0,0.8-0.1c0-0.2-0.1-0.6-0.1-0.8c-0.2,0-0.6,0.1-0.8,0.1
	h-1.2c-0.2,0-0.3-0.1-0.3-0.5v-2.1c0.7,0.4,1.5,0.7,2.3,1c0.2-0.3,0.5-0.7,0.7-0.9c-1-0.3-1.9-0.6-2.7-1.1c0.7-0.5,1.6-1.1,2.3-1.8
	L364.2,465.3z M374.8,470.4l-2.2,0.6V468h2.2v-1.1h-2.2v-3.2h-1.2v3.2H369v1.1h2.4v3.4c-0.9,0.2-1.8,0.5-2.5,0.7l0.4,1.2
	c0.7-0.2,1.4-0.4,2.2-0.6v4c0,0.2-0.1,0.3-0.3,0.3c-0.2,0-0.9,0-1.6,0c0.2,0.3,0.3,0.8,0.4,1.1c1.1,0,1.8,0,2.2-0.2
	c0.4-0.2,0.6-0.5,0.6-1.2v-4.4c0.8-0.2,1.6-0.5,2.4-0.7L374.8,470.4z M383.5,465h-8.6v1.2h4.6v10.3c0,0.3-0.1,0.4-0.4,0.4
	c-0.3,0-1.5,0-2.7,0c0.2,0.3,0.4,0.9,0.5,1.3c1.5,0,2.5,0,3.1-0.2c0.6-0.2,0.8-0.6,0.8-1.4v-10.4h2.8V465z M396.3,467.3h-3v0.9h3v1
	h-4.1v0.9h3.3l-0.5,0.5c1.2,0.4,2.8,1,3.6,1.5l0.6-0.8c-0.7-0.4-2-0.9-3.1-1.2h5.3v-0.9h-4v-1h3.3v-0.9h-3.3v-1h3.8v-0.9h-2.3
	c0.3-0.4,0.7-1,1-1.5l-1.1-0.3c-0.2,0.5-0.6,1.2-1,1.7l0.3,0.1h-2.9l0.4-0.2c-0.2-0.5-0.6-1.1-1-1.6l-0.9,0.4c0.3,0.4,0.7,1,0.9,1.5
	h-2.1v0.9h3.7V467.3z M392.3,472c-0.3-0.4-1.5-2.2-1.9-2.8v-1h1.8v-1.1h-1.8v-3.5h-1.1v3.5h-2.2v1.1h2.1c-0.5,2.2-1.4,4.7-2.4,6
	c0.2,0.3,0.5,0.7,0.6,1c0.7-1,1.4-2.7,2-4.5v7.5h1.1v-7.6c0.5,0.8,1,1.8,1.3,2.3L392.3,472z M395.1,473.6l-0.2,0h-2.8v0.9h2.3
	c-0.6,1.2-1.6,2.1-2.8,2.6c0.2,0.2,0.5,0.5,0.6,0.8c1.5-0.7,2.9-2,3.5-4L395.1,473.6z M400.3,472.3c-0.5,0.6-1.4,1.3-2.1,1.9
	c-0.3-0.4-0.6-0.9-0.8-1.4v-0.9h-4v0.9h2.9v4.3c0,0.2-0.1,0.2-0.2,0.2h-1.6c0.1,0.3,0.3,0.7,0.3,1c1,0,1.6,0,2.1-0.2
	c0.4-0.2,0.5-0.5,0.5-1v-2.4c0.9,1.4,2.1,2.5,3.6,3.2c0.2-0.3,0.5-0.7,0.7-0.9c-1.1-0.4-2.1-1.1-2.9-2c0.8-0.5,1.7-1.2,2.4-1.9
	L400.3,472.3z"/>
<path class="st7" d="M132.4,465.2c2.2,0,3.6-2,3.6-6.1c0-4.1-1.4-6-3.6-6c-2.2,0-3.7,2-3.7,6C128.8,463.2,130.2,465.2,132.4,465.2z
	 M132.4,464c-1.3,0-2.2-1.5-2.2-4.9c0-3.4,0.9-4.9,2.2-4.9c1.3,0,2.2,1.5,2.2,4.9C134.7,462.6,133.8,464,132.4,464z M140.7,460.6
	l2.7-4c0.3-0.6,0.7-1.2,0.9-1.7h0.1c0,0.6-0.1,1.6-0.1,2.1v3.6H140.7z M144.3,465h1.4v-3.2h1.6v-1.2h-1.6v-7.3h-1.6l-4.9,7.6v1h5.1
	V465z M152,465.2c0.6,0,1.1-0.4,1.1-1.1c0-0.7-0.5-1.1-1.1-1.1s-1.1,0.5-1.1,1.1C150.9,464.8,151.4,465.2,152,465.2z M165,462.8h2.4
	v1.7H165V462.8z M167.3,459.3H165v-1.6h2.4V459.3z M167.3,461.9H165v-1.7h2.4V461.9z M161,463.1h-1.8v-4.7h1.8V463.1z M171.4,464.5
	h-3v-1.7h2.3v-0.9h-2.3v-1.7h2.3v-0.9h-2.3v-1.6h2.5v-1h-2.2c-0.2-0.5-0.6-1.3-0.9-1.9l-1,0.4c0.2,0.4,0.5,1,0.7,1.5h-2.1
	c0.5-0.7,1-1.5,1.4-2.4h3.2v1.7h1.1v-2.7h-3.8c0.2-0.4,0.4-0.9,0.5-1.4l-1.1-0.2c-0.2,0.6-0.4,1.1-0.6,1.6h-3.4v2.7h1v-1.7h1.9
	c-0.9,1.7-2,3.2-3.5,4.2v-1.1h-2.7c0.3-1.1,0.6-2.3,0.8-3.6h2.2v-1.1h-5.2v1.1h1.9c-0.4,2.6-1.1,5.1-2.3,6.7c0.2,0.2,0.6,0.8,0.7,1
	c0.3-0.4,0.6-0.9,0.8-1.4v5.2h1v-1.3h2.8v-5.6c0.2,0.3,0.6,0.7,0.7,0.9c0.4-0.3,0.8-0.6,1.1-0.9v7.6h1.1v-0.7h6.5L171.4,464.5z
	 M187.7,453.3c-0.1,3.2-0.3,4.5-0.5,4.8c-0.1,0.2-0.3,0.2-0.5,0.2c-0.3,0-0.9,0-1.7-0.1c0.2,0.3,0.3,0.7,0.3,1.1c0.7,0,1.4,0,1.8,0
	c0.4,0,0.7-0.1,1-0.5c0.4-0.5,0.6-1.9,0.7-6c0-0.2,0-0.5,0-0.5h-7.8v1h3.3c-0.1,0.8-0.2,1.5-0.4,2.2c-0.6-0.5-1.4-1.2-2.1-1.7
	l-0.6,0.7c0.8,0.6,1.7,1.5,2.3,2.1c-0.5,1.1-1.4,1.9-2.8,2.5c0.2,0.2,0.6,0.6,0.7,0.8c2.9-1.3,3.7-3.7,4-6.6H187.7z M183.8,459.9
	c0.7,0.7,1.4,1.8,1.7,2.4l0.8-0.5c-0.4-0.6-1.1-1.6-1.8-2.3L183.8,459.9z M178.6,453.8c-0.2-0.6-0.6-1.5-1.1-2.1l-1,0.4
	c0.4,0.7,0.8,1.6,1,2.2L178.6,453.8z M180.5,454.3h-5.6v1h5.6V454.3z M180.1,456.4h-4.8v0.9h4.8V456.4z M175.3,459.5h4.8v-1h-4.8
	V459.5z M179,461.7v2.7h-2.7v-2.7H179z M180.1,460.7h-4.8v5.4h1v-0.7h3.7V460.7z M181,464.7c0.5-0.9,0.9-2.3,1.1-3.5l-0.8-0.3
	c-0.2,1.1-0.6,2.5-1.1,3.4L181,464.7z M184.2,464.9c-0.5,0-0.7-0.1-0.7-0.5v-3.9h-1v3.9c0,1.1,0.3,1.4,1.6,1.4h2.1
	c1.1,0,1.4-0.5,1.5-2.7c-0.3-0.1-0.7-0.2-0.9-0.4c0,1.9-0.1,2.1-0.7,2.1H184.2z M187.4,460.6c0.6,1.1,1.1,2.5,1.3,3.4l0.9-0.4
	c-0.2-0.8-0.8-2.2-1.4-3.3L187.4,460.6z"/>
<path class="st1" d="M56.4,309.2c2.2,0,3.6-2,3.6-6.1c0-4.1-1.4-6-3.6-6c-2.2,0-3.7,2-3.7,6C52.8,307.2,54.2,309.2,56.4,309.2z
	 M56.4,308c-1.3,0-2.2-1.5-2.2-4.9c0-3.4,0.9-4.9,2.2-4.9c1.3,0,2.2,1.5,2.2,4.9C58.7,306.6,57.8,308,56.4,308z M67.1,309.2
	c2,0,3.8-1.5,3.8-4c0-2.6-1.6-3.7-3.5-3.7c-0.7,0-1.2,0.2-1.7,0.5l0.3-3.4h4.4v-1.3h-5.7l-0.4,5.5l0.8,0.5c0.7-0.4,1.2-0.7,2-0.7
	c1.5,0,2.4,1,2.4,2.7c0,1.7-1.1,2.8-2.5,2.8c-1.4,0-2.2-0.6-2.9-1.3l-0.7,1C64.1,308.4,65.2,309.2,67.1,309.2z M76,309.2
	c0.6,0,1.1-0.4,1.1-1.1c0-0.7-0.5-1.1-1.1-1.1c-0.6,0-1.1,0.5-1.1,1.1C74.9,308.8,75.4,309.2,76,309.2z M88.8,308.6v-4.1H94v-1.2
	h-5.1v-3.5h5.7v-1.2h-5.7v-3.1h-1.2v3.1h-3.2c0.4-0.8,0.6-1.7,0.9-2.6l-1.2-0.3c-0.6,2.3-1.6,4.5-3,5.9c0.3,0.2,0.8,0.5,1.1,0.7
	c0.6-0.7,1.2-1.6,1.7-2.6h3.8v3.5h-4.8v1.2h4.8v4.1h-6.5v1.2h14.2v-1.2H88.8z M102.8,301.1c1.4-0.3,2.9-0.7,4.3-1.1
	c1.3,0.4,2.5,0.8,3.4,1.1H102.8z M109.9,298.1c-0.7,0.4-1.6,0.7-2.7,1.1c-1.4-0.4-2.8-0.8-4-1.1H109.9z M113.3,302.1v-1h-2.3
	l0.6-0.6c-0.8-0.3-1.9-0.6-3.1-1c0.9-0.3,1.7-0.7,2.4-1.1l-0.6-0.4h2.4v-1h-5.4c-0.3-0.5-0.8-1.1-1.2-1.6l-0.8,0.4
	c0.3,0.4,0.6,0.8,0.9,1.2h-5.9v1h2.6l-0.7,0.6c1.1,0.3,2.4,0.6,3.6,0.9c-1.4,0.4-2.8,0.7-4.1,0.9c0.2,0.1,0.4,0.4,0.6,0.6h-2v3.4
	c0,1.6-0.2,3.7-1.5,5.2c0.3,0.1,0.7,0.5,0.9,0.8c1.4-1.6,1.7-4.1,1.7-5.9v-2.4H113.3z M108.1,308.7v-1.6h4v-1h-4v-1.4h4.3v-1h-4.3
	v-1.4h-1.2v1.4h-2.8c0.2-0.4,0.3-0.7,0.4-1.1l-1-0.3c-0.5,1.3-1.2,2.5-2.1,3.3c0.2,0.2,0.5,0.8,0.6,1c0.5-0.5,1.1-1.2,1.5-2h3.3v1.4
	h-3.7v1h3.7v1.6h-5.2v1h11.9v-1H108.1z M130.4,295.8h-1.1v6.6c0,0.2-0.1,0.3-0.3,0.3c-0.2,0-1,0-1.9,0c0.2,0.3,0.3,0.7,0.4,1
	c1.1,0,1.8,0,2.3-0.2c0.4-0.2,0.6-0.4,0.6-1.1V295.8z M127.4,296.4h-1.1v5.2h1.1V296.4z M120.7,300.3h-2.8v3h1v-2.2h1.8v2.6h1v-2.6
	h2v1.2c0,0.1,0,0.2-0.2,0.2c-0.1,0-0.5,0-1.1,0c0.1,0.2,0.3,0.5,0.3,0.8c0.7,0,1.2,0,1.5-0.1c0.4-0.1,0.4-0.4,0.4-0.8v-2h-3v-0.8
	h3.4v-0.9h-3.4v-1h2.8v-0.8h-2.8v-1.2h-1v1.2h-1.5c0.1-0.3,0.3-0.6,0.4-0.9l-0.9-0.2c-0.3,0.9-0.7,1.8-1.3,2.4
	c0.2,0.1,0.7,0.3,0.8,0.5c0.2-0.3,0.4-0.6,0.6-1h1.9v1h-3.6v0.9h3.6V300.3z M129.6,305.4c-0.7,0.5-1.9,1.2-2.8,1.7
	c-0.6-0.5-1.1-1.1-1.5-1.8h6v-1h-6.1c-0.2-0.4-0.4-0.9-0.7-1.3l-1.1,0.3c0.2,0.3,0.4,0.7,0.5,1h-6.8v1h5.6c-1.6,0.9-3.8,1.7-5.8,2.1
	c0.2,0.2,0.5,0.6,0.7,0.9c0.9-0.2,1.8-0.5,2.8-0.8v0.7c0,0.7-0.4,1.1-0.7,1.2c0.1,0.2,0.3,0.5,0.4,0.8v0.1c0.3-0.2,0.8-0.3,5-1.3
	c0-0.2,0-0.6,0-0.9l-3.7,0.8V307c1.1-0.5,2-1,2.8-1.6c1.2,2.5,3.4,4,6.6,4.7c0.1-0.3,0.4-0.7,0.7-1c-1.5-0.3-2.8-0.7-3.9-1.4
	c0.9-0.4,2-1.1,2.9-1.6L129.6,305.4z M143.8,298.7v2h-4.4v1h9.9v-1h-4.2v-2h3.6v-1h-3.6v-2h-1.2v2H142c0.2-0.5,0.4-1,0.6-1.5
	l-1.1-0.3c-0.5,1.5-1.3,3-2.3,3.9c0.3,0.1,0.8,0.4,1,0.6c0.4-0.5,0.8-1,1.2-1.7H143.8z M141.7,304h5.2v2.6h-5.2V304z M148.1,307.5
	V303h-7.5v4.5H148.1z M138.5,298.1c-0.4-0.7-1.3-1.7-2-2.4l-0.9,0.5c0.7,0.8,1.6,1.9,2,2.5L138.5,298.1z M138.5,303.2l-0.2,0h-1.8
	c0.9-1.1,2-2.8,2.7-3.7l-0.8-0.3l-0.2,0.1H135v1h2.5c-0.7,1-1.6,2.2-1.9,2.6c-0.3,0.3-0.5,0.4-0.8,0.5c0.1,0.2,0.4,0.8,0.4,1.1
	c0.1-0.1,0.5-0.2,0.9-0.2h1.7c-0.5,2.5-1.6,4.3-3.1,5.2c0.2,0.2,0.6,0.6,0.8,0.8c0.8-0.6,1.5-1.3,2.1-2.4c1.2,1.8,3.2,2.1,6.4,2.1
	c1.7,0,3.7,0,5.2-0.1c0-0.3,0.2-0.9,0.4-1.1c-1.6,0.1-3.9,0.2-5.6,0.2c-2.9,0-4.9-0.3-6-1.9c0.5-1,0.8-2.2,1-3.6L138.5,303.2z"/>
<path class="st1" d="M103.4,153.2c2.3,0,3.6-2.1,3.6-6c0-3.8-1.4-5.9-3.6-5.9c-2.3,0-3.7,2-3.7,5.9
	C99.8,151.1,101.2,153.2,103.4,153.2z M103.4,152c-1.3,0-2.2-1.4-2.2-4.8c0-3.3,0.9-4.7,2.2-4.7c1.3,0,2.2,1.4,2.2,4.7
	C105.7,150.6,104.8,152,103.4,152z M114.5,147.1c1.4,0,2.1,0.9,2.1,2.4c0,1.5-0.9,2.5-2,2.5c-1.4,0-2.3-1.2-2.5-3.4
	C112.9,147.5,113.8,147.1,114.5,147.1z M114.7,153.2c1.8,0,3.4-1.5,3.4-3.7c0-2.3-1.3-3.5-3.2-3.5c-0.9,0-1.9,0.5-2.7,1.4
	c0.1-3.6,1.4-4.9,3-4.9c0.7,0,1.4,0.3,1.9,0.9l0.8-0.9c-0.6-0.7-1.5-1.2-2.7-1.2c-2.3,0-4.4,1.8-4.4,6.4
	C110.7,151.4,112.4,153.2,114.7,153.2z M123,153.2c0.6,0,1.1-0.4,1.1-1.1c0-0.7-0.5-1.1-1.1-1.1c-0.6,0-1.1,0.5-1.1,1.1
	C121.9,152.8,122.4,153.2,123,153.2z M133.1,152c-2.1,0-3.5-1.9-3.5-4.9c0-2.9,1.4-4.8,3.5-4.8c2.1,0,3.5,1.8,3.5,4.8
	C136.6,150.1,135.2,152,133.1,152z M136.7,155.9c0.7,0,1.3-0.1,1.7-0.3l-0.3-1.2c-0.3,0.1-0.7,0.2-1.2,0.2c-1.3,0-2.4-0.5-2.9-1.6
	c2.5-0.4,4.1-2.7,4.1-6c0-3.8-2.1-6-5-6c-2.9,0-5,2.3-5,6c0,3.4,1.7,5.7,4.3,6.1C133.1,154.8,134.6,155.9,136.7,155.9z M147.1,153.2
	c1.5,0,2.7-0.6,3.6-1.7l-0.8-0.9c-0.8,0.8-1.6,1.3-2.7,1.3c-2.2,0-3.6-1.9-3.6-4.8c0-2.9,1.5-4.8,3.7-4.8c1,0,1.8,0.5,2.4,1.1l0.8-1
	c-0.7-0.8-1.8-1.5-3.2-1.5c-3,0-5.2,2.3-5.2,6.1C142,151,144.2,153.2,147.1,153.2z M164.5,144.5h-6.4v-3h6.4V144.5z M165.7,140.3
	H157v5.3h8.7V140.3z M159.1,148.4v3.8h-3.3v-3.8H159.1z M154.7,154.2h1.1v-0.9h3.3v0.7h1.2v-6.8h-5.6V154.2z M163.2,152.2v-3.8h3.6
	v3.8H163.2z M162,147.3v7h1.2v-0.9h3.6v0.8h1.2v-6.8H162z M176.8,147.5c-0.3-0.4-1.2-2.1-1.6-2.7v-1h1.5v-0.2
	c0.2,0.2,0.6,0.5,0.7,0.7c0.6-0.3,1.2-0.7,1.7-1.1v0.9h4.8v-1h-4.7c0.8-0.6,1.6-1.3,2.2-2c1.3,1.2,3.3,2.4,4.9,3.1
	c0.1-0.3,0.3-0.8,0.5-1.1c-1.6-0.6-3.6-1.7-4.8-2.8c0.1-0.2,0.2-0.4,0.4-0.5l-1.2-0.4c-0.9,1.5-2.6,3-4.4,4v-0.8h-1.5v-3.1h-1v3.1
	h-1.9v1.1h1.7c-0.4,2.1-1.2,4.5-2,5.8c0.2,0.3,0.4,0.8,0.5,1.2c0.6-1.1,1.2-2.8,1.7-4.5v7.9h1v-8c0.4,0.8,0.9,1.7,1.1,2.2
	L176.8,147.5z M182.8,146.2h1.8v2.1h-1.8V146.2z M181.9,149.2h3.7v-3.8h-3.7V149.2z M178.3,146.2h1.7v2.1h-1.7V146.2z M177.4,149.2
	h3.6v-3.8h-3.6V149.2z M178.7,149.5c-0.5,1.7-1.6,3.1-3.1,4c0.3,0.2,0.6,0.6,0.8,0.8c0.9-0.6,1.8-1.5,2.4-2.5c0.6,0.5,1.3,1,1.6,1.4
	l0.6-0.8c-0.4-0.4-1.2-1-1.8-1.4c0.2-0.4,0.3-0.8,0.4-1.2L178.7,149.5z M183.2,149.5c-0.3,1.7-1.2,3.1-2.5,3.9
	c0.2,0.2,0.7,0.6,0.8,0.8c0.8-0.6,1.5-1.3,2-2.3c0.9,0.6,1.9,1.5,2.5,2l0.7-0.8c-0.6-0.6-1.8-1.5-2.8-2.1c0.2-0.4,0.3-0.9,0.4-1.4
	L183.2,149.5z"/>
<path class="st1" d="M278.4,95.2c2.2,0,3.6-2,3.6-6.1c0-4.1-1.4-6-3.6-6c-2.2,0-3.7,2-3.7,6S276.2,95.2,278.4,95.2z M278.4,94
	c-1.3,0-2.2-1.5-2.2-4.9c0-3.4,0.9-4.9,2.2-4.9c1.3,0,2.2,1.5,2.2,4.9C280.7,92.6,279.8,94,278.4,94z M288,95h1.5
	c0.2-4.6,0.7-7.3,3.4-10.8v-0.9h-7.3v1.3h5.7C289.1,87.7,288.2,90.6,288,95z M298,95.2c0.6,0,1.1-0.4,1.1-1.1c0-0.7-0.5-1.1-1.1-1.1
	s-1.1,0.5-1.1,1.1C296.9,94.8,297.4,95.2,298,95.2z M314.9,84.9c-0.1,4.4-0.3,6-0.6,6.4c-0.1,0.2-0.3,0.2-0.5,0.2
	c-0.3,0-0.9,0-1.6-0.1c0.2,0.3,0.3,0.8,0.3,1.1c0.8,0,1.4,0,1.9,0c0.4,0,0.7-0.2,1-0.5c0.4-0.6,0.6-2.4,0.8-7.7v-0.6h-8.8
	c0.4-0.6,0.7-1.2,1-1.9l-1.2-0.4c-0.9,2.2-2.5,4.2-4.3,5.5c0.3,0.2,0.8,0.6,1,0.9c1-0.8,1.9-1.8,2.8-3H314.9z M310.7,87.6v2.6h-4.2
	v-2.6H310.7z M308.5,94.8c-1.7,0-2-0.2-2-1.1v-2.4h5.3v-4.7h-6.5v7.1c0,1.8,0.7,2.2,3.2,2.2h6c2.2,0,2.6-0.6,2.9-2.7
	c-0.3-0.1-0.8-0.2-1.1-0.4c-0.2,1.6-0.4,2-1.8,2H308.5z M330.4,87.5h-3.1v1h7.5v-1h-3.3v-2.6h3.6v-1h-3.6v-2.2h-1.2v2.2h-3.4v1h3.4
	V87.5z M325.1,86.8v2.6h1.1v-7.8h-1.1v2.3h-2.2v-2h-1v3h3.2v0.9h-4v1h1.2c-0.2,1-0.6,1.7-1.5,2.2c0.2,0.2,0.5,0.5,0.7,0.8
	c1.3-0.6,1.8-1.6,1.9-2.9H325.1z M333.6,91.3c-0.7,0.5-1.8,1.2-2.7,1.6c-0.7-0.6-1.2-1.2-1.6-1.9h6.1v-0.9h-6.3
	c-0.2-0.4-0.5-0.9-0.7-1.4l-1.1,0.3c0.2,0.3,0.4,0.7,0.5,1h-6.7V91h5.4c-1.5,0.9-3.7,1.6-5.6,2c0.2,0.2,0.5,0.6,0.7,0.9
	c0.9-0.2,2-0.5,2.9-0.9v1.1c0,0.7-0.5,1.1-0.8,1.2c0.2,0.2,0.4,0.7,0.5,0.9c0.3-0.2,0.8-0.3,5.2-1.3c0-0.2,0-0.7,0-0.9l-3.7,0.8
	v-2.3c0.9-0.4,1.8-1,2.5-1.5h0c1.3,2.6,3.7,4.3,6.8,5.1c0.1-0.3,0.4-0.7,0.7-1c-1.5-0.3-2.9-0.9-4-1.6c0.9-0.4,2-1,2.8-1.6
	L333.6,91.3z M351.2,89.6v4.6h-4.4v-5.6h5v-5.5h-1.3v4.3h-3.8v-5.8h-1.3v5.8h-3.7v-4.3h-1.2v5.5h4.9v5.6h-4.3v-4.6h-1.3v5.7h11.3
	v0.9h1.3v-6.6H351.2z M369.5,86.6c0.6,0,1.3,0,1.6-0.1c0-0.3-0.1-0.7-0.1-1c-0.4,0.1-1.1,0.1-1.6,0.1h-3.5c-0.6,0-0.7-0.2-0.7-0.7
	v-1h5.2v-1h-5.2v-1.3H364v3.2c0,1.2,0.4,1.7,1.8,1.7H369.5z M360.3,91.8h8v1.1h-8V91.8z M360.3,89.9h8V91h-8V89.9z M360.3,88.1h8
	v1.1h-8V88.1z M359.1,93.7h10.4v-6.4h-10.4V93.7z M359.9,86.8h1.2v-3.2c0.6-0.5,1.2-1.1,1.7-1.6l-1.1-0.4c-1.1,1.3-2.9,2.5-4.7,3.3
	c0.3,0.2,0.7,0.6,0.9,0.8c0.7-0.3,1.4-0.8,2-1.2V86.8z M361.8,93.8c-1.2,0.6-3.1,1.2-4.7,1.5c0.3,0.2,0.7,0.7,0.9,0.9
	c1.6-0.4,3.6-1.2,4.9-1.9L361.8,93.8z M365.7,94.4c1.7,0.6,3.5,1.2,4.4,1.8l1-0.7c-1.1-0.5-3-1.2-4.7-1.7L365.7,94.4z"/>
</svg>
