<?xml version="1.0" encoding="utf-8"?>
<!-- Generator: Adobe Illustrator 25.2.3, SVG Export Plug-In . SVG Version: 6.00 Build 0)  -->
<svg version="1.1" id="圖層_1" xmlns="http://www.w3.org/2000/svg" xmlns:xlink="http://www.w3.org/1999/xlink" x="0px" y="0px"
	 viewBox="0 0 324 32" enable-background="new 0 0 324 32" xml:space="preserve">
<g>
	<path fill="#FFFFFF" d="M13.4,23c0,0-0.1-0.1-0.1-0.2V9c0-0.1,0-0.1,0.1-0.2c0,0,0.1-0.1,0.2-0.1H16c0.1,0,0.1,0,0.2,0.1
		c0,0,0.1,0.1,0.1,0.2v11.5c0,0.1,0,0.1,0.1,0.1h6.7c0.1,0,0.1,0,0.2,0.1c0,0,0.1,0.1,0.1,0.2v2c0,0.1,0,0.1-0.1,0.2
		c0,0-0.1,0.1-0.2,0.1h-9.4C13.5,23.1,13.4,23,13.4,23z"/>
	<path fill="#FFFFFF" d="M27.1,23c0,0-0.1-0.1-0.1-0.2V9c0-0.1,0-0.1,0.1-0.2c0,0,0.1-0.1,0.2-0.1h2.4c0.1,0,0.1,0,0.2,0.1
		c0,0,0.1,0.1,0.1,0.2v13.8c0,0.1,0,0.1-0.1,0.2c0,0-0.1,0.1-0.2,0.1h-2.4C27.2,23.1,27.2,23,27.1,23z"/>
	<path fill="#FFFFFF" d="M33.9,23c0,0-0.1-0.1-0.1-0.2v-2.2c0-0.1,0-0.2,0.1-0.3l6.6-9v-0.1h-0.1H34c-0.1,0-0.1,0-0.2-0.1
		c0,0-0.1-0.1-0.1-0.2V9c0-0.1,0-0.1,0.1-0.2c0,0,0.1-0.1,0.2-0.1h9.5c0.1,0,0.1,0,0.2,0.1c0,0,0.1,0.1,0.1,0.2v2.2
		c0,0.1,0,0.2-0.1,0.3l-6.6,9v0.1c0,0,0,0,0.1,0h6.4c0.1,0,0.1,0,0.2,0.1c0,0,0.1,0.1,0.1,0.2v2c0,0.1,0,0.1-0.1,0.2
		c0,0-0.1,0.1-0.2,0.1h-9.5C34,23.1,34,23,33.9,23z"/>
	<path fill="#FFFFFF" d="M47.4,23c0,0-0.1-0.1-0.1-0.2v-2.2c0-0.1,0-0.2,0.1-0.3l6.6-9v-0.1h-0.1h-6.4c-0.1,0-0.1,0-0.2-0.1
		c0,0-0.1-0.1-0.1-0.2V9c0-0.1,0-0.1,0.1-0.2c0,0,0.1-0.1,0.2-0.1H57c0.1,0,0.1,0,0.2,0.1c0,0,0.1,0.1,0.1,0.2v2.2
		c0,0.1,0,0.2-0.1,0.3l-6.6,9v0.1c0,0,0,0,0.1,0H57c0.1,0,0.1,0,0.2,0.1c0,0,0.1,0.1,0.1,0.2v2c0,0.1,0,0.1-0.1,0.2
		c0,0-0.1,0.1-0.2,0.1h-9.5C47.5,23.1,47.4,23,47.4,23z"/>
	<path fill="#FFFFFF" d="M82,22.6c-0.8-0.4-1.4-1-1.9-1.7c-0.4-0.8-0.7-1.6-0.7-2.6v-4.8c0-1,0.2-1.8,0.7-2.6c0.4-0.8,1-1.3,1.9-1.7
		c0.8-0.4,1.7-0.6,2.8-0.6c1,0,2,0.2,2.8,0.6c0.8,0.4,1.4,1,1.9,1.7s0.7,1.5,0.7,2.5c0,0.1-0.1,0.2-0.2,0.2l-2.4,0.1l0,0
		c-0.1,0-0.2-0.1-0.2-0.2c0-0.7-0.2-1.3-0.7-1.7s-1-0.7-1.7-0.7s-1.3,0.2-1.8,0.7c-0.5,0.4-0.7,1-0.7,1.7v4.9c0,0.7,0.2,1.3,0.7,1.7
		c0.5,0.4,1,0.7,1.8,0.7c0.7,0,1.3-0.2,1.7-0.7c0.5-0.4,0.7-1,0.7-1.7c0-0.2,0.1-0.2,0.2-0.2l2.4,0.1c0.1,0,0.1,0,0.2,0.1l0.1,0.1
		c0,1-0.2,1.8-0.7,2.5s-1,1.3-1.9,1.7c-0.8,0.4-1.7,0.6-2.8,0.6C83.7,23.2,82.8,23,82,22.6z"/>
	<path fill="#FFFFFF" d="M96.6,22.6c-0.8-0.4-1.4-1-1.9-1.8C94.2,20,94,19.1,94,18.1v-4.4c0-1,0.2-1.9,0.7-2.7s1.1-1.4,1.9-1.8
		c0.8-0.4,1.7-0.7,2.8-0.7c1.1,0,2,0.2,2.8,0.7c0.8,0.4,1.4,1,1.9,1.8s0.7,1.7,0.7,2.7v4.4c0,1-0.2,1.9-0.7,2.7
		c-0.5,0.8-1.1,1.4-1.9,1.8s-1.8,0.7-2.8,0.7C98.3,23.3,97.3,23.1,96.6,22.6z M101.2,20.1c0.5-0.5,0.7-1.1,0.7-1.9v-4.5
		c0-0.8-0.2-1.4-0.7-1.9s-1.1-0.7-1.8-0.7c-0.8,0-1.3,0.2-1.8,0.7s-0.7,1.1-0.7,1.9v4.5c0,0.8,0.2,1.4,0.7,1.9s1,0.7,1.8,0.7
		C100.1,20.8,100.7,20.6,101.2,20.1z"/>
	<path fill="#FFFFFF" d="M111.1,22.7c-0.8-0.4-1.4-0.9-1.9-1.5c-0.5-0.7-0.7-1.4-0.7-2.3v-0.5c0-0.1,0-0.1,0.1-0.2
		c0,0,0.1-0.1,0.2-0.1h2.3c0.1,0,0.1,0,0.2,0.1c0,0,0.1,0.1,0.1,0.2v0.3c0,0.6,0.3,1,0.8,1.4s1.2,0.6,2,0.6c0.7,0,1.3-0.2,1.6-0.5
		c0.4-0.3,0.5-0.7,0.5-1.1c0-0.3-0.1-0.6-0.3-0.8c-0.2-0.2-0.5-0.4-0.9-0.6s-1-0.4-1.8-0.7c-0.9-0.3-1.7-0.6-2.3-1
		c-0.6-0.3-1.2-0.8-1.6-1.3c-0.4-0.6-0.7-1.3-0.7-2.1c0-0.8,0.2-1.5,0.6-2.2c0.4-0.6,1-1.1,1.8-1.4c0.8-0.3,1.6-0.5,2.6-0.5
		s2,0.2,2.8,0.6s1.4,0.9,1.9,1.5c0.5,0.7,0.7,1.4,0.7,2.3v0.4c0,0.1,0,0.1-0.1,0.2c0,0-0.1,0.1-0.2,0.1h-2.4c-0.1,0-0.1,0-0.2-0.1
		c0,0-0.1-0.1-0.1-0.2v-0.2c0-0.6-0.2-1-0.7-1.5c-0.5-0.4-1.1-0.6-1.9-0.6c-0.7,0-1.1,0.1-1.5,0.4c-0.4,0.3-0.6,0.7-0.6,1.1
		c0,0.3,0.1,0.6,0.3,0.9c0.2,0.2,0.5,0.4,0.9,0.6c0.4,0.2,1,0.4,1.9,0.8c1,0.4,1.7,0.7,2.3,1c0.6,0.3,1,0.7,1.5,1.2s0.7,1.2,0.7,2.1
		c0,1.3-0.5,2.3-1.4,3c-1,0.8-2.2,1.1-3.8,1.1C112.8,23.2,111.9,23,111.1,22.7z"/>
	<path fill="#FFFFFF" d="M132.7,8.7h2.4c0.1,0,0.1,0,0.2,0.1c0,0,0.1,0.1,0.1,0.2v13.8c0,0.1,0,0.1-0.1,0.2c0,0-0.1,0.1-0.2,0.1
		h-2.4c-0.1,0-0.1,0-0.2-0.1c0,0-0.1-0.1-0.1-0.2v-9c0-0.1,0-0.1,0-0.1s-0.1,0-0.1,0.1l-2.2,3.4c-0.1,0.1-0.2,0.2-0.3,0.2h-1.2
		c-0.1,0-0.2-0.1-0.3-0.2l-2.2-3.4l-0.1-0.1c0,0,0,0,0,0.1v9c0,0.1,0,0.1-0.1,0.2c0,0-0.1,0.1-0.2,0.1h-2.4c-0.1,0-0.1,0-0.2-0.1
		c0,0-0.1-0.1-0.1-0.2V9c0-0.1,0-0.1,0.1-0.2c0,0,0.1-0.1,0.2-0.1h2.4c0.1,0,0.2,0.1,0.3,0.2l3.1,4.8c0,0.1,0.1,0.1,0.1,0l3.1-4.8
		C132.5,8.8,132.6,8.7,132.7,8.7z"/>
	<path fill="#FFFFFF" d="M149.8,11.1c0,0-0.1,0.1-0.2,0.1h-6.7c-0.1,0-0.1,0-0.1,0.1v3.2c0,0.1,0,0.1,0.1,0.1h4.4
		c0.1,0,0.1,0,0.2,0.1c0,0,0.1,0.1,0.1,0.2v2c0,0.1,0,0.1-0.1,0.2c0,0-0.1,0.1-0.2,0.1h-4.4c-0.1,0-0.1,0-0.1,0.1v3.3
		c0,0.1,0,0.1,0.1,0.1h6.7c0.1,0,0.1,0,0.2,0.1c0,0,0.1,0.1,0.1,0.2v2c0,0.1,0,0.1-0.1,0.2c0,0-0.1,0.1-0.2,0.1h-9.5
		c-0.1,0-0.1,0-0.2-0.1c0,0-0.1-0.1-0.1-0.2V9c0-0.1,0-0.1,0.1-0.2c0,0,0.1-0.1,0.2-0.1h9.5c0.1,0,0.1,0,0.2,0.1
		c0,0,0.1,0.1,0.1,0.2v2C149.9,11,149.8,11.1,149.8,11.1z"/>
	<path fill="#FFFFFF" d="M164,8.8c0,0,0.1,0.1,0.1,0.2v2c0,0.1,0,0.1-0.1,0.2c0,0-0.1,0.1-0.2,0.1h-3.7c-0.1,0-0.1,0-0.1,0.1v11.5
		c0,0.1,0,0.1-0.1,0.2c0,0-0.1,0.1-0.2,0.1h-2.4c-0.1,0-0.1,0-0.2-0.1c0,0-0.1-0.1-0.1-0.2V11.3c0-0.1,0-0.1-0.1-0.1h-3.6
		c-0.1,0-0.1,0-0.2-0.1c0,0-0.1-0.1-0.1-0.2V9c0-0.1,0-0.1,0.1-0.2c0,0,0.1-0.1,0.2-0.1h10.3C163.9,8.7,163.9,8.7,164,8.8z"/>
	<path fill="#FFFFFF" d="M168,23c0,0-0.1-0.1-0.1-0.2V9c0-0.1,0-0.1,0.1-0.2c0,0,0.1-0.1,0.2-0.1h2.4c0.1,0,0.1,0,0.2,0.1
		c0,0,0.1,0.1,0.1,0.2v13.8c0,0.1,0,0.1-0.1,0.2c0,0-0.1,0.1-0.2,0.1h-2.4C168.1,23.1,168.1,23,168,23z"/>
	<path fill="#FFFFFF" d="M177.6,22.6c-0.8-0.4-1.4-1-1.9-1.7c-0.4-0.8-0.7-1.6-0.7-2.6v-4.8c0-1,0.2-1.8,0.7-2.6
		c0.4-0.8,1-1.3,1.9-1.7c0.8-0.4,1.7-0.6,2.8-0.6c1,0,2,0.2,2.8,0.6c0.8,0.4,1.4,1,1.9,1.7s0.7,1.5,0.7,2.5c0,0.1-0.1,0.2-0.3,0.2
		l-2.4,0.1l0,0c-0.1,0-0.2-0.1-0.2-0.2c0-0.7-0.2-1.3-0.7-1.7s-1-0.7-1.7-0.7s-1.3,0.2-1.8,0.7c-0.5,0.4-0.7,1-0.7,1.7v4.9
		c0,0.7,0.2,1.3,0.7,1.7c0.5,0.4,1,0.7,1.8,0.7c0.7,0,1.3-0.2,1.7-0.7c0.5-0.4,0.7-1,0.7-1.7c0-0.2,0.1-0.2,0.3-0.2l2.4,0.1
		c0.1,0,0.1,0,0.2,0.1l0.1,0.1c0,1-0.2,1.8-0.7,2.5s-1,1.3-1.9,1.7c-0.8,0.4-1.7,0.6-2.8,0.6C179.3,23.2,178.4,23,177.6,22.6z"/>
	<path fill="#FFFFFF" d="M191.9,22.7c-0.8-0.4-1.4-0.9-1.9-1.5s-0.7-1.4-0.7-2.3v-0.5c0-0.1,0-0.1,0.1-0.2c0,0,0.1-0.1,0.2-0.1h2.3
		c0.1,0,0.1,0,0.2,0.1c0,0,0.1,0.1,0.1,0.2v0.3c0,0.6,0.3,1,0.8,1.4s1.2,0.6,2,0.6c0.7,0,1.3-0.2,1.6-0.5c0.4-0.3,0.5-0.7,0.5-1.1
		c0-0.3-0.1-0.6-0.3-0.8c-0.2-0.2-0.5-0.4-0.9-0.6s-1-0.4-1.8-0.7c-0.9-0.3-1.7-0.6-2.3-1c-0.6-0.3-1.2-0.8-1.6-1.3
		c-0.4-0.6-0.7-1.3-0.7-2.1c0-0.8,0.2-1.5,0.6-2.2c0.4-0.6,1-1.1,1.8-1.4c0.8-0.3,1.6-0.5,2.6-0.5s2,0.2,2.8,0.6s1.4,0.9,1.9,1.5
		c0.5,0.7,0.7,1.4,0.7,2.3v0.4c0,0.1,0,0.1-0.1,0.2c0,0-0.1,0.1-0.2,0.1h-2.4c-0.1,0-0.1,0-0.2-0.1c0,0-0.1-0.1-0.1-0.2v-0.2
		c0-0.6-0.2-1-0.7-1.5c-0.5-0.4-1.1-0.6-1.9-0.6c-0.7,0-1.1,0.1-1.5,0.4c-0.4,0.3-0.6,0.7-0.6,1.1c0,0.3,0.1,0.6,0.3,0.9
		c0.2,0.2,0.5,0.4,0.9,0.6c0.4,0.2,1,0.4,1.9,0.8c1,0.4,1.7,0.7,2.3,1c0.6,0.3,1,0.7,1.5,1.2s0.7,1.2,0.7,2.1c0,1.3-0.5,2.3-1.4,3
		c-0.9,0.8-2.2,1.1-3.8,1.1C193.6,23.2,192.7,23,191.9,22.7z"/>
	<path fill="none" stroke="#FFFFFF" stroke-miterlimit="10" d="M70,0.6H0.2v30.7H70V0.6z"/>
</g>
<g>
	<path fill="#FFFFFF" d="M220,11.1v13.6c0,1-0.7,1.3-1.7,1.2V14.3c-0.5,0.9-1.3,1.7-2,2.4c-0.2,0.2-0.6,0-0.4-0.3
		c1.7-2.6,3.4-7.2,3.9-10.3l1.1,0.5c0.5,0.3,0.5,0.3,0.4,0.7C221.1,8.4,220.7,9.8,220,11.1z M223.1,22c-0.6,1.9-1.3,3.1-2.4,3.9
		c-0.4,0.2-0.6,0-0.4-0.3c0.8-1.5,1.4-3.5,1.6-5c0.3-2.7,0.2-6.7,0.2-7.6l1.3,0.2c0.3,0.1,0.4,0.3,0.4,0.4h4.3
		c-0.1-0.1-0.2-0.2-0.3-0.4l-0.3-0.8c-0.2,0.4-0.6,0.5-1.4,0.4v-3h-2.5v1.7c0,0.9-0.7,1.2-1.6,1V8.2l1.2,0.3
		c0.3,0.1,0.4,0.2,0.4,0.3h1.7c0.4,0,0.6-0.2,0.9-0.5l1.1,0.4c1,0.3,0.5,0.8,0.5,1.2v1.7c0.4,0.2,0.8,0.4,1.1,0.6v-4l1.1,0.2
		c0.3,0,0.4,0.2,0.4,0.3h1.7c0.4,0,0.6-0.2,0.8-0.5l1.1,0.4c1,0.3,0.4,0.9,0.4,1.2v1.7c0,0.8-0.6,1.3-1.6,1.1V9.9h-2.5v1.9
		c0,0.7-0.5,1-1.1,1c0.1,0.3,0,0.6-0.1,0.7h4.3c0.4,0,0.6-0.3,1-0.6c0.5,0.5,0.8,0.7,0.8,1c0,0.5-0.5,0.6-1.1,0.6h-3.2v1.2h1
		c0.4,0,0.6-0.1,0.8-0.5l1.3,0.4c1,0.3,0.4,0.8,0.4,1.2v1.9c0,0.7-0.6,1.1-1.7,1v-0.6h-9.1C223.5,20.1,223.3,21.2,223.1,22z
		 M221.7,7h4.5c0.4,0,0.6-0.3,1-0.6c0.4,0.4,0.8,0.6,0.8,1c0,0.5-0.5,0.7-1.1,0.7h-4.4C222.1,8,222.1,7.8,221.7,7z M228.6,23.5
		c-1.3,0.8-2.7,1.7-4.2,2.3c-0.5,0.2-0.6,0.1-1-0.4l-0.8-0.8c0.6-0.2,1.2-0.3,1.7-0.5v-5l1.2,0.3c0.4,0.1,0.5,0.2,0.5,0.4V21h0.7
		c0.4,0,0.6-0.2,0.9-0.6c0.6,0.5,0.8,0.7,0.8,1c0,0.5-0.5,0.6-1.1,0.6h-1.4v1.7c0.8-0.2,1.6-0.5,2.5-0.7
		C228.7,23.1,228.8,23.3,228.6,23.5z M223.7,18h2v-1.3h-2v0.2C223.7,17.2,223.7,17.6,223.7,18z M223.7,14.4v1.2h1.9v-1.2H223.7z
		 M224.4,11.9c-0.1-0.3-0.4-1.2-0.5-1.5s0.1-0.5,0.3-0.4c0.6,0.4,1,0.6,1.4,1.2C226.2,12.1,224.9,13.3,224.4,11.9z M229.1,14.4h-1.9
		v1.2h1.9V14.4z M227.3,18h1.9v-1.3h-1.9V18z M228.3,7h4.8c0.4,0,0.6-0.3,0.9-0.6c0.5,0.4,0.8,0.6,0.8,1c0,0.5-0.4,0.6-1.1,0.6h-4.6
		C228.7,8,228.7,7.8,228.3,7z M235.4,25.1c-0.6,0.5-2.8,0.6-4.2,0.6c-2-0.2-2.2-0.5-2.2-3v-3.3l1.3,0.3c0.3,0.1,0.4,0.2,0.4,0.4V22
		c0.8-0.5,1.7-1.1,2.4-1.7l0.6,0.6c0.5,0.5,0.5,0.6,0,0.8c-1.1,0.4-1.8,0.6-3.1,0.9v0.5c0,0.8,0,1.1,1.2,1.1c1.9,0,2.3-0.1,2.4-0.6
		l0.2-0.9c0-0.2,0.3-0.2,0.4,0l0.3,0.8c0.1,0.3,0.3,0.5,0.6,0.7C235.9,24.4,235.7,24.8,235.4,25.1z M232.2,11.3
		c0.6,0.9-0.7,2-1.2,0.6c-0.1-0.5-0.4-1.2-0.5-1.6c0-0.2,0-0.5,0.3-0.3C231.4,10.4,231.9,10.8,232.2,11.3z M230.8,16.7V18h1.8v-1.3
		H230.8z"/>
	<path fill="#FFFFFF" d="M255.9,25.7c-5-1.7-7.4-5.5-8.2-10.6H243v7.7c1.7-0.6,3.4-1.2,5.2-1.9c0.3-0.1,0.5,0.2,0.3,0.4
		c-1.9,1.2-5.8,3.3-7.9,4.2c-0.5,0.2-0.7,0.2-1.2-0.3l-1-0.8c1-0.3,1.9-0.6,2.8-0.9V8.2l1.5,0.3c0.2,0,0.4,0.1,0.4,0.3
		c3.5-0.6,7.3-1.2,10.1-2.4l0.6,0.8c0.5,0.6,0.6,0.8-0.4,1c-0.8,0.2-2.4,0.5-4.1,0.6c0,1.4,0,2.6,0.1,4c0,0.4,0,0.6,0.1,1h5
		c0.5,0,0.6-0.3,1.1-0.7c0.5,0.5,0.9,0.8,0.9,1.2c0,0.6-0.5,0.7-1.2,0.7h-5.6c0.6,3.8,2.4,6.7,5.8,8.3c0.2,0.1,0.3,0,0.3-0.1
		c0.2-0.4,0.6-1.7,0.8-2.5c0.1-0.3,0.4-0.2,0.4,0c0,1.3,0,2.9,0.5,3.8C257.6,25.4,257.6,26.4,255.9,25.7z M247.7,14
		c0-0.5-0.1-1-0.1-1.5l-0.1-3.4c-1.6,0.2-3.1,0.3-4.4,0.3V14H247.7z"/>
	<path fill="#FFFFFF" d="M267,7.4c-0.5,1.1-1.1,2.6-1.7,3.9v13.4c0,1.1-0.9,1.4-1.8,1.2V14.3c-0.9,1.3-1.9,2.5-3,3.3
		c-0.3,0.2-0.6-0.1-0.4-0.4c1-1.3,2.3-3.4,3.6-6.1c0.7-1.5,1.4-3.2,1.9-5l1.1,0.6C267.1,6.8,267.2,7,267,7.4z M279.7,24.7
		c-1,0.6-4.1,0.8-6,0.7c-4.4-0.2-4.5-0.6-4.5-4.4V6.3l1.5,0.4c0.4,0,0.4,0.3,0.4,0.5v7.7c0.7-0.6,1.5-1.1,2-1.6
		c0.8-0.6,2.6-2.3,3.5-3.4l0.9,0.7c0.6,0.5,0.6,0.6,0.3,0.9c-0.8,0.6-3.8,2.9-6.6,4.3V22c0,1.4,0.3,1.7,2.1,1.7
		c1.6,0.1,3.9-0.1,4.6-0.4c0.3-0.2,0.6-0.6,0.6-1.1l0.2-1.1c0-0.1,0.3-0.2,0.4,0c0.2,1.1,0.4,1.7,0.8,2.2
		C280.3,24,280,24.5,279.7,24.7z"/>
	<path fill="#FFFFFF" d="M287.1,16.5v8.3c0,0.9-0.9,1.3-1.7,1.1v-9c-0.6,2-1.7,4.1-2.8,5.2c-0.3,0.3-0.5,0-0.4-0.3
		c0.8-1.9,1.7-4.3,2.5-7.5H283c-0.4,0-0.5-0.2-0.8-1.1h3.3V6l1.3,0.3c0.3,0,0.4,0.2,0.4,0.3v6.6h1.3c0.4,0,0.6-0.2,1-0.6
		c0.5,0.5,0.8,0.7,0.8,1c0,0.5-0.4,0.7-1.2,0.7h-1.9v1.1c1.3,0.9,1.8,1.3,2.5,2.2c0.8,1.2-0.3,2.7-1.2,1.1
		C287.8,17.8,287.4,17,287.1,16.5z M282.9,8.4c0-0.2,0.2-0.4,0.4-0.2c0.7,0.8,1.3,1.6,1.7,2.5c0.6,1.7-1.1,2.4-1.4,0.9L282.9,8.4z
		 M287.5,12.3c0.5-1.3,0.7-2.7,1.1-4.3l0.9,0.5c0.5,0.2,0.6,0.4,0.4,0.6c-0.5,0.9-1.3,2.5-2,3.3C287.7,12.7,287.4,12.6,287.5,12.3z
		 M292.4,13.5c0,2.7-0.2,6.3-1.6,9.2c-0.5,1.2-1.6,2.4-2.6,3.1c-0.3,0.2-0.6,0.1-0.4-0.3c1.4-2,2.2-4.3,2.6-7.6
		c0.3-2.7,0.2-5,0.1-9.4l1.4,0.3c0.3,0,0.4,0.3,0.4,0.3h3.8c-0.2-0.1-0.3-0.3-0.5-0.6c-0.3-0.6-0.7-1.6-1.1-2.1
		c-0.1-0.2,0-0.5,0.4-0.3c0.9,0.5,1.7,0.9,2.1,1.4c0.5,0.6,0.3,1.3,0,1.7h2.8c0.4,0,0.6-0.2,1-0.6c0.6,0.6,0.8,0.7,0.8,1.1
		c0,0.6-0.5,0.7-1.2,0.7h-8.2L292.4,13.5L292.4,13.5z M301.8,24.2c0,0.6-0.5,0.8-1.3,0.8h-8.3c-0.4,0-0.5-0.3-0.9-1.3h4.6v-5.9h-2.2
		c-0.4,0-0.5-0.3-0.9-1.2h3.1v-5.3l1.2,0.2c0.3,0.1,0.5,0.2,0.5,0.4v4.8h1.5c0.5,0,0.6-0.2,1.1-0.6c0.5,0.5,0.9,0.7,0.9,1.1
		c0,0.6-0.5,0.7-1.3,0.7h-2.2v5.9h2.1c0.5,0,0.7-0.2,1.2-0.7C301.3,23.5,301.8,23.9,301.8,24.2z"/>
	<path fill="#FFFFFF" d="M313.2,18.1v6.3c0,0.9-0.7,1.3-1.7,1.1v-1.3h-4v0.6c0,1-0.9,1.3-1.7,1.1v-9.5l1.4,0.3
		c0.2,0,0.4,0.2,0.4,0.3h3c0.5,0,0.7-0.3,1-0.6l1.4,0.4C313.8,17,313.2,17.7,313.2,18.1z M311.4,23v-5h-4v5H311.4z M309.3,15.3V6.6
		l1.4,0.3c0.2,0,0.4,0.1,0.4,0.2h5.2c0.6,0,0.8-0.2,1.1-0.6l1.5,0.5c1,0.4,0.4,1,0.4,1.3V14c0,0.8-0.8,1.2-1.7,1v-1.1h-6.3V14
		C311,14.9,310.5,15.4,309.3,15.3z M311,8.2v4.4h6.3V8.2H311z M322.8,18.2v6.3c0,0.9-0.7,1.3-1.7,1.1v-1.5H317v0.2
		c0,1.1-0.8,1.4-1.7,1.1v-9.2l1.4,0.3c0.2,0,0.4,0.2,0.4,0.3h3.1c0.5,0,0.7-0.2,1-0.6l1.5,0.5C323.5,17,322.8,17.7,322.8,18.2z
		 M321.1,23v-5H317v5H321.1z"/>
</g>
</svg>
