<?xml version="1.0" encoding="utf-8"?>
<!-- Generator: Adobe Illustrator 25.2.3, SVG Export Plug-In . SVG Version: 6.00 Build 0)  -->
<svg version="1.1" id="logo-2" xmlns="http://www.w3.org/2000/svg" xmlns:xlink="http://www.w3.org/1999/xlink" x="0px" y="0px"
	 viewBox="0 0 323 90" enable-background="new 0 0 323 90" xml:space="preserve">
<g>
	<path fill="#72705B" d="M21.5,36.2c-0.1-0.1-0.1-0.2-0.1-0.3V13.7c0-0.1,0.1-0.2,0.1-0.3c0.1-0.1,0.2-0.1,0.3-0.1h3.9
		c0.1,0,0.2,0.1,0.3,0.1c0.1,0.1,0.1,0.2,0.1,0.3v18.5c0,0.1,0.1,0.2,0.2,0.2H37c0.1,0,0.2,0.1,0.3,0.1c0.1,0.1,0.1,0.2,0.1,0.3V36
		c0,0.1-0.1,0.2-0.1,0.3c-0.1,0.1-0.2,0.1-0.3,0.1H21.8C21.7,36.4,21.6,36.3,21.5,36.2z"/>
	<path fill="#72705B" d="M43.7,36.2c-0.1-0.1-0.1-0.2-0.1-0.3V13.7c0-0.1,0.1-0.2,0.1-0.3s0.2-0.1,0.3-0.1h3.9
		c0.1,0,0.2,0.1,0.3,0.1c0.1,0.1,0.1,0.2,0.1,0.3V36c0,0.1-0.1,0.2-0.1,0.3c-0.1,0.1-0.2,0.1-0.3,0.1H44
		C43.9,36.4,43.8,36.3,43.7,36.2z"/>
	<path fill="#72705B" d="M54.7,36.2c-0.1-0.1-0.1-0.2-0.1-0.3v-3.5c0-0.2,0.1-0.3,0.2-0.5l10.7-14.5c0.1-0.1,0.1-0.1,0-0.1
		c-0.1-0.1-0.1-0.1-0.2-0.1H55c-0.1,0-0.2-0.1-0.3-0.1c-0.1-0.1-0.1-0.2-0.1-0.3v-3.2c0-0.1,0.1-0.2,0.1-0.3
		c0.1-0.1,0.2-0.1,0.3-0.1h15.3c0.1,0,0.2,0.1,0.3,0.1c0.1,0.1,0.1,0.2,0.1,0.3v3.5c0,0.2-0.1,0.3-0.2,0.5L59.8,32.2
		c0,0.1,0,0.1,0,0.1c0,0.1,0.1,0.1,0.1,0.1h10.3c0.1,0,0.2,0.1,0.3,0.1c0.1,0.1,0.1,0.2,0.1,0.3V36c0,0.1-0.1,0.2-0.1,0.3
		c-0.1,0.1-0.2,0.1-0.3,0.1H54.9C54.9,36.4,54.8,36.3,54.7,36.2z"/>
	<path fill="#72705B" d="M76.4,36.2c-0.1-0.1-0.1-0.2-0.1-0.3v-3.5c0-0.2,0.1-0.3,0.2-0.5l10.7-14.5c0.1-0.1,0.1-0.1,0-0.1
		c-0.1-0.1-0.1-0.1-0.2-0.1H76.7c-0.1,0-0.2-0.1-0.3-0.1c-0.1-0.1-0.1-0.2-0.1-0.3v-3.2c0-0.1,0.1-0.2,0.1-0.3
		c0.1-0.1,0.2-0.1,0.3-0.1h15.3c0.1,0,0.2,0.1,0.3,0.1c0.1,0.1,0.1,0.2,0.1,0.3v3.5c0,0.2-0.1,0.3-0.2,0.5L81.5,32.2
		c0,0.1,0,0.1,0,0.1c0,0.1,0.1,0.1,0.1,0.1h10.3c0.1,0,0.2,0.1,0.3,0.1c0.1,0.1,0.1,0.2,0.1,0.3V36c0,0.1-0.1,0.2-0.1,0.3
		c-0.1,0.1-0.2,0.1-0.3,0.1H76.6C76.6,36.4,76.5,36.3,76.4,36.2z"/>
	<path fill="#72705B" d="M132.2,35.6c-1.3-0.7-2.3-1.6-3-2.8c-0.7-1.2-1.1-2.6-1.1-4.2V21c0-1.6,0.4-3,1.1-4.2
		c0.7-1.2,1.7-2.2,3-2.8c1.3-0.6,2.8-1,4.5-1c1.7,0,3.2,0.3,4.5,1c1.3,0.6,2.3,1.5,3,2.7c0.7,1.2,1.1,2.5,1.1,4
		c0,0.2-0.1,0.3-0.4,0.4l-3.9,0.2H141c-0.2,0-0.3-0.1-0.3-0.4c0-1.2-0.4-2.1-1.1-2.8c-0.7-0.7-1.6-1.1-2.8-1.1
		c-1.2,0-2.1,0.4-2.9,1.1c-0.7,0.7-1.1,1.6-1.1,2.8v8c0,1.2,0.4,2.1,1.1,2.7c0.7,0.7,1.7,1.1,2.9,1.1c1.2,0,2.1-0.4,2.8-1.1
		c0.7-0.7,1.1-1.6,1.1-2.7c0-0.3,0.1-0.4,0.4-0.4l3.9,0.2c0.1,0,0.2,0.1,0.3,0.1c0.1,0.1,0.1,0.2,0.1,0.2c0,1.5-0.4,2.9-1.1,4
		c-0.7,1.2-1.7,2.1-3,2.7c-1.3,0.6-2.8,1-4.5,1C135,36.6,133.4,36.3,132.2,35.6z"/>
	<path fill="#72705B" d="M155.6,35.7c-1.3-0.7-2.3-1.7-3.1-3s-1.1-2.7-1.1-4.4v-7.1c0-1.6,0.4-3.1,1.1-4.3c0.7-1.3,1.7-2.2,3.1-2.9
		c1.3-0.7,2.8-1.1,4.5-1.1c1.7,0,3.3,0.4,4.5,1.1c1.3,0.7,2.3,1.7,3.1,2.9c0.7,1.3,1.1,2.7,1.1,4.3v7.1c0,1.6-0.4,3.1-1.1,4.4
		s-1.7,2.3-3.1,3c-1.3,0.7-2.9,1.1-4.5,1.1C158.4,36.7,156.9,36.4,155.6,35.7z M163,31.6c0.7-0.8,1.1-1.8,1.1-3.1v-7.2
		c0-1.3-0.4-2.3-1.1-3.1c-0.7-0.8-1.7-1.2-3-1.2c-1.2,0-2.2,0.4-2.9,1.2c-0.7,0.8-1.1,1.8-1.1,3.1v7.2c0,1.3,0.4,2.3,1.1,3.1
		c0.7,0.8,1.7,1.2,2.9,1.2C161.3,32.7,162.3,32.4,163,31.6z"/>
	<path fill="#72705B" d="M179,35.8c-1.3-0.6-2.3-1.4-3.1-2.4c-0.7-1.1-1.1-2.3-1.1-3.6V29c0-0.1,0.1-0.2,0.1-0.3
		c0.1-0.1,0.2-0.1,0.3-0.1h3.7c0.1,0,0.2,0.1,0.3,0.1c0.1,0.1,0.1,0.2,0.1,0.3v0.5c0,0.9,0.4,1.6,1.2,2.2c0.8,0.6,1.9,0.9,3.3,0.9
		c1.2,0,2.1-0.3,2.6-0.7c0.6-0.5,0.8-1.1,0.8-1.8c0-0.5-0.2-1-0.5-1.3c-0.4-0.4-0.8-0.7-1.4-1c-0.6-0.3-1.6-0.6-2.9-1.2
		c-1.5-0.5-2.7-1-3.7-1.5c-1-0.5-1.9-1.3-2.6-2.2c-0.7-0.9-1.1-2.1-1.1-3.4c0-1.3,0.3-2.5,1-3.5c0.7-1,1.6-1.7,2.9-2.3
		c1.2-0.5,2.6-0.8,4.2-0.8c1.7,0,3.2,0.3,4.5,0.9c1.3,0.6,2.3,1.4,3.1,2.5c0.7,1.1,1.1,2.3,1.1,3.7v0.6c0,0.1-0.1,0.2-0.1,0.3
		c-0.1,0.1-0.2,0.1-0.3,0.1h-3.8c-0.1,0-0.2-0.1-0.3-0.1c-0.1-0.1-0.1-0.2-0.1-0.3v-0.3c0-0.9-0.4-1.7-1.2-2.4c-0.7-0.6-1.8-1-3.1-1
		c-1.1,0-1.8,0.2-2.4,0.6c-0.6,0.4-0.9,1.1-0.9,1.8c0,0.5,0.2,1,0.5,1.4c0.3,0.4,0.8,0.7,1.5,1c0.7,0.3,1.7,0.7,3.1,1.2
		c1.6,0.6,2.8,1.1,3.7,1.5c0.9,0.4,1.7,1.1,2.4,2c0.7,0.8,1.1,2,1.1,3.4c0,2.1-0.7,3.7-2.3,4.9c-1.5,1.2-3.6,1.8-6.2,1.8
		C181.8,36.6,180.3,36.3,179,35.8z"/>
	<path fill="#72705B" d="M213.9,13.3h3.9c0.1,0,0.2,0.1,0.3,0.1c0.1,0.1,0.1,0.2,0.1,0.3V36c0,0.1-0.1,0.2-0.1,0.3
		c-0.1,0.1-0.2,0.1-0.3,0.1h-3.9c-0.1,0-0.2-0.1-0.3-0.1c-0.1-0.1-0.1-0.2-0.1-0.3V21.4c0-0.1,0-0.1-0.1-0.1c-0.1,0-0.1,0.1-0.1,0.1
		l-3.5,5.5c-0.1,0.2-0.3,0.3-0.5,0.3h-2c-0.2,0-0.4-0.1-0.5-0.3l-3.5-5.5c-0.1-0.1-0.1-0.1-0.1-0.1c-0.1,0-0.1,0.1-0.1,0.2V36
		c0,0.1-0.1,0.2-0.1,0.3c-0.1,0.1-0.2,0.1-0.3,0.1h-3.9c-0.1,0-0.2-0.1-0.3-0.1c-0.1-0.1-0.1-0.2-0.1-0.3V13.7
		c0-0.1,0.1-0.2,0.1-0.3c0.1-0.1,0.2-0.1,0.3-0.1h3.9c0.2,0,0.4,0.1,0.5,0.3l5,7.7c0.1,0.1,0.1,0.1,0.2,0l5-7.7
		C213.5,13.4,213.7,13.3,213.9,13.3z"/>
	<path fill="#72705B" d="M241.3,17.2c-0.1,0.1-0.2,0.1-0.3,0.1h-10.8c-0.1,0-0.2,0.1-0.2,0.2v5.1c0,0.1,0.1,0.2,0.2,0.2h7.1
		c0.1,0,0.2,0.1,0.3,0.1c0.1,0.1,0.1,0.2,0.1,0.3v3.2c0,0.1-0.1,0.2-0.1,0.3c-0.1,0.1-0.2,0.1-0.3,0.1h-7.1c-0.1,0-0.2,0.1-0.2,0.2
		v5.4c0,0.1,0.1,0.2,0.2,0.2h10.8c0.1,0,0.2,0.1,0.3,0.1c0.1,0.1,0.1,0.2,0.1,0.3V36c0,0.1-0.1,0.2-0.1,0.3
		c-0.1,0.1-0.2,0.1-0.3,0.1h-15.3c-0.1,0-0.2-0.1-0.3-0.1c-0.1-0.1-0.1-0.2-0.1-0.3V13.7c0-0.1,0.1-0.2,0.1-0.3
		c0.1-0.1,0.2-0.1,0.3-0.1h15.3c0.1,0,0.2,0.1,0.3,0.1c0.1,0.1,0.1,0.2,0.1,0.3v3.2C241.5,17,241.4,17.1,241.3,17.2z"/>
	<path fill="#72705B" d="M264.2,13.4c0.1,0.1,0.1,0.2,0.1,0.3v3.2c0,0.1-0.1,0.2-0.1,0.3c-0.1,0.1-0.2,0.1-0.3,0.1H258
		c-0.1,0-0.2,0.1-0.2,0.2v18.5c0,0.1-0.1,0.2-0.1,0.3c-0.1,0.1-0.2,0.1-0.3,0.1h-3.9c-0.1,0-0.2-0.1-0.3-0.1
		c-0.1-0.1-0.1-0.2-0.1-0.3V17.4c0-0.1-0.1-0.2-0.2-0.2h-5.8c-0.1,0-0.2-0.1-0.3-0.1c-0.1-0.1-0.1-0.2-0.1-0.3v-3.2
		c0-0.1,0.1-0.2,0.1-0.3c0.1-0.1,0.2-0.1,0.3-0.1H264C264,13.3,264.1,13.3,264.2,13.4z"/>
	<path fill="#72705B" d="M270.7,36.2c-0.1-0.1-0.1-0.2-0.1-0.3V13.7c0-0.1,0.1-0.2,0.1-0.3c0.1-0.1,0.2-0.1,0.3-0.1h3.9
		c0.1,0,0.2,0.1,0.3,0.1c0.1,0.1,0.1,0.2,0.1,0.3V36c0,0.1-0.1,0.2-0.1,0.3c-0.1,0.1-0.2,0.1-0.3,0.1H271
		C270.9,36.4,270.8,36.3,270.7,36.2z"/>
	<path fill="#72705B" d="M286.2,35.6c-1.3-0.7-2.3-1.6-3-2.8c-0.7-1.2-1.1-2.6-1.1-4.2V21c0-1.6,0.4-3,1.1-4.2
		c0.7-1.2,1.7-2.2,3-2.8s2.8-1,4.5-1c1.7,0,3.2,0.3,4.5,1c1.3,0.6,2.3,1.5,3,2.7c0.7,1.2,1.1,2.5,1.1,4c0,0.2-0.1,0.3-0.4,0.4
		l-3.9,0.2h-0.1c-0.2,0-0.3-0.1-0.3-0.4c0-1.2-0.4-2.1-1.1-2.8c-0.7-0.7-1.6-1.1-2.8-1.1c-1.2,0-2.1,0.4-2.9,1.1
		c-0.7,0.7-1.1,1.6-1.1,2.8v8c0,1.2,0.4,2.1,1.1,2.7c0.7,0.7,1.7,1.1,2.9,1.1c1.2,0,2.1-0.4,2.8-1.1c0.7-0.7,1.1-1.6,1.1-2.7
		c0-0.3,0.1-0.4,0.4-0.4l3.9,0.2c0.1,0,0.2,0.1,0.3,0.1s0.1,0.2,0.1,0.2c0,1.5-0.4,2.9-1.1,4c-0.7,1.2-1.7,2.1-3,2.7
		c-1.3,0.6-2.8,1-4.5,1C289,36.6,287.4,36.3,286.2,35.6z"/>
	<path fill="#72705B" d="M309.2,35.8c-1.3-0.6-2.3-1.4-3.1-2.4c-0.7-1.1-1.1-2.3-1.1-3.6V29c0-0.1,0.1-0.2,0.1-0.3
		c0.1-0.1,0.2-0.1,0.3-0.1h3.7c0.1,0,0.2,0.1,0.3,0.1c0.1,0.1,0.1,0.2,0.1,0.3v0.5c0,0.9,0.4,1.6,1.2,2.2s1.9,0.9,3.3,0.9
		c1.2,0,2.1-0.3,2.6-0.7c0.6-0.5,0.8-1.1,0.8-1.8c0-0.5-0.2-1-0.5-1.3c-0.4-0.4-0.8-0.7-1.4-1c-0.6-0.3-1.6-0.6-2.9-1.2
		c-1.5-0.5-2.7-1-3.7-1.5s-1.9-1.3-2.6-2.2c-0.7-0.9-1.1-2.1-1.1-3.4c0-1.3,0.3-2.5,1-3.5c0.7-1,1.6-1.7,2.9-2.3
		c1.2-0.5,2.6-0.8,4.2-0.8c1.7,0,3.2,0.3,4.5,0.9c1.3,0.6,2.3,1.4,3.1,2.5c0.7,1.1,1.1,2.3,1.1,3.7v0.6c0,0.1-0.1,0.2-0.1,0.3
		c-0.1,0.1-0.2,0.1-0.3,0.1h-3.8c-0.1,0-0.2-0.1-0.3-0.1c-0.1-0.1-0.1-0.2-0.1-0.3v-0.3c0-0.9-0.4-1.7-1.2-2.4c-0.7-0.6-1.8-1-3.1-1
		c-1.1,0-1.8,0.2-2.4,0.6c-0.6,0.4-0.9,1.1-0.9,1.8c0,0.5,0.2,1,0.5,1.4c0.3,0.4,0.8,0.7,1.5,1c0.7,0.3,1.7,0.7,3.1,1.2
		c1.6,0.6,2.8,1.1,3.7,1.5c0.9,0.4,1.7,1.1,2.4,2c0.7,0.8,1.1,2,1.1,3.4c0,2.1-0.7,3.7-2.3,4.9c-1.5,1.2-3.6,1.8-6.2,1.8
		C312,36.6,310.5,36.3,309.2,35.8z"/>
	<path fill="none" stroke="#72705B" stroke-miterlimit="10" d="M112.7,0.3H0.3v49.5h112.5V0.3z"/>
</g>
<g>
	<path fill="#72705B" d="M3.2,78.3V89c0,0.8-0.6,1-1.3,0.9v-9.2c-0.4,0.7-1,1.4-1.6,1.9c-0.1,0.1-0.4,0-0.3-0.2c1.4-2,2.7-5.5,3.1-8
		L4,74.7c0.4,0.1,0.4,0.2,0.3,0.5C4.1,76.1,3.7,77.2,3.2,78.3z M5.6,86.7c-0.5,1.5-1,2.4-1.9,3c-0.3,0.1-0.4,0-0.3-0.2
		c0.6-1.2,1.1-2.7,1.2-4c0.2-2.1,0.1-5.3,0.1-6l1,0.2c0.2,0,0.3,0.1,0.3,0.2h3.4c-0.1-0.1-0.1-0.1-0.1-0.3L9,79.1
		c-0.1,0.3-0.5,0.4-1.1,0.3v-2.2H6v1.4c0,0.7-0.6,0.9-1.2,0.8V76l0.9,0.2c0.2,0,0.3,0.1,0.3,0.2h1.3c0.3,0,0.5-0.1,0.7-0.4l0.9,0.3
		c0.8,0.2,0.4,0.6,0.4,0.9v1.4c0.3,0.1,0.6,0.3,0.9,0.4V76l0.9,0.1c0.2,0,0.3,0.1,0.3,0.2h1.3c0.3,0,0.4-0.1,0.6-0.4l0.9,0.3
		c0.8,0.2,0.3,0.7,0.3,0.9v1.3c0,0.6-0.4,1-1.2,0.9v-2.2h-1.9v1.5c0,0.6-0.4,0.8-0.9,0.8c0.1,0.2,0,0.4-0.1,0.6h3.4
		c0.3,0,0.4-0.2,0.8-0.5c0.4,0.4,0.6,0.6,0.6,0.8c0,0.4-0.4,0.5-0.9,0.5h-2.5v0.9h0.8c0.3,0,0.4-0.1,0.6-0.4l1,0.3
		c0.8,0.2,0.3,0.6,0.3,0.9v1.5c0,0.6-0.5,0.9-1.3,0.8v-0.5H6C5.9,85.3,5.8,86.2,5.6,86.7z M4.5,75H8c0.3,0,0.5-0.2,0.8-0.5
		c0.3,0.3,0.6,0.5,0.6,0.8c0,0.4-0.4,0.6-0.9,0.6H5.2C4.9,75.9,4.8,75.7,4.5,75z M9.9,88c-1,0.6-2.1,1.3-3.3,1.8
		c-0.4,0.2-0.4,0.1-0.8-0.2l-0.6-0.6c0.5-0.1,0.9-0.2,1.4-0.4v-4l0.9,0.2c0.3,0.1,0.4,0.1,0.4,0.3V86h0.6c0.3,0,0.5-0.1,0.7-0.5
		c0.4,0.4,0.6,0.6,0.6,0.8c0,0.4-0.4,0.5-0.9,0.5H7.8v1.4C8.5,88,9,87.8,9.8,87.6C10,87.6,10.1,87.8,9.9,88z M6.1,83.7h1.6v-1H6.1
		v0.1C6.1,83,6.1,83.3,6.1,83.7z M6.1,80.9v0.9h1.5v-0.9H6.1z M6.7,78.9c-0.1-0.3-0.3-0.9-0.4-1.2c-0.1-0.1,0.1-0.4,0.2-0.2
		C7,77.7,7.3,78,7.6,78.4C8,79.1,7,80,6.7,78.9z M10.3,80.9H8.8v0.9h1.5V80.9z M8.9,83.7h1.5v-1H8.9V83.7z M9.7,75h3.7
		c0.3,0,0.4-0.2,0.7-0.5c0.4,0.3,0.6,0.5,0.6,0.8c0,0.4-0.3,0.5-0.9,0.5h-3.6C10,75.8,10,75.7,9.7,75z M15.2,89.2
		c-0.5,0.4-2.2,0.5-3.3,0.4c-1.6-0.1-1.7-0.4-1.7-2.4v-2.6l1,0.2c0.2,0.1,0.3,0.1,0.3,0.3v1.5c0.6-0.4,1.3-0.9,1.9-1.3l0.5,0.5
		c0.4,0.4,0.4,0.5,0,0.6c-0.9,0.3-1.4,0.4-2.4,0.7v0.4c0,0.6,0,0.9,0.9,0.9c1.5,0,1.8-0.1,1.9-0.5l0.1-0.7c0-0.1,0.2-0.1,0.3,0
		l0.2,0.6c0.1,0.2,0.2,0.4,0.4,0.6C15.7,88.8,15.5,89.1,15.2,89.2z M12.8,78.4c0.4,0.7-0.6,1.6-0.9,0.5c-0.1-0.4-0.3-0.9-0.4-1.2
		c0-0.1,0-0.4,0.2-0.2C12.1,77.7,12.5,78,12.8,78.4z M11.6,82.6v1h1.4v-1H11.6z"/>
	<path fill="#72705B" d="M31.4,89.8c-3.9-1.4-5.8-4.3-6.4-8.3h-3.7v6.1c1.4-0.4,2.7-0.9,4.1-1.5c0.2-0.1,0.4,0.1,0.2,0.3
		c-1.5,0.9-4.5,2.6-6.2,3.3c-0.4,0.1-0.6,0.1-0.9-0.2l-0.8-0.6c0.8-0.2,1.5-0.4,2.2-0.7V76l1.1,0.2c0.1,0,0.3,0.1,0.3,0.2
		c2.7-0.4,5.8-0.9,7.9-1.9l0.5,0.6c0.4,0.5,0.4,0.6-0.3,0.8c-0.6,0.1-1.9,0.4-3.2,0.5c0,1.1,0,2,0.1,3.2c0,0.3,0,0.5,0.1,0.8h3.9
		c0.4,0,0.5-0.2,0.9-0.6c0.4,0.4,0.7,0.6,0.7,0.9c0,0.4-0.4,0.6-0.9,0.6h-4.4c0.4,3,1.9,5.3,4.5,6.5c0.1,0.1,0.2,0,0.2-0.1
		c0.1-0.3,0.4-1.3,0.6-1.9c0.1-0.2,0.3-0.1,0.3,0c0,1,0,2.3,0.4,3C32.7,89.5,32.7,90.2,31.4,89.8z M24.9,80.5c0-0.4-0.1-0.8-0.1-1.2
		l-0.1-2.7c-1.2,0.1-2.4,0.2-3.5,0.2v3.6H24.9z"/>
	<path fill="#72705B" d="M40.1,75.3c-0.4,0.9-0.9,2-1.4,3.1v10.5c0,0.9-0.7,1.1-1.4,0.9v-9.1c-0.7,1-1.5,1.9-2.4,2.6
		c-0.2,0.1-0.4-0.1-0.3-0.3c0.8-1,1.8-2.7,2.8-4.8c0.5-1.2,1.1-2.5,1.4-4l0.9,0.5C40.2,74.9,40.2,75,40.1,75.3z M50,89
		c-0.8,0.4-3.2,0.6-4.7,0.6c-3.5-0.1-3.5-0.5-3.5-3.5V74.4l1.2,0.3c0.3,0.1,0.3,0.2,0.3,0.4v6.1c0.6-0.4,1.2-0.9,1.6-1.2
		c0.6-0.6,2-1.8,2.7-2.7l0.7,0.6c0.4,0.4,0.5,0.5,0.2,0.7c-0.6,0.6-3,2.3-5.3,3.4v4.9c0,1.1,0.2,1.3,1.7,1.4
		c1.2,0.1,3.1-0.1,3.6-0.3c0.2-0.1,0.4-0.4,0.5-0.9l0.1-0.9c0-0.1,0.2-0.1,0.3,0c0.1,0.9,0.3,1.4,0.6,1.7C50.5,88.3,50.3,88.8,50,89
		z"/>
	<path fill="#72705B" d="M55.9,82.4V89c0,0.7-0.7,1-1.3,0.9v-7.1c-0.5,1.6-1.3,3.2-2.2,4.1c-0.2,0.2-0.4,0-0.3-0.2
		c0.6-1.5,1.4-3.4,1.9-5.9h-1.4c-0.3,0-0.4-0.1-0.6-0.9h2.6v-5.6l1,0.2c0.2,0,0.3,0.1,0.3,0.2v5.2h1c0.3,0,0.4-0.1,0.8-0.5
		c0.4,0.4,0.6,0.6,0.6,0.8c0,0.4-0.3,0.6-0.9,0.6h-1.5v0.9c1,0.7,1.4,1,1.9,1.7c0.6,0.9-0.2,2.1-0.9,0.9
		C56.4,83.5,56.1,82.9,55.9,82.4z M52.5,76.1c0-0.1,0.1-0.3,0.3-0.1c0.6,0.6,1,1.2,1.3,1.9c0.4,1.3-0.9,1.9-1.1,0.7L52.5,76.1z
		 M56.1,79.3c0.4-1,0.6-2.1,0.9-3.4l0.7,0.4c0.4,0.1,0.4,0.3,0.3,0.5c-0.4,0.7-1,1.9-1.6,2.6C56.4,79.5,56.1,79.4,56.1,79.3z
		 M60,80.1c0,2.1-0.1,5-1.2,7.2c-0.4,0.9-1.2,1.9-2,2.4c-0.2,0.1-0.4,0.1-0.3-0.2c1.1-1.6,1.7-3.4,2-6c0.2-2.1,0.1-4,0.1-7.3
		l1.1,0.2c0.2,0,0.3,0.2,0.3,0.2h3c-0.1-0.1-0.2-0.2-0.3-0.4c-0.2-0.4-0.6-1.2-0.9-1.7c-0.1-0.1,0-0.4,0.3-0.2
		c0.7,0.4,1.4,0.7,1.7,1.1c0.4,0.5,0.2,1,0,1.3h2.2c0.3,0,0.5-0.1,0.8-0.5c0.4,0.4,0.6,0.6,0.6,0.9c0,0.4-0.4,0.6-0.9,0.6H60V80.1z
		 M67.4,88.5c0,0.4-0.4,0.6-1,0.6h-6.5c-0.3,0-0.4-0.2-0.7-1h3.6v-4.6H61c-0.3,0-0.4-0.2-0.7-0.9h2.4v-4.2l1,0.2
		c0.2,0.1,0.4,0.1,0.4,0.3v3.7h1.2c0.4,0,0.5-0.1,0.9-0.5c0.4,0.4,0.7,0.6,0.7,0.9c0,0.4-0.4,0.6-1,0.6h-1.7v4.6h1.7
		c0.4,0,0.6-0.1,0.9-0.6C67,88,67.4,88.3,67.4,88.5z"/>
	<path fill="#72705B" d="M76.3,83.7v5c0,0.7-0.6,1-1.3,0.9v-1.1h-3.2v0.4c0,0.8-0.7,1-1.4,0.9v-7.4l1.1,0.2c0.1,0,0.3,0.1,0.3,0.2
		h2.4c0.4,0,0.6-0.2,0.8-0.4l1.1,0.3C76.8,82.9,76.3,83.4,76.3,83.7z M74.9,87.5v-3.9h-3.2v3.9H74.9z M73.3,81.5v-6.8l1.1,0.2
		c0.1,0,0.3,0.1,0.3,0.1h4.1c0.4,0,0.6-0.1,0.9-0.4l1.2,0.4c0.8,0.3,0.3,0.8,0.3,1v4.6c0,0.6-0.6,0.9-1.4,0.8v-0.9h-5v0.1
		C74.7,81.2,74.2,81.6,73.3,81.5z M74.7,76v3.5h5V76H74.7z M83.9,83.8v5c0,0.7-0.6,1-1.4,0.9v-1.2h-3.2v0.1c0,0.9-0.6,1.1-1.4,0.9
		v-7.2l1.1,0.2c0.1,0,0.3,0.1,0.3,0.2h2.4c0.4,0,0.6-0.1,0.8-0.4l1.2,0.4C84.5,82.9,83.9,83.5,83.9,83.8z M82.6,87.5v-3.9h-3.2v3.9
		H82.6z"/>
	<path fill="#72705B" d="M91.4,89.1c-0.4-0.4-1.2-0.7-1.6-0.9c-0.2-0.1-0.1-0.3,0-0.3c0.5,0,1.3,0.1,1.4-0.1
		c0.1-0.1,0.1-0.1,0.1-0.2V83h-2.2c0,0.1,0,0.1,0,0.2c-0.1,2.4-0.7,5-2.3,6.4c-0.2,0.1-0.4,0-0.3-0.2c0.7-1.4,1.2-3.5,1.3-5
		c0.2-2.7,0.1-7.4,0.1-9.7l1.1,0.2c0.2,0,0.3,0.1,0.3,0.2h1.4c0.3,0,0.4-0.1,0.7-0.4l1.1,0.4c0.6,0.2,0.2,0.6,0.2,0.9v12.2
		C92.8,89,92,89.6,91.4,89.1z M91.4,82.1v-2.7h-2.1c0,1,0,1.9,0,2.7H91.4z M89.4,75.9v2.6h2.1v-2.6H89.4z M102,89.1
		c-0.9,0.8-1.1,0.9-1.7,0.5c-1.1-0.6-2.2-1.4-3.2-2.6c-1.4,1.3-2.9,2.2-4.9,2.7c-0.3,0.1-0.4-0.2-0.1-0.4c1.5-0.8,3-1.9,4.3-3.2
		c-0.8-1.1-1.4-2.3-1.8-3.7h-0.9c-0.2,0-0.4-0.3-0.6-0.9h5.4c0.3,0,0.5-0.1,0.7-0.3l0.7,0.6c0.4,0.3,0.3,0.4,0.1,0.7
		c-0.5,1.2-1.3,2.7-2.2,3.7c1.2,1.1,2.5,1.9,4.1,2.5C102.2,89,102.2,89.1,102,89.1z M93,81.1c1.2-1.2,1.4-2.2,1.5-4
		c0-0.6,0-1.3,0-2.4l1,0.2c0.2,0.1,0.3,0.1,0.4,0.2h1.4c0.3,0,0.4-0.1,0.7-0.4l1.2,0.4c0.6,0.2,0.2,0.6,0.2,0.9v2.4
		c0,0.7,0,0.9,0.4,0.9c0.9,0,1,0,1.2-0.3l0.1-0.3c0.1-0.1,0.2-0.1,0.3,0c0.2,0.4,0.3,0.5,0.6,0.7c0.3,0.2,0.2,0.6-0.1,0.8
		c-0.4,0.2-1.1,0.4-1.9,0.4c-2-0.1-2-0.3-2-2.6V76h-2.2v1c0,2-0.8,3.5-2.7,4.4C92.9,81.5,92.7,81.3,93,81.1z M95.4,82.5
		c0.4,1.2,1,2.2,1.7,3c0.7-0.9,1.3-2,1.7-3H95.4z"/>
	<path fill="#72705B" d="M107.4,78.7V89c0,0.8-0.6,1.1-1.4,0.9v-9.1c-0.6,0.7-1.2,1.4-1.9,1.9c-0.1,0.1-0.4,0-0.3-0.2
		c0.9-1.2,1.6-2.4,2.5-4.3c0.5-1.2,1.1-2.5,1.4-4l0.9,0.4c0.4,0.2,0.4,0.3,0.3,0.6C108.7,76.2,108.2,77.5,107.4,78.7z M116.8,82.3
		c-0.1,1.4-0.1,2.2-0.1,3.2c-0.2,2.4-0.5,3.8-1.6,4.3c-0.3,0.1-0.6,0.1-0.9-0.1c-0.4-0.4-1.1-0.7-1.5-0.9c-0.2-0.1-0.2-0.3,0.1-0.3
		c1.8,0.1,1.8,0,2.1-0.5c0.2-0.4,0.4-1.2,0.5-2.3c0.1-1.4,0.1-2.2,0.1-3.5h-2.3c-0.1,0.7-0.2,1.7-0.4,2.6c-0.6,2.6-2.2,4.4-4.3,5.1
		c-0.2,0.1-0.4-0.2-0.1-0.3c1.7-1.3,2.9-3.2,3.2-5.3c0.1-1,0.2-1.7,0.3-2.1h-1.3c-0.2,0-0.4-0.1-0.6-0.6c-0.4,0.5-0.9,1.1-1.4,1.5
		c-0.1,0.1-0.4-0.1-0.2-0.3c1.1-1.4,2.1-3.7,2.6-5.1c0.4-1,0.6-1.9,0.9-2.6l0.9,0.5c0.3,0.1,0.4,0.2,0.3,0.5
		c-0.1,0.4-0.4,1.2-0.9,2.2c-0.4,0.9-1,1.9-1.8,3h4.5c0.4,0,0.5-0.1,0.8-0.4l1.1,0.4C117.2,81.5,116.8,81.9,116.8,82.3z M119.4,81.3
		c-1.2,0.4-1.3,0.6-1.7,0.2c-0.9-0.8-1.7-2.1-2.4-3.5c-0.5-1.2-0.9-2.6-1.1-3.4c0.4-0.1,0.8,0,0.9,0.2c0.2,0.7,0.6,1.9,1.2,2.7
		c0.9,1.6,1.9,2.7,3.2,3.5C119.5,81.1,119.5,81.3,119.4,81.3z"/>
	<path fill="#72705B" d="M136.2,76.7c0,0.4-0.4,0.6-1,0.6h-7.9c-0.3,0.6-0.6,1.2-1.1,1.9c0.1,0,0.3,0.1,0.3,0.2h5
		c0.4,0,0.6-0.1,0.8-0.4l1.2,0.4c0.8,0.3,0.3,0.7,0.3,1.1V89c0,0.7-0.7,1.4-1.4,0.7c-0.5-0.4-1.2-0.7-1.7-0.9
		c-0.2-0.1-0.1-0.3,0.1-0.3c0.6,0,1.4,0.1,1.7-0.1c0.1,0,0.1-0.1,0.1-0.2v-2.5h-6c-0.1,0.6-0.2,1.1-0.4,1.5
		c-0.4,1.1-1.2,1.9-2.3,2.6c-0.2,0.1-0.4-0.1-0.3-0.3c0.9-1.1,1.5-2.7,1.6-4.4c0-0.6,0-2.9,0-4.5c-1.1,1.3-2.4,2.4-3.7,3.1
		c-0.3,0.1-0.4-0.1-0.2-0.3c1.4-1.2,2.4-2.2,3.7-4.4c0.4-0.5,0.6-1.2,0.9-1.8h-3.9c-0.3,0-0.4-0.2-0.7-0.9h5
		c0.3-0.7,0.5-1.4,0.7-2.3l1,0.5c0.4,0.1,0.4,0.3,0.3,0.6c-0.1,0.4-0.3,0.9-0.4,1.2h6.8c0.4,0,0.5-0.2,0.9-0.6
		C135.9,76.2,136.2,76.4,136.2,76.7z M132.4,84.9v-1.8h-5.8V84c0,0.3,0,0.6,0,0.9L132.4,84.9L132.4,84.9z M126.6,80.3v1.8h5.8v-1.8
		H126.6z"/>
	<path fill="#72705B" d="M142.5,86.1c-0.6,0.1-0.6-0.4-1.4-1c-0.1-0.1,0-0.2,0.1-0.2c1.4,0.2,1.7-0.6,1.7-1.9c-0.1-1.2-0.6-2-1.4-3
		c-0.1-0.1-0.1-0.2,0-0.5c0.5-1.1,0.9-2.2,1.2-3.6h-1.8v13c0,0.9-0.6,1.1-1.3,0.9V74.6l0.9,0.2c0.2,0.1,0.3,0.1,0.3,0.2h1.3
		c0.3,0,0.5-0.1,0.7-0.4l0.9,0.5c0.6,0.3,0.4,0.6,0.3,0.9c-0.6,1.4-1.4,2.8-2.2,3.8C145.5,82.3,144.2,85.9,142.5,86.1z M153.9,88.9
		c-1.3,0.6-1.4,0.9-2.2,0.3c-0.9-0.7-1.7-1.5-2.4-2.6c-1-1.4-1.6-3.1-1.9-4.8h-1v6c0.7-0.3,1.4-0.5,2.4-0.9c0.2-0.1,0.4,0.1,0.1,0.3
		c-1.1,0.8-2.9,1.9-4.2,2.6c-0.3,0.1-0.4,0.2-0.8-0.1l-0.9-0.8l1.9-0.6V74.7l1.1,0.2c0.1,0,0.2,0.1,0.2,0.2h3.2
		c0.3,0,0.5-0.1,0.8-0.4l1.1,0.4c0.7,0.2,0.2,0.7,0.2,1.1v5.4c0,0.7-0.6,0.9-1.3,0.8v-0.6h-2.2c0.3,1.1,0.7,2.1,1.2,3
		c1-0.7,2-1.7,2.7-2.5l0.6,0.7c0.4,0.4,0.4,0.5,0,0.7c-0.6,0.4-1.8,1.1-3,1.6c0.1,0.1,0.1,0.2,0.2,0.3c0.9,1.3,2.3,2.4,3.9,3.2
		C154,88.8,154.1,88.8,153.9,88.9z M146.5,76.1V78h4v-1.9H146.5z M146.5,80.8h4V79h-4V80.8z"/>
	<path fill="#72705B" d="M156.2,83.2c-0.2,0.1-0.4-0.1-0.2-0.4c0.9-0.9,2.2-2.2,3.2-3.9c0.9-1.4,1.3-2.2,1.8-3.6l0.9,0.6
		c0.4,0.2,0.4,0.4,0.2,0.6c-0.5,1.1-1,1.9-2.1,3.2C158.9,81.4,157.3,82.7,156.2,83.2z M168.7,87.9c0.7,1.4-0.5,2.2-1.2,1.1
		c-0.3-0.4-0.6-1-0.9-1.6c-2.4,0.6-6.3,1.4-8.2,1.7c-0.6,0.1-0.7,0-1.4-1.4c0.4,0,1.2-0.1,2.2-0.1c1.3-1.8,3.1-5.8,3.7-7.9l1.2,0.6
		c0.4,0.2,0.4,0.3,0.2,0.6c-0.9,1.8-2.7,5.1-4,6.5c2.1-0.2,4.6-0.5,6.2-0.7c-0.4-0.8-1-1.7-1.5-2.4c-0.1-0.3,0.1-0.4,0.3-0.3
		C167,85.7,168.2,86.9,168.7,87.9z M171.1,82.9c-1.4,0.6-1.6,0.6-1.9,0.3c-0.8-0.6-2.2-2.2-3.3-4.3c-0.7-1.4-1.2-2.9-1.6-4.2
		c0.4-0.1,0.9,0,1,0.2c0.3,0.7,0.8,2.2,1.6,3.5c1.2,1.8,3,3.5,4.2,4.4C171.2,82.7,171.2,82.8,171.1,82.9z"/>
	<path fill="#72705B" d="M182.5,79h-8.2c-0.3,0-0.4-0.1-0.7-0.9h8.4c0.3,0,0.5-0.2,0.9-0.6c0.4,0.4,0.7,0.6,0.7,0.9
		C183.5,78.8,183.1,79,182.5,79z M186.6,76v12.7c0,1-0.8,1.4-1.4,0.9c-0.6-0.5-1.4-0.8-2-0.9c-0.2-0.1-0.2-0.3,0.1-0.3
		c0.6,0,1.7,0,1.9,0c0.1,0,0.1-0.1,0.1-0.2V75.9h-10.4c-0.3,0-0.4-0.2-0.7-0.9h10.2c0.4,0,0.6-0.1,1-0.5l1.2,0.4
		C187.2,75.2,186.6,75.6,186.6,76z M182.1,81.9v4c0,0.7-0.7,0.9-1.4,0.8v-1.1h-3.7v0.9c0,0.7-0.8,1.1-1.4,0.9v-7l1.2,0.2
		c0.1,0,0.2,0.1,0.3,0.2h3c0.3,0,0.4-0.1,0.7-0.4l1.2,0.4C182.6,81,182.1,81.5,182.1,81.9z M180.8,84.7v-2.9h-3.7v2.9H180.8z"/>
</g>
</svg>
