<svg width="56" height="56" viewBox="0 0 56 56" fill="none" xmlns="http://www.w3.org/2000/svg">
	<path d="M28 0C12.536 0 0 12.536 0 28C0 43.464 12.536 56 28 56C43.464 56 56 43.464 56 28C55.9825 12.5433 43.4567 0.0174879 28 0ZM28 54.1333C13.567 54.1333 1.86667 42.433 1.86667 28C1.86667 13.567 13.567 1.86667 28 1.86667C42.433 1.86667 54.1333 13.567 54.1333 28C54.1169 42.4262 42.4262 54.1169 28 54.1333Z" fill="#72705B" />
	<path d="M29.8666 43.8667C29.3512 43.8667 28.9333 44.2846 28.9333 44.8C28.9333 45.3155 28.5154 45.7334 28 45.7334C27.4845 45.7334 27.0666 46.1512 27.0666 46.6667C27.0666 47.1822 27.4845 47.6 28 47.6C29.5464 47.6 30.8 46.3464 30.8 44.8C30.8 44.2846 30.3821 43.8667 29.8666 43.8667Z" fill="#72705B" />
	<path d="M40.1332 35.4667C37.5572 35.4698 35.4697 37.5573 35.4666 40.1333C35.471 40.3892 35.4969 40.6443 35.544 40.8959L33.696 41.6108C32.7018 39.8427 30.9434 38.636 28.936 38.3441V36.3067C31.2833 35.8275 32.8865 33.6488 32.6457 31.2653C32.405 28.8817 30.3984 27.0676 28.0027 27.0676C25.607 27.0676 23.6005 28.8817 23.3597 31.2653C23.1189 33.6488 24.7221 35.8275 27.0694 36.3067V38.3413C25.062 38.6332 23.3037 39.8399 22.3094 41.608L20.4614 40.8931C20.5065 40.6423 20.5306 40.3881 20.5332 40.1333C20.5506 37.7952 18.845 35.8006 16.5325 35.4546C14.22 35.1087 12.0053 36.5169 11.3377 38.7577C10.67 40.9986 11.7528 43.3893 13.8775 44.3654C16.0022 45.3415 18.5214 44.6057 19.7866 42.6393L21.6299 43.3533C21.0253 45.9751 22.0899 48.6994 24.3118 50.2167C26.5337 51.734 29.4586 51.734 31.6806 50.2167C33.9025 48.6994 34.967 45.9751 34.3624 43.3533L36.2058 42.6393C37.4089 44.5294 39.7855 45.2976 41.8673 44.4696C43.9491 43.6415 45.1487 41.4507 44.7249 39.2507C44.3012 37.0507 42.3737 35.4622 40.1332 35.4667ZM15.8666 42.9333C14.3202 42.9333 13.0666 41.6797 13.0666 40.1333C13.0666 38.5869 14.3202 37.3333 15.8666 37.3333C17.413 37.3333 18.6666 38.5869 18.6666 40.1333C18.6666 41.6797 17.413 42.9333 15.8666 42.9333ZM25.1999 31.7333C25.1999 30.1869 26.4535 28.9333 27.9999 28.9333C29.5463 28.9333 30.7999 30.1869 30.7999 31.7333C30.7999 33.2797 29.5463 34.5333 27.9999 34.5333C26.4535 34.5333 25.1999 33.2797 25.1999 31.7333ZM27.9999 49.4667C25.4226 49.4667 23.3332 47.3773 23.3332 44.8C23.3332 42.2227 25.4226 40.1333 27.9999 40.1333C30.5772 40.1333 32.6666 42.2227 32.6666 44.8C32.6635 47.3761 30.576 49.4636 27.9999 49.4667ZM40.1332 42.9333C38.5869 42.9333 37.3332 41.6797 37.3332 40.1333C37.3332 38.5869 38.5869 37.3333 40.1332 37.3333C41.6796 37.3333 42.9333 38.5869 42.9333 40.1333C42.9333 41.6797 41.6796 42.9333 40.1332 42.9333Z" fill="#72705B" />
	<path d="M19.1651 30.5246C19.4813 30.1705 19.4813 29.6355 19.1651 29.2814C19.0531 29.1554 16.3791 26.207 12.9547 26.207C12.768 26.207 12.5944 26.2191 12.4171 26.235L14.5367 24.1154C16.037 25.5352 17.9891 26.3817 20.0508 26.5066C23.4743 26.5066 26.1492 23.5582 26.2622 23.4331C26.5789 23.0789 26.5789 22.5433 26.2622 22.189C26.1502 22.063 23.4743 19.1137 20.0508 19.1137C19.8642 19.1137 19.6906 19.1258 19.5123 19.1417L21.6375 17.0174C23.1384 18.4365 25.0908 19.282 27.1526 19.4058C30.577 19.4058 33.251 16.4565 33.363 16.3258C33.6791 15.9717 33.6791 15.4367 33.363 15.0826C32.3871 14.0498 31.22 13.2161 29.9264 12.6279C32.2252 10.1966 32.0376 6.34755 32.0274 6.18235C32.0002 5.70935 31.623 5.33173 31.15 5.30408C30.9858 5.29755 27.1367 5.10621 24.7044 7.40688C24.1164 6.11296 23.2828 4.94553 22.2498 3.96941C21.8957 3.65326 21.3607 3.65326 21.0066 3.96941C20.8806 4.08234 17.9266 6.75635 17.9266 10.1798C18.0499 12.2405 18.8948 14.192 20.3131 15.6921L18.2 17.8163C18.215 17.6399 18.2271 17.4635 18.2271 17.2825C18.2271 13.8581 15.2787 11.1841 15.1527 11.0721C14.7986 10.7559 14.2636 10.7559 13.9095 11.0721C13.7844 11.1841 10.8351 13.8581 10.8351 17.2825C10.9584 19.3432 11.8033 21.2947 13.2216 22.7947L11.1039 24.9134C11.1198 24.737 11.1319 24.5597 11.1319 24.3786C11.1319 20.9551 8.18257 18.2802 8.05657 18.1682C7.70247 17.8521 7.16747 17.8521 6.81337 18.1682C6.6827 18.2802 3.73337 20.9551 3.73337 24.3786C3.85728 26.4396 4.70246 28.3913 6.12083 29.8918L5.1875 30.8251C4.94488 31.0595 4.84757 31.4065 4.93298 31.7328C5.0184 32.0591 5.27324 32.314 5.59956 32.3994C5.92588 32.4848 6.2729 32.3875 6.50723 32.1449L7.44057 31.2115C8.94127 32.6303 10.8933 33.4758 12.9547 33.5999C16.3791 33.5999 19.0531 30.6506 19.1651 30.5246ZM24.2144 22.8087C23.076 23.8761 21.6069 24.5222 20.0508 24.6399C18.4917 24.5211 17.0194 23.8753 15.876 22.8087C17.0184 21.7411 18.4915 21.0959 20.0508 20.9803C21.6059 21.1001 23.074 21.7448 24.2144 22.8087ZM27.1526 17.5354C25.5939 17.4165 24.122 16.7711 22.9787 15.7051C24.1222 14.6395 25.594 13.9944 27.1526 13.8758C28.7071 13.9961 30.1746 14.6411 31.3143 15.7051C30.1748 16.7697 28.7073 17.4151 27.1526 17.5354ZM25.9019 8.83768C27.0883 7.82199 28.5857 7.24152 30.1467 7.19221C30.0978 8.7521 29.5161 10.2482 28.4984 11.4314C28.2622 11.6634 27.9997 11.867 27.7163 12.0381C27.5296 12.0213 27.343 12.0091 27.1563 12.0091C26.3933 12.0152 25.6369 12.1519 24.92 12.4133C25.1803 11.6974 25.317 10.9424 25.3242 10.1807C25.3242 9.99408 25.312 9.80741 25.2943 9.62075C25.4661 9.33728 25.67 9.07453 25.9019 8.83768ZM21.6282 6.01995C22.6925 7.15915 23.3379 8.62637 23.4584 10.1807C23.3396 11.7391 22.6941 13.2107 21.6282 14.3537C20.5622 13.2107 19.9168 11.7391 19.7979 10.1807C19.9184 8.62637 20.5638 7.15915 21.6282 6.01995ZM14.5283 13.1189C15.5948 14.2575 16.2396 15.7267 16.3558 17.2825C16.2372 18.8407 15.5921 20.3123 14.5264 21.4554C13.4608 20.3123 12.8157 18.8407 12.6971 17.2825C12.8176 15.7271 13.4633 14.2589 14.5283 13.1189ZM7.43497 20.2178C8.4976 21.3577 9.14133 22.8248 9.26057 24.3786C9.14171 25.937 8.49626 27.4086 7.4303 28.5515C6.36434 27.4086 5.71889 25.937 5.60003 24.3786C5.72056 22.8242 6.36597 21.357 7.4303 20.2178H7.43497ZM12.9594 28.0737C14.5139 28.194 15.9814 28.839 17.1211 29.903C15.9804 30.9685 14.511 31.614 12.9547 31.7333C11.3961 31.6144 9.92417 30.969 8.78083 29.903C9.92431 28.8374 11.3962 28.1923 12.9547 28.0737H12.9594Z" fill="#72705B" />
	<path d="M34.9786 13.2048C34.5398 13.4741 34.402 14.048 34.6706 14.4872V14.4937C36.1098 17.0244 36.6568 19.9654 36.2237 22.8443C36.1556 23.3371 36.037 23.8075 35.8438 24.6353C35.6828 25.2893 35.6063 25.9611 35.6161 26.6345C35.749 28.8777 36.8926 30.9395 38.7252 32.2399C40.5578 33.5403 42.8815 33.939 45.0428 33.3237C47.1231 32.8012 48.8397 31.3366 49.6833 29.3645C51.1197 26.0475 50.1593 22.0631 48.8993 19.6579C45.3134 12.8044 35.7757 12.7139 34.9786 13.2048ZM47.252 20.5249C48.4046 22.7257 49.0757 26.0829 47.9753 28.6225C47.3574 30.0785 46.0859 31.1554 44.5481 31.5252C42.9371 31.9887 41.2029 31.6983 39.8309 30.7353C38.4588 29.7722 37.5962 28.2399 37.4846 26.5673C37.4823 26.0519 37.545 25.5383 37.6713 25.0385C37.8496 24.2685 37.9933 23.7029 38.0773 23.1C38.467 20.3331 38.0976 17.5123 37.0086 14.9389C41.2338 15.1639 45.3377 16.8737 47.252 20.5249Z" fill="#72705B" />
	<path d="M43.8341 29.7509C43.9209 29.7506 44.0073 29.7384 44.0907 29.7145C45.3718 29.3605 46.3282 28.2913 46.5379 26.9789C46.7585 25.7085 46.679 24.4041 46.3055 23.17C46.214 22.8492 45.9583 22.6016 45.6347 22.5205C45.3112 22.4394 44.9689 22.537 44.7369 22.7767C44.5048 23.0163 44.4183 23.3616 44.5098 23.6824C44.8019 24.6291 44.8696 25.6309 44.7077 26.6084C44.6341 27.2356 44.1862 27.7549 43.5765 27.9197C43.1279 28.047 42.8421 28.4858 42.9071 28.9476C42.972 29.4093 43.3678 29.7523 43.8341 29.7509Z" fill="#72705B" />
</svg>
