<svg width="56" height="56" viewBox="0 0 56 56" fill="none" xmlns="http://www.w3.org/2000/svg">
<g clip-path="url(#clip0)">
<path d="M42.9107 24.7265C42.9107 22.9536 41.4685 21.5115 39.6957 21.5115H33.787C35.2225 19.8979 36.1608 18.0605 36.342 16.4121C36.4527 15.4053 36.1416 14.406 35.4883 13.6702C34.8913 12.9976 34.0748 12.6228 33.1893 12.6146C33.179 12.6145 33.1687 12.6145 33.1585 12.6145C32.302 12.6145 31.4981 12.9444 30.8914 13.5455C30.2846 14.1467 29.9488 14.9477 29.9449 15.8025C29.9137 15.9896 29.5845 16.6348 28.7789 17.4009C28.1194 18.0282 26.9802 18.8907 25.2981 19.4368C24.6385 19.6509 24.0358 20.0452 23.5066 20.6087C23.2289 20.9043 22.8131 21.3124 22.2983 21.7222C22.0456 21.5883 21.7583 21.5117 21.453 21.5117H15.8413C14.8421 21.5117 14.0292 22.3246 14.0292 23.3238V38.2883C14.0292 39.2876 14.8421 40.1005 15.8413 40.1005H21.453C22.1342 40.1005 22.7282 39.7222 23.0377 39.1652H37.3574C38.8724 39.1652 40.1048 37.9328 40.1048 36.4178C40.1048 35.9084 39.9656 35.4311 39.723 35.0216C40.5124 34.5384 41.0401 33.668 41.0401 32.6766C41.0401 32.1673 40.9009 31.69 40.6583 31.2805C41.4476 30.7972 41.9754 29.9268 41.9754 28.9354C41.9754 28.3621 41.7988 27.8292 41.4973 27.3882C42.3496 26.8093 42.9107 25.8321 42.9107 24.7265ZM39.6957 26.1878H39.228C38.7438 26.1878 38.3511 26.5804 38.3511 27.0647C38.3511 27.5489 38.7437 27.9416 39.228 27.9416C39.7759 27.9416 40.2218 28.3874 40.2218 28.9353C40.2218 29.4833 39.7759 29.9291 39.228 29.9291H38.2927C37.8085 29.9291 37.4158 30.3217 37.4158 30.806C37.4158 31.2902 37.8084 31.6828 38.2927 31.6828C38.8407 31.6828 39.2865 32.1287 39.2865 32.6766C39.2865 33.2246 38.8407 33.6704 38.2927 33.6704H37.3574C36.8732 33.6704 36.4806 34.063 36.4806 34.5473C36.4806 35.0315 36.8731 35.4241 37.3574 35.4241C37.9054 35.4241 38.3512 35.8699 38.3512 36.4179C38.3512 36.9659 37.9054 37.4117 37.3574 37.4117H23.2651V28.9357C23.2651 28.4515 22.8726 28.0588 22.3883 28.0588C21.904 28.0588 21.5114 28.4514 21.5114 28.9357V38.2884C21.5114 38.3207 21.4853 38.3468 21.453 38.3468H15.8413C15.809 38.3468 15.7829 38.3207 15.7829 38.2884V23.3235C15.7829 23.2913 15.809 23.2651 15.8413 23.2651H21.453C21.4853 23.2651 21.5114 23.2913 21.5114 23.3235V25.1942C21.5114 25.6784 21.904 26.071 22.3883 26.071C22.8726 26.071 23.2651 25.6785 23.2651 25.1942V23.3235C23.2651 23.281 23.2616 23.2393 23.2587 23.1975C23.9161 22.6886 24.4419 22.1741 24.7849 21.809C25.1094 21.4633 25.4642 21.2264 25.8395 21.1046C27.9034 20.4346 29.2923 19.3557 30.094 18.5687C31.0987 17.5822 31.6984 16.5539 31.6984 15.8177C31.6984 15.4287 31.8501 15.0642 32.1256 14.7912C32.4045 14.5148 32.7739 14.3688 33.173 14.3682C33.6645 14.3728 33.99 14.6243 34.1767 14.8345C34.4967 15.1949 34.6542 15.7131 34.5986 16.2205C34.407 17.9627 33.0137 20.1163 31.0489 21.7069C30.7603 21.9406 30.6501 22.3308 30.774 22.6809C30.898 23.0311 31.2292 23.2651 31.6006 23.2651H39.6954C40.5013 23.2651 41.1568 23.9206 41.1568 24.7265C41.1568 25.5324 40.5014 26.1878 39.6957 26.1878Z" fill="#72705B"/>
<path d="M18.6472 34.5961C18.163 34.5961 17.7657 34.9933 17.7657 35.4775C17.7657 35.9617 18.163 36.359 18.6472 36.359C19.1314 36.359 19.5287 35.9617 19.5287 35.4775C19.5288 34.9934 19.1315 34.5961 18.6472 34.5961Z" fill="#72705B"/>
<path d="M54.4367 28.0003L55.943 24.0144C56.0527 23.7244 56.001 23.3982 55.8071 23.1561L53.1428 19.8307L53.3436 15.5743C53.3583 15.2648 53.2082 14.9703 52.9492 14.8002L49.3877 12.4608L48.2636 8.35067C48.1818 8.05164 47.9481 7.81801 47.6492 7.73631L43.5391 6.61215L41.1997 3.05079C41.0295 2.79168 40.7351 2.64228 40.4255 2.65639L36.1692 2.8572L32.8438 0.192935C32.6018 -0.00087782 32.2756 -0.0526122 31.9855 0.0569815L27.9996 1.56329L24.0138 0.0570909C23.7237 -0.0526122 23.3975 -0.000877833 23.1556 0.193044L19.8301 2.85731L15.5738 2.6565C15.2627 2.64184 14.9697 2.7919 14.7996 3.0509L12.4603 6.61237L8.35023 7.73653C8.0512 7.81834 7.81757 8.05197 7.73587 8.35089L6.61171 12.461L3.05025 14.8003C2.79114 14.9705 2.64118 15.2649 2.65584 15.5745L2.85665 19.8308L0.192386 23.1562C-0.00142654 23.3982 -0.0531609 23.7244 0.0564328 24.0145L1.56264 28.0003L0.0563235 31.9862C-0.0533797 32.2761 -0.00164529 32.6024 0.192277 32.8444L2.85654 36.1699L2.65573 40.4262C2.64107 40.7357 2.79114 41.0303 3.05014 41.2004L6.6116 43.5398L7.73576 47.6499C7.81757 47.9489 8.0512 48.1825 8.35012 48.2642L12.4602 49.3884L14.7995 52.9499C14.9697 53.209 15.2647 53.3579 15.5737 53.3443L19.83 53.1435L23.1554 55.8077C23.3974 56.0016 23.7238 56.0534 24.0137 55.9437L27.9997 54.4374L31.9856 55.9437C32.0862 55.9816 32.1911 56.0002 32.2955 56.0002C32.4919 56.0002 32.6858 55.9343 32.8438 55.8077L36.1692 53.1435L40.4255 53.3443C40.7361 53.358 41.0295 53.2089 41.1997 52.9499L43.5391 49.3884L47.6492 48.2642C47.9482 48.1824 48.1819 47.9488 48.2636 47.6499L49.3877 43.5398L52.9492 41.2004C53.2083 41.0302 53.3583 40.7357 53.3436 40.4262L53.1428 36.1699L55.8071 32.8444C56.0009 32.6025 56.0526 32.2762 55.943 31.9862L54.4367 28.0003ZM52.6791 28.3103L54.1257 32.1383L51.567 35.332C51.4335 35.4985 51.3653 35.7082 51.3754 35.9215L51.5683 40.0092L48.1481 42.2558C47.9697 42.373 47.84 42.5514 47.7836 42.7574L46.704 46.7047L42.7568 47.7843C42.5508 47.8406 42.3725 47.9702 42.2552 48.1487L40.0085 51.569L35.9208 51.3761C35.7074 51.3662 35.4979 51.4341 35.3313 51.5677L32.1377 54.1264L28.3096 52.6798C28.2098 52.6421 28.1047 52.6233 27.9997 52.6233C27.8947 52.6233 27.7896 52.6422 27.6897 52.6798L23.8617 54.1264L20.668 51.5677C20.5015 51.4341 20.2915 51.3662 20.0785 51.3761L15.9908 51.569L13.7442 48.1487C13.627 47.9703 13.4486 47.8406 13.2426 47.7843L9.29534 46.7047L8.2157 42.7574C8.15937 42.5515 8.02976 42.3732 7.85126 42.2558L4.43099 40.0092L4.62393 35.9215C4.634 35.7081 4.56585 35.4985 4.43231 35.332L1.87359 32.1383L3.32029 28.3103C3.39576 28.1106 3.39576 27.8901 3.32029 27.6904L1.87359 23.8623L4.43231 20.6687C4.56585 20.5021 4.634 20.2925 4.62393 20.0792L4.43099 15.9915L7.85126 13.7448C8.02965 13.6277 8.15937 13.4493 8.2157 13.2432L9.29534 9.296L13.2426 8.21636C13.4485 8.16003 13.6268 8.03042 13.7442 7.85192L15.9908 4.43165L20.0785 4.62459C20.2916 4.63454 20.5015 4.56651 20.668 4.43297L23.8617 1.87425L27.6897 3.32095C27.8895 3.39642 28.1099 3.39642 28.3096 3.32095L32.1377 1.87425L35.3313 4.43297C35.4979 4.56662 35.7077 4.63465 35.9208 4.62459L40.0085 4.43165L42.2552 7.85192C42.3723 8.03031 42.5507 8.16003 42.7568 8.21636L46.704 9.296L47.7836 13.2432C47.84 13.4492 47.9696 13.6275 48.1481 13.7448L51.5683 15.9915L51.3754 20.0792C51.3653 20.2926 51.4335 20.5021 51.567 20.6687L54.1257 23.8623L52.679 27.6904C52.6037 27.8902 52.6037 28.1106 52.6791 28.3103Z" fill="#72705B"/>
<path d="M44.4757 12.8596C44.2575 12.6221 44.0312 12.3858 43.8027 12.1575C43.5742 11.9291 43.3381 11.7027 43.1006 11.4845C42.7439 11.157 42.1892 11.1806 41.8617 11.5374C41.5342 11.8941 41.5578 12.4488 41.9146 12.7763C42.1337 12.9775 42.3518 13.1865 42.5626 13.3973C42.7734 13.6081 42.9824 13.8263 43.1838 14.0455C43.3567 14.2338 43.593 14.3293 43.83 14.3293C44.0418 14.3293 44.2543 14.253 44.4227 14.0984C44.7794 13.7711 44.8032 13.2163 44.4757 12.8596Z" fill="#72705B"/>
<path d="M39.9868 9.0918C35.7584 6.3979 30.6674 5.20068 25.6523 5.71988C20.5636 6.24707 15.7653 8.53322 12.1411 12.1574C8.15248 16.1459 5.83023 21.4445 5.60208 27.077C5.37534 32.6763 7.2299 38.1127 10.8243 42.3845C10.9977 42.5905 11.2457 42.6967 11.4957 42.6967C11.695 42.6967 11.8954 42.6291 12.0598 42.4909C12.4302 42.1791 12.4779 41.6259 12.1662 41.2555C8.85423 37.3192 7.14536 32.3092 7.35426 27.1481C7.56448 21.9569 9.70473 17.0736 13.3809 13.3975C16.7212 10.057 21.1435 7.94993 25.8328 7.46419C30.4567 6.98513 35.1484 8.08862 39.0445 10.5708C39.453 10.831 39.9948 10.7109 40.255 10.3025C40.5153 9.89396 40.3951 9.35201 39.9868 9.0918Z" fill="#72705B"/>
<path d="M46.8685 15.9735C46.6083 15.565 46.066 15.4449 45.6578 15.7051C45.2493 15.9653 45.1293 16.5073 45.3895 16.9156C47.8716 20.8118 48.9749 25.5038 48.4961 30.1273C48.0103 34.8166 45.9032 39.2387 42.5629 42.5793C38.8867 46.2554 34.0033 48.3957 28.8123 48.6059C23.6521 48.8157 18.6411 47.1061 14.7049 43.7942C14.3344 43.4824 13.7813 43.5301 13.4695 43.9006C13.1577 44.2711 13.2054 44.8242 13.5759 45.136C17.6141 48.5338 22.6924 50.377 27.9659 50.3768C28.271 50.3768 28.5772 50.3706 28.8835 50.3582C34.516 50.1302 39.8144 47.8079 43.8031 43.8194C47.4274 40.1951 49.7136 35.3967 50.2406 30.3081C50.7599 25.2926 49.5624 20.2018 46.8685 15.9735Z" fill="#72705B"/>
</g>
<defs>
<clipPath id="clip0">
<rect width="56" height="56" fill="white"/>
</clipPath>
</defs>
</svg>
