<svg width="57" height="56" viewBox="0 0 57 56" fill="none" xmlns="http://www.w3.org/2000/svg">
<path d="M39.515 11.0623C39.3773 11.1082 36.1367 12.2282 36.1367 15.6066C36.1367 16.1136 36.5477 16.5246 37.0547 16.5246C37.5617 16.5246 37.9727 16.1136 37.9727 15.6066C38.0668 14.3448 38.905 13.2609 40.1026 12.8525C40.5842 12.6902 40.8432 12.1682 40.6809 11.6866C40.5187 11.2049 39.9967 10.946 39.515 11.1082V11.0623Z" fill="#72705B"/>
<path d="M55.4153 5.96724C55.4171 4.24797 54.3517 2.70812 52.7421 2.10383C51.1325 1.49954 49.3169 1.95774 48.1869 3.25343C47.0568 4.54913 46.8496 6.41015 47.6671 7.92265L46.0513 9.2997C43.1218 6.82633 38.8756 6.69328 35.7969 8.97839L34.5484 7.86757C35.7991 5.86689 35.3293 3.24391 33.4619 1.80169C31.5946 0.359457 28.9381 0.567774 27.3184 2.28344C25.6987 3.9991 25.6435 6.66324 27.1907 8.44453C28.738 10.2258 31.3836 10.544 33.309 9.18036L34.4474 10.1994C29.1687 16.4053 35.1543 25.8059 43.0677 23.4833L44.2336 25.0807C42.9132 27.4858 43.406 30.4816 45.4272 32.3371C47.4484 34.1925 50.4754 34.4278 52.759 32.9069C55.0426 31.386 55.9923 28.5023 55.0594 25.9221C54.1264 23.3418 51.552 21.7323 48.8238 22.0236L47.5294 20.2426C49.5327 17.3154 49.4441 13.436 47.309 10.6033L48.8605 9.27216C50.1118 10.1788 51.7645 10.3112 53.1442 9.61557C54.524 8.9199 55.4001 7.51238 55.4153 5.96724ZM51.2841 3.67216C52.2284 3.6546 53.087 4.21723 53.4478 5.08997C53.8086 5.96272 53.598 6.9674 52.917 7.62174C52.236 8.27608 51.2238 8.4465 50.3661 8.05118L51.4494 7.13314C51.8347 6.80358 51.8799 6.22405 51.5504 5.83872C51.2208 5.45339 50.6413 5.40817 50.2559 5.73773L49.1451 6.65577C48.92 5.96661 49.0365 5.21142 49.4589 4.6222C49.8814 4.03297 50.5592 3.68017 51.2841 3.67216ZM27.8743 5.50823C27.87 4.38409 28.5493 3.37014 29.5905 2.94652C30.6318 2.5229 31.826 2.77465 32.6077 3.58255C33.3893 4.39044 33.6016 5.59232 33.1438 6.61905L32.1523 5.70101C31.7696 5.39274 31.212 5.44056 30.8873 5.8095C30.5626 6.17844 30.5861 6.73762 30.9405 7.07806L31.8586 7.91347C31.0141 8.3353 30.0125 8.2953 29.2044 7.80747C28.3963 7.31963 27.8944 6.45194 27.8743 5.50823ZM34.3005 15.6066C34.2961 12.9215 35.9615 10.5167 38.4766 9.57654C40.9917 8.63636 43.8262 9.35901 45.5842 11.3886C47.3421 13.4182 47.6529 16.3268 46.3635 18.682C45.4377 17.5518 43.7904 17.3412 42.6101 18.2021C41.4297 19.063 41.1269 20.6958 41.9202 21.9226C40.0399 22.278 38.099 21.7769 36.6257 20.5557C35.1524 19.3345 34.3 17.5202 34.3005 15.6066ZM53.5792 28C53.5792 30.2816 51.7296 32.1312 49.4481 32.1312C47.1665 32.1312 45.3169 30.2816 45.3169 28C45.3169 25.7185 47.1665 23.8689 49.4481 23.8689C51.7275 23.8739 53.5742 25.7205 53.5792 28ZM45.4087 23.621L43.4809 20.9404C43.2857 20.673 43.248 20.3219 43.3819 20.0193C43.5158 19.7166 43.801 19.5084 44.1301 19.4731C44.4592 19.4377 44.7821 19.5806 44.9772 19.8479L46.9694 22.602C46.3976 22.8553 45.8706 23.1994 45.4087 23.621Z" fill="#72705B"/>
<path d="M37.9727 33.9672H35.8153C36.4575 32.6207 36.0855 31.0091 34.918 30.0804C33.7505 29.1517 32.0965 29.1517 30.929 30.0804C29.7614 31.0091 29.3894 32.6207 30.0317 33.9672H27.8743C26.3532 33.8556 25.0298 34.9983 24.9182 36.5193C24.8067 38.0404 25.9493 39.3638 27.4704 39.4754C24.9127 42.2831 20.9959 43.4183 17.3332 42.4134C13.6705 41.4085 10.8814 38.4334 10.1147 34.7136C9.34791 30.9938 10.7332 27.1583 13.6999 24.7869C13.8344 24.7948 13.9693 24.7948 14.1038 24.7869C15.097 24.7869 16.0634 24.4647 16.8579 23.8688L17.9871 24.9888C17.8197 25.6178 17.9978 26.2884 18.4553 26.7514L19.7497 28.0551C20.0941 28.3998 20.5614 28.5935 21.0487 28.5935C21.536 28.5935 22.0033 28.3998 22.3477 28.0551L22.9995 27.4033L24.8999 29.377C25.2443 29.7218 25.7116 29.9155 26.1989 29.9155C26.6862 29.9155 27.1535 29.7218 27.4979 29.377L30.0868 26.779C30.4315 26.4346 30.6252 25.9673 30.6252 25.48C30.6252 24.9927 30.4315 24.5253 30.0868 24.181L28.1405 22.2347L28.7923 21.5921C29.1371 21.2477 29.3308 20.7804 29.3308 20.2931C29.3308 19.8058 29.1371 19.3385 28.7923 18.9941L27.4979 17.6905C27.033 17.2297 26.3579 17.0514 25.7261 17.2223L12.5615 4.03931C12.2171 3.69454 11.7498 3.50082 11.2625 3.50082C10.7752 3.50082 10.3079 3.69454 9.96347 4.03931L7.37462 1.45964C7.03023 1.11487 6.56291 0.921143 6.0756 0.921143C5.5883 0.921143 5.12098 1.11487 4.77659 1.45964L2.16938 4.04849C1.8246 4.39288 1.63088 4.8602 1.63088 5.34751C1.63088 5.83482 1.8246 6.30214 2.16938 6.64652L4.77659 9.24456C4.43182 9.58894 4.2381 10.0563 4.2381 10.5436C4.2381 11.0309 4.43182 11.4982 4.77659 11.8426L10.4317 17.4885C9.91547 18.1587 9.59743 18.9601 9.51364 19.8019C5.45715 23.4321 3.44877 28.8273 4.14406 34.2263C4.83935 39.6254 8.14911 44.3357 12.993 46.8197H8.5956C5.55351 46.8197 3.08741 49.2858 3.08741 52.3279V54.1639H2.16938C1.66236 54.1639 1.25134 54.5749 1.25134 55.082C1.25134 55.589 1.66236 56 2.16938 56H38.8907C39.3977 56 39.8087 55.589 39.8087 55.082C39.8087 54.5749 39.3977 54.1639 38.8907 54.1639H37.9727V52.3279C37.9727 49.2858 35.5065 46.8197 32.4645 46.8197H28.0671C31.2094 45.2124 33.752 42.6377 35.3195 39.4754H37.9727C39.4937 39.4754 40.7267 38.2423 40.7267 36.7213C40.7267 35.2002 39.4937 33.9672 37.9727 33.9672ZM31.5464 32.5901C31.5464 31.8296 32.1629 31.2131 32.9235 31.2131C33.684 31.2131 34.3005 31.8296 34.3005 32.5901C34.3005 33.3507 33.684 33.9672 32.9235 33.9672C32.1629 33.9672 31.5464 33.3507 31.5464 32.5901ZM14.1038 17.4426C15.6248 17.4426 16.8579 18.6756 16.8579 20.1967C16.8579 21.7177 15.6248 22.9508 14.1038 22.9508C12.5828 22.9508 11.3497 21.7177 11.3497 20.1967C11.3497 18.6756 12.5828 17.4426 14.1038 17.4426ZM28.7923 25.4754L26.1943 28.0734L24.2481 26.1272L26.8461 23.5292L28.7923 25.4754ZM27.4979 20.2793L20.9982 26.7698L19.7038 25.4754L26.1943 18.9849L27.4979 20.2793ZM3.47298 5.3521L6.07101 2.75406L8.66905 5.3521L6.07101 7.95013L3.47298 5.3521ZM11.2671 5.3521L24.2481 18.3606L19.052 23.5567L18.0422 22.5469C19.0664 20.7501 18.7626 18.4903 17.3002 17.0278C15.8378 15.5654 13.5779 15.2616 11.7812 16.2859L6.07101 10.5482C14.5812 2.04718 9.51364 7.078 11.2671 5.3521ZM32.4645 48.6557C34.4925 48.6557 36.1366 50.2998 36.1366 52.3279V54.1639H4.92347V52.3279C4.92347 50.2998 6.56754 48.6557 8.5956 48.6557H32.4645ZM20.53 46.8197C14.667 46.8091 9.37177 43.3128 7.05906 37.9251C4.74636 32.5374 5.85916 26.2904 9.89003 22.0328C10.2722 22.9003 10.9136 23.6283 11.7261 24.1167C8.55423 27.3029 7.44207 32.0012 8.84897 36.2713C10.2559 40.5413 13.943 43.6584 18.3877 44.3351C22.8323 45.0118 27.28 43.1332 29.894 39.4754H33.2356C30.6144 44.0154 25.7724 46.8143 20.53 46.8197ZM37.9727 37.6393H27.8743C27.3673 37.6393 26.9563 37.2283 26.9563 36.7213C26.9563 36.2143 27.3673 35.8033 27.8743 35.8033H37.9727C38.4797 35.8033 38.8907 36.2143 38.8907 36.7213C38.8907 37.2283 38.4797 37.6393 37.9727 37.6393Z" fill="#72705B"/>
</svg>
