<svg width="57" height="56" viewBox="0 0 57 56" fill="none" xmlns="http://www.w3.org/2000/svg">
<path d="M55.5467 24.08C55.2555 24.08 54.9643 23.9568 54.7515 23.7552C54.5499 23.5424 54.4267 23.2512 54.4267 22.96C54.4267 22.6688 54.5499 22.3776 54.7515 22.1648C55.1771 21.7504 55.9275 21.7504 56.3419 22.1648C56.5435 22.3776 56.6667 22.6688 56.6667 22.96C56.6667 23.2624 56.5435 23.5424 56.3419 23.7552C56.1291 23.9568 55.8379 24.08 55.5467 24.08Z" fill="#72705B"/>
<path d="M17.4667 44.24C17.1755 44.24 16.8843 44.1168 16.6715 43.9152C16.4699 43.7024 16.3467 43.4112 16.3467 43.12C16.3467 42.8288 16.4699 42.5376 16.6715 42.3248C17.0971 41.9104 17.8363 41.9104 18.2619 42.3248C18.4635 42.5376 18.5867 42.8288 18.5867 43.12C18.5867 43.4112 18.4635 43.7024 18.2619 43.9152C18.0491 44.1168 17.7579 44.24 17.4667 44.24Z" fill="#72705B"/>
<path d="M55.5467 33.0399C54.9285 33.0399 54.4267 32.5382 54.4267 31.9199V27.4399C54.4267 26.8217 54.9285 26.3199 55.5467 26.3199C56.1649 26.3199 56.6667 26.8217 56.6667 27.4399V31.9199C56.6667 32.5382 56.1649 33.0399 55.5467 33.0399Z" fill="#72705B"/>
<path d="M55.5467 19.6C54.9285 19.6 54.4267 19.0982 54.4267 18.48V5.59998C54.4267 4.98174 54.9285 4.47998 55.5467 4.47998C56.1649 4.47998 56.6667 4.98174 56.6667 5.59998V18.48C56.6667 19.0982 56.1649 19.6 55.5467 19.6Z" fill="#72705B"/>
<path d="M17.4667 39.76C16.8484 39.76 16.3467 39.2583 16.3467 38.64V25.415C16.3467 24.7968 16.8484 24.295 17.4667 24.295C18.0849 24.295 18.5867 24.7968 18.5867 25.415V38.64C18.5867 39.2583 18.0849 39.76 17.4667 39.76Z" fill="#72705B"/>
<path d="M17.4667 53.2C16.8484 53.2 16.3467 52.6982 16.3467 52.08V47.6C16.3467 46.9817 16.8484 46.48 17.4667 46.48C18.0849 46.48 18.5867 46.9817 18.5867 47.6V52.08C18.5867 52.6982 18.0849 53.2 17.4667 53.2Z" fill="#72705B"/>
<path d="M32.1712 52.649C31.553 52.649 31.0512 52.1472 31.0512 51.529V34.16C31.0512 33.5418 31.553 33.04 32.1712 33.04C32.7894 33.04 33.2912 33.5418 33.2912 34.16V51.529C33.2912 52.1472 32.7906 52.649 32.1712 52.649Z" fill="#72705B"/>
<path d="M53.3067 35.28C52.6885 35.28 52.1867 34.7783 52.1867 34.16C52.1867 33.5418 52.6885 33.04 53.3067 33.04C53.9238 33.04 54.4267 32.5372 54.4267 31.92C54.4267 31.3018 54.9285 30.8 55.5467 30.8C56.1649 30.8 56.6667 31.3018 56.6667 31.92C56.6667 33.7725 55.1592 35.28 53.3067 35.28Z" fill="#72705B"/>
<path d="M53.3067 35.28H17.4667C16.8484 35.28 16.3467 34.7783 16.3467 34.16C16.3467 33.5418 16.8484 33.04 17.4667 33.04H53.3067C53.9249 33.04 54.4267 33.5418 54.4267 34.16C54.4267 34.7783 53.9249 35.28 53.3067 35.28Z" fill="#72705B"/>
<path d="M48.8267 15.6799H32.4343C31.8161 15.6799 31.3143 15.1782 31.3143 14.5599C31.3143 13.9417 31.8161 13.4399 32.4343 13.4399H48.8267C49.4449 13.4399 49.9467 13.9417 49.9467 14.5599C49.9467 15.1782 49.4449 15.6799 48.8267 15.6799Z" fill="#72705B"/>
<path d="M48.8267 20.16H33.6899C33.0716 20.16 32.5699 19.6583 32.5699 19.04C32.5699 18.4218 33.0716 17.92 33.6899 17.92H48.8267C49.4449 17.92 49.9467 18.4218 49.9467 19.04C49.9467 19.6583 49.4449 20.16 48.8267 20.16Z" fill="#72705B"/>
<path d="M48.8267 24.64H31.4611C30.8429 24.64 30.3411 24.1383 30.3411 23.52C30.3411 22.9018 30.8429 22.4 31.4611 22.4H48.8267C49.445 22.4 49.9467 22.9018 49.9467 23.52C49.9467 24.1383 49.445 24.64 48.8267 24.64Z" fill="#72705B"/>
<path d="M44.3467 11.2H23.0667C22.4484 11.2 21.9467 10.6982 21.9467 10.08C21.9467 9.46172 22.4484 8.95996 23.0667 8.95996H44.3467C44.9649 8.95996 45.4667 9.46172 45.4667 10.08C45.4667 10.6982 44.9649 11.2 44.3467 11.2Z" fill="#72705B"/>
<path d="M33.7067 4.48C33.0884 4.48 32.5867 3.97824 32.5867 3.36V1.12C32.5867 0.50176 33.0884 0 33.7067 0C34.3249 0 34.8267 0.50176 34.8267 1.12V3.36C34.8267 3.97824 34.3249 4.48 33.7067 4.48Z" fill="#72705B"/>
<path d="M11.8667 11.1955C11.2485 11.1955 10.7467 10.6937 10.7467 10.0755V5.59998C10.7467 4.98174 11.2485 4.47998 11.8667 4.47998C12.4849 4.47998 12.9867 4.98174 12.9867 5.59998V10.0755C12.9867 10.6937 12.4849 11.1955 11.8667 11.1955Z" fill="#72705B"/>
<path d="M11.8667 6.71999C11.2485 6.71999 10.7467 6.21823 10.7467 5.59999C10.7467 3.74751 12.2542 2.23999 14.1067 2.23999C14.7249 2.23999 15.2267 2.74175 15.2267 3.35999C15.2267 3.97823 14.7249 4.47999 14.1067 4.47999C13.4896 4.47999 12.9867 4.98287 12.9867 5.59999C12.9867 6.21823 12.4849 6.71999 11.8667 6.71999Z" fill="#72705B"/>
<path d="M53.3067 4.47999H14.1067C13.4885 4.47999 12.9867 3.97823 12.9867 3.35999C12.9867 2.74175 13.4885 2.23999 14.1067 2.23999H53.3067C53.9249 2.23999 54.4267 2.74175 54.4267 3.35999C54.4267 3.97823 53.9249 4.47999 53.3067 4.47999Z" fill="#72705B"/>
<path d="M55.5467 6.71999C54.9285 6.71999 54.4267 6.21823 54.4267 5.59999C54.4267 4.98287 53.9238 4.47999 53.3067 4.47999C52.6885 4.47999 52.1867 3.97823 52.1867 3.35999C52.1867 2.74175 52.6885 2.23999 53.3067 2.23999C55.1592 2.23999 56.6667 3.74751 56.6667 5.59999C56.6667 6.21823 56.1649 6.71999 55.5467 6.71999Z" fill="#72705B"/>
<path d="M4.96751 23.0743C4.49375 23.0743 4.05246 22.7708 3.90126 22.2936C3.7131 21.7045 4.03902 21.074 4.62814 20.8869C8.24015 19.7344 12.1165 19.5071 15.8394 20.2306C16.4464 20.3482 16.8429 20.9362 16.7264 21.5432C16.6088 22.1503 16.023 22.5423 15.4138 22.4303C12.0571 21.7773 8.56383 21.9834 5.30911 23.0216C5.19487 23.0564 5.08063 23.0743 4.96751 23.0743Z" fill="#72705B"/>
<path d="M15.6265 22.4493C15.2054 22.4493 14.801 22.2107 14.6106 21.8019C14.3497 21.2419 14.5916 20.5755 15.1527 20.3135L25.571 15.456C26.1287 15.194 26.7985 15.4359 27.0594 15.9981C27.3204 16.5581 27.0785 17.2245 26.5174 17.4866L16.0991 22.344C15.9468 22.4168 15.7855 22.4493 15.6265 22.4493Z" fill="#72705B"/>
<path d="M27.9387 21.6519C27.5176 21.6519 27.1133 21.4133 26.9229 21.0056C26.6619 20.4456 26.9038 19.7781 27.4638 19.5171C28.3665 19.096 28.0182 18.2291 27.9387 18.06C27.8603 17.8909 27.4246 17.0688 26.5163 17.4877C25.9574 17.7498 25.2888 17.5079 25.0278 16.9456C24.7669 16.3856 25.0088 15.7192 25.5699 15.4571C27.5232 14.5443 29.2625 15.5994 29.9681 17.1136C30.6737 18.6267 30.3646 20.636 28.4102 21.5477C28.259 21.6183 28.0977 21.6519 27.9387 21.6519Z" fill="#72705B"/>
<path d="M17.4667 26.5351C17.0456 26.5351 16.6413 26.2965 16.4509 25.8888C16.1899 25.3277 16.4318 24.6613 16.9918 24.4003L27.4638 19.5172C28.0238 19.254 28.6914 19.4981 28.9523 20.0581C29.2133 20.6192 28.9714 21.2856 28.4114 21.5466L17.9394 26.4298C17.787 26.5015 17.6258 26.5351 17.4667 26.5351Z" fill="#72705B"/>
<path d="M21.688 55.9999C21.3755 55.9999 21.0642 55.87 20.8435 55.6158C20.437 55.1487 20.4862 54.442 20.9522 54.0355L31.4365 44.903C31.9035 44.4964 32.6103 44.5457 33.0168 45.0116C33.4234 45.4787 33.3741 46.1854 32.9082 46.5919L22.4239 55.7244C22.2111 55.9092 21.949 55.9999 21.688 55.9999Z" fill="#72705B"/>
<path d="M42.6555 55.9999C42.3946 55.9999 42.1325 55.9092 41.9208 55.7244L31.4365 46.5919C30.9695 46.1854 30.9213 45.4787 31.3279 45.0116C31.7333 44.5457 32.4411 44.4964 32.9082 44.903L43.3925 54.0355C43.8595 54.442 43.9077 55.1487 43.5011 55.6158C43.2794 55.87 42.9691 55.9999 42.6555 55.9999Z" fill="#72705B"/>
<path d="M1.78669 38.9156C1.16845 38.9156 0.666687 38.4139 0.666687 37.7956V26.2417C0.666687 25.6235 1.16845 25.1217 1.78669 25.1217C2.40493 25.1217 2.90669 25.6235 2.90669 26.2417V37.7956C2.90669 38.4139 2.40493 38.9156 1.78669 38.9156Z" fill="#72705B"/>
<path d="M1.78669 27.3617C1.16845 27.3617 0.666687 26.8599 0.666687 26.2417C0.666687 23.7564 2.26493 21.6026 4.64381 20.8814C5.23517 20.701 5.86125 21.037 6.04045 21.6284C6.21965 22.2209 5.88477 22.8458 5.29341 23.025C3.86541 23.4585 2.90669 24.751 2.90669 26.2417C2.90669 26.8599 2.40493 27.3617 1.78669 27.3617Z" fill="#72705B"/>
<path d="M6.26667 53.2001C5.64843 53.2001 5.14667 52.6984 5.14667 52.0801V27.4569C5.14667 26.8387 5.64843 26.3369 6.26667 26.3369C6.88491 26.3369 7.38667 26.8387 7.38667 27.4569V52.0801C7.38667 52.6984 6.88491 53.2001 6.26667 53.2001Z" fill="#72705B"/>
<path d="M11.8666 22.0516C8.31735 22.0516 5.31799 19.0523 5.31799 15.503C5.31799 11.9537 8.31735 8.95435 11.8666 8.95435C15.4159 8.95435 18.4153 11.9526 18.4153 15.503C18.4153 19.0534 15.4159 22.0516 11.8666 22.0516ZM11.8666 11.1955C9.53143 11.1955 7.55799 13.1689 7.55799 15.5041C7.55799 17.8393 9.53143 19.8127 11.8666 19.8127C14.2018 19.8127 16.1753 17.8393 16.1753 15.5041C16.1753 13.1678 14.2018 11.1955 11.8666 11.1955Z" fill="#72705B"/>
<path d="M11.8667 53.1999C11.2485 53.1999 10.7467 52.6981 10.7467 52.0799V37.7954C10.7467 37.1772 11.2485 36.6754 11.8667 36.6754C12.4849 36.6754 12.9867 37.1772 12.9867 37.7954V52.0799C12.9867 52.6981 12.4849 53.1999 11.8667 53.1999Z" fill="#72705B"/>
<path d="M4.02669 41.0826C2.35677 41.0826 0.666687 39.9537 0.666687 37.7954C0.666687 37.1772 1.16845 36.6754 1.78669 36.6754C2.40493 36.6754 2.90669 37.1772 2.90669 37.7954C2.90669 38.7922 3.83965 38.8426 4.02669 38.8426C4.21373 38.8426 5.14669 38.7922 5.14669 37.7954C5.14669 37.1772 5.64845 36.6754 6.26669 36.6754C6.88493 36.6754 7.38669 37.1772 7.38669 37.7954C7.38669 39.9537 5.69661 41.0826 4.02669 41.0826Z" fill="#72705B"/>
<path d="M14.6667 55.9081C13.6654 55.9081 12.7224 55.5721 12.0112 54.9606C11.1958 54.2595 10.7467 53.2358 10.7467 52.08C10.7467 51.4617 11.2485 50.96 11.8667 50.96C12.4849 50.96 12.9867 51.4617 12.9867 52.08C12.9867 53.6233 14.4953 53.6681 14.6667 53.6681C14.8381 53.6681 16.3467 53.6233 16.3467 52.08C16.3467 51.4617 16.8485 50.96 17.4667 50.96C18.0849 50.96 18.5867 51.4617 18.5867 52.08C18.5867 54.5932 16.6144 55.9081 14.6667 55.9081Z" fill="#72705B"/>
<path d="M9.06667 55.9081C8.06539 55.9081 7.12235 55.5721 6.41115 54.9606C5.59579 54.2595 5.14667 53.2358 5.14667 52.08C5.14667 51.4617 5.64843 50.96 6.26667 50.96C6.88491 50.96 7.38667 51.4617 7.38667 52.08C7.38667 53.6233 8.89531 53.6681 9.06667 53.6681C9.23803 53.6681 10.7467 53.6233 10.7467 52.08C10.7467 51.4617 11.2484 50.96 11.8667 50.96C12.4849 50.96 12.9867 51.4617 12.9867 52.08C12.9867 54.5932 11.0143 55.9081 9.06667 55.9081Z" fill="#72705B"/>
</svg>
